<?xml version="1.0" encoding="UTF-8" standalone="no"?>
<!-- Created with Inkscape (http://www.inkscape.org/) -->

<svg
   xmlns:dc="http://purl.org/dc/elements/1.1/"
   xmlns:cc="http://creativecommons.org/ns#"
   xmlns:rdf="http://www.w3.org/1999/02/22-rdf-syntax-ns#"
   xmlns:svg="http://www.w3.org/2000/svg"
   xmlns="http://www.w3.org/2000/svg"
   xmlns:sodipodi="http://sodipodi.sourceforge.net/DTD/sodipodi-0.dtd"
   xmlns:inkscape="http://www.inkscape.org/namespaces/inkscape"
   width="512mm"
   height="512mm"
   viewBox="0 0 1814.1732 1814.1732"
   id="svg2"
   version="1.1"
   inkscape:version="0.91 r13725"
   sodipodi:docname="reverse.svg">
  <defs
     id="defs4" />
  <sodipodi:namedview
     id="base"
     pagecolor="#ffffff"
     bordercolor="#666666"
     borderopacity="1.0"
     inkscape:pageopacity="0.0"
     inkscape:pageshadow="2"
     inkscape:zoom="0.24748737"
     inkscape:cx="1185.0641"
     inkscape:cy="277.93479"
     inkscape:document-units="px"
     inkscape:current-layer="layer1"
     showgrid="false"
     inkscape:window-width="1920"
     inkscape:window-height="1056"
     inkscape:window-x="2560"
     inkscape:window-y="384"
     inkscape:window-maximized="1" />
  <metadata
     id="metadata7">
    <rdf:RDF>
      <cc:Work
         rdf:about="">
        <dc:format>image/svg+xml</dc:format>
        <dc:type
           rdf:resource="http://purl.org/dc/dcmitype/StillImage" />
        <dc:title></dc:title>
      </cc:Work>
    </rdf:RDF>
  </metadata>
  <g
     inkscape:label="Layer 1"
     inkscape:groupmode="layer"
     id="layer1"
     transform="translate(0,761.81102)">
    <path
       style="fill:#000000"
       d="M 429.4996,940.81776 C 410.84018,932.9487 397.73673,920.86495 301.733,822.99386 242.89674,763.01333 162.26176,683.74808 122.54362,646.84896 82.825855,609.94984 41.976977,571.04512 31.768527,560.394 -15.86069,510.69946 -10.265096,453.57928 47.865166,396.08583 60.901052,383.19292 101.82922,350.06446 138.81657,322.46696 208.00929,270.84041 290.80232,205.07285 365.34372,142.52263 421.78258,95.163054 437.54887,87.398458 476.83773,87.614793 c 25.70479,0.141584 33.16659,1.651954 51.24535,10.372713 25.6946,12.394624 50.47553,36.427154 62.12772,60.251354 16.18461,33.09074 10.3032,78.41324 -13.72453,105.76832 -3.21858,3.66449 -39.92541,34.72351 -81.57016,69.01999 l -75.71783,62.35729 142.96808,1.19675 c 78.63247,0.65821 320.56196,-0.93458 537.62104,-3.53949 217.0591,-2.60491 446.4177,-4.73623 509.686,-4.73623 104.3536,0 116.6446,0.62152 132.3893,6.69448 52.373,20.20075 80.0815,80.14395 64.3541,139.21988 -2.7077,10.17107 -8.3649,24.06171 -12.5715,30.8681 -12.3072,19.91321 -38.2623,40.48294 -58.2118,46.13298 -22.0056,6.23243 -364.4249,11.7275 -930.14689,14.92673 l -370.59916,2.09583 58.23711,60.15961 c 63.86027,65.96836 77.00262,83.17714 85.28747,111.67528 10.99638,37.82595 -3.96121,83.97934 -37.26183,114.97611 -34.64317,32.24629 -74.32582,41.41943 -111.4506,25.76327 z m 889.7359,-688.55288 c -62.0287,-18.93669 -103.9465,-88.78128 -87.3549,-145.55389 8.2799,-28.331326 19.0691,-42.522505 83.1416,-109.3556631 31.5182,-32.8760799 57.3057,-60.8924199 57.3057,-62.2585399 0,-1.36615 -41.8102,-1.37113 -92.9117,-0.0117 -51.1015,1.35965 -229.0933,0.68543 -395.5375,-1.49859 -166.4446,-2.1841 -413.3237,-5.32908 -548.62043,-6.98885 -236.6665,-2.90344 -246.732618,-3.29715 -265.461505,-10.3839 C 42.588976,-94.081073 25.89656,-109.14113 13.274093,-134.7814 -16.866469,-196.00583 4.7646036,-267.41673 61.958552,-295.50259 l 20.226227,-9.93235 127.421531,0.75747 c 70.08183,0.41662 271.56716,2.53714 447.74524,4.7123 176.1777,2.17515 413.11615,3.42706 526.52905,2.78202 l 206.2058,-1.17281 -72.7783,-59.82865 c -40.0285,-32.90578 -78.2149,-66.17987 -84.8593,-73.94239 -44.0207,-51.42826 -19.3828,-129.64496 51.3919,-163.14937 19.8275,-9.3863 26.9193,-10.87674 51.3223,-10.78613 36.534,0.13553 51.2232,7.54494 106.9832,53.96318 76.7707,63.90856 168.5048,136.55637 238.744,189.07039 101.3819,75.79734 128.2971,109.37504 128.4443,160.2391 0.1135,38.90453 -8.506,51.16158 -86.4046,122.875497 -36.1205,33.25286 -124.6062,119.68588 -196.6346,192.073383 -116.6011,117.18249 -132.8737,132.2607 -148.404,137.51417 -18.1279,6.13209 -43.3995,7.24823 -58.6558,2.5906 z"
       id="path4147"
       inkscape:connector-curvature="0" />
  </g>
</svg>
