<?xml version="1.0" encoding="UTF-8" standalone="no"?>
<svg
   class="svg-icon"
   style="width: 1em; height: 1em;vertical-align: middle;fill: currentColor;overflow: hidden;"
   viewBox="0 0 1024 1024"
   version="1.1"
   id="svg4"
   sodipodi:docname="fileopen.svg"
   inkscape:version="1.1.2 (0a00cf5339, 2022-02-04)"
   xmlns:inkscape="http://www.inkscape.org/namespaces/inkscape"
   xmlns:sodipodi="http://sodipodi.sourceforge.net/DTD/sodipodi-0.dtd"
   xmlns="http://www.w3.org/2000/svg"
   xmlns:svg="http://www.w3.org/2000/svg">
  <defs
     id="defs8" />
  <sodipodi:namedview
     id="namedview6"
     pagecolor="#ffffff"
     bordercolor="#666666"
     borderopacity="1.0"
     inkscape:pageshadow="2"
     inkscape:pageopacity="0.0"
     inkscape:pagecheckerboard="0"
     showgrid="false"
     showguides="false"
     inkscape:zoom="0.85253906"
     inkscape:cx="511.41352"
     inkscape:cy="511.41352"
     inkscape:window-width="2560"
     inkscape:window-height="1403"
     inkscape:window-x="2560"
     inkscape:window-y="0"
     inkscape:window-maximized="1"
     inkscape:current-layer="svg4" />
  <path
     d="M257.3312 451.84V332.8c0-42.3936 34.2016-76.8 76.4416-76.8h107.8272c29.5936 0 56.5248 17.152 69.12 44.032l14.8992 31.6416a25.4976 25.4976 0 0 0 23.04 14.6944h192.8192c42.1888 0 76.4416 34.3552 76.4416 76.8v28.672a76.8 76.8 0 0 1 50.9952 88.064l-43.3152 217.6A76.544 76.544 0 0 1 750.6432 819.2H324.5568a76.544 76.544 0 0 1-74.9568-61.7472l-43.3152-217.6a76.8512 76.8512 0 0 1 51.0464-88.0128z m509.5936-3.84v-24.832c0-14.1312-11.4176-25.6-25.4464-25.6h-192.8192a76.4416 76.4416 0 0 1-69.12-44.032l-14.848-31.6928A25.4976 25.4976 0 0 0 441.6 307.2H333.7216a25.5488 25.5488 0 0 0-25.4976 25.6v115.2h458.6496z m-485.6832 51.2a25.6 25.6 0 0 0-24.9856 30.6176l43.3152 217.6c2.4064 11.9808 12.8512 20.5824 24.9856 20.5824h426.0864a25.4976 25.4976 0 0 0 24.9856-20.5824l43.3152-217.6a25.7024 25.7024 0 0 0-24.9856-30.6176H281.2416z"
     id="path2"
     style="stroke:none;stroke-opacity:1;fill:#ffffff;fill-opacity:1" />
</svg>
