<?xml version="1.0" encoding="UTF-8" standalone="no"?>
<!-- Created with Inkscape (http://www.inkscape.org/) -->

<svg
   xmlns:dc="http://purl.org/dc/elements/1.1/"
   xmlns:cc="http://creativecommons.org/ns#"
   xmlns:rdf="http://www.w3.org/1999/02/22-rdf-syntax-ns#"
   xmlns:svg="http://www.w3.org/2000/svg"
   xmlns="http://www.w3.org/2000/svg"
   xmlns:sodipodi="http://sodipodi.sourceforge.net/DTD/sodipodi-0.dtd"
   xmlns:inkscape="http://www.inkscape.org/namespaces/inkscape"
   width="128px"
   height="128px"
   viewBox="0 0 128 128"
   version="1.1"
   id="SVGRoot"
   inkscape:version="0.92.5 (2060ec1f9f, 2020-04-08)"
   sodipodi:docname="littlemap.svg">
  <defs
     id="defs826" />
  <sodipodi:namedview
     id="base"
     pagecolor="#ffffff"
     bordercolor="#666666"
     borderopacity="1.0"
     inkscape:pageopacity="0.0"
     inkscape:pageshadow="2"
     inkscape:zoom="8"
     inkscape:cx="89.249042"
     inkscape:cy="51.511135"
     inkscape:document-units="px"
     inkscape:current-layer="layer1"
     showgrid="false"
     inkscape:window-width="2560"
     inkscape:window-height="1440"
     inkscape:window-x="2560"
     inkscape:window-y="0"
     inkscape:window-maximized="1"
     inkscape:grid-bbox="true"
     showguides="true">
    <inkscape:grid
       type="xygrid"
       id="grid1410" />
  </sodipodi:namedview>
  <metadata
     id="metadata829">
    <rdf:RDF>
      <cc:Work
         rdf:about="">
        <dc:format>image/svg+xml</dc:format>
        <dc:type
           rdf:resource="http://purl.org/dc/dcmitype/StillImage" />
        <dc:title></dc:title>
      </cc:Work>
    </rdf:RDF>
  </metadata>
  <g
     inkscape:label="Layer 1"
     inkscape:groupmode="layer"
     id="layer1">
    <path
       style="fill:#fffaff;stroke-width:0.20591401;fill-opacity:1"
       d="m 23.375473,111.24829 c 0,-0.0454 2.815925,-6.92546 6.257611,-15.289119 l 6.257612,-15.206648 7.487149,-0.04088 7.487149,-0.04088 1.508571,1.89411 1.508574,1.89411 -7.660488,0.102957 -7.660485,0.102957 -0.746206,1.904194 -0.746205,1.904194 -2.162097,5.137299 -2.699891,6.543456 c -1.484941,3.5991 -2.746675,6.70581 -2.803855,6.90401 -0.09872,0.34218 1.65311,0.36035 34.743536,0.36035 33.090059,0 34.842307,-0.0182 34.744498,-0.36035 -0.08172,-0.28589 -5.18167,-12.698199 -8.629774,-21.003233 L 89.641354,84.56194 h -4.407935 c -2.424364,0 -4.407936,-0.04879 -4.407936,-0.108436 0,-0.05964 0.667205,-0.941711 1.482676,-1.960157 l 1.482678,-1.851723 4.303537,0.05545 4.303539,0.05545 6.259755,15.197854 c 3.442862,8.358822 6.259752,15.238922 6.259752,15.289112 0,0.0502 -18.346936,0.0913 -40.770972,0.0913 -22.424036,0 -40.770975,-0.0371 -40.770975,-0.0825 z m 40.050276,-9.4752 c -3.697662,-0.72007 -5.466983,-1.95905 -5.441374,-3.49184 0,-1.709738 2.21255,-2.484444 3.570313,-2.945313 C 62.195313,95.125 63,95 63,95 c 0,0 1.852312,1.682951 1.930437,1.737639 1.155501,1.176423 1.155501,1.192048 2.323025,2.032359 1.065315,-0.875 1.073008,-0.880317 2.204585,-1.956261 l 2.057417,-1.956261 1.411864,0.429983 c 2.590938,0.789073 3.779875,1.72824 3.779875,2.985803 0,1.29505 -1.446764,2.411958 -4.11828,3.179318 -1.988176,0.57108 -6.979901,0.74568 -9.163174,0.32051 z M 61.528245,88.474298 60.107821,86.878465 C 50.601517,76.198217 43.479146,65.536999 39.989143,56.763543 37.91556,51.550799 37.269719,48.167752 37.439509,43.408046 c 0.06319,-1.771318 0.266795,-3.91554 0.452457,-4.764935 2.59233,-11.859717 11.519971,-20.794366 23.382513,-23.400867 1.418533,-0.311687 2.575202,-0.379255 6.26955,-0.366242 4.365561,0.01538 4.616207,0.03872 6.900449,0.642662 4.989605,1.319225 8.541729,3.161344 12.46297,6.463249 4.860034,4.092424 8.389835,10.111018 9.80913,16.725359 0.64768,3.018384 0.646025,8.423007 -0.0035,11.364066 -2.345395,10.620329 -10.673406,24.107694 -23.83973,38.608874 -1.490999,1.642164 -3.369552,3.631897 -4.174561,4.421629 l -1.463649,1.435875 z M 72.06934,63.763542 c 3.527122,-0.946729 6.211433,-2.452603 8.864864,-4.973103 6.016148,-5.71475 7.750616,-14.815269 4.248134,-22.289371 -1.134014,-2.419922 -2.317134,-4.097587 -4.180316,-5.927697 -3.7648,-3.697972 -8.47998,-5.59066 -13.869821,-5.567389 -8.781329,0.03791 -16.40164,5.915095 -18.883246,14.563742 -0.40745,1.42001 -0.472593,2.116123 -0.472101,5.044893 4.12e-4,2.596992 0.0853,3.704574 0.360156,4.700417 2.152835,7.800089 8.019721,13.284954 15.790547,14.762354 2.160557,0.410767 5.992487,0.263055 8.141783,-0.313846 z m -7.353871,-4.315745 c -5.384172,-0.984595 -9.828435,-4.813094 -11.603933,-9.996178 -0.740938,-2.162968 -0.927815,-5.861881 -0.413055,-8.17564 0.941904,-4.233676 3.940538,-8.04041 7.844472,-9.958474 2.519893,-1.238062 4.037694,-1.59396 6.795162,-1.593344 4.73532,0.001 9.026597,2.07697 11.758319,5.68811 2.28009,3.014116 3.301468,6.302498 3.114099,10.026002 -0.196835,3.911565 -1.507958,6.889079 -4.267846,9.692129 -2.83642,2.880778 -6.023759,4.293467 -9.976684,4.421857 -1.25136,0.04064 -2.714101,-0.0064 -3.250534,-0.104462 z"
       id="path1393"
       inkscape:connector-curvature="0"
       sodipodi:nodetypes="ssccccccccccccscscssscccsssscccccccccssccssccssssscssccssssscccsscscscssscc" />
  </g>
</svg>
