<?xml version="1.0" encoding="UTF-8" standalone="no"?>
<svg
   xmlns:dc="http://purl.org/dc/elements/1.1/"
   xmlns:cc="http://creativecommons.org/ns#"
   xmlns:rdf="http://www.w3.org/1999/02/22-rdf-syntax-ns#"
   xmlns:svg="http://www.w3.org/2000/svg"
   xmlns="http://www.w3.org/2000/svg"
   xmlns:sodipodi="http://sodipodi.sourceforge.net/DTD/sodipodi-0.dtd"
   xmlns:inkscape="http://www.inkscape.org/namespaces/inkscape"
   id="Layer_1"
   style="enable-background:new 0 0 30 30;"
   version="1.1"
   viewBox="0 0 30 30"
   xml:space="preserve"
   sodipodi:docname="save.svg"
   inkscape:version="0.92.5 (2060ec1f9f, 2020-04-08)"><metadata
     id="metadata11"><rdf:RDF><cc:Work
         rdf:about=""><dc:format>image/svg+xml</dc:format><dc:type
           rdf:resource="http://purl.org/dc/dcmitype/StillImage" /></cc:Work></rdf:RDF></metadata><defs
     id="defs9" /><sodipodi:namedview
     pagecolor="#ffffff"
     bordercolor="#666666"
     borderopacity="1"
     objecttolerance="10"
     gridtolerance="10"
     guidetolerance="10"
     inkscape:pageopacity="0"
     inkscape:pageshadow="2"
     inkscape:window-width="2518"
     inkscape:window-height="1376"
     id="namedview7"
     showgrid="false"
     inkscape:zoom="7.8666667"
     inkscape:cx="15"
     inkscape:cy="15"
     inkscape:window-x="0"
     inkscape:window-y="27"
     inkscape:window-maximized="1"
     inkscape:current-layer="Layer_1" /><path
     d="M22,4h-2v6c0,0.552-0.448,1-1,1h-9c-0.552,0-1-0.448-1-1V4H6C4.895,4,4,4.895,4,6v18c0,1.105,0.895,2,2,2h18  c1.105,0,2-0.895,2-2V8L22,4z M22,24H8v-6c0-1.105,0.895-2,2-2h10c1.105,0,2,0.895,2,2V24z"
     id="path2" /><rect
     height="5"
     width="2"
     x="16"
     y="4"
     id="rect4" /><path
     style="opacity:1;fill:#ffffff;fill-opacity:1;fill-rule:nonzero;stroke:#ffffff;stroke-width:1.27118647;stroke-linecap:butt;stroke-linejoin:round;stroke-miterlimit:4;stroke-dasharray:1.27118644, 1.27118644;stroke-dashoffset:0;stroke-opacity:0.9754902"
     d="M 5.0390924,25.627805 C 4.8112288,25.488875 4.5111248,25.188772 4.3721947,24.960908 4.1260452,24.55719 4.1195823,24.301715 4.1191192,14.957019 L 4.1186441,5.367427 4.3988502,4.9584929 C 4.9198369,4.1981627 5.2628987,4.0853005 7.2012712,4.0365387 l 1.7478813,-0.04397 v 3.1730132 c 0,3.0175701 0.012907,3.1894221 0.2634636,3.5079531 l 0.2634636,0.33494 h 4.9898013 4.989802 l 0.276396,-0.29421 c 0.268678,-0.285995 0.276396,-0.383608 0.276396,-3.4957632 V 4.0169492 h 0.986659 0.986659 l 2.004228,2.0071675 2.004226,2.0071674 -0.03538,8.2576629 c -0.03528,8.235374 -0.03613,8.258864 -0.312614,8.702578 -0.589502,0.946045 0.08054,0.889886 -10.611021,0.889356 -9.3329745,-5.09e-4 -9.5884362,-0.0069 -9.9921416,-0.253076 z m 16.9773366,-4.94928 c -0.03563,-3.242725 -0.05163,-3.442073 -0.303541,-3.78178 -0.146259,-0.197235 -0.455037,-0.487317 -0.686171,-0.644626 -0.420161,-0.285959 -0.421392,-0.286017 -6.039429,-0.286017 -5.6180368,0 -5.6192677,5.8e-5 -6.0394281,0.286017 -0.2311354,0.157309 -0.5399126,0.447391 -0.6861716,0.644626 -0.2519078,0.339707 -0.2679084,0.539055 -0.3035415,3.78178 l -0.037616,3.42317 h 7.0667572 7.066757 z"
     id="path818"
     inkscape:connector-curvature="0" /><path
     style="opacity:1;fill:#ffffff;fill-opacity:1;fill-rule:nonzero;stroke:#ffffff;stroke-width:1.27118647;stroke-linecap:butt;stroke-linejoin:round;stroke-miterlimit:4;stroke-dasharray:1.27118644, 1.27118644;stroke-dashoffset:0;stroke-opacity:0.9754902"
     d="M 16.067797,6.4957627 V 4.0169492 h 0.953389 0.95339 v 2.4788135 2.4788136 h -0.95339 -0.953389 z"
     id="path820"
     inkscape:connector-curvature="0" /></svg>