<?xml version="1.0" encoding="UTF-8" standalone="no"?>
<svg
   xmlns:dc="http://purl.org/dc/elements/1.1/"
   xmlns:cc="http://creativecommons.org/ns#"
   xmlns:rdf="http://www.w3.org/1999/02/22-rdf-syntax-ns#"
   xmlns:svg="http://www.w3.org/2000/svg"
   xmlns="http://www.w3.org/2000/svg"
   xmlns:sodipodi="http://sodipodi.sourceforge.net/DTD/sodipodi-0.dtd"
   xmlns:inkscape="http://www.inkscape.org/namespaces/inkscape"
   viewBox="0 0 57.045 56.589"
   version="1.1"
   id="svg27"
   sodipodi:docname="arrow (copy).svg"
   inkscape:version="0.92.3 (2405546, 2018-03-11)">
  <metadata
     id="metadata31">
    <rdf:RDF>
      <cc:Work
         rdf:about="">
        <dc:format>image/svg+xml</dc:format>
        <dc:type
           rdf:resource="http://purl.org/dc/dcmitype/StillImage" />
      </cc:Work>
    </rdf:RDF>
  </metadata>
  <sodipodi:namedview
     pagecolor="#ffffff"
     bordercolor="#666666"
     borderopacity="1"
     objecttolerance="10"
     gridtolerance="10"
     guidetolerance="10"
     inkscape:pageopacity="0"
     inkscape:pageshadow="2"
     inkscape:window-width="1920"
     inkscape:window-height="1052"
     id="namedview29"
     showgrid="false"
     inkscape:zoom="4.1704218"
     inkscape:cx="28.522499"
     inkscape:cy="28.2945"
     inkscape:window-x="2560"
     inkscape:window-y="144"
     inkscape:window-maximized="1"
     inkscape:current-layer="svg27" />
  <defs
     id="defs17">
    <linearGradient
       id="e"
       x1="21.543812"
       x2="42.433834"
       y1="11.625414"
       y2="33.83215"
       gradientTransform="matrix(-0.7956626,0,0,-1.2568141,58.098217,56.187913)"
       gradientUnits="userSpaceOnUse">
      <stop
         stop-color="#fff"
         stop-opacity=".727"
         offset="0"
         id="stop2" />
      <stop
         stop-color="#fff"
         offset="1"
         id="stop4" />
    </linearGradient>
    <linearGradient
       id="f"
       x1="-.051092"
       x2=".33577"
       y1=".08527"
       y2=".66667">
      <stop
         stop-color="#fff"
         offset="0"
         id="stop7" />
      <stop
         stop-color="#fff"
         stop-opacity="0"
         offset="1"
         id="stop9" />
    </linearGradient>
    <linearGradient
       id="d"
       x1=".106"
       x2=".73104"
       y1=".21103"
       y2=".83559">
      <stop
         stop-color="#1c97e1"
         offset="0"
         id="stop12" />
      <stop
         stop-color="#006798"
         offset="1"
         id="stop14" />
    </linearGradient>
  </defs>
  <path
     d="m55.136 28.934c0.011051 14.633-11.848 26.502-26.482 26.502-14.633 0-26.493-11.868-26.482-26.502-0.011052-14.633 11.848-26.502 26.482-26.502 14.633 0 26.493 11.868 26.482 26.502z"
     fill="#166496"
     stroke-width="3.625"
     id="path19" />
  <path
     d="m52.833 28.934c0.01009 13.361-10.818 24.197-24.179 24.197s-24.189-10.836-24.179-24.197c-0.010091-13.361 10.818-24.197 24.179-24.197s24.189 10.836 24.179 24.197z"
     fill="url(#d)"
     stroke="#fff"
     stroke-width=".722"
     id="path21" />
  <path
     d="m28.638 4.7681c-13.347 0-24.175 10.828-24.175 24.175 0 6.4126 2.6169 12.143 6.6955 16.472 2.1188-17.5 16.89-31.107 34.959-31.107 0.48721 0 0.93961 0.098959 1.422 0.1185-4.4214-5.7507-11.092-9.6581-18.901-9.6581z"
     fill="url(#f)"
     stroke-width=".616"
     id="path23" />
  <path
     d="m 26.780217,43.044913 -4.1313,-4.1313 11.7,-11.7 -11.588,-11.588 4.1619,-4.1619 15.72,15.72 -15.862,15.862 z"
     id="path25"
     style="fill:url(#e);stroke-width:1.75;stroke-linecap:round;stroke-linejoin:round"
     inkscape:connector-curvature="0" />
</svg>
