<?xml version="1.0" encoding="UTF-8"?>
<!DOCTYPE svg PUBLIC "-//W3C//DTD SVG 1.1//EN" "http://www.w3.org/Graphics/SVG/1.1/DTD/svg11.dtd" [
	<!ENTITY ns_svg "http://www.w3.org/2000/svg">
	<!ENTITY ns_xlink "http://www.w3.org/1999/xlink">
]>
<svg version="1.1" xmlns="http://www.w3.org/2000/svg" xmlns:xlink="http://www.w3.org/1999/xlink" width="128" height="128" viewBox="0 0 128 128" overflow="visible" enable-background="new 0 0 128 128" xml:space="preserve">
	<path opacity="0.2" fill="#141414" d="M7,26c-0.552,0-1,0.448-1,1v98c0,0.553,0.448,1,1,1h98c0.553,0,1-0.447,1-1V98   c0-0.553-0.447-1-1-1c0,0-68.057,0-70,0c0-1.943,0-70,0-70c0-0.552-0.448-1-1-1H7z"/>
	<polygon opacity="0.6" fill="#141414" points="34,98 34,27 7,27 7,125 105,125 105,98"/>
	<polygon fill="#F98818" points="34,97 34,26 7,26 7,124 105,124 105,97"/>
	<polygon fill="#F9B471" points="33,98 33,27 8,27 8,123 104,123 104,98"/>
	<rect x="8" y="121.5" fill="#FCDAB8" width="96" height="1.5"/>
	<path fill="#FCDAB8" d="M20,40v1h13v-1H20z M26,46h7v-1h-7V46z M26,52h7v-1h-7V52z M26,58h7v-1h-7V58z M26,64h7v-1h-7V64z M27,75h6   v-1h-7L27,75z M27,81h6v-1h-7L27,81z M27,87h6v-1h-7L27,87z M27,93h6v-1h-7L27,93z M21,69h12v-1H20L21,69z M21,98h12v-1H20L21,98z"/>
	<rect x="33" y="98" fill="#FCDAB8" width="71" height="1"/>
	<linearGradient id="XMLID_4_" gradientUnits="userSpaceOnUse" x1="19.9995" y1="67.5" x2="32.9995" y2="67.5">
		<stop offset="0" style="stop-color: rgb(214, 114, 16);"/>
		<stop offset="0.5449" style="stop-color: rgb(224, 119, 17);"/>
	</linearGradient>
	<path fill="url(#XMLID_4_)" d="M20,38v2h13v-2H20z M26,45h7v-2h-7V45z M26,51h7v-2h-7V51z M26,57h7v-2h-7V57z M26,63h7v-2h-7V63z    M26,74h7v-2h-7V74z M26,80h7v-2h-7V80z M26,86h7v-2h-7V86z M26,92h7v-2h-7V92z M20,68h13v-2H20V68z M20,97h13v-2H20V97z"/>
	<path fill="#E07711" d="M35,111h2V97h-2V111z M40,105h2v-8h-2V105z M46,105h2v-8h-2V105z M52,105h2v-8h-2V105z M58,105h2v-8h-2V105   z M69,105h2v-8h-2V105z M75,105h2v-8h-2V105z M81,105h2v-8h-2V105z M87,105h2v-8h-2V105z M63,111h2V97h-2V111z M92,97v14h2V97H92z"/>
	<path fill="#FCDAB8" d="M35,112.166h2V111h-2V112.166z M40,106.166h2V105h-2V106.166z M46,106.166h2V105h-2V106.166z M52,106.166h2   V105h-2V106.166z M58,106.166h2V105h-2V106.166z M63,112.166h2V111h-2V112.166z M69,106.166h2V105h-2V106.166z M75,106.166h2V105   h-2V106.166z M87,106h2v-1h-2V106z M92,111v1h2v-1H92z"/>
	<path fill="#E04B00" d="M94,97h-2v1h2V97z M87,97v1h2v-1H87z M81,97v1h2v-1H81z M75,97v1h2v-1H75z M69,97v1h2v-1H69z M64,97v1h2v-1   H64z M58,97v1h2v-1H58z M52,97v1h2v-1H52z M46,97v1h2v-1H46z M40,97v1h2v-1H40z M35,97v1h2v-1H35z"/>
	<rect x="8" y="27" fill="#FCDAB8" width="25" height="1"/>
	<path fill="#E04B00" d="M33,38v2h1v-2H33z M33,45h1v-2h-1V45z M33,51h1v-2h-1V51z M33,57h1v-2h-1V57z M33,63h1v-2h-1V63z M33,68h1   v-2h-1V68z M33,74h1v-2h-1V74z M33,80h1v-2h-1V80z M33,86h1v-2h-1V86z M33,92h1v-2h-1V92z M33,97h1v-2h-1V97z"/>
	<rect x="8" y="28" fill="#FCC48D" width="1" height="94"/>
	<path opacity="0.1" d="M54.931,15.071c-0.747,0.317-1.218,1.055-1.218,1.844c0,0.129,0.013,0.259,0.039,0.39   c0.029,0.144,2.958,14.637,8.733,26.188c5.668,11.335,17.062,31.291,17.175,31.488c0.45,0.787,1.376,1.174,2.251,0.94   c0.874-0.231,1.485-1.026,1.485-1.933V54.013l-0.354-1.138c-0.001-0.001-25.684-37.102-25.684-37.102   C56.819,14.998,55.799,14.703,54.931,15.071z"/>
	<path opacity="0.5" d="M55.121,14.491c-0.437,0.185-0.683,0.651-0.59,1.116c0.029,0.145,2.946,14.535,8.647,25.938l0,0   c5.654,11.309,17.034,31.239,17.148,31.439c0.226,0.393,0.687,0.586,1.125,0.47s0.743-0.513,0.743-0.966V52.512   c0-0.204-0.063-0.402-0.178-0.569L56.334,14.842C56.064,14.453,55.558,14.306,55.121,14.491z"/>
	<path opacity="0.2" d="M55.121,16.491c-0.437,0.185-0.683,0.651-0.59,1.116c0.029,0.145,2.946,14.535,8.647,25.938l0,0   c5.654,11.309,17.034,31.239,17.148,31.439c0.226,0.393,0.687,0.586,1.125,0.47s0.743-0.513,0.743-0.966V54.512   c0-0.204-0.063-0.402-0.178-0.569L56.334,16.842C56.064,16.453,55.558,16.306,55.121,16.491z"/>
	<linearGradient id="XMLID_5_" gradientUnits="userSpaceOnUse" x1="58.1685" y1="21.7676" x2="77.6685" y2="56.2676">
		<stop offset="0" style="stop-color: rgb(114, 114, 115);"/>
		<stop offset="1" style="stop-color: rgb(127, 126, 127);"/>
	</linearGradient>
	<path fill="url(#XMLID_5_)" d="M55.512,15.412l25.683,37.101v19.976c0,0-11.415-19.976-17.122-31.391   C58.365,29.683,55.512,15.412,55.512,15.412z"/>
	<polygon fill="#949599" points="55.512,15.412 81.195,53.458 81.195,52.512"/>
	<path fill="#949599" d="M62.291,37.239c0.56,1.305,1.153,2.6,1.782,3.858c5.707,11.415,17.122,31.391,17.122,31.391v-2.199   C80.611,69.384,70.063,52.981,64.5,41.5C63.662,39.771,62.941,38.44,62.291,37.239z"/>
	<path opacity="0.2" d="M94.791,74.121l-5.107,3.559c-0.424,0.295-0.553,0.865-0.297,1.315c0.406,0.712,9.951,17.464,11.947,20.458   l0.188,0.281c1.921,2.889,4.099,6.164,9.479,6.164c4.208,0,12.166-2.486,12.166-11.898c0-9.596-6.464-13-12-13   c-4.387,0-7.489,2.34-8.968,3.746c-1.079-1.863-5.97-10.307-5.97-10.307c-0.141-0.241-0.376-0.414-0.648-0.475   C95.306,73.904,95.021,73.961,94.791,74.121z M108.392,88.866c2.362-1.612,5.338-1.173,7.074,1.047   c0.815,1.042,1.166,2.426,0.987,3.896c-0.183,1.502-0.894,2.838-1.95,3.665c-1,0.782-2.098,1.103-3.174,0.925   c-1.259-0.209-2.42-1.077-3.357-2.512l0,0C105.445,92.021,106.312,90.285,108.392,88.866z"/>
	<path opacity="0.2" fill="#333333" d="M80.621,3.614L80.621,3.614C80.058,3.847,79.695,4.391,79.695,5v74.5   c0,0.827,0.673,1.5,1.5,1.5h3.972c0.548,0,1.051-0.298,1.314-0.777c0,0,1.353-2.463,1.589-2.893   c0.154-0.121,6.535-5.154,6.535-5.154c0.362-0.287,0.57-0.715,0.57-1.177c0-0.014-0.004-0.108-0.004-0.122l-0.27-3.326   c-0.372-4.536-0.793-9.677-0.793-11.185c0-20.476-5.871-46.444-11.854-52.426C81.826,3.509,81.183,3.381,80.621,3.614z"/>
	<path opacity="0.5" fill="#141414" d="M92.351,69.238l-5.098,4.342c-0.213,0.181-0.34,0.442-0.351,0.721   c-0.011,0.279,0.095,0.551,0.292,0.748l3.25,2.876c0.353,0.353,5.621-2.874,5.404-3.306l-1.955-5.066   c-0.138-0.275-0.395-0.471-0.695-0.533C92.898,68.959,92.586,69.039,92.351,69.238z"/>
	<polygon fill="#999999" points="93,70 94.959,74.237 90.755,77.195 87.902,74.342"/>
	<path opacity="0.4" fill="#333333" d="M80.804,3.076C80.435,3.231,80.195,3.596,80.195,4v74.5c0,0.553,0.442,1,0.987,1h3.922   c0.36,0,0.692-0.199,0.866-0.519c0,0,1.444-2.664,1.617-2.98c0.299-0.24,6.531-5.218,6.531-5.218   c0.238-0.191,0.375-0.48,0.375-0.784c0-0.026,0-0.054-0.003-0.081l-0.267-3.326c-0.367-4.547-0.783-9.701-0.783-11.226   c0-20.372-5.727-46.165-11.561-52.073C81.598,3.007,81.173,2.921,80.804,3.076z"/>
	<linearGradient id="XMLID_6_" gradientUnits="userSpaceOnUse" x1="77.8511" y1="4.5283" x2="86.4412" y2="58.8908">
		<stop offset="0" style="stop-color: rgb(184, 184, 185);"/>
		<stop offset="1" style="stop-color: rgb(189, 189, 190);"/>
	</linearGradient>
	<path fill="url(#XMLID_6_)" d="M93.675,69.998c-0.41-5.152-1.066-12.673-1.066-14.632C92.609,35.39,86.902,9.707,81.195,4v5.707   V78.5h3.972l1.735-3.158L93.675,69.998z"/>
	<polygon fill="#ABA9AB" points="89.755,61.073 81.195,61.073 81.195,94.646 82.5,62.273"/>
	<path opacity="0.2" d="M80.195,79.208c0,0,0,10.675,0,12.075c-1.264-3.047-17.122-2.092-17.122,14.117   c0,13.267,8.8,19.453,14.269,19.453c2.854,0,8.561-2.254,8.561-9.054c0-2.854,0-36.592,0-36.592H80.195z M80,115.5   c0,1.5-1.188,3.45-3.05,3.45c-2.784,0-7.95-5.616-7.95-12.171c0-12.603,11-10.496,11-9.279V115.5z"/>
	<path opacity="0.2" d="M80.195,78.208c-0.553,0-1,0.448-1,1c0,0,0,7.665,0,10.272c-1.518-0.479-3.732-0.503-5.658-0.119   c-2.713,0.54-11.465,3.293-11.464,16.039c0,13.346,8.867,20.453,15.269,20.453c3.119,0,9.561-2.457,9.561-10.054V79.208   c0-0.552-0.447-1-1-1H80.195z M70,106.779c0-4.337,1.393-7.296,4.025-8.559c2.191-1.049,4.379-0.601,4.975-0.301   c0,0.803,0,17.58,0,17.58c0,0.999-0.799,2.45-2.05,2.45C74.991,117.95,70,112.996,70,106.779z"/>
	<path fill="#292929" d="M80.195,78.208c0,0,0,10.675,0,12.075c-1.264-3.047-17.122-2.092-17.122,14.117   c0,13.267,8.8,19.453,14.269,19.453c2.854,0,8.561-2.254,8.561-9.054c0-2.854,0-36.592,0-36.592H80.195z M80,114.5   c0,1.5-1.188,3.45-3.05,3.45c-2.784,0-7.95-5.616-7.95-12.171c0-12.603,11-10.496,11-9.279V114.5z"/>
	<path d="M81.743,79.208c0,1.695,0,11.159,0,11.159c0,0.461-0.344,0.818-0.802,0.932c-0.459,0.112-0.959-0.139-1.184-0.546   l0.025,0.046c-0.391-0.479-3.58-1.194-7.318,0.083c-3.172,1.083-8.393,4.306-8.392,13.71c0,13.141,8.918,18.595,13.692,18.595   c2.546,0,7.803-1.983,7.803-8.115c0,0,0-33.956,0-35.863C84.462,79.208,82.848,79.208,81.743,79.208z M68.125,105.982   c0-8.333,4.809-11.303,9.309-11.303c1.525,0,4.107,0.411,4.107,1.951v18.139c0,2.121-1.716,4.484-4.179,4.484   C73.882,119.254,68.125,113.051,68.125,105.982z"/>
	<path opacity="0.2" d="M111.166,82c-5.707,0-9.166,4.398-9.166,4.398l-6.637-11.457L90.255,78.5c0,0,9.91,17.398,11.91,20.398   s3.834,6,8.834,6c3,0,11.166-1.697,11.166-10.898C122.166,85.75,117,82,111.166,82z M115.121,98.262   c-2.55,1.994-5.795,1.524-7.986-1.828c-2.744-4.197-1.98-6.568,0.693-8.394c2.719-1.854,6.321-1.433,8.426,1.257   C118.359,91.985,117.669,96.266,115.121,98.262z"/>
	<path fill="#292929" d="M111.166,81c-5.707,0-9.166,4.398-9.166,4.398l-6.637-11.457L90.255,77.5c0,0,9.91,17.398,11.91,20.398   s3.834,6,8.834,6c3,0,11.166-1.697,11.166-10.898C122.166,84.75,117,81,111.166,81z M115.121,97.262   c-2.55,1.994-5.795,1.524-7.986-1.828c-2.744-4.197-1.98-6.568,0.693-8.394c2.719-1.854,6.321-1.433,8.426,1.257   C118.359,90.985,117.669,95.266,115.121,97.262z"/>
	<path d="M91.777,77.498c1.96,3.433,9.706,16.973,11.422,19.546l0.188,0.282c1.881,2.829,3.506,5.272,7.813,5.272   c0.415,0,10.167-0.112,10.167-9.899c0-8.109-5.166-11-10-11c-5.131,0-8.351,3.979-8.383,4.02c-0.205,0.259-0.526,0.4-0.856,0.377   c-0.33-0.025-0.628-0.209-0.793-0.496c0,0-5.174-8.932-6.093-10.517C94.244,75.779,92.645,76.893,91.777,77.498z M111.203,99.07   c-1.825-0.301-3.452-1.474-4.705-3.39l0,0c-2.809-4.297-2.502-7.399,0.967-9.767c3.207-2.189,7.41-1.559,9.777,1.467   c1.145,1.462,1.641,3.369,1.397,5.369c-0.247,2.025-1.231,3.847-2.702,4.998C114.504,98.869,112.824,99.339,111.203,99.07z"/>
	<polygon fill="#F8F9F8" points="82.09,60.273 89.755,61.073 81.195,61.073"/>
	<polygon fill="#D2D6DE" points="81.195,61.073 81.195,4.5 81.544,5.273 82.273,60.182"/>
	<circle fill="#F8F9F8" cx="87.028" cy="67.307" r="1.427"/>
	<circle fill="#727375" cx="87.829" cy="68.007" r="1.427"/>
</svg>