<?xml version="1.0" encoding="UTF-8" standalone="no"?>
<!-- Created with Inkscape (http://www.inkscape.org/) -->
<svg
   xmlns:dc="http://purl.org/dc/elements/1.1/"
   xmlns:cc="http://web.resource.org/cc/"
   xmlns:rdf="http://www.w3.org/1999/02/22-rdf-syntax-ns#"
   xmlns:svg="http://www.w3.org/2000/svg"
   xmlns="http://www.w3.org/2000/svg"
   xmlns:xlink="http://www.w3.org/1999/xlink"
   xmlns:sodipodi="http://sodipodi.sourceforge.net/DTD/sodipodi-0.dtd"
   xmlns:inkscape="http://www.inkscape.org/namespaces/inkscape"
   width="210mm"
   height="297mm"
   id="svg3143"
   sodipodi:version="0.32"
   inkscape:version="0.45.1"
   sodipodi:docbase="/home/obiwan/applications/PlayListGenerator"
   sodipodi:docname="icon.svg"
   inkscape:output_extension="org.inkscape.output.svg.inkscape">
  <defs
     id="defs3145" />
  <sodipodi:namedview
     id="base"
     pagecolor="#ffffff"
     bordercolor="#666666"
     borderopacity="1.0"
     inkscape:pageopacity="0.0"
     inkscape:pageshadow="2"
     inkscape:zoom="2.8"
     inkscape:cx="403.93411"
     inkscape:cy="974.99098"
     inkscape:document-units="px"
     inkscape:current-layer="layer2"
     inkscape:window-width="1280"
     inkscape:window-height="730"
     inkscape:window-x="0"
     inkscape:window-y="46" />
  <metadata
     id="metadata3148">
    <rdf:RDF>
      <cc:Work
         rdf:about="">
        <dc:format>image/svg+xml</dc:format>
        <dc:type
           rdf:resource="http://purl.org/dc/dcmitype/StillImage" />
      </cc:Work>
    </rdf:RDF>
  </metadata>
  <g
     inkscape:label="Calque 1"
     inkscape:groupmode="layer"
     id="layer1"
     style="display:inline">
    <image
       y="19.505062"
       x="19.999958"
       id="image3217"
       height="1017.1429"
       width="700"
       sodipodi:absref="/home/obiwan/applications/PlayListGenerator/cledesol2.gif"
       xlink:href="cledesol2.gif" />
  </g>
  <g
     inkscape:groupmode="layer"
     id="layer2"
     inkscape:label="nouve"
     style="opacity:0.41379311;display:inline">
    <path
       style="fill:#000000;fill-opacity:1;fill-rule:nonzero;stroke:#000000;stroke-width:1px;stroke-linecap:butt;stroke-linejoin:miter;stroke-opacity:1"
       d="M 310.80357,867.45147 C 310.3121,867.83041 286.12061,865.52729 274.28572,877.36218 C 266.91564,884.73226 257.2823,892.84665 252.85714,900.93361 C 246.44044,912.66011 242.7526,930.08857 243.21428,943.43361 C 243.66957,956.5937 251.83941,967.82672 257.14285,978.43361 C 260.21587,984.57964 277.45386,998.58911 283.57143,1001.6479 C 294.21502,1006.9697 306.55009,1009.9229 317.14286,1015.2193 C 328.36377,1020.8298 336.67696,1020.9336 352.85714,1020.9336 C 367.45602,1020.9336 378.18962,1018.2612 388.92857,1017.7194 C 401.31415,1017.0945 410.1818,1013.1641 426.07143,1007.7193 C 438.72136,1003.3846 449.83164,1002.5305 460,992.36218 C 471.88698,980.4752 478.64647,972.68059 482.85714,960.93361 C 487.379,948.31847 486.10446,933.36846 483.57143,920.93361 L 475.71428,882.36218 L 470,849.50504 L 462.85714,815.21933 L 460,775.21933 L 452.85714,733.79075 L 442.14286,698.79076 L 431.42857,658.07647 L 422.85714,615.21933 L 417.14286,572.36218 C 415.30347,558.56672 412.09064,540.72475 408.57143,526.6479 C 404.88379,511.89733 392.61258,500.42442 388.57143,488.07647 L 375.71428,448.79076 L 368.57143,406.6479 C 366.11131,392.13319 345.10999,295.65927 342.85714,286.6479 C 339.39907,272.81562 336.07143,261.50775 336.07143,246.29076 C 336.07143,232.95742 335.76138,216.61798 337.22208,203.3649 C 338.48477,191.90837 344.20126,174.88391 348.29351,168.00776 C 354.75057,157.15807 357.2048,153.32487 364.64286,138.43361 C 369.3986,128.91246 380.04541,121.44662 388.57143,118.07647 C 400.12562,113.50935 414.22599,106.12153 425.71428,106.6479 C 445.03119,107.53295 457.84621,121.35859 459.28571,132.36218 C 460.93095,144.93838 457.14286,156.31492 457.14286,166.6479 C 457.14286,178.76464 447.4,190.61935 442.14286,200.57647 C 435.94053,212.32379 428.70099,222.69441 420,232.36218 L 394.28571,260.93361 L 360,292.36218 L 305.71429,340.93361 L 285,368.07646 C 277.94813,377.31685 267.55484,388.37877 255.71429,400.21933 C 243.96497,411.96865 233.5449,423.81728 224.28571,433.07647 C 214.30522,443.05696 206.76744,454.73562 201.67368,464.37506 C 195.81853,475.45535 190.75898,481.5585 182.85714,506.6479 C 179.74797,516.51994 178.7686,524.43064 175.71428,536.6479 C 172.31337,550.25154 172.14286,566.97634 172.14286,581.6479 C 172.14286,595.93362 172.14286,610.21933 172.14286,624.50504 C 172.14286,632.0525 178.98959,649.89504 183.57143,658.79075 C 188.77638,668.89624 192.56715,681.19676 200,692.36219 C 206.08741,701.50655 211.77247,709.74595 222.85715,723.07647 C 228.18058,729.47847 237.2516,740.32807 242.85714,745.93361 C 248.79785,751.87432 263.92989,762.89856 271.42857,766.6479 C 283.26801,772.56762 293.86177,779.57763 305,782.36219 C 320.73344,786.29555 327.46887,788.51512 342.85714,792.36218 C 357.74303,796.08365 368.01377,797.22277 382.85714,800.93361 C 396.43406,804.32784 410.86805,803.79075 425.71429,803.79075 C 443.54141,803.79075 455.70207,793.79686 470,786.6479 C 483.75881,779.76849 486.00206,779.29453 496.42857,767.36218 C 503.63325,759.11699 509.51479,751.41882 515.71429,745.21933 C 525.44004,735.49358 533.53734,725.2875 540,712.36218 C 544.86999,702.62221 545.71429,688.67952 545.71429,675.21933 C 545.71429,664.14536 543.96114,645.08903 546.42857,635.21933 C 549.27236,623.84417 548.58014,603.80818 544.28571,595.21932 L 531.42857,569.50504 C 525.90764,558.46318 520.215,553.29146 512.85715,545.93361 C 504.24052,537.31699 494.9954,529.85988 482.85714,523.79075 C 472.99474,518.85956 459.07647,514.98844 448.57143,512.36218 C 436.31235,509.29741 422.47766,509.50504 408.57143,509.50504 C 394.28571,509.50504 383.60794,511.58556 370,515.93361 C 363.29359,518.07647 345.53029,523.97475 340,529.50504 C 327.78695,541.71809 319.14949,547.4984 311.42857,555.21933 C 303.05651,563.59139 296.66938,570.452 291.42857,580.93361 C 284.89066,594.00942 279.5853,608.3067 277.14286,618.07647 C 273.68348,631.91399 276.42857,631.65797 276.42857,645.21933 C 276.42857,655.61139 279.61149,678.83171 287.14285,689.50504 C 292.67392,697.34357 301.99431,708.96783 311.42857,715.21933 C 316.23547,718.40457 332.0226,726.62364 342.85714,729.50504 C 376.45272,738.43965 352.1994,726.33383 348.57143,715.21933 C 348.20869,714.10804 330,705.21933 322.85714,698.07647 C 314.03244,689.25176 306.41514,673.73701 303.57143,662.36218 C 299.23457,645.01473 303.00131,640.78945 314.28571,629.50504 C 324.94571,618.84505 334.27351,607.36829 344.28572,602.36219 C 356.00642,596.50183 357.6992,593.15545 367.85715,588.07647 C 381.02964,581.49023 400.40495,587.26094 414.28571,583.79075 C 432.32638,579.28059 440.5949,584.08821 451.42857,589.50504 C 463.48256,595.53203 469.55169,599.05673 477.14286,606.6479 C 488.47099,617.97603 490.68255,620.80666 494.28571,635.21933 C 497.33977,647.43553 504.39059,642.06738 507.85714,669.50504 C 509.48322,682.37545 507.45523,706.11269 505,715.93361 C 501.92046,728.25179 492.28771,726.06849 488.57143,740.93361 C 486.13414,750.68278 473.44704,761.77229 468.57143,766.6479 C 461.06631,774.15301 443.78204,778.55953 434.28571,780.93361 C 421.82669,784.04837 404.34703,780.93361 391.42857,780.93361 C 377.14286,780.93361 363.25662,780.97768 349.64286,776.6479 C 333.92177,771.6479 325.0432,769.1695 316.07143,765.21933 C 302.8613,759.40306 291.53335,753.15505 282.85714,746.6479 C 273.74269,739.81206 267.46639,730.8888 260,720.93361 C 250.98508,708.91372 239.69917,699.06927 237.14286,695.21933 C 231.83672,687.22802 220.72241,668.27105 216.05348,658.73999 C 215.65951,657.93575 209.28572,640.77883 209.28572,626.6479 C 209.28572,610.88219 210.00287,593.77931 211.42857,583.79075 C 213.22397,571.2121 219.2344,560.52185 224.19906,549.07918 C 225.85606,545.26008 233.27233,532.38967 239.89847,524.18071 C 247.86618,514.30972 259.75797,500.17847 267.13542,490.34187 C 276.27709,478.15298 284.14888,471.34816 291.42857,463.79075 C 301.08259,453.76843 311.7531,443.96177 323.57143,433.07647 L 377.85714,383.07647 L 405.71428,362.36218 L 431.78571,332.71933 L 450.71429,304.50504 C 458.27657,293.23297 461.04799,276.69477 465,268.79075 C 469.94914,258.89246 473.50247,249.14777 475.71428,235.93361 C 477.85714,223.1314 476.01114,201.31396 477.85715,188.79076 C 479.90975,174.86606 476.62458,157.29243 477.14285,144.50503 C 477.68331,131.1703 478.11625,111.25573 477.85714,109.50504 C 475.72723,95.113814 476.2143,99.076504 470.71428,88.076469 C 463.93857,74.525043 463.10424,73.32357 449.28571,45.933611 C 442.41653,32.318084 429.34416,23.26965 417.14286,20.219325 C 401.46104,16.298871 394.22335,23.806345 382.85714,26.647897 C 370.9151,29.633409 362.39093,35.685535 354.28571,43.790754 C 340.8086,57.267867 339.57216,63.885016 330,76.647896 C 323.40838,85.43672 319.5943,110.64444 317.85715,121.6479 C 316.84854,128.03666 313.57143,138.79076 313.57143,153.07647 C 313.57143,167.86824 314.28571,178.96849 314.28571,194.50504 C 314.28571,208.79075 312.86423,225.29023 314.28571,239.50505 C 315.71428,253.79076 319.28571,269.50504 322.14285,281.64789 C 325.48657,295.8587 326.9028,298.05651 332.14286,323.07647 C 337.38292,348.09643 348.57143,418.07647 348.57143,418.07647 L 355.71428,455.93361 C 355.66009,455.64636 367.72793,503.8895 371.42857,515.21933 C 375.23755,526.88087 378.15652,540.1038 382.85714,549.50504 C 387.78252,559.3558 389.36215,581.23936 391.42857,589.50504 C 394.59239,602.16032 395.14587,613.66746 397.14286,626.6479 L 402.85714,663.79075 L 411.42857,706.6479 L 422.85714,749.50504 L 431.42857,789.50504 L 434.28571,832.36218 L 440,872.36218 L 442.85715,882.36218 L 454.28572,950.21932 C 456.05048,960.69762 434.39672,975.10832 428.57143,980.93361 C 419.89945,989.60559 399.16278,989.71435 388.57143,992.36218 C 375.23379,995.69659 360.79844,1001.6479 348.57143,1001.6479 C 327.17406,1001.6479 334.32828,983.28199 337.85714,977.36218 C 342.28738,969.93028 352.36446,971.37018 357.85714,950.57647 C 362.85714,931.64789 360,909.50504 354.28571,895.21933 C 349.87481,884.19207 343.15033,875.45552 335.08928,871.73718 C 324.89327,867.04096 310.5864,867.67347 310.80357,867.45147 z "
       id="path3221"
       sodipodi:nodetypes="cssssssssssssccccccccssscssssssssssszcccssssssssssssssssssssssssssssssssssssssssssssssssssssssssssssssssssscccssssssssssssssssszcssssscccccccssssssssc" />
  </g>
</svg>
