<?xml version="1.0" encoding="UTF-8" standalone="no"?>
<!-- Generator: Adobe Illustrator 19.0.0, SVG Export Plug-In . SVG Version: 6.00 Build 0)  -->

<svg
   xmlns:dc="http://purl.org/dc/elements/1.1/"
   xmlns:cc="http://creativecommons.org/ns#"
   xmlns:rdf="http://www.w3.org/1999/02/22-rdf-syntax-ns#"
   xmlns:svg="http://www.w3.org/2000/svg"
   xmlns="http://www.w3.org/2000/svg"
   xmlns:sodipodi="http://sodipodi.sourceforge.net/DTD/sodipodi-0.dtd"
   xmlns:inkscape="http://www.inkscape.org/namespaces/inkscape"
   version="1.1"
   id="Layer_1"
   x="0px"
   y="0px"
   viewBox="0 0 480.606 480.606"
   style="enable-background:new 0 0 480.606 480.606;"
   xml:space="preserve"
   sodipodi:docname="preview.svg"
   inkscape:version="0.92.3 (2405546, 2018-03-11)"><metadata
   id="metadata43"><rdf:RDF><cc:Work
       rdf:about=""><dc:format>image/svg+xml</dc:format><dc:type
         rdf:resource="http://purl.org/dc/dcmitype/StillImage" /></cc:Work></rdf:RDF></metadata><defs
   id="defs41" /><sodipodi:namedview
   pagecolor="#ffffff"
   bordercolor="#666666"
   borderopacity="1"
   objecttolerance="10"
   gridtolerance="10"
   guidetolerance="10"
   inkscape:pageopacity="0"
   inkscape:pageshadow="2"
   inkscape:window-width="1920"
   inkscape:window-height="1052"
   id="namedview39"
   showgrid="false"
   inkscape:zoom="1.9641869"
   inkscape:cx="319.40856"
   inkscape:cy="184.36039"
   inkscape:window-x="2560"
   inkscape:window-y="168"
   inkscape:window-maximized="1"
   inkscape:current-layer="Layer_1" />
<path
   style="fill:#f40000;fill-opacity:1;fill-rule:evenodd;stroke:#000000;stroke-width:1px;stroke-linecap:butt;stroke-linejoin:miter;stroke-opacity:1"
   d="m 294.99995,178.06724 h 20.73699 l -1.41707,154.57023 44.26227,-14.34352 -50.78813,101.27982 -54.33074,-103.86158 42.35901,16.27235 z"
   id="path4570"
   inkscape:connector-curvature="0"
   sodipodi:nodetypes="cccccccc" /><g
   id="g6">
	
	<path
   d="m 439.108,480.606 21.213,-21.213 -71.349,-71.349 c 12.528,-16.886 19.949,-37.777 19.949,-60.371 0,-40.664 -24.032,-75.814 -58.637,-92.012 V 108.787 L 241.499,0 H 20.285 v 445 h 330 v -25.313 c 6.188,-2.897 12.04,-6.396 17.475,-10.429 z M 250.285,51.213 299.072,100 H 250.285 Z M 50.285,30 h 170 v 100 h 100 v 96.957 c -4.224,-0.538 -8.529,-0.815 -12.896,-0.815 -31.197,0 -59.148,14.147 -77.788,36.358 l -7.36366,8.65498 c -4.87004,6.55908 -10.04424,14.24868 -12.64192,21.85414 -2.172,5.025 -4.81942,13.84489 -4.81942,26.74489 0,1.618 -0.318,8.26599 0.297,13.28599 1.00921,10.8776 4.43643,19.71957 5.2001,23.60516 L 212.01,362.5 c 8.095,22.101 23.669,40.624 43.636,52.5 H 50.285 Z m 257.104,369.208 c -39.443,0 -71.533,-32.09 -71.533,-71.533 0,-39.443 32.089,-71.533 71.533,-71.533 39.444,0 71.533,32.089 71.533,71.533 0,39.444 -32.09,71.533 -71.533,71.533 z"
   id="path4"
   inkscape:connector-curvature="0"
   sodipodi:nodetypes="cccsccccccccccccccccccscccsccccccsssss" />
</g>
<g
   id="g8">
</g>
<g
   id="g10">
</g>
<g
   id="g12">
</g>
<g
   id="g14">
</g>
<g
   id="g16">
</g>
<g
   id="g18">
</g>
<g
   id="g20">
</g>
<g
   id="g22">
</g>
<g
   id="g24">
</g>
<g
   id="g26">
</g>
<g
   id="g28">
</g>
<g
   id="g30">
</g>
<g
   id="g32">
</g>
<g
   id="g34">
</g>
<g
   id="g36">
</g>
<text
   xml:space="preserve"
   style="font-style:normal;font-weight:normal;font-size:162.38659668px;line-height:125%;font-family:Sans;letter-spacing:0px;word-spacing:0px;fill:#000000;fill-opacity:1;stroke:none;stroke-width:4.05966473px;stroke-linecap:butt;stroke-linejoin:miter;stroke-opacity:1"
   x="65.239761"
   y="290.31982"
   id="text4566"
   transform="scale(0.83859174,1.1924754)"><tspan
     sodipodi:role="line"
     id="tspan4564"
     x="65.239761"
     y="433.9939"
     style="stroke-width:4.05966473px" /></text>
<path
   style="fill:#000000;fill-opacity:1;fill-rule:evenodd;stroke:#000000;stroke-width:1px;stroke-linecap:butt;stroke-linejoin:miter;stroke-opacity:1"
   d="m 59.766918,174.77608 -0.112935,224.01127 24.82757,1.31646 -0.236471,-150.93495 33.972288,22.46107 42.59109,-25.87577 -1.32707,153.69142 26.46346,0.29823 c -0.0512,-8.87645 -0.1641,-222.5095 -0.1641,-222.5095 l -67.68691,48.45085 z"
   id="path4568"
   inkscape:connector-curvature="0"
   sodipodi:nodetypes="ccccccccccc" /></svg>