<svg enable-background="new 0 0 595.275 841.89" height="409.23001" viewBox="0 0 446.56999 409.23001" width="446.57001"
    xmlns="http://www.w3.org/2000/svg"
    xmlns:xlink="http://www.w3.org/1999/xlink">
    <filter id="a" color-interpolation-filters="sRGB" height="1.450939" width="1.513065" x="-.256532" y="-.22547">
        <feGaussianBlur stdDeviation="4.1562689"/>
    </filter>
    <filter id="b" color-interpolation-filters="sRGB" height="1.235142" width="1.245063" x="-.122532" y="-.117571">
        <feGaussianBlur stdDeviation="1.0646233"/>
    </filter>
    <filter id="c" color-interpolation-filters="sRGB">
        <feGaussianBlur stdDeviation=".31938699"/>
    </filter>
    <linearGradient id="d" gradientTransform="matrix(.225324 .269654 -.269654 .225324 -627.406 801.284)" gradientUnits="userSpaceOnUse" x1="-39.067657" x2="-38.890881" xlink:href="#e" y1="661.93134" y2="647.78918"/>
    <linearGradient id="e">
        <stop offset="0" stop-color="#530909"/>
        <stop offset="1" stop-color="#530909" stop-opacity="0"/>
    </linearGradient>
    <linearGradient id="f" gradientTransform="matrix(.225324 .269654 -.269654 .225324 -627.406 801.284)" gradientUnits="userSpaceOnUse" x1="-64.346725" x2="-50.64653" xlink:href="#g" y1="607.83765" y2="621.36108"/>
    <linearGradient id="g">
        <stop offset="0" stop-color="#460707"/>
        <stop offset="1" stop-color="#7f1010"/>
    </linearGradient>
    <linearGradient id="h" gradientTransform="matrix(.225324 .269654 -.269654 .225324 -627.406 801.284)" gradientUnits="userSpaceOnUse" x1="-29.344938" x2="-48.436817" xlink:href="#i" y1="643.90009" y2="609.60535"/>
    <linearGradient id="i">
        <stop offset="0" stop-color="#ed4545"/>
        <stop offset="1" stop-color="#971212"/>
    </linearGradient>
    <linearGradient id="j" gradientTransform="matrix(.225324 .269654 -.269654 .225324 -627.116 801.486)" gradientUnits="userSpaceOnUse" x1="-22.106869" x2="-31.498558" xlink:href="#k" y1="616.99878" y2="623.03357"/>
    <linearGradient id="k">
        <stop offset="0" stop-color="#fff"/>
        <stop offset="1" stop-color="#fff" stop-opacity="0"/>
    </linearGradient>
    <linearGradient id="l" gradientTransform="matrix(.225324 .269654 -.269654 .225324 -627.61 800.725)" gradientUnits="userSpaceOnUse" x1="-55.812508" x2="-46.812508" xlink:href="#m" y1="616.01501" y2="621.89001"/>
    <linearGradient id="m">
        <stop offset="0" stop-color="#590808"/>
        <stop offset="1" stop-color="#8c0d0d" stop-opacity="0"/>
    </linearGradient>
    <radialGradient id="n" cx="-29.565908" cy="763.40906" gradientTransform="matrix(.23187 .280305 -.019452 .016055 -789.327 932.374)" gradientUnits="userSpaceOnUse" r="17.732456" xlink:href="#k"/>
    <filter id="o" color-interpolation-filters="sRGB">
        <feGaussianBlur stdDeviation=".92951207"/>
    </filter>
    <linearGradient id="p" gradientTransform="matrix(.321109 .254882 -.254882 .321109 -553.846 731.771)" gradientUnits="userSpaceOnUse" x1="-39.067657" x2="-38.890881" xlink:href="#e" y1="661.93134" y2="647.78918"/>
    <linearGradient id="q" gradientTransform="matrix(.321109 .254882 -.254882 .321109 -553.846 731.771)" gradientUnits="userSpaceOnUse" x1="-64.346725" x2="-50.64653" xlink:href="#g" y1="607.83765" y2="621.36108"/>
    <linearGradient id="r" gradientTransform="matrix(.321109 .254882 -.254882 .321109 -553.846 731.771)" gradientUnits="userSpaceOnUse" x1="-29.344938" x2="-48.436817" xlink:href="#i" y1="643.90009" y2="609.60535"/>
    <linearGradient id="s" gradientTransform="matrix(.321109 .254882 -.254882 .321109 -553.466 731.933)" gradientUnits="userSpaceOnUse" x1="-22.106869" x2="-31.498558" xlink:href="#k" y1="616.99878" y2="623.03357"/>
    <linearGradient id="t" gradientTransform="matrix(.321109 .254882 -.254882 .321109 -554.211 731.181)" gradientUnits="userSpaceOnUse" x1="-55.812508" x2="-46.812508" xlink:href="#m" y1="616.01501" y2="621.89001"/>
    <radialGradient id="u" cx="-29.565908" cy="763.40906" gradientTransform="matrix(.331103 .265505 -.0184334 .0229362 -707.891 919.777)" gradientUnits="userSpaceOnUse" r="17.732456" xlink:href="#k"/>
    <filter id="v" color-interpolation-filters="sRGB">
        <feGaussianBlur stdDeviation=".70244051"/>
    </filter>
    <linearGradient id="w" gradientTransform="matrix(.421895 .203794 -.203794 .421895 -588.075 664.897)" gradientUnits="userSpaceOnUse" x1="-39.067657" x2="-38.890881" xlink:href="#e" y1="661.93134" y2="647.78918"/>
    <linearGradient id="x" gradientTransform="matrix(.421895 .203794 -.203794 .421895 -588.075 664.897)" gradientUnits="userSpaceOnUse" x1="-64.346725" x2="-50.64653" xlink:href="#g" y1="607.83765" y2="621.36108"/>
    <linearGradient id="y" gradientTransform="matrix(.421895 .203794 -.203794 .421895 -588.075 664.897)" gradientUnits="userSpaceOnUse" x1="-29.344938" x2="-48.436817" xlink:href="#i" y1="643.90009" y2="609.60535"/>
    <linearGradient id="z" gradientTransform="matrix(.421895 .203794 -.203794 .421895 -587.61 664.984)" gradientUnits="userSpaceOnUse" x1="-22.106869" x2="-31.498558" xlink:href="#k" y1="616.99878" y2="623.03357"/>
    <linearGradient id="A" gradientTransform="matrix(.421895 .203794 -.203794 .421895 -588.629 664.331)" gradientUnits="userSpaceOnUse" x1="-55.812508" x2="-46.812508" xlink:href="#m" y1="616.01501" y2="621.89001"/>
    <radialGradient id="B" cx="-29.565908" cy="763.40906" gradientTransform="matrix(.4357 .213137 -.0148105 .0301922 -712.762 913.119)" gradientUnits="userSpaceOnUse" r="17.732456" xlink:href="#k"/>
    <filter id="C" color-interpolation-filters="sRGB">
        <feGaussianBlur stdDeviation=".40013067"/>
    </filter>
    <linearGradient id="D" gradientTransform="matrix(.499779 .167512 -.167512 .499779 -614.429 613.888)" gradientUnits="userSpaceOnUse" x1="-39.067657" x2="-38.890881" xlink:href="#e" y1="661.93134" y2="647.78918"/>
    <linearGradient id="E" gradientTransform="matrix(.499779 .167512 -.167512 .499779 -614.429 613.888)" gradientUnits="userSpaceOnUse" x1="-64.346725" x2="-50.64653" xlink:href="#g" y1="607.83765" y2="621.36108"/>
    <linearGradient id="F" gradientTransform="matrix(.499779 .167512 -.167512 .499779 -614.429 613.888)" gradientUnits="userSpaceOnUse" x1="-29.344938" x2="-48.436817" xlink:href="#i" y1="643.90009" y2="609.60535"/>
    <linearGradient id="G" gradientTransform="matrix(.499779 .167512 -.167512 .499779 -613.898 613.918)" gradientUnits="userSpaceOnUse" x1="-22.106869" x2="-31.498558" xlink:href="#k" y1="616.99878" y2="623.03357"/>
    <linearGradient id="H" gradientTransform="matrix(.499779 .167512 -.167512 .499779 -615.128 613.334)" gradientUnits="userSpaceOnUse" x1="-55.812508" x2="-46.812508" xlink:href="#m" y1="616.01501" y2="621.89001"/>
    <radialGradient id="I" cx="-29.565908" cy="763.40906" gradientTransform="matrix(.516512 .175978 -.0122403 .035798 -718.325 908.612)" gradientUnits="userSpaceOnUse" r="17.732456" xlink:href="#k"/>
    <linearGradient id="J" gradientUnits="userSpaceOnUse" x1="172.1617237497" x2="172.2646567022" xlink:href="#e" y1="528.36471872386" y2="520.13003594122"/>
    <linearGradient id="K" gradientUnits="userSpaceOnUse" x1="157.44225331372" x2="165.41958915813" xlink:href="#g" y1="496.86709900435" y2="504.74150830132"/>
    <linearGradient id="L" gradientUnits="userSpaceOnUse" x1="177.8230588463" x2="166.70625863406" xlink:href="#i" y1="517.86550050511" y2="497.89639359265"/>
    <linearGradient id="M" gradientUnits="userSpaceOnUse" x1="182.60363442555" x2="177.13505114632" xlink:href="#k" y1="502.04643261962" y2="505.56036410603"/>
    <linearGradient id="N" gradientUnits="userSpaceOnUse" x1="161.48454865427" x2="166.72505965427" xlink:href="#m" y1="501.29360400779" y2="504.71449313279"/>
    <radialGradient id="O" cx="-29.565908" cy="763.40906" gradientTransform="matrix(.602778 .00299328 -.00025325 .0417922 189.555 488.106)" gradientUnits="userSpaceOnUse" r="17.732456" xlink:href="#k"/>
    <linearGradient id="P" gradientUnits="userSpaceOnUse" x1="217.3856558498" x2="206.9452130552" xlink:href="#k" y1="2745.86978645" y2="2790.395324312"/>
    <g transform="matrix(6.66747 0 0 6.66747 -1137.6019 -18351.095)">
        <path d="m-1013.1991 1146.7984c-.8237 0-1.6678.4823-3.3126 1.4375-4.3294 2.3698-8.4614 4.9464-12.7187 7.375-3.3963 1.9357-3.4233 1.9493-3.4375 5.6875-.085 5.1843-.024 10.7231-.031 15.2187 0 3.7383.015 3.7671 3.4062 5.7188 4.2457 2.4487 8.3694 5.016 12.6875 7.4062 2.0504 1.1607 2.8102 1.599 3.9063 1.3126.6576-.1719 1.4469-.5922 2.6874-1.2813 4.3295-2.3698 8.4616-4.9464 12.7188-7.375 3.39631-1.9357 3.39206-1.9493 3.40625-5.6875.0697-5.0654.0697-10.1481.0312-15.25.004-3.7383.0123-3.7358-3.375-5.6875-4.24575-2.4486-8.36935-5.0473-12.68745-7.4375-1.6497-.9551-2.4576-1.4335-3.2812-1.4375z" fill="#380000" filter="url(#a)" transform="matrix(1.26613 0 0 1.01584 1483.3 1600.27)"/>
        <g filter="url(#b)" transform="matrix(1.21901 0 0 1.21901 1211.12 1640.21)">
            <path d="m-799.07673 924.46821c-2.29939-.89592-4.61801-1.65671-6.91673-2.50611-1.83318-.67819-1.83791-.67889-3.27393.51757-2.01249 1.63429-4.1244 3.444-5.84813 4.88671-1.43276 1.20036-1.43272 1.20536-1.0911 3.12985.42741 2.41307.76409 4.82998 1.23715 7.25199.34365 1.85329.34495 1.8522 2.11241 2.528 2.2994.89591 4.61802 1.65672 6.91674 2.50612 1.83318.67818 1.83086.67045 3.26689-.526 1.96206-1.60191 3.90683-3.23169 5.84812-4.88671 1.43276-1.20036 1.43985-1.19685 1.09814-3.12143-.42741-2.41307-.76409-4.82998-1.23715-7.25199-.32934-1.87749-.32308-1.88273-2.11241-2.528z" fill="#8c0d0d" filter="url(#c)" opacity=".2"/>
            <path d="m-816.20662 930.49623c.42741 2.41307.76409 4.82998 1.23715 7.25199.34365 1.85329.34495 1.8522 2.11241 2.528 2.2994.89591 4.61802 1.65672 6.91674 2.50612 7.44715-3.27215-6.87852-19.97295-10.2663-12.28611z" fill="url(#d)" filter="url(#c)" opacity=".2"/>
            <path d="m-799.07673 924.46821c-2.29939-.89592-4.61801-1.65671-6.91673-2.50611-1.83318-.67819-1.83791-.67889-3.27393.51757-2.01249 1.63429-4.1244 3.444-5.84813 4.88671l18.1512-.37017c-.32934-1.87749-.32308-1.88273-2.11241-2.528z" fill="url(#f)" filter="url(#c)" opacity=".2"/>
            <path d="m-800.30396 924.69369-13.9817 2.52645c-1.85349.42665-2.38908 2.65606-1.20449 4.13352l9.01198 10.785c1.11748 1.33734 3.68471.80513 4.13684-.75957l4.93532-13.19181c.93021-2.37147-.45608-4.03051-2.89795-3.4936z" fill="url(#h)" filter="url(#c)" opacity=".2"/>
            <g fill="#fff">
                <g filter="url(#c)" opacity=".2" transform="matrix(.641211 .767364 -.767364 .641211 -83.1958 5.875)">
                    <path d="m244.70873 1147.7226c0-1.0093.10384-1.8216.31153-2.4369s.51631-1.0899.92586-1.4238c.40955-.3338.92488-.5007 1.54601-.5007.45807 0 .85986.092 1.20536.2765.34549.1845.63082.4504.85598.7978.22515.3474.40178.7706.52989 1.2694.1281.4989.19216 1.1714.19216 2.0177 0 1.0015-.10288 1.81-.30862 2.4253-.20575.6153-.5134 1.0908-.92294 1.4266-.40956.3358-.92683.5037-1.55183.5037-.82299 0-1.46934-.295-1.93906-.8851-.56289-.7104-.84434-1.8672-.84434-3.4705zm1.07726 0c0 1.4014.16401 2.334.49204 2.7979s.73273.6959 1.2141.6959c.48136 0 .88606-.2329 1.21409-.6988.32803-.4658.49204-1.3975.49205-2.795-.00001-1.4053-.16402-2.3389-.49205-2.8009-.32803-.4619-.73661-.6929-1.22574-.6929-.48137 0-.86569.2038-1.15295.6114-.36103.5202-.54154 1.481-.54154 2.8824z"/>
                </g>
                <g filter="url(#c)" opacity=".2" transform="matrix(-1.08223 -1.29515 .454657 -.379913 -83.1958 5.875)">
                    <path d="m-147.91655-1952.3128.49383-.042c.0366.2404.1215.4211.25476.5422.13325.121.29394.1816.48207.1816.22645 0 .41806-.085.57483-.2561.15677-.1707.23516-.3971.23516-.6793 0-.2683-.0753-.4799-.22601-.635-.15068-.155-.34795-.2325-.59182-.2325-.15155 0-.28828.034-.41022.1032-.12193.069-.21774.1581-.28741.2678l-.44158-.058.37103-1.9674h1.90478v.4494h-1.52853l-.20641 1.0294c.22993-.1602.47118-.2403.72376-.2404.33444.0001.61663.1159.84657.3476.22993.2316.34489.5295.3449.8936-.00001.3466-.10104.6462-.3031.8988-.24561.31-.58093.4651-1.00595.4651-.34838 0-.63275-.098-.8531-.2927-.22035-.1951-.3462-.4537-.37756-.776z"/>
                </g>
                <g filter="url(#c)" opacity=".2" transform="matrix(.69921 .303708 -.289304 1.30452 -83.1958 5.875)">
                    <path d="m-662.36282 865.06915-.52907.0414c-.0473-.20887-.11429-.36059-.20099-.45518-.14385-.15172-.32119-.22759-.53203-.22759-.16946 0-.31824.0473-.44631.14187-.1675.12218-.29952.3005-.39607.53499-.0965.23449-.1468.56848-.15074 1.00199.12808-.19508.28473-.33991.46996-.43449.18522-.0946.37931-.14188.58227-.14188.35469 0 .65666.13055.90593.39163.24926.26109.37389.59854.3739 1.01234-.00001.27192-.0586.52464-.17587.75814-.11724.2335-.27833.41232-.48326.53646s-.43745.18621-.69755.18621c-.44335 0-.80494-.16306-1.08474-.48917-.27981-.32612-.41972-.86356-.41971-1.61234-.00001-.83745.15468-1.44633.46404-1.82664.26996-.33103.63351-.49655 1.09066-.49656.34089.00001.62021.0956.83795.28671.21773.19114.34827.45518.39163.79213zm-2.17245 1.86801c0 .18326.0389.35863.11675.52612.0778.16749.1867.29508.32661.38276.1399.0877.2867.13153.4404.13153.22463 0 .41774-.0906.57932-.27192.16157-.18129.24236-.4276.24237-.73893-.00001-.29951-.0798-.53548-.23942-.7079-.15961-.17241-.3606-.25862-.60296-.25862-.2404 0-.44435.0862-.61184.25862s-.25123.39854-.25123.67834z"/>
                </g>
                <path d="m256.58246 1144.7833h.26355v1.8449h-.26355z" filter="url(#c)" opacity=".2" transform="matrix(.641211 .767364 -.767364 .641211 -83.1958 5.875)"/>
                <g filter="url(#c)" opacity=".2" transform="matrix(-.273265 .690855 -1.44228 -.0131512 -83.1958 5.875)">
                    <path d="m1333.792 251.26508v-1.11429h-2.019v-.52381l2.1238-3.01587h.4666v3.01587h.6286v.52381h-.6286v1.11429zm0-1.6381v-2.09841l-1.4571 2.09841z" fill="#fff"/>
                </g>
            </g>
            <path d="m-803.33479 942.51626c.37668-.22078.80502-.6608.91547-1.04306.003-.007.006-.0151.01-.0225l4.93996-13.20068c.34936-.89065.33406-1.61437.0861-2.13197z" fill="url(#j)" filter="url(#c)" opacity=".2"/>
            <path d="m-815.4035 927.90359c.2842-.33145.79334-.67478 1.18914-.71555.008-.002.0159-.004.0239-.006l13.86841-2.51565c.93856-.18553 1.64804-.0419 2.11335.2941z" fill="url(#l)" filter="url(#c)" opacity=".2"/>
            <path d="m-815.25723 930.66508 8.82755 10.56429-.4719.39432-8.82754-10.56429z" fill="url(#n)" filter="url(#c)" opacity=".2"/>
        </g>
        <g filter="url(#o)" transform="matrix(1.21901 0 0 1.21901 1107.92 1648.64)">
            <path d="m-720.89686 913.04685c-2.83866-.48067-5.66738-.80241-8.49428-1.2301-2.25458-.34198-2.26015-.34166-3.61832 1.36439-1.91342 2.34241-3.89902 4.90871-5.52776 6.96405-1.35352 1.70975-1.3523 1.71545-.50757 3.83356 1.0581 2.65607 2.01346 5.33794 3.12583 7.99344.83022 2.03628.83145 2.03473 3.01039 2.38951 2.83866.48066 5.66738.80242 8.49428 1.23009 2.25458.34199 2.2501.3337 3.60829-1.37235 1.86345-2.2935 3.70057-4.61477 5.52775-6.96405 1.35352-1.70974 1.36245-1.7074.51761-3.82559-1.0581-2.65607-2.01346-5.33795-3.12583-7.99344-.8196-2.06731-.81368-2.07478-3.01039-2.38951z" fill="#8c0d0d" opacity=".4"/>
            <path d="m-739.04479 923.97875c1.0581 2.65607 2.01346 5.33794 3.12583 7.99344.83022 2.03628.83145 2.03473 3.01039 2.38951 2.83866.48066 5.66738.80242 8.49428 1.23009 7.73591-5.49694-12.57493-21.19535-14.6305-11.61304z" fill="url(#p)" opacity=".4"/>
            <path d="m-720.89686 913.04685c-2.83866-.48067-5.66738-.80241-8.49428-1.2301-2.25458-.34198-2.26015-.34166-3.61832 1.36439-1.91342 2.34241-3.89902 4.90871-5.52776 6.96405l20.65075-4.70883c-.8196-2.06731-.81368-2.07478-3.01039-2.38951z" fill="url(#q)" opacity=".4"/>
            <path d="m-722.24577 913.59424-15.37784 6.18793c-2.01692.92509-2.10242 3.59872-.40014 5.00703l12.84296 10.19418c1.59253 1.26408 4.39998.0498 4.54709-1.84463l2.52382-16.23727c.50284-2.92911-1.47277-4.49726-4.13588-3.30725z" fill="url(#r)" opacity=".4"/>
            <g fill="#fff">
                <path d="m1.6585787 1174.2605c-.0000006-1.1775.1211501-2.1252.3634525-2.843.2423005-.7179.6023559-1.2716 1.0801673-1.6611.4778074-.3894 1.0790319-.5842 1.8036756-.5842.534418 0 1.0031694.1076 1.4062555.3227.4030757.2151.7359571.5254.9986453.9307.2626757.4054.4687451.899.6182089 1.481.1494501.582.2241786 1.3666.2241857 2.3539-.0000071 1.1685-.1200255 2.1117-.3600558 2.8295-.2400436.7179-.5989668 1.2727-1.0767705 1.6644-.477815.3918-1.0813041.5877-1.8104691.5877-.9601516 0-1.7142299-.3442-2.2622372-1.0326-.6567064-.8288-.9850588-2.1785-.9850582-4.049zm1.2567984 0c-.0000018 1.635.1913484 2.7231.5740512 3.2643.382698.5412.8548461.8118 1.4164458.8118.561592 0 1.0337401-.2717 1.4164458-.8152.3826951-.5435.5740453-1.6304.5740512-3.2609-.0000059-1.6395-.1913561-2.7287-.5740512-3.2676-.3827057-.539-.8593828-.8085-1.4300328-.8085-.5615997 0-1.0099706.2378-1.345114.7134-.4211994.6068-.6317978 1.7278-.631796 3.3627z" opacity=".4" transform="matrix(.783249 .621708 -.621708 .783249 0 0)"/>
                <path d="m-4.3993245-1999.637.5761364-.049c.042676.2805.1417469.4913.2972133.6326.1554641.1412.3429368.2118.5624188.2118.2641876 0 .4877324-.1.670635-.2987.1828979-.1992.274348-.4634.2743507-.7926-.0000027-.3129-.087896-.5599-.2636815-.7407-.1757898-.1809-.4059393-.2713-.6904492-.2713-.1768053 0-.3363349.04-.4785895.1204-.142257.08-.2540293.1844-.3353175.3124l-.5151696-.067.4328644-2.2954h2.2222405v.5243h-1.7832794l-.2408189 1.201c.2682527-.1869.5497159-.2804.8443904-.2804.3901854 0 .7194059.1351.9876624.4054.2682509.2703.4023778.6178.402381 1.0425-.0000032.4045-.1178723.754-.3536076 1.0487-.2865466.3617-.6777499.5426-1.1736112.5426-.4064467 0-.7382074-.1138-.9952832-.3414-.2570772-.2276-.4039055-.5294-.4404853-.9054z" opacity=".4" transform="matrix(-1.32196 -1.04931 .368357 -.464069 0 0)"/>
                <path d="m-938.8299 799.97084-.61725.0483c-.0552-.24368-.13334-.42069-.23449-.53105-.16782-.177-.37472-.26551-.6207-.26552-.1977.00001-.37127.0552-.52069.16552-.19541.14254-.34944.35059-.46208.62415-.11265.27357-.17127.66323-.17587 1.16899.14943-.22759.33219-.39656.54829-.50691.21609-.11034.44253-.16551.67932-.16552.4138.00001.7661.15231 1.05691.45691s.43621.69829.43622 1.18105c-.00001.31725-.0684.61208-.20518.8845s-.32472.48104-.5638.62587c-.23909.14483-.51036.21725-.81381.21725-.51725 0-.93909-.19024-1.26553-.5707-.32645-.38047-.48967-1.00749-.48967-1.88107 0-.97702.18046-1.68738.54139-2.13107.31495-.38621.73909-.57931 1.27244-.57932.3977.00001.72357.1115.9776.33449.25402.223.40632.53105.4569.92415zm-2.53452 2.17935c0 .2138.0454.4184.13621.6138.0908.19541.21781.34426.38104.44656.16322.1023.33448.15345.5138.15345.26207 0 .48736-.10575.67587-.31724.18851-.2115.28276-.49886.28277-.86209-.00001-.34943-.0931-.62472-.27932-.82587-.18621-.20115-.4207-.30173-.70346-.30173-.28047 0-.5184.10058-.7138.30173-.19541.20115-.29311.46495-.29311.79139z" opacity=".4" transform="matrix(.746208 .155909 -.0192934 1.33608 0 0)"/>
                <path d="m15.51125 1170.8314h.307477v2.1524h-.307477z" opacity=".4" transform="matrix(.783249 .621708 -.621708 .783249 0 0)"/>
                <path d="m1090.3251 419.92319v-1.3h-2.3555v-.61111l2.4778-3.51852h.5444v3.51852h.7333v.61111h-.7333v1.3zm0-1.91111v-2.44815l-1.7 2.44815z" opacity=".4" transform="matrix(-.127787 .731864 -1.41509 .279025 0 0)"/>
            </g>
            <path d="m-721.50025 934.67257c.37825-.34119.76373-.94506.79967-1.40789.002-.009.004-.0187.006-.028l2.52704-16.24851c.18885-1.10008.00048-1.92333-.40502-2.45615z" fill="url(#s)" opacity=".4"/>
            <path d="m-738.73939 920.82697c.24644-.4458.74707-.95828 1.18966-1.09832.009-.004.0174-.008.026-.0121l15.25096-6.14883c1.02852-.43359 1.87304-.43698 2.48399-.16299z" fill="url(#t)" opacity=".4"/>
            <path d="m-737.92023 923.94749 12.58014 9.98556-.44604.56194-12.58014-9.98556z" fill="url(#u)" opacity=".4"/>
        </g>
        <g filter="url(#v)" transform="matrix(1.21901 0 0 1.21901 1107.92 1649.15)">
            <path d="m-728.94983 908.87126c-3.2857.17495-6.52053.52461-9.77986.75569-2.59967.1833-2.60581.18505-3.69301 2.42758-1.54697 3.09118-3.11835 6.45008-4.41978 9.14985-1.08109 2.24549-1.0783 2.25154.3941 4.40184 1.84507 2.69673 3.58202 5.44797 5.48745 8.13047 1.43574 2.0627 1.43672 2.06066 3.95526 1.91057 3.28571-.17495 6.52053-.5246 9.77987-.75569 2.59967-.1833 2.59261-.19142 3.67982-2.43395 1.5035-3.02413 2.9707-6.07262 4.41978-9.14985 1.08109-2.24548 1.09164-2.24511-.38091-4.39547-1.84507-2.69673-3.58202-5.44798-5.48746-8.13047-1.43166-2.09996-1.42693-2.10976-3.95526-1.91057z" fill="#8c0d0d" opacity=".6"/>
            <path d="m-746.44838 925.60622c1.84507 2.69673 3.58202 5.44797 5.48745 8.13047 1.43574 2.0627 1.43672 2.06066 3.95526 1.91057 3.28571-.17495 6.52053-.5246 9.77987-.75569 7.24947-8.06693-19.33027-20.48519-19.22258-9.28535z" fill="url(#w)" opacity=".6"/>
            <path d="m-728.94983 908.87126c-3.2857.17495-6.52053.52461-9.77986.75569-2.59967.1833-2.60581.18505-3.69301 2.42758-1.54697 3.09118-3.11835 6.45008-4.41978 9.14985l21.84791-10.42255c-1.43166-2.09996-1.42693-2.10976-3.95526-1.91057z" fill="url(#x)" opacity=".6"/>
            <path d="m-730.31687 909.81947-15.59779 10.75131c-2.01734 1.53668-1.44309 4.53939.80779 5.68345l16.87399 8.15088c2.09237 1.0107 4.91879-1.04638 4.60838-3.1957l-1.25225-18.73791c-.17288-3.39212-2.76857-4.64595-5.44012-2.65203z" fill="url(#y)" opacity=".6"/>
            <g fill="#fff">
                <path d="m-262.60443 1147.9478c0-1.3458.13845-2.4289.41537-3.2493.27692-.8203.68841-1.4531 1.23448-1.8983.54606-.4451 1.23318-.6676 2.06134-.6677.61077.0001 1.14648.123 1.60715.3688.46066.2459.84109.6005 1.14131 1.0637.3002.4633.53571 1.0274.70652 1.6926.1708.6651.25621 1.5618.25622 2.6902-.00001 1.3354-.13718 2.4133-.4115 3.2337-.27433.8204-.68453 1.4544-1.23059 1.9022-.54608.4477-1.23578.6716-2.06911.6716-1.09731 0-1.95912-.3934-2.58541-1.1802-.75052-.9472-1.12578-2.4896-1.12578-4.6273zm1.43634 0c0 1.8685.21868 3.1121.65606 3.7306.43737.6185.97696.9278 1.61879.9278.64182 0 1.18142-.3106 1.6188-.9317.43736-.6211.65605-1.8634.65606-3.7267-.00001-1.8737-.2187-3.1186-.65606-3.7345-.43738-.6159-.98215-.9239-1.63433-.9239-.64182 0-1.15425.2717-1.53727.8152-.48137.6936-.72205 1.9747-.72205 3.8432z" opacity=".6" transform="matrix(.900451 .434958 -.434958 .900451 0 0)"/>
                <path d="m151.68634-1957.7604.65844-.056c.0488.3205.162.5614.33967.7229.17767.1614.39193.2421.64277.2421.30192 0 .5574-.1138.76644-.3414.20902-.2276.31354-.5296.31354-.9058 0-.3577-.10045-.6399-.30135-.8466s-.46393-.31-.78909-.3101c-.20206.0001-.38438.046-.54696.1377-.16257.092-.29031.2107-.38321.3571l-.58877-.077.4947-2.6233h2.53971v.5992h-2.03804l-.27522 1.3726c.30657-.2136.62825-.3205.96502-.3205.44592 0 .82218.1545 1.12875.4634.30658.3089.45987.706.45987 1.1914 0 .4622-.13471.8617-.40412 1.1985-.32749.4134-.77458.6201-1.34127.6201-.46451 0-.84367-.1301-1.13747-.3902s-.46161-.605-.50341-1.0347z" opacity=".6" transform="matrix(-1.51977 -.734115 .257709 -.53351 0 0)"/>
                <path d="m-1194.6484 691.60947-.7054.0552c-.063-.27849-.1524-.4808-.268-.60691-.1918-.2023-.4282-.30345-.7093-.30345-.226 0-.4244.0631-.5951.18916-.2233.1629-.3994.40067-.5281.71331-.1288.31266-.1957.75798-.201 1.33599.1708-.2601.3796-.45321.6266-.57932s.5058-.18917.7764-.18917c.4729 0 .8755.17406 1.2079.52218.3323.34812.4985.79804.4985 1.34977 0 .36257-.078.69952-.2345 1.01086-.1563.31133-.3711.54976-.6443.71528-.2733.16552-.5833.24828-.9301.24828-.5911 0-1.0732-.21741-1.4463-.65223-.3731-.43481-.5596-1.15141-.5596-2.14979 0-1.1166.2062-1.92843.6187-2.43551.3599-.44138.8447-.66207 1.4542-.66208.4545.00001.8269.12743 1.1173.38228.2903.25485.4643.60691.5221 1.05617zm-2.8966 2.49068c0 .24435.052.47817.1557.70149.1038.22333.2489.39344.4355.51036.1865.11691.3823.17537.5872.17537.2995 0 .557-.12086.7724-.36257.2155-.24171.3232-.57012.3232-.98524 0-.39934-.1064-.71396-.3192-.94385-.2129-.22989-.4808-.34483-.804-.34484-.3205.00001-.5925.11495-.8158.34484s-.335.53137-.335.90444z" opacity=".6" transform="matrix(.762236 -.0114026 .273961 1.30783 0 0)"/>
                <path d="m-246.7728 1144.0287h.35141v2.4598h-.35141z" opacity=".6" transform="matrix(.900451 .434958 -.434958 .900451 0 0)"/>
                <path d="m774.14965 583.66876v-1.48571h-2.69206v-.69841l2.83174-4.02117h.62222v4.02117h.8381v.69841h-.8381v1.48571zm0-2.18412v-2.79789l-1.94286 2.79789z" opacity=".6" transform="matrix(.0356981 .742078 -1.31955 .582344 0 0)"/>
            </g>
            <path d="m-724.20663 933.13676c.33632-.47518.61493-1.24509.53909-1.77017-.00018-.0107-.00066-.0218-.00045-.0327l-1.25148-18.75125c-.0649-1.27397-.48115-2.14479-1.06676-2.63737z" fill="url(#z)" opacity=".6"/>
            <path d="m-746.89717 922.01525c.16315-.55882.59304-1.25566 1.0515-1.52265.009-.007.0175-.013.0259-.02l15.4661-10.67592c1.03828-.74108 1.97914-.95637 2.72902-.80385z" fill="url(#A)" opacity=".6"/>
            <path d="m-745.20223 925.28973 16.52866 7.98407-.35664.73832-16.52866-7.98407z" fill="url(#B)" opacity=".6"/>
        </g>
        <g filter="url(#C)" transform="matrix(1.21901 0 0 1.21901 1106.65 1650.17)">
            <path d="m-736.99362 906.17096c-3.64199.6619-7.20239 1.51156-10.80697 2.23237-2.87521.57379-2.88181.57662-3.77661 3.23369-1.28738 3.66947-2.56398 7.64118-3.63293 10.83896-.88757 2.65951-.88359 2.66587 1.06501 4.85647 2.4421 2.7475 4.7713 5.57118 7.27875 8.29422 1.89525 2.09805 1.89605 2.09564 4.68542 1.57043 3.642-.66192 7.2024-1.51157 10.80699-2.23238 2.8752-.57379 2.86616-.58185 3.76099-3.23893 1.24839-3.58846 2.4528-7.19895 3.63292-10.83895.88757-2.6595.89939-2.66058-1.04939-4.85124-2.44211-2.74749-4.7713-5.57118-7.27876-8.29422-1.89599-2.1402-1.8921-2.15182-4.68542-1.57042z" fill="#8c0d0d" opacity=".8"/>
            <path d="m-754.14512 927.33245c2.4421 2.7475 4.7713 5.57118 7.27875 8.29422 1.89525 2.09805 1.89605 2.09564 4.68542 1.57043 3.642-.66192 7.2024-1.51157 10.80699-2.23238 6.94466-10.03232-24.48205-20.11597-22.77116-7.63227z" fill="url(#D)" opacity=".8"/>
            <path d="m-736.99362 906.17096c-3.64199.6619-7.20239 1.51156-10.80697 2.23237-2.87521.57379-2.88181.57662-3.77661 3.23369-1.28738 3.66947-2.56398 7.64118-3.63293 10.83896l22.90193-14.7346c-1.89599-2.1402-1.8921-2.15182-4.68542-1.57042z" fill="url(#E)" opacity=".8"/>
            <path d="m-738.38457 907.42332-15.8801 14.21378c-2.03309 2.00146-.96576 5.27092 1.70871 6.228l19.98901 6.69976c2.47863.83077 5.34075-1.86636 4.68906-4.22091l-4.05884-20.73363c-.67471-3.76104-3.74959-4.79166-6.44783-2.18701z" fill="url(#F)" opacity=".8"/>
            <g fill="#fff">
                <path d="m-412.54251 1107.4613c0-1.514.15576-2.7324.4673-3.6554.31153-.9229.77445-1.6348 1.38878-2.1356.61433-.5007 1.38733-.7511 2.31901-.7511.68711 0 1.28979.1383 1.80805.4149.51824.2766.94623.6754 1.28397 1.1966.33773.5212.60267 1.1559.79484 1.9041.19215.7483.28823 1.7571.28824 3.0265-.00001 1.5024-.15432 2.715-.46293 3.6379-.30863.923-.7701 1.6363-1.38442 2.14-.61433.5037-1.39025.7555-2.32775.7555-1.23448 0-2.20401-.4425-2.90859-1.3276-.84433-1.0656-1.2665-2.8009-1.2665-5.2058zm1.61588 0c0 2.1021.24602 3.5011.73807 4.1969.49204.6959 1.09909 1.0438 1.82114 1.0438s1.3291-.3494 1.82115-1.0481c.49204-.6988.73806-2.0963.73806-4.1926 0-2.1079-.24602-3.5083-.73806-4.2013-.49205-.6929-1.10492-1.0394-1.83861-1.0394-.72206 0-1.29854.3057-1.72944.9171-.54154.7803-.81231 2.2215-.81231 4.3236z" opacity=".8" transform="matrix(.948159 .317797 -.317797 .948159 0 0)"/>
                <path d="m240.03538-1891.9616.74075-.063c.0549.3606.18224.6317.38213.8133.19988.1816.44092.2724.72311.2724.33967 0 .62708-.128.86224-.3841s.35274-.5957.35274-1.019c0-.4024-.11301-.7199-.33902-.9524-.22602-.2326-.52192-.3488-.88772-.3488-.22732 0-.43243.052-.61533.1548-.1829.1032-.32661.2371-.43112.4017l-.66236-.086.55654-2.9512h2.85716v.6741h-2.29278l-.30963 1.5442c.3449-.2404.70678-.3606 1.08565-.3606.50166 0 .92495.1738 1.26985.5213.34489.3475.51734.7943.51734 1.3404 0 .5199-.15155.9693-.45463 1.3482-.36842.4651-.8714.6976-1.50893.6976-.52258 0-.94913-.1463-1.27965-.4389-.33053-.2927-.51931-.6807-.56634-1.1641z" opacity=".8" transform="matrix(-1.60029 -.536373 .188292 -.561777 0 0)"/>
                <path d="m-1317.8974 612.66741-.7936.0621c-.071-.3133-.1714-.54089-.3014-.68277-.2158-.22758-.4818-.34137-.7981-.34138-.2542.00001-.4773.0709-.6695.21281-.2512.18326-.4492.45075-.5941.80248-.1448.35173-.2202.85272-.2261 1.50298.1922-.29261.4271-.50986.705-.65174.2778-.14187.5689-.2128.8734-.21281.532.00001.985.19582 1.3589.58745.3739.39164.5608.8978.5608 1.5185 0 .40789-.088.78696-.2638 1.13721s-.4175.61848-.7249.80469-.6561.27932-1.0463.27932c-.665 0-1.2074-.24459-1.6271-.73376s-.6296-1.29534-.6296-2.41851c0-1.25618.232-2.16949.6961-2.73995.4049-.49655.9503-.74483 1.636-.74484.5113.00001.9303.14336 1.2569.43006.3266.28671.5224.68277.5874 1.18819zm-3.2586 2.80202c0 .27489.058.53794.1751.78918.1167.25123.2801.44262.4899.57415.2099.13153.4301.19729.6606.19729.337 0 .6266-.13596.869-.40789.2424-.27192.3635-.64139.3635-1.10839 0-.44927-.1197-.80322-.3591-1.06184s-.5409-.38794-.9044-.38794c-.3606 0-.6665.12932-.9178.38794-.2512.25862-.3768.59779-.3768 1.0175z" opacity=".8" transform="matrix(.754698 -.107542 .43688 1.26278 0 0)"/>
                <path d="m-394.73193 1103.0524h.39532v2.7673h-.39532z" opacity=".8" transform="matrix(.948159 .317797 -.317797 .948159 0 0)"/>
                <path d="m570.28873 667.76654v-1.67143h-3.02857v-.78571l3.18571-4.52381h.7v4.52381h.94286v.78571h-.94286v1.67143zm0-2.45714v-3.14762l-2.18571 3.14762z" opacity=".8" transform="matrix(.129099 .731634 -1.23547 .744275 0 0)"/>
            </g>
            <path d="m-728.25381 932.57755c.30785-.57807.50942-1.47686.35021-2.05208-.002-.0119-.004-.0242-.005-.0365l-4.05988-20.74862c-.2534-1.41253-.84158-2.32525-1.56509-2.79179z" fill="url(#G)" opacity=".8"/>
            <path d="m-755.156 923.38868c.10272-.64681.4835-1.48554.95721-1.84862.009-.008.0176-.017.0261-.026l15.74384-14.11095c1.05347-.97451 2.07289-1.34839 2.93142-1.28469z" fill="url(#H)" opacity=".8"/>
            <path d="m-752.79937 926.80226 19.57994 6.56266-.29315.87461-19.57993-6.56266z" fill="url(#I)" opacity=".8"/>
        </g>
        <g transform="matrix(1.22611 .00289428 -.00289428 1.22611 -8.23341 2152.78)">
            <path d="m169.14378 492.10315c-3.58228 1.97185-7.01318 4.11171-10.5356 6.13212-2.81007 1.61037-2.81599 1.61565-2.82042 4.71282-.0602 4.29537-.003 8.90354 0 12.62818.004 3.09718.0104 3.10245 2.82042 4.71282 3.52242 2.02042 6.95332 4.16027 10.5356 6.13213 2.72164 1.53216 2.72164 1.52935 5.45886 0 3.58228-1.97186 7.01319-4.11171 10.53561-6.13213 2.81007-1.61037 2.79777-1.61564 2.80222-4.71282.0478-4.19684.0418-8.40132 0-12.62818-.004-3.09717.008-3.10245-2.80222-4.71282-3.52242-2.02041-6.95333-4.16027-10.53561-6.13212-2.73722-1.57606-2.73722-1.58959-5.45886 0z" fill="#8c0d0d"/>
            <path d="m158.60818 520.28909c3.52242 2.02042 6.95332 4.16027 10.5356 6.13213 2.72164 1.53216 2.72164 1.52935 5.45886 0 3.58228-1.97186 7.01319-4.11171 10.53561-6.13213 3.75192-12.94593-32.70463-12.47489-26.53007 0z" fill="url(#J)"/>
            <path d="m169.14378 492.10315c-3.58228 1.97185-7.01318 4.11171-10.5356 6.13212-2.81007 1.61037-2.81599 1.61565-2.82042 4.71282-.0602 4.29537-.003 8.90354 0 12.62818l18.81488-23.47312c-2.73722-1.57606-2.73722-1.58959-5.45886 0z" fill="url(#K)"/>
            <path d="m168.12655 493.90319-11.64301 20.46252c-1.42684 2.81008.83888 5.85984 3.97613 5.92338h23.28866c2.88779 0 4.93873-3.82978 3.42955-6.06717l-11.53005-20.29164c-2.02706-3.70248-5.60951-3.70248-7.52128-.0271z" fill="url(#L)"/>
            <g fill="#fff">
                <path d="m173.77029 514.60321h-1.73678v-11.06716c-.41812.39883-.96649.79764-1.64512 1.19645-.67864.39883-1.28812.69794-1.82845.89734v-1.67889c.97131-.4567 1.8204-1.0099 2.54728-1.65959.72687-.64968 1.24148-1.28006 1.54381-1.89117h1.11926z"/>
                <path d="m-103.93414-881.95686.81829-.0693c.0606.39832.20132.69778.42213.89838.2208.2006.48707.3009.7988.3009.37523 0 .69273-.14143.9525-.42429s.38966-.65809.38966-1.12568c0-.4445-.12484-.79519-.37451-1.05208s-.57655-.38533-.98064-.38533c-.25111 0-.47769.057-.67974.17101-.20204.11402-.36079.26195-.47625.44378l-.73169-.0952.6148-3.26015h3.15623v.74469h-2.53278l-.34203 1.70584c.38099-.26554.78076-.39832 1.19928-.39832.55418 0 1.02177.19195 1.40277.57583.380999.38389.571499.87746.571504 1.4807-.000005.57439-.167414 1.07085-.502224 1.48937-.40698.51377-.96261.77066-1.66688.77066-.57727 0-1.04847-.16164-1.4136-.48491-.36512-.32327-.57366-.7519-.62562-1.28588z" transform="scale(-1.68779 -.592492)"/>
                <path d="m-212.73781 402.01393-.87668.0686c-.0784-.34609-.18938-.59751-.33304-.75424-.23835-.2514-.53221-.37711-.88157-.37712-.28081.00001-.52732.0784-.73955.23509-.27754.20244-.4963.49794-.65629.88648-.15999.38855-.24325.94198-.24978 1.6603.21223-.32324.47181-.56322.77873-.71995.30692-.15672.62853-.23509.96484-.23509.58771 0 1.08809.21632 1.50113.64894.41303.43263.61955.99178.61955 1.67744 0 .45059-.0971.86934-.29141 1.25625-.19428.38692-.4612.68323-.80076.88893-.33958.2057-.72486.30855-1.15585.30855-.73465 0-1.3338-.27019-1.79744-.81056-.46364-.54038-.69547-1.43093-.69547-2.67167 0-1.38767.25631-2.39658.76894-3.02675.44731-.54853 1.04972-.8228 1.80723-.82281.56486.00001 1.02769.15837 1.38849.47507.36078.31672.5771.75425.64893 1.31257zm-3.59977 3.09532c0 .30366.0645.59425.19346.87179.12897.27753.30936.48895.54119.63424.23182.1453.47507.21795.72975.21795.37222 0 .6922-.1502.95994-.45059.26773-.30039.4016-.70852.4016-1.22441 0-.49629-.13224-.88729-.39671-1.17299-.26447-.28569-.59751-.42854-.99912-.42854-.39834 0-.73628.14285-1.01381.42854-.27754.2857-.4163.66037-.4163 1.12401z" transform="matrix(.681397 -.341808 .815539 1.05848 0 0)"/>
                <path d="m186.90331 502.75668h.4367v3.05697h-.4367z"/>
                <path d="m645.02679 77.042297v-1.846384h-3.34559v-.867958l3.51918-4.997336h.77327v4.997336h1.04155v.867958h-1.04155v1.846384zm0-2.714342v-3.477094l-2.4145 3.477094z" transform="matrix(.354917 .652678 -.934898 1.09832 0 0)"/>
            </g>
            <path d="m187.56828 516.69338c.1195-.71355.0151-1.72571-.3536-2.27231-.006-.0119-.0125-.024-.0182-.0364l-11.5364-20.30698c-.7613-1.39053-1.69779-2.14003-2.61938-2.3747z" fill="url(#M)"/>
            <path d="m156.16487 516.51324c-.11949-.71354-.0151-1.72571.35361-2.2723.006-.0119.0125-.024.0182-.0364l11.53639-20.30698c.7613-1.39054 1.69779-2.14003 2.61938-2.37471z" fill="url(#N)"/>
            <path d="m159.8316 519.26132h22.81206v1.01899h-22.81206z" fill="url(#O)"/>
        </g>
        <path d="m201.08416 2755.1878c-.83664 0-1.69475.4957-3.36555 1.4655-4.39797 2.4075-8.5947 5.0239-12.91941 7.4911-3.45013 1.9664-3.45973 1.9567-3.47413 5.754-.0205 1.2567.009 2.4121 0 3.6913 2.59917 1.6745 5.20913 3.323 8.03392 4.7226 3.03086 1.5018 6.30201 2.7155 9.93382 3.4741 1.81592.3794 3.72165.6492 5.75402.7602 2.03239.1116 4.16672.1037 6.45971-.1094 2.29299-.213 4.73047-.602 7.32823-1.1941.59292-.1355 1.28972-.3863 1.89992-.543.0122-3.5582.027-7.1113 0-10.6937.003-3.7976.0212-3.8255-3.41985-5.8083-4.31302-2.4875-8.47857-5.1173-12.86512-7.5454-1.67579-.9701-2.52892-1.4613-3.36556-1.4655z" fill="url(#P)"/>
    </g>
</svg>
