<?xml version="1.0" encoding="UTF-8" standalone="no"?>
<svg
   enable-background="new 0 0 595.275 841.89"
   height="480"
   viewBox="0 0 479.99998 480"
   width="480"
   version="1.1"
   id="svg230"
   sodipodi:docname="rolisteam_copy.svg"
   inkscape:version="1.1.2 (0a00cf5339, 2022-02-04)"
   xmlns:inkscape="http://www.inkscape.org/namespaces/inkscape"
   xmlns:sodipodi="http://sodipodi.sourceforge.net/DTD/sodipodi-0.dtd"
   xmlns:xlink="http://www.w3.org/1999/xlink"
   xmlns="http://www.w3.org/2000/svg"
   xmlns:svg="http://www.w3.org/2000/svg">
  <defs
     id="defs234" />
  <sodipodi:namedview
     id="namedview232"
     pagecolor="#ffffff"
     bordercolor="#666666"
     borderopacity="1.0"
     inkscape:pageshadow="2"
     inkscape:pageopacity="0.0"
     inkscape:pagecheckerboard="0"
     showgrid="false"
     width="480px"
     inkscape:zoom="2.1332746"
     inkscape:cx="178.83305"
     inkscape:cy="241.88166"
     inkscape:window-width="2560"
     inkscape:window-height="1403"
     inkscape:window-x="2560"
     inkscape:window-y="0"
     inkscape:window-maximized="1"
     inkscape:current-layer="svg230" />
  <filter
     id="a"
     color-interpolation-filters="sRGB"
     height="1.4509391"
     width="1.5130646"
     x="-0.25653229"
     y="-0.22546957">
    <feGaussianBlur
       stdDeviation="4.1562689"
       id="feGaussianBlur2" />
  </filter>
  <filter
     id="b"
     color-interpolation-filters="sRGB"
     height="2.085878"
     width="7.0620147"
     x="-3.0310074"
     y="-0.55282197">
    <feGaussianBlur
       stdDeviation="1.0646233"
       id="feGaussianBlur5" />
  </filter>
  <filter
     id="c"
     color-interpolation-filters="sRGB"
     x="-2.9084757"
     y="-0.41548527"
     width="6.8169514"
     height="1.8309705">
    <feGaussianBlur
       stdDeviation=".31938699"
       id="feGaussianBlur8" />
  </filter>
  <linearGradient
     id="d"
     gradientTransform="matrix(0.225324,0.269654,-0.269654,0.225324,-627.406,801.284)"
     gradientUnits="userSpaceOnUse"
     x1="-39.067657"
     x2="-38.890881"
     xlink:href="#e"
     y1="661.93134"
     y2="647.78918" />
  <linearGradient
     id="e">
    <stop
       offset="0"
       stop-color="#091d55"
       id="stop12" />
    <stop
       offset="1"
       stop-color="#091d55"
       stop-opacity="0"
       id="stop14" />
  </linearGradient>
  <linearGradient
     id="f"
     gradientTransform="matrix(0.225324,0.269654,-0.269654,0.225324,-627.406,801.284)"
     gradientUnits="userSpaceOnUse"
     x1="-64.346725"
     x2="-50.64653"
     xlink:href="#g"
     y1="607.83765"
     y2="621.36108" />
  <linearGradient
     id="g">
    <stop
       offset="0"
       stop-color="#071848"
       id="stop18" />
    <stop
       offset="1"
       stop-color="#102f81"
       id="stop20" />
  </linearGradient>
  <linearGradient
     id="h"
     gradientTransform="matrix(0.225324,0.269654,-0.269654,0.225324,-627.406,801.284)"
     gradientUnits="userSpaceOnUse"
     x1="-29.344938"
     x2="-48.436817"
     xlink:href="#i"
     y1="643.90009"
     y2="609.60535" />
  <linearGradient
     id="i">
    <stop
       offset="0"
       stop-color="#4776ed"
       id="stop24" />
    <stop
       offset="1"
       stop-color="#123797"
       id="stop26" />
  </linearGradient>
  <linearGradient
     id="j"
     gradientTransform="matrix(0.225324,0.269654,-0.269654,0.225324,-627.116,801.486)"
     gradientUnits="userSpaceOnUse"
     x1="-22.106869"
     x2="-31.498558"
     xlink:href="#k"
     y1="616.99878"
     y2="623.03357" />
  <linearGradient
     id="k">
    <stop
       offset="0"
       stop-color="#fff"
       id="stop30" />
    <stop
       offset="1"
       stop-color="#fff"
       stop-opacity="0"
       id="stop32" />
  </linearGradient>
  <linearGradient
     id="l"
     gradientTransform="matrix(0.225324,0.269654,-0.269654,0.225324,-627.61,800.725)"
     gradientUnits="userSpaceOnUse"
     x1="-55.812508"
     x2="-46.812508"
     xlink:href="#m"
     y1="616.01501"
     y2="621.89001" />
  <linearGradient
     id="m">
    <stop
       offset="0"
       stop-color="#081e58"
       id="stop36" />
    <stop
       offset="1"
       stop-color="#0d308d"
       stop-opacity="0"
       id="stop38" />
  </linearGradient>
  <radialGradient
     id="n"
     cx="-29.565908"
     cy="763.40906"
     gradientTransform="matrix(0.23187,0.280305,-0.019452,0.016055,-789.327,932.374)"
     gradientUnits="userSpaceOnUse"
     r="17.732456"
     xlink:href="#k" />
  <filter
     id="o"
     color-interpolation-filters="sRGB"
     x="-0.087678606"
     y="-0.092447663"
     width="1.1753572"
     height="1.1848953">
    <feGaussianBlur
       stdDeviation=".92951207"
       id="feGaussianBlur42" />
  </filter>
  <linearGradient
     id="p"
     gradientTransform="matrix(0.321109,0.254882,-0.254882,0.321109,-553.846,731.771)"
     gradientUnits="userSpaceOnUse"
     x1="-39.067657"
     x2="-38.890881"
     xlink:href="#e"
     y1="661.93134"
     y2="647.78918" />
  <linearGradient
     id="q"
     gradientTransform="matrix(0.321109,0.254882,-0.254882,0.321109,-553.846,731.771)"
     gradientUnits="userSpaceOnUse"
     x1="-64.346725"
     x2="-50.64653"
     xlink:href="#g"
     y1="607.83765"
     y2="621.36108" />
  <linearGradient
     id="r"
     gradientTransform="matrix(0.321109,0.254882,-0.254882,0.321109,-553.846,731.771)"
     gradientUnits="userSpaceOnUse"
     x1="-29.344938"
     x2="-48.436817"
     xlink:href="#i"
     y1="643.90009"
     y2="609.60535" />
  <linearGradient
     id="s"
     gradientTransform="matrix(0.321109,0.254882,-0.254882,0.321109,-553.466,731.933)"
     gradientUnits="userSpaceOnUse"
     x1="-22.106869"
     x2="-31.498558"
     xlink:href="#k"
     y1="616.99878"
     y2="623.03357" />
  <linearGradient
     id="t"
     gradientTransform="matrix(0.321109,0.254882,-0.254882,0.321109,-554.211,731.181)"
     gradientUnits="userSpaceOnUse"
     x1="-55.812508"
     x2="-46.812508"
     xlink:href="#m"
     y1="616.01501"
     y2="621.89001" />
  <radialGradient
     id="u"
     cx="-29.565908"
     cy="763.40906"
     gradientTransform="matrix(0.331103,0.265505,-0.0184334,0.0229362,-707.891,919.777)"
     gradientUnits="userSpaceOnUse"
     r="17.732456"
     xlink:href="#k" />
  <filter
     id="v"
     color-interpolation-filters="sRGB"
     x="-0.057626666"
     y="-0.062637192"
     width="1.1152533"
     height="1.1252744">
    <feGaussianBlur
       stdDeviation=".70244051"
       id="feGaussianBlur51" />
  </filter>
  <linearGradient
     id="w"
     gradientTransform="matrix(0.421895,0.203794,-0.203794,0.421895,-588.075,664.897)"
     gradientUnits="userSpaceOnUse"
     x1="-39.067657"
     x2="-38.890881"
     xlink:href="#e"
     y1="661.93134"
     y2="647.78918" />
  <linearGradient
     id="x"
     gradientTransform="matrix(0.421895,0.203794,-0.203794,0.421895,-588.075,664.897)"
     gradientUnits="userSpaceOnUse"
     x1="-64.346725"
     x2="-50.64653"
     xlink:href="#g"
     y1="607.83765"
     y2="621.36108" />
  <linearGradient
     id="y"
     gradientTransform="matrix(0.421895,0.203794,-0.203794,0.421895,-588.075,664.897)"
     gradientUnits="userSpaceOnUse"
     x1="-29.344938"
     x2="-48.436817"
     xlink:href="#i"
     y1="643.90009"
     y2="609.60535" />
  <linearGradient
     id="z"
     gradientTransform="matrix(0.421895,0.203794,-0.203794,0.421895,-587.61,664.984)"
     gradientUnits="userSpaceOnUse"
     x1="-22.106869"
     x2="-31.498558"
     xlink:href="#k"
     y1="616.99878"
     y2="623.03357" />
  <linearGradient
     id="A"
     gradientTransform="matrix(0.421895,0.203794,-0.203794,0.421895,-588.629,664.331)"
     gradientUnits="userSpaceOnUse"
     x1="-55.812508"
     x2="-46.812508"
     xlink:href="#m"
     y1="616.01501"
     y2="621.89001" />
  <radialGradient
     id="B"
     cx="-29.565908"
     cy="763.40906"
     gradientTransform="matrix(0.4357,0.213137,-0.0148105,0.0301922,-712.762,913.119)"
     gradientUnits="userSpaceOnUse"
     r="17.732456"
     xlink:href="#k" />
  <filter
     id="C"
     color-interpolation-filters="sRGB"
     x="-0.029661976"
     y="-0.030345815"
     width="1.059324"
     height="1.0606916">
    <feGaussianBlur
       stdDeviation=".40013067"
       id="feGaussianBlur60" />
  </filter>
  <linearGradient
     id="D"
     gradientTransform="matrix(0.499779,0.167512,-0.167512,0.499779,-614.429,613.888)"
     gradientUnits="userSpaceOnUse"
     x1="-39.067657"
     x2="-38.890881"
     xlink:href="#e"
     y1="661.93134"
     y2="647.78918" />
  <linearGradient
     id="E"
     gradientTransform="matrix(0.499779,0.167512,-0.167512,0.499779,-614.429,613.888)"
     gradientUnits="userSpaceOnUse"
     x1="-64.346725"
     x2="-50.64653"
     xlink:href="#g"
     y1="607.83765"
     y2="621.36108" />
  <linearGradient
     id="F"
     gradientTransform="matrix(0.499779,0.167512,-0.167512,0.499779,-614.429,613.888)"
     gradientUnits="userSpaceOnUse"
     x1="-29.344938"
     x2="-48.436817"
     xlink:href="#i"
     y1="643.90009"
     y2="609.60535" />
  <linearGradient
     id="G"
     gradientTransform="matrix(0.499779,0.167512,-0.167512,0.499779,-613.898,613.918)"
     gradientUnits="userSpaceOnUse"
     x1="-22.106869"
     x2="-31.498558"
     xlink:href="#k"
     y1="616.99878"
     y2="623.03357" />
  <linearGradient
     id="H"
     gradientTransform="matrix(0.499779,0.167512,-0.167512,0.499779,-615.128,613.334)"
     gradientUnits="userSpaceOnUse"
     x1="-55.812508"
     x2="-46.812508"
     xlink:href="#m"
     y1="616.01501"
     y2="621.89001" />
  <radialGradient
     id="I"
     cx="-29.565908"
     cy="763.40906"
     gradientTransform="matrix(0.516512,0.175978,-0.0122403,0.035798,-718.325,908.612)"
     gradientUnits="userSpaceOnUse"
     r="17.732456"
     xlink:href="#k" />
  <linearGradient
     id="J"
     gradientUnits="userSpaceOnUse"
     x1="172.16173"
     x2="172.26466"
     xlink:href="#e"
     y1="528.36475"
     y2="520.13007" />
  <linearGradient
     id="K"
     gradientUnits="userSpaceOnUse"
     x1="157.44225"
     x2="165.41959"
     xlink:href="#g"
     y1="496.8671"
     y2="504.74152" />
  <linearGradient
     id="L"
     gradientUnits="userSpaceOnUse"
     x1="177.82306"
     x2="166.70625"
     xlink:href="#i"
     y1="517.86548"
     y2="497.89639" />
  <linearGradient
     id="M"
     gradientUnits="userSpaceOnUse"
     x1="182.60364"
     x2="177.13506"
     xlink:href="#k"
     y1="502.04645"
     y2="505.56036" />
  <linearGradient
     id="N"
     gradientUnits="userSpaceOnUse"
     x1="161.48454"
     x2="166.72507"
     xlink:href="#m"
     y1="501.29361"
     y2="504.71451" />
  <radialGradient
     id="O"
     cx="-29.565908"
     cy="763.40906"
     gradientTransform="matrix(0.602778,0.00299328,-2.5325e-4,0.0417922,189.555,488.106)"
     gradientUnits="userSpaceOnUse"
     r="17.732456"
     xlink:href="#k" />
  <linearGradient
     id="P"
     gradientUnits="userSpaceOnUse"
     x1="217.38565"
     x2="206.94521"
     xlink:href="#k"
     y1="2745.8699"
     y2="2790.3953" />
  <g
     transform="matrix(6.66747,0,0,6.66747,-1137.6019,-18351.095)"
     id="g228">
    <path
       d="m -1013.1991,1146.7984 c -0.8237,0 -1.6678,0.4823 -3.3126,1.4375 -4.3294,2.3698 -8.4614,4.9464 -12.7187,7.375 -3.3963,1.9357 -3.4233,1.9493 -3.4375,5.6875 -0.085,5.1843 -0.024,10.7231 -0.031,15.2187 0,3.7383 0.015,3.7671 3.4062,5.7188 4.2457,2.4487 8.3694,5.016 12.6875,7.4062 2.0504,1.1607 2.8102,1.599 3.9063,1.3126 0.6576,-0.1719 1.4469,-0.5922 2.6874,-1.2813 4.3295,-2.3698 8.4616,-4.9464 12.7188,-7.375 3.39631,-1.9357 3.39206,-1.9493 3.40625,-5.6875 0.0697,-5.0654 0.0697,-10.1481 0.0312,-15.25 0.004,-3.7383 0.0123,-3.7358 -3.375,-5.6875 -4.24575,-2.4486 -8.36935,-5.0473 -12.68745,-7.4375 -1.6497,-0.9551 -2.4576,-1.4335 -3.2812,-1.4375 z"
       fill="#000f36"
       filter="url(#a)"
       transform="matrix(1.26613,0,0,1.01584,1483.3,1600.27)"
       id="path76" />
    <g
       filter="url(#b)"
       transform="matrix(1.21901,0,0,1.21901,1211.12,1640.21)"
       id="g112">
      <path
         d="m -799.07673,924.46821 c -2.29939,-0.89592 -4.61801,-1.65671 -6.91673,-2.50611 -1.83318,-0.67819 -1.83791,-0.67889 -3.27393,0.51757 -2.01249,1.63429 -4.1244,3.444 -5.84813,4.88671 -1.43276,1.20036 -1.43272,1.20536 -1.0911,3.12985 0.42741,2.41307 0.76409,4.82998 1.23715,7.25199 0.34365,1.85329 0.34495,1.8522 2.11241,2.528 2.2994,0.89591 4.61802,1.65672 6.91674,2.50612 1.83318,0.67818 1.83086,0.67045 3.26689,-0.526 1.96206,-1.60191 3.90683,-3.23169 5.84812,-4.88671 1.43276,-1.20036 1.43985,-1.19685 1.09814,-3.12143 -0.42741,-2.41307 -0.76409,-4.82998 -1.23715,-7.25199 -0.32934,-1.87749 -0.32308,-1.88273 -2.11241,-2.528 z"
         fill="#0d308d"
         filter="url(#c)"
         opacity="0.2"
         id="path78" />
      <path
         d="m -816.20662,930.49623 c 0.42741,2.41307 0.76409,4.82998 1.23715,7.25199 0.34365,1.85329 0.34495,1.8522 2.11241,2.528 2.2994,0.89591 4.61802,1.65672 6.91674,2.50612 7.44715,-3.27215 -6.87852,-19.97295 -10.2663,-12.28611 z"
         fill="url(#d)"
         filter="url(#c)"
         opacity="0.2"
         id="path80" />
      <path
         d="m -799.07673,924.46821 c -2.29939,-0.89592 -4.61801,-1.65671 -6.91673,-2.50611 -1.83318,-0.67819 -1.83791,-0.67889 -3.27393,0.51757 -2.01249,1.63429 -4.1244,3.444 -5.84813,4.88671 l 18.1512,-0.37017 c -0.32934,-1.87749 -0.32308,-1.88273 -2.11241,-2.528 z"
         fill="url(#f)"
         filter="url(#c)"
         opacity="0.2"
         id="path82" />
      <path
         d="m -800.30396,924.69369 -13.9817,2.52645 c -1.85349,0.42665 -2.38908,2.65606 -1.20449,4.13352 l 9.01198,10.785 c 1.11748,1.33734 3.68471,0.80513 4.13684,-0.75957 l 4.93532,-13.19181 c 0.93021,-2.37147 -0.45608,-4.03051 -2.89795,-3.4936 z"
         fill="url(#h)"
         filter="url(#c)"
         opacity="0.2"
         id="path84" />
      <g
         fill="#ffffff"
         id="g104">
        <g
           filter="url(#c)"
           opacity="0.2"
           transform="rotate(50.117797,-47.880574,-86.030589)"
           id="g88">
          <path
             d="m 244.70873,1147.7226 c 0,-1.0093 0.10384,-1.8216 0.31153,-2.4369 0.20769,-0.6153 0.51631,-1.0899 0.92586,-1.4238 0.40955,-0.3338 0.92488,-0.5007 1.54601,-0.5007 0.45807,0 0.85986,0.092 1.20536,0.2765 0.34549,0.1845 0.63082,0.4504 0.85598,0.7978 0.22515,0.3474 0.40178,0.7706 0.52989,1.2694 0.1281,0.4989 0.19216,1.1714 0.19216,2.0177 0,1.0015 -0.10288,1.81 -0.30862,2.4253 -0.20575,0.6153 -0.5134,1.0908 -0.92294,1.4266 -0.40956,0.3358 -0.92683,0.5037 -1.55183,0.5037 -0.82299,0 -1.46934,-0.295 -1.93906,-0.8851 -0.56289,-0.7104 -0.84434,-1.8672 -0.84434,-3.4705 z m 1.07726,0 c 0,1.4014 0.16401,2.334 0.49204,2.7979 0.32803,0.4639 0.73273,0.6959 1.2141,0.6959 0.48136,0 0.88606,-0.2329 1.21409,-0.6988 0.32803,-0.4658 0.49204,-1.3975 0.49205,-2.795 -1e-5,-1.4053 -0.16402,-2.3389 -0.49205,-2.8009 -0.32803,-0.4619 -0.73661,-0.6929 -1.22574,-0.6929 -0.48137,0 -0.86569,0.2038 -1.15295,0.6114 -0.36103,0.5202 -0.54154,1.481 -0.54154,2.8824 z"
             id="path86" />
        </g>
        <g
           filter="url(#c)"
           opacity="0.2"
           transform="matrix(-1.08223,-1.29515,0.454657,-0.379913,-83.1958,5.875)"
           id="g92">
          <path
             d="m -147.91655,-1952.3128 0.49383,-0.042 c 0.0366,0.2404 0.1215,0.4211 0.25476,0.5422 0.13325,0.121 0.29394,0.1816 0.48207,0.1816 0.22645,0 0.41806,-0.085 0.57483,-0.2561 0.15677,-0.1707 0.23516,-0.3971 0.23516,-0.6793 0,-0.2683 -0.0753,-0.4799 -0.22601,-0.635 -0.15068,-0.155 -0.34795,-0.2325 -0.59182,-0.2325 -0.15155,0 -0.28828,0.034 -0.41022,0.1032 -0.12193,0.069 -0.21774,0.1581 -0.28741,0.2678 l -0.44158,-0.058 0.37103,-1.9674 h 1.90478 v 0.4494 h -1.52853 l -0.20641,1.0294 c 0.22993,-0.1602 0.47118,-0.2403 0.72376,-0.2404 0.33444,10e-5 0.61663,0.1159 0.84657,0.3476 0.22993,0.2316 0.34489,0.5295 0.3449,0.8936 -1e-5,0.3466 -0.10104,0.6462 -0.3031,0.8988 -0.24561,0.31 -0.58093,0.4651 -1.00595,0.4651 -0.34838,0 -0.63275,-0.098 -0.8531,-0.2927 -0.22035,-0.1951 -0.3462,-0.4537 -0.37756,-0.776 z"
             id="path90" />
        </g>
        <g
           filter="url(#c)"
           opacity="0.2"
           transform="matrix(0.69921,0.303708,-0.289304,1.30452,-83.1958,5.875)"
           id="g96">
          <path
             d="m -662.36282,865.06915 -0.52907,0.0414 c -0.0473,-0.20887 -0.11429,-0.36059 -0.20099,-0.45518 -0.14385,-0.15172 -0.32119,-0.22759 -0.53203,-0.22759 -0.16946,0 -0.31824,0.0473 -0.44631,0.14187 -0.1675,0.12218 -0.29952,0.3005 -0.39607,0.53499 -0.0965,0.23449 -0.1468,0.56848 -0.15074,1.00199 0.12808,-0.19508 0.28473,-0.33991 0.46996,-0.43449 0.18522,-0.0946 0.37931,-0.14188 0.58227,-0.14188 0.35469,0 0.65666,0.13055 0.90593,0.39163 0.24926,0.26109 0.37389,0.59854 0.3739,1.01234 -10e-6,0.27192 -0.0586,0.52464 -0.17587,0.75814 -0.11724,0.2335 -0.27833,0.41232 -0.48326,0.53646 -0.20493,0.12414 -0.43745,0.18621 -0.69755,0.18621 -0.44335,0 -0.80494,-0.16306 -1.08474,-0.48917 -0.27981,-0.32612 -0.41972,-0.86356 -0.41971,-1.61234 -10e-6,-0.83745 0.15468,-1.44633 0.46404,-1.82664 0.26996,-0.33103 0.63351,-0.49655 1.09066,-0.49656 0.34089,10e-6 0.62021,0.0956 0.83795,0.28671 0.21773,0.19114 0.34827,0.45518 0.39163,0.79213 z m -2.17245,1.86801 c 0,0.18326 0.0389,0.35863 0.11675,0.52612 0.0778,0.16749 0.1867,0.29508 0.32661,0.38276 0.1399,0.0877 0.2867,0.13153 0.4404,0.13153 0.22463,0 0.41774,-0.0906 0.57932,-0.27192 0.16157,-0.18129 0.24236,-0.4276 0.24237,-0.73893 -10e-6,-0.29951 -0.0798,-0.53548 -0.23942,-0.7079 -0.15961,-0.17241 -0.3606,-0.25862 -0.60296,-0.25862 -0.2404,0 -0.44435,0.0862 -0.61184,0.25862 -0.16749,0.17242 -0.25123,0.39854 -0.25123,0.67834 z"
             id="path94" />
        </g>
        <path
           d="m 256.58246,1144.7833 h 0.26355 v 1.8449 h -0.26355 z"
           filter="url(#c)"
           opacity="0.2"
           transform="rotate(50.117797,-47.880574,-86.030589)"
           id="path98" />
        <g
           filter="url(#c)"
           opacity="0.2"
           transform="matrix(-0.273265,0.690855,-1.44228,-0.0131512,-83.1958,5.875)"
           id="g102">
          <path
             d="m 1333.792,251.26508 v -1.11429 h -2.019 v -0.52381 l 2.1238,-3.01587 h 0.4666 v 3.01587 h 0.6286 v 0.52381 h -0.6286 v 1.11429 z m 0,-1.6381 v -2.09841 l -1.4571,2.09841 z"
             fill="#ffffff"
             id="path100" />
        </g>
      </g>
      <path
         d="m -803.33479,942.51626 c 0.37668,-0.22078 0.80502,-0.6608 0.91547,-1.04306 0.003,-0.007 0.006,-0.0151 0.01,-0.0225 l 4.93996,-13.20068 c 0.34936,-0.89065 0.33406,-1.61437 0.0861,-2.13197 z"
         fill="url(#j)"
         filter="url(#c)"
         opacity="0.2"
         id="path106" />
      <path
         d="m -815.4035,927.90359 c 0.2842,-0.33145 0.79334,-0.67478 1.18914,-0.71555 0.008,-0.002 0.0159,-0.004 0.0239,-0.006 l 13.86841,-2.51565 c 0.93856,-0.18553 1.64804,-0.0419 2.11335,0.2941 z"
         fill="url(#l)"
         filter="url(#c)"
         opacity="0.2"
         id="path108" />
      <path
         d="m -815.25723,930.66508 8.82755,10.56429 -0.4719,0.39432 -8.82754,-10.56429 z"
         fill="url(#n)"
         filter="url(#c)"
         opacity="0.2"
         id="path110" />
    </g>
    <g
       filter="url(#o)"
       transform="matrix(1.21901,0,0,1.21901,1107.92,1648.64)"
       id="g140">
      <path
         d="m -720.89686,913.04685 c -2.83866,-0.48067 -5.66738,-0.80241 -8.49428,-1.2301 -2.25458,-0.34198 -2.26015,-0.34166 -3.61832,1.36439 -1.91342,2.34241 -3.89902,4.90871 -5.52776,6.96405 -1.35352,1.70975 -1.3523,1.71545 -0.50757,3.83356 1.0581,2.65607 2.01346,5.33794 3.12583,7.99344 0.83022,2.03628 0.83145,2.03473 3.01039,2.38951 2.83866,0.48066 5.66738,0.80242 8.49428,1.23009 2.25458,0.34199 2.2501,0.3337 3.60829,-1.37235 1.86345,-2.2935 3.70057,-4.61477 5.52775,-6.96405 1.35352,-1.70974 1.36245,-1.7074 0.51761,-3.82559 -1.0581,-2.65607 -2.01346,-5.33795 -3.12583,-7.99344 -0.8196,-2.06731 -0.81368,-2.07478 -3.01039,-2.38951 z"
         fill="#0d308d"
         opacity="0.4"
         id="path114" />
      <path
         d="m -739.04479,923.97875 c 1.0581,2.65607 2.01346,5.33794 3.12583,7.99344 0.83022,2.03628 0.83145,2.03473 3.01039,2.38951 2.83866,0.48066 5.66738,0.80242 8.49428,1.23009 7.73591,-5.49694 -12.57493,-21.19535 -14.6305,-11.61304 z"
         fill="url(#p)"
         opacity="0.4"
         id="path116" />
      <path
         d="m -720.89686,913.04685 c -2.83866,-0.48067 -5.66738,-0.80241 -8.49428,-1.2301 -2.25458,-0.34198 -2.26015,-0.34166 -3.61832,1.36439 -1.91342,2.34241 -3.89902,4.90871 -5.52776,6.96405 l 20.65075,-4.70883 c -0.8196,-2.06731 -0.81368,-2.07478 -3.01039,-2.38951 z"
         fill="url(#q)"
         opacity="0.4"
         id="path118" />
      <path
         d="m -722.24577,913.59424 -15.37784,6.18793 c -2.01692,0.92509 -2.10242,3.59872 -0.40014,5.00703 l 12.84296,10.19418 c 1.59253,1.26408 4.39998,0.0498 4.54709,-1.84463 l 2.52382,-16.23727 c 0.50284,-2.92911 -1.47277,-4.49726 -4.13588,-3.30725 z"
         fill="url(#r)"
         opacity="0.4"
         id="path120" />
      <g
         fill="#ffffff"
         id="g132">
        <path
           d="m 1.6585787,1174.2605 c -6e-7,-1.1775 0.1211501,-2.1252 0.3634525,-2.843 0.2423005,-0.7179 0.6023559,-1.2716 1.0801673,-1.6611 0.4778074,-0.3894 1.0790319,-0.5842 1.8036756,-0.5842 0.534418,0 1.0031694,0.1076 1.4062555,0.3227 0.4030757,0.2151 0.7359571,0.5254 0.9986453,0.9307 0.2626757,0.4054 0.4687451,0.899 0.6182089,1.481 0.1494501,0.582 0.2241786,1.3666 0.2241857,2.3539 -7.1e-6,1.1685 -0.1200255,2.1117 -0.3600558,2.8295 -0.2400436,0.7179 -0.5989668,1.2727 -1.0767705,1.6644 -0.477815,0.3918 -1.0813041,0.5877 -1.8104691,0.5877 -0.9601516,0 -1.7142299,-0.3442 -2.2622372,-1.0326 -0.6567064,-0.8288 -0.9850588,-2.1785 -0.9850582,-4.049 z m 1.2567984,0 c -1.8e-6,1.635 0.1913484,2.7231 0.5740512,3.2643 0.382698,0.5412 0.8548461,0.8118 1.4164458,0.8118 0.561592,0 1.0337401,-0.2717 1.4164458,-0.8152 0.3826951,-0.5435 0.5740453,-1.6304 0.5740512,-3.2609 -5.9e-6,-1.6395 -0.1913561,-2.7287 -0.5740512,-3.2676 -0.3827057,-0.539 -0.8593828,-0.8085 -1.4300328,-0.8085 -0.5615997,0 -1.0099706,0.2378 -1.345114,0.7134 -0.4211994,0.6068 -0.6317978,1.7278 -0.631796,3.3627 z"
           opacity="0.4"
           transform="rotate(38.440973)"
           id="path122" />
        <path
           d="m -4.3993245,-1999.637 0.5761364,-0.049 c 0.042676,0.2805 0.1417469,0.4913 0.2972133,0.6326 0.1554641,0.1412 0.3429368,0.2118 0.5624188,0.2118 0.2641876,0 0.4877324,-0.1 0.670635,-0.2987 0.1828979,-0.1992 0.274348,-0.4634 0.2743507,-0.7926 -2.7e-6,-0.3129 -0.087896,-0.5599 -0.2636815,-0.7407 -0.1757898,-0.1809 -0.4059393,-0.2713 -0.6904492,-0.2713 -0.1768053,0 -0.3363349,0.04 -0.4785895,0.1204 -0.142257,0.08 -0.2540293,0.1844 -0.3353175,0.3124 l -0.5151696,-0.067 0.4328644,-2.2954 h 2.2222405 v 0.5243 h -1.7832794 l -0.2408189,1.201 c 0.2682527,-0.1869 0.5497159,-0.2804 0.8443904,-0.2804 0.3901854,0 0.7194059,0.1351 0.9876624,0.4054 0.2682509,0.2703 0.4023778,0.6178 0.402381,1.0425 -3.2e-6,0.4045 -0.1178723,0.754 -0.3536076,1.0487 -0.2865466,0.3617 -0.6777499,0.5426 -1.1736112,0.5426 -0.4064467,0 -0.7382074,-0.1138 -0.9952832,-0.3414 -0.2570772,-0.2276 -0.4039055,-0.5294 -0.4404853,-0.9054 z"
           opacity="0.4"
           transform="matrix(-1.32196,-1.04931,0.368357,-0.464069,0,0)"
           id="path124" />
        <path
           d="m -938.8299,799.97084 -0.61725,0.0483 c -0.0552,-0.24368 -0.13334,-0.42069 -0.23449,-0.53105 -0.16782,-0.177 -0.37472,-0.26551 -0.6207,-0.26552 -0.1977,10e-6 -0.37127,0.0552 -0.52069,0.16552 -0.19541,0.14254 -0.34944,0.35059 -0.46208,0.62415 -0.11265,0.27357 -0.17127,0.66323 -0.17587,1.16899 0.14943,-0.22759 0.33219,-0.39656 0.54829,-0.50691 0.21609,-0.11034 0.44253,-0.16551 0.67932,-0.16552 0.4138,1e-5 0.7661,0.15231 1.05691,0.45691 0.29081,0.3046 0.43621,0.69829 0.43622,1.18105 -10e-6,0.31725 -0.0684,0.61208 -0.20518,0.8845 -0.13678,0.27242 -0.32472,0.48104 -0.5638,0.62587 -0.23909,0.14483 -0.51036,0.21725 -0.81381,0.21725 -0.51725,0 -0.93909,-0.19024 -1.26553,-0.5707 -0.32645,-0.38047 -0.48967,-1.00749 -0.48967,-1.88107 0,-0.97702 0.18046,-1.68738 0.54139,-2.13107 0.31495,-0.38621 0.73909,-0.57931 1.27244,-0.57932 0.3977,10e-6 0.72357,0.1115 0.9776,0.33449 0.25402,0.223 0.40632,0.53105 0.4569,0.92415 z m -2.53452,2.17935 c 0,0.2138 0.0454,0.4184 0.13621,0.6138 0.0908,0.19541 0.21781,0.34426 0.38104,0.44656 0.16322,0.1023 0.33448,0.15345 0.5138,0.15345 0.26207,0 0.48736,-0.10575 0.67587,-0.31724 0.18851,-0.2115 0.28276,-0.49886 0.28277,-0.86209 -10e-6,-0.34943 -0.0931,-0.62472 -0.27932,-0.82587 -0.18621,-0.20115 -0.4207,-0.30173 -0.70346,-0.30173 -0.28047,0 -0.5184,0.10058 -0.7138,0.30173 -0.19541,0.20115 -0.29311,0.46495 -0.29311,0.79139 z"
           opacity="0.4"
           transform="matrix(0.746208,0.155909,-0.0192934,1.33608,0,0)"
           id="path126" />
        <path
           d="m 15.51125,1170.8314 h 0.307477 v 2.1524 H 15.51125 Z"
           opacity="0.4"
           transform="rotate(38.440973)"
           id="path128" />
        <path
           d="m 1090.3251,419.92319 v -1.3 h -2.3555 v -0.61111 l 2.4778,-3.51852 h 0.5444 v 3.51852 h 0.7333 v 0.61111 h -0.7333 v 1.3 z m 0,-1.91111 v -2.44815 l -1.7,2.44815 z"
           opacity="0.4"
           transform="matrix(-0.127787,0.731864,-1.41509,0.279025,0,0)"
           id="path130" />
      </g>
      <path
         d="m -721.50025,934.67257 c 0.37825,-0.34119 0.76373,-0.94506 0.79967,-1.40789 0.002,-0.009 0.004,-0.0187 0.006,-0.028 l 2.52704,-16.24851 c 0.18885,-1.10008 4.8e-4,-1.92333 -0.40502,-2.45615 z"
         fill="url(#s)"
         opacity="0.4"
         id="path134" />
      <path
         d="m -738.73939,920.82697 c 0.24644,-0.4458 0.74707,-0.95828 1.18966,-1.09832 0.009,-0.004 0.0174,-0.008 0.026,-0.0121 l 15.25096,-6.14883 c 1.02852,-0.43359 1.87304,-0.43698 2.48399,-0.16299 z"
         fill="url(#t)"
         opacity="0.4"
         id="path136" />
      <path
         d="m -737.92023,923.94749 12.58014,9.98556 -0.44604,0.56194 -12.58014,-9.98556 z"
         fill="url(#u)"
         opacity="0.4"
         id="path138" />
    </g>
    <g
       filter="url(#v)"
       transform="matrix(1.21901,0,0,1.21901,1107.92,1649.15)"
       id="g168">
      <path
         d="m -728.94983,908.87126 c -3.2857,0.17495 -6.52053,0.52461 -9.77986,0.75569 -2.59967,0.1833 -2.60581,0.18505 -3.69301,2.42758 -1.54697,3.09118 -3.11835,6.45008 -4.41978,9.14985 -1.08109,2.24549 -1.0783,2.25154 0.3941,4.40184 1.84507,2.69673 3.58202,5.44797 5.48745,8.13047 1.43574,2.0627 1.43672,2.06066 3.95526,1.91057 3.28571,-0.17495 6.52053,-0.5246 9.77987,-0.75569 2.59967,-0.1833 2.59261,-0.19142 3.67982,-2.43395 1.5035,-3.02413 2.9707,-6.07262 4.41978,-9.14985 1.08109,-2.24548 1.09164,-2.24511 -0.38091,-4.39547 -1.84507,-2.69673 -3.58202,-5.44798 -5.48746,-8.13047 -1.43166,-2.09996 -1.42693,-2.10976 -3.95526,-1.91057 z"
         fill="#0d308d"
         opacity="0.6"
         id="path142" />
      <path
         d="m -746.44838,925.60622 c 1.84507,2.69673 3.58202,5.44797 5.48745,8.13047 1.43574,2.0627 1.43672,2.06066 3.95526,1.91057 3.28571,-0.17495 6.52053,-0.5246 9.77987,-0.75569 7.24947,-8.06693 -19.33027,-20.48519 -19.22258,-9.28535 z"
         fill="url(#w)"
         opacity="0.6"
         id="path144" />
      <path
         d="m -728.94983,908.87126 c -3.2857,0.17495 -6.52053,0.52461 -9.77986,0.75569 -2.59967,0.1833 -2.60581,0.18505 -3.69301,2.42758 -1.54697,3.09118 -3.11835,6.45008 -4.41978,9.14985 l 21.84791,-10.42255 c -1.43166,-2.09996 -1.42693,-2.10976 -3.95526,-1.91057 z"
         fill="url(#x)"
         opacity="0.6"
         id="path146" />
      <path
         d="m -730.31687,909.81947 -15.59779,10.75131 c -2.01734,1.53668 -1.44309,4.53939 0.80779,5.68345 l 16.87399,8.15088 c 2.09237,1.0107 4.91879,-1.04638 4.60838,-3.1957 l -1.25225,-18.73791 c -0.17288,-3.39212 -2.76857,-4.64595 -5.44012,-2.65203 z"
         fill="url(#y)"
         opacity="0.6"
         id="path148" />
      <g
         fill="#ffffff"
         id="g160">
        <path
           d="m -262.60443,1147.9478 c 0,-1.3458 0.13845,-2.4289 0.41537,-3.2493 0.27692,-0.8203 0.68841,-1.4531 1.23448,-1.8983 0.54606,-0.4451 1.23318,-0.6676 2.06134,-0.6677 0.61077,10e-5 1.14648,0.123 1.60715,0.3688 0.46066,0.2459 0.84109,0.6005 1.14131,1.0637 0.3002,0.4633 0.53571,1.0274 0.70652,1.6926 0.1708,0.6651 0.25621,1.5618 0.25622,2.6902 -1e-5,1.3354 -0.13718,2.4133 -0.4115,3.2337 -0.27433,0.8204 -0.68453,1.4544 -1.23059,1.9022 -0.54608,0.4477 -1.23578,0.6716 -2.06911,0.6716 -1.09731,0 -1.95912,-0.3934 -2.58541,-1.1802 -0.75052,-0.9472 -1.12578,-2.4896 -1.12578,-4.6273 z m 1.43634,0 c 0,1.8685 0.21868,3.1121 0.65606,3.7306 0.43737,0.6185 0.97696,0.9278 1.61879,0.9278 0.64182,0 1.18142,-0.3106 1.6188,-0.9317 0.43736,-0.6211 0.65605,-1.8634 0.65606,-3.7267 -10e-6,-1.8737 -0.2187,-3.1186 -0.65606,-3.7345 -0.43738,-0.6159 -0.98215,-0.9239 -1.63433,-0.9239 -0.64182,0 -1.15425,0.2717 -1.53727,0.8152 -0.48137,0.6936 -0.72205,1.9747 -0.72205,3.8432 z"
           opacity="0.6"
           transform="rotate(25.782615)"
           id="path150" />
        <path
           d="m 151.68634,-1957.7604 0.65844,-0.056 c 0.0488,0.3205 0.162,0.5614 0.33967,0.7229 0.17767,0.1614 0.39193,0.2421 0.64277,0.2421 0.30192,0 0.5574,-0.1138 0.76644,-0.3414 0.20902,-0.2276 0.31354,-0.5296 0.31354,-0.9058 0,-0.3577 -0.10045,-0.6399 -0.30135,-0.8466 -0.2009,-0.2067 -0.46393,-0.31 -0.78909,-0.3101 -0.20206,10e-5 -0.38438,0.046 -0.54696,0.1377 -0.16257,0.092 -0.29031,0.2107 -0.38321,0.3571 l -0.58877,-0.077 0.4947,-2.6233 h 2.53971 v 0.5992 h -2.03804 l -0.27522,1.3726 c 0.30657,-0.2136 0.62825,-0.3205 0.96502,-0.3205 0.44592,0 0.82218,0.1545 1.12875,0.4634 0.30658,0.3089 0.45987,0.706 0.45987,1.1914 0,0.4622 -0.13471,0.8617 -0.40412,1.1985 -0.32749,0.4134 -0.77458,0.6201 -1.34127,0.6201 -0.46451,0 -0.84367,-0.1301 -1.13747,-0.3902 -0.2938,-0.2601 -0.46161,-0.605 -0.50341,-1.0347 z"
           opacity="0.6"
           transform="matrix(-1.51977,-0.734115,0.257709,-0.53351,0,0)"
           id="path152" />
        <path
           d="m -1194.6484,691.60947 -0.7054,0.0552 c -0.063,-0.27849 -0.1524,-0.4808 -0.268,-0.60691 -0.1918,-0.2023 -0.4282,-0.30345 -0.7093,-0.30345 -0.226,0 -0.4244,0.0631 -0.5951,0.18916 -0.2233,0.1629 -0.3994,0.40067 -0.5281,0.71331 -0.1288,0.31266 -0.1957,0.75798 -0.201,1.33599 0.1708,-0.2601 0.3796,-0.45321 0.6266,-0.57932 0.247,-0.12611 0.5058,-0.18917 0.7764,-0.18917 0.4729,0 0.8755,0.17406 1.2079,0.52218 0.3323,0.34812 0.4985,0.79804 0.4985,1.34977 0,0.36257 -0.078,0.69952 -0.2345,1.01086 -0.1563,0.31133 -0.3711,0.54976 -0.6443,0.71528 -0.2733,0.16552 -0.5833,0.24828 -0.9301,0.24828 -0.5911,0 -1.0732,-0.21741 -1.4463,-0.65223 -0.3731,-0.43481 -0.5596,-1.15141 -0.5596,-2.14979 0,-1.1166 0.2062,-1.92843 0.6187,-2.43551 0.3599,-0.44138 0.8447,-0.66207 1.4542,-0.66208 0.4545,1e-5 0.8269,0.12743 1.1173,0.38228 0.2903,0.25485 0.4643,0.60691 0.5221,1.05617 z m -2.8966,2.49068 c 0,0.24435 0.052,0.47817 0.1557,0.70149 0.1038,0.22333 0.2489,0.39344 0.4355,0.51036 0.1865,0.11691 0.3823,0.17537 0.5872,0.17537 0.2995,0 0.557,-0.12086 0.7724,-0.36257 0.2155,-0.24171 0.3232,-0.57012 0.3232,-0.98524 0,-0.39934 -0.1064,-0.71396 -0.3192,-0.94385 -0.2129,-0.22989 -0.4808,-0.34483 -0.804,-0.34484 -0.3205,10e-6 -0.5925,0.11495 -0.8158,0.34484 -0.2233,0.22989 -0.335,0.53137 -0.335,0.90444 z"
           opacity="0.6"
           transform="matrix(0.762236,-0.0114026,0.273961,1.30783,0,0)"
           id="path154" />
        <path
           d="m -246.7728,1144.0287 h 0.35141 v 2.4598 h -0.35141 z"
           opacity="0.6"
           transform="rotate(25.782615)"
           id="path156" />
        <path
           d="m 774.14965,583.66876 v -1.48571 h -2.69206 v -0.69841 l 2.83174,-4.02117 h 0.62222 v 4.02117 h 0.8381 v 0.69841 h -0.8381 v 1.48571 z m 0,-2.18412 v -2.79789 l -1.94286,2.79789 z"
           opacity="0.6"
           transform="matrix(0.0356981,0.742078,-1.31955,0.582344,0,0)"
           id="path158" />
      </g>
      <path
         d="m -724.20663,933.13676 c 0.33632,-0.47518 0.61493,-1.24509 0.53909,-1.77017 -1.8e-4,-0.0107 -6.6e-4,-0.0218 -4.5e-4,-0.0327 l -1.25148,-18.75125 c -0.0649,-1.27397 -0.48115,-2.14479 -1.06676,-2.63737 z"
         fill="url(#z)"
         opacity="0.6"
         id="path162" />
      <path
         d="m -746.89717,922.01525 c 0.16315,-0.55882 0.59304,-1.25566 1.0515,-1.52265 0.009,-0.007 0.0175,-0.013 0.0259,-0.02 l 15.4661,-10.67592 c 1.03828,-0.74108 1.97914,-0.95637 2.72902,-0.80385 z"
         fill="url(#A)"
         opacity="0.6"
         id="path164" />
      <path
         d="m -745.20223,925.28973 16.52866,7.98407 -0.35664,0.73832 -16.52866,-7.98407 z"
         fill="url(#B)"
         opacity="0.6"
         id="path166" />
    </g>
    <g
       filter="url(#C)"
       transform="matrix(1.21901,0,0,1.21901,1106.65,1650.17)"
       id="g196">
      <path
         d="m -736.99362,906.17096 c -3.64199,0.6619 -7.20239,1.51156 -10.80697,2.23237 -2.87521,0.57379 -2.88181,0.57662 -3.77661,3.23369 -1.28738,3.66947 -2.56398,7.64118 -3.63293,10.83896 -0.88757,2.65951 -0.88359,2.66587 1.06501,4.85647 2.4421,2.7475 4.7713,5.57118 7.27875,8.29422 1.89525,2.09805 1.89605,2.09564 4.68542,1.57043 3.642,-0.66192 7.2024,-1.51157 10.80699,-2.23238 2.8752,-0.57379 2.86616,-0.58185 3.76099,-3.23893 1.24839,-3.58846 2.4528,-7.19895 3.63292,-10.83895 0.88757,-2.6595 0.89939,-2.66058 -1.04939,-4.85124 -2.44211,-2.74749 -4.7713,-5.57118 -7.27876,-8.29422 -1.89599,-2.1402 -1.8921,-2.15182 -4.68542,-1.57042 z"
         fill="#0d308d"
         opacity="0.8"
         id="path170" />
      <path
         d="m -754.14512,927.33245 c 2.4421,2.7475 4.7713,5.57118 7.27875,8.29422 1.89525,2.09805 1.89605,2.09564 4.68542,1.57043 3.642,-0.66192 7.2024,-1.51157 10.80699,-2.23238 6.94466,-10.03232 -24.48205,-20.11597 -22.77116,-7.63227 z"
         fill="url(#D)"
         opacity="0.8"
         id="path172" />
      <path
         d="m -736.99362,906.17096 c -3.64199,0.6619 -7.20239,1.51156 -10.80697,2.23237 -2.87521,0.57379 -2.88181,0.57662 -3.77661,3.23369 -1.28738,3.66947 -2.56398,7.64118 -3.63293,10.83896 l 22.90193,-14.7346 c -1.89599,-2.1402 -1.8921,-2.15182 -4.68542,-1.57042 z"
         fill="url(#E)"
         opacity="0.8"
         id="path174" />
      <path
         d="m -738.38457,907.42332 -15.8801,14.21378 c -2.03309,2.00146 -0.96576,5.27092 1.70871,6.228 l 19.98901,6.69976 c 2.47863,0.83077 5.34075,-1.86636 4.68906,-4.22091 l -4.05884,-20.73363 c -0.67471,-3.76104 -3.74959,-4.79166 -6.44783,-2.18701 z"
         fill="url(#F)"
         opacity="0.8"
         id="path176" />
      <g
         fill="#ffffff"
         id="g188">
        <path
           d="m -412.54251,1107.4613 c 0,-1.514 0.15576,-2.7324 0.4673,-3.6554 0.31153,-0.9229 0.77445,-1.6348 1.38878,-2.1356 0.61433,-0.5007 1.38733,-0.7511 2.31901,-0.7511 0.68711,0 1.28979,0.1383 1.80805,0.4149 0.51824,0.2766 0.94623,0.6754 1.28397,1.1966 0.33773,0.5212 0.60267,1.1559 0.79484,1.9041 0.19215,0.7483 0.28823,1.7571 0.28824,3.0265 -1e-5,1.5024 -0.15432,2.715 -0.46293,3.6379 -0.30863,0.923 -0.7701,1.6363 -1.38442,2.14 -0.61433,0.5037 -1.39025,0.7555 -2.32775,0.7555 -1.23448,0 -2.20401,-0.4425 -2.90859,-1.3276 -0.84433,-1.0656 -1.2665,-2.8009 -1.2665,-5.2058 z m 1.61588,0 c 0,2.1021 0.24602,3.5011 0.73807,4.1969 0.49204,0.6959 1.09909,1.0438 1.82114,1.0438 0.72205,0 1.3291,-0.3494 1.82115,-1.0481 0.49204,-0.6988 0.73806,-2.0963 0.73806,-4.1926 0,-2.1079 -0.24602,-3.5083 -0.73806,-4.2013 -0.49205,-0.6929 -1.10492,-1.0394 -1.83861,-1.0394 -0.72206,0 -1.29854,0.3057 -1.72944,0.9171 -0.54154,0.7803 -0.81231,2.2215 -0.81231,4.3236 z"
           opacity="0.8"
           transform="rotate(18.529745)"
           id="path178" />
        <path
           d="m 240.03538,-1891.9616 0.74075,-0.063 c 0.0549,0.3606 0.18224,0.6317 0.38213,0.8133 0.19988,0.1816 0.44092,0.2724 0.72311,0.2724 0.33967,0 0.62708,-0.128 0.86224,-0.3841 0.23516,-0.2561 0.35274,-0.5957 0.35274,-1.019 0,-0.4024 -0.11301,-0.7199 -0.33902,-0.9524 -0.22602,-0.2326 -0.52192,-0.3488 -0.88772,-0.3488 -0.22732,0 -0.43243,0.052 -0.61533,0.1548 -0.1829,0.1032 -0.32661,0.2371 -0.43112,0.4017 l -0.66236,-0.086 0.55654,-2.9512 h 2.85716 v 0.6741 h -2.29278 l -0.30963,1.5442 c 0.3449,-0.2404 0.70678,-0.3606 1.08565,-0.3606 0.50166,0 0.92495,0.1738 1.26985,0.5213 0.34489,0.3475 0.51734,0.7943 0.51734,1.3404 0,0.5199 -0.15155,0.9693 -0.45463,1.3482 -0.36842,0.4651 -0.8714,0.6976 -1.50893,0.6976 -0.52258,0 -0.94913,-0.1463 -1.27965,-0.4389 -0.33053,-0.2927 -0.51931,-0.6807 -0.56634,-1.1641 z"
           opacity="0.8"
           transform="matrix(-1.60029,-0.536373,0.188292,-0.561777,0,0)"
           id="path180" />
        <path
           d="m -1317.8974,612.66741 -0.7936,0.0621 c -0.071,-0.3133 -0.1714,-0.54089 -0.3014,-0.68277 -0.2158,-0.22758 -0.4818,-0.34137 -0.7981,-0.34138 -0.2542,10e-6 -0.4773,0.0709 -0.6695,0.21281 -0.2512,0.18326 -0.4492,0.45075 -0.5941,0.80248 -0.1448,0.35173 -0.2202,0.85272 -0.2261,1.50298 0.1922,-0.29261 0.4271,-0.50986 0.705,-0.65174 0.2778,-0.14187 0.5689,-0.2128 0.8734,-0.21281 0.532,1e-5 0.985,0.19582 1.3589,0.58745 0.3739,0.39164 0.5608,0.8978 0.5608,1.5185 0,0.40789 -0.088,0.78696 -0.2638,1.13721 -0.1758,0.35025 -0.4175,0.61848 -0.7249,0.80469 -0.3074,0.18621 -0.6561,0.27932 -1.0463,0.27932 -0.665,0 -1.2074,-0.24459 -1.6271,-0.73376 -0.4197,-0.48917 -0.6296,-1.29534 -0.6296,-2.41851 0,-1.25618 0.232,-2.16949 0.6961,-2.73995 0.4049,-0.49655 0.9503,-0.74483 1.636,-0.74484 0.5113,1e-5 0.9303,0.14336 1.2569,0.43006 0.3266,0.28671 0.5224,0.68277 0.5874,1.18819 z m -3.2586,2.80202 c 0,0.27489 0.058,0.53794 0.1751,0.78918 0.1167,0.25123 0.2801,0.44262 0.4899,0.57415 0.2099,0.13153 0.4301,0.19729 0.6606,0.19729 0.337,0 0.6266,-0.13596 0.869,-0.40789 0.2424,-0.27192 0.3635,-0.64139 0.3635,-1.10839 0,-0.44927 -0.1197,-0.80322 -0.3591,-1.06184 -0.2394,-0.25862 -0.5409,-0.38794 -0.9044,-0.38794 -0.3606,0 -0.6665,0.12932 -0.9178,0.38794 -0.2512,0.25862 -0.3768,0.59779 -0.3768,1.0175 z"
           opacity="0.8"
           transform="matrix(0.754698,-0.107542,0.43688,1.26278,0,0)"
           id="path182" />
        <path
           d="m -394.73193,1103.0524 h 0.39532 v 2.7673 h -0.39532 z"
           opacity="0.8"
           transform="rotate(18.529745)"
           id="path184" />
        <path
           d="m 570.28873,667.76654 v -1.67143 h -3.02857 v -0.78571 l 3.18571,-4.52381 h 0.7 v 4.52381 h 0.94286 v 0.78571 h -0.94286 v 1.67143 z m 0,-2.45714 v -3.14762 l -2.18571,3.14762 z"
           opacity="0.8"
           transform="matrix(0.129099,0.731634,-1.23547,0.744275,0,0)"
           id="path186" />
      </g>
      <path
         d="m -728.25381,932.57755 c 0.30785,-0.57807 0.50942,-1.47686 0.35021,-2.05208 -0.002,-0.0119 -0.004,-0.0242 -0.005,-0.0365 l -4.05988,-20.74862 c -0.2534,-1.41253 -0.84158,-2.32525 -1.56509,-2.79179 z"
         fill="url(#G)"
         opacity="0.8"
         id="path190" />
      <path
         d="m -755.156,923.38868 c 0.10272,-0.64681 0.4835,-1.48554 0.95721,-1.84862 0.009,-0.008 0.0176,-0.017 0.0261,-0.026 l 15.74384,-14.11095 c 1.05347,-0.97451 2.07289,-1.34839 2.93142,-1.28469 z"
         fill="url(#H)"
         opacity="0.8"
         id="path192" />
      <path
         d="m -752.79937,926.80226 19.57994,6.56266 -0.29315,0.87461 -19.57993,-6.56266 z"
         fill="url(#I)"
         opacity="0.8"
         id="path194" />
    </g>
    <g
       transform="matrix(1.22611,0.00289428,-0.00289428,1.22611,-8.23341,2152.78)"
       id="g224">
      <path
         d="m 169.14378,492.10315 c -3.58228,1.97185 -7.01318,4.11171 -10.5356,6.13212 -2.81007,1.61037 -2.81599,1.61565 -2.82042,4.71282 -0.0602,4.29537 -0.003,8.90354 0,12.62818 0.004,3.09718 0.0104,3.10245 2.82042,4.71282 3.52242,2.02042 6.95332,4.16027 10.5356,6.13213 2.72164,1.53216 2.72164,1.52935 5.45886,0 3.58228,-1.97186 7.01319,-4.11171 10.53561,-6.13213 2.81007,-1.61037 2.79777,-1.61564 2.80222,-4.71282 0.0478,-4.19684 0.0418,-8.40132 0,-12.62818 -0.004,-3.09717 0.008,-3.10245 -2.80222,-4.71282 -3.52242,-2.02041 -6.95333,-4.16027 -10.53561,-6.13212 -2.73722,-1.57606 -2.73722,-1.58959 -5.45886,0 z"
         fill="#0d308d"
         id="path198" />
      <path
         d="m 158.60818,520.28909 c 3.52242,2.02042 6.95332,4.16027 10.5356,6.13213 2.72164,1.53216 2.72164,1.52935 5.45886,0 3.58228,-1.97186 7.01319,-4.11171 10.53561,-6.13213 3.75192,-12.94593 -32.70463,-12.47489 -26.53007,0 z"
         fill="url(#J)"
         id="path200" />
      <path
         d="m 169.14378,492.10315 c -3.58228,1.97185 -7.01318,4.11171 -10.5356,6.13212 -2.81007,1.61037 -2.81599,1.61565 -2.82042,4.71282 -0.0602,4.29537 -0.003,8.90354 0,12.62818 l 18.81488,-23.47312 c -2.73722,-1.57606 -2.73722,-1.58959 -5.45886,0 z"
         fill="url(#K)"
         id="path202" />
      <path
         d="m 168.12655,493.90319 -11.64301,20.46252 c -1.42684,2.81008 0.83888,5.85984 3.97613,5.92338 h 23.28866 c 2.88779,0 4.93873,-3.82978 3.42955,-6.06717 l -11.53005,-20.29164 c -2.02706,-3.70248 -5.60951,-3.70248 -7.52128,-0.0271 z"
         fill="url(#L)"
         id="path204" />
      <g
         fill="#ffffff"
         id="g216">
        <path
           d="m 173.77029,514.60321 h -1.73678 v -11.06716 c -0.41812,0.39883 -0.96649,0.79764 -1.64512,1.19645 -0.67864,0.39883 -1.28812,0.69794 -1.82845,0.89734 v -1.67889 c 0.97131,-0.4567 1.8204,-1.0099 2.54728,-1.65959 0.72687,-0.64968 1.24148,-1.28006 1.54381,-1.89117 h 1.11926 z"
           id="path206" />
        <path
           d="m -103.93414,-881.95686 0.81829,-0.0693 c 0.0606,0.39832 0.20132,0.69778 0.42213,0.89838 0.2208,0.2006 0.48707,0.3009 0.7988,0.3009 0.37523,0 0.69273,-0.14143 0.9525,-0.42429 0.25977,-0.28286 0.38966,-0.65809 0.38966,-1.12568 0,-0.4445 -0.12484,-0.79519 -0.37451,-1.05208 -0.24967,-0.25689 -0.57655,-0.38533 -0.98064,-0.38533 -0.25111,0 -0.47769,0.057 -0.67974,0.17101 -0.20204,0.11402 -0.36079,0.26195 -0.47625,0.44378 l -0.73169,-0.0952 0.6148,-3.26015 h 3.15623 v 0.74469 h -2.53278 l -0.34203,1.70584 c 0.38099,-0.26554 0.78076,-0.39832 1.19928,-0.39832 0.55418,0 1.02177,0.19195 1.40277,0.57583 0.380999,0.38389 0.571499,0.87746 0.571504,1.4807 -5e-6,0.57439 -0.167414,1.07085 -0.502224,1.48937 -0.40698,0.51377 -0.96261,0.77066 -1.66688,0.77066 -0.57727,0 -1.04847,-0.16164 -1.4136,-0.48491 -0.36512,-0.32327 -0.57366,-0.7519 -0.62562,-1.28588 z"
           transform="scale(-1.68779,-0.592492)"
           id="path208" />
        <path
           d="m -212.73781,402.01393 -0.87668,0.0686 c -0.0784,-0.34609 -0.18938,-0.59751 -0.33304,-0.75424 -0.23835,-0.2514 -0.53221,-0.37711 -0.88157,-0.37712 -0.28081,1e-5 -0.52732,0.0784 -0.73955,0.23509 -0.27754,0.20244 -0.4963,0.49794 -0.65629,0.88648 -0.15999,0.38855 -0.24325,0.94198 -0.24978,1.6603 0.21223,-0.32324 0.47181,-0.56322 0.77873,-0.71995 0.30692,-0.15672 0.62853,-0.23509 0.96484,-0.23509 0.58771,0 1.08809,0.21632 1.50113,0.64894 0.41303,0.43263 0.61955,0.99178 0.61955,1.67744 0,0.45059 -0.0971,0.86934 -0.29141,1.25625 -0.19428,0.38692 -0.4612,0.68323 -0.80076,0.88893 -0.33958,0.2057 -0.72486,0.30855 -1.15585,0.30855 -0.73465,0 -1.3338,-0.27019 -1.79744,-0.81056 -0.46364,-0.54038 -0.69547,-1.43093 -0.69547,-2.67167 0,-1.38767 0.25631,-2.39658 0.76894,-3.02675 0.44731,-0.54853 1.04972,-0.8228 1.80723,-0.82281 0.56486,1e-5 1.02769,0.15837 1.38849,0.47507 0.36078,0.31672 0.5771,0.75425 0.64893,1.31257 z m -3.59977,3.09532 c 0,0.30366 0.0645,0.59425 0.19346,0.87179 0.12897,0.27753 0.30936,0.48895 0.54119,0.63424 0.23182,0.1453 0.47507,0.21795 0.72975,0.21795 0.37222,0 0.6922,-0.1502 0.95994,-0.45059 0.26773,-0.30039 0.4016,-0.70852 0.4016,-1.22441 0,-0.49629 -0.13224,-0.88729 -0.39671,-1.17299 -0.26447,-0.28569 -0.59751,-0.42854 -0.99912,-0.42854 -0.39834,0 -0.73628,0.14285 -1.01381,0.42854 -0.27754,0.2857 -0.4163,0.66037 -0.4163,1.12401 z"
           transform="matrix(0.681397,-0.341808,0.815539,1.05848,0,0)"
           id="path210" />
        <path
           d="m 186.90331,502.75668 h 0.4367 v 3.05697 h -0.4367 z"
           id="path212" />
        <path
           d="m 645.02679,77.042297 v -1.846384 h -3.34559 v -0.867958 l 3.51918,-4.997336 h 0.77327 v 4.997336 h 1.04155 v 0.867958 h -1.04155 v 1.846384 z m 0,-2.714342 v -3.477094 l -2.4145,3.477094 z"
           transform="matrix(0.354917,0.652678,-0.934898,1.09832,0,0)"
           id="path214" />
      </g>
      <path
         d="m 187.56828,516.69338 c 0.1195,-0.71355 0.0151,-1.72571 -0.3536,-2.27231 -0.006,-0.0119 -0.0125,-0.024 -0.0182,-0.0364 l -11.5364,-20.30698 c -0.7613,-1.39053 -1.69779,-2.14003 -2.61938,-2.3747 z"
         fill="url(#M)"
         id="path218" />
      <path
         d="m 156.16487,516.51324 c -0.11949,-0.71354 -0.0151,-1.72571 0.35361,-2.2723 0.006,-0.0119 0.0125,-0.024 0.0182,-0.0364 l 11.53639,-20.30698 c 0.7613,-1.39054 1.69779,-2.14003 2.61938,-2.37471 z"
         fill="url(#N)"
         id="path220" />
      <path
         d="m 159.8316,519.26132 h 22.81206 v 1.01899 H 159.8316 Z"
         fill="url(#O)"
         id="path222" />
    </g>
    <path
       d="m 201.08416,2755.1878 c -0.83664,0 -1.69475,0.4957 -3.36555,1.4655 -4.39797,2.4075 -8.5947,5.0239 -12.91941,7.4911 -3.45013,1.9664 -3.45973,1.9567 -3.47413,5.754 -0.0205,1.2567 0.009,2.4121 0,3.6913 2.59917,1.6745 5.20913,3.323 8.03392,4.7226 3.03086,1.5018 6.30201,2.7155 9.93382,3.4741 1.81592,0.3794 3.72165,0.6492 5.75402,0.7602 2.03239,0.1116 4.16672,0.1037 6.45971,-0.1094 2.29299,-0.213 4.73047,-0.602 7.32823,-1.1941 0.59292,-0.1355 1.28972,-0.3863 1.89992,-0.543 0.0122,-3.5582 0.027,-7.1113 0,-10.6937 0.003,-3.7976 0.0212,-3.8255 -3.41985,-5.8083 -4.31302,-2.4875 -8.47857,-5.1173 -12.86512,-7.5454 -1.67579,-0.9701 -2.52892,-1.4613 -3.36556,-1.4655 z"
       fill="url(#P)"
       id="path226" />
  </g>
</svg>
