<svg enable-background="new 0 0 595.275 841.89" height="236.61476" viewBox="0 0 557.86606 236.61476" width="557.86609" xmlns="http://www.w3.org/2000/svg" xmlns:xlink="http://www.w3.org/1999/xlink"><radialGradient id="a" cx="201.2583" cy="691.18353" gradientTransform="matrix(3.63532 11.8421 -4.47761 1.37455 2921.83 -2131.45)" gradientUnits="userSpaceOnUse" r="4.120015" xlink:href="#b"/><linearGradient id="b"><stop offset="0" stop-color="#123797"/><stop offset=".125" stop-color="#799bf5"/><stop offset=".41796994" stop-color="#123797"/><stop offset=".75197935" stop-color="#779dfe"/><stop offset="1" stop-color="#123797"/></linearGradient><radialGradient id="c" cx="210.37498" cy="687.85815" gradientTransform="matrix(2.04153 12.1768 -5.70055 .955753 4062.06 -2018.62)" gradientUnits="userSpaceOnUse" r="4.120015" xlink:href="#b"/><linearGradient id="d" gradientUnits="userSpaceOnUse" x1="591.35043" x2="592.02721" xlink:href="#e" y1="1200.73111" y2="1232.44211"/><linearGradient id="e"><stop offset="0" stop-color="#fff"/><stop offset="1" stop-color="#fff" stop-opacity="0"/></linearGradient><radialGradient id="f" cx="133.28552" cy="671.07062" gradientTransform="matrix(1.0131 2.61323 -1.5428 .598107 1392.42 448.695)" gradientUnits="userSpaceOnUse" r="19.47748" xlink:href="#b"/><radialGradient id="g" cx="228.5797" cy="676.45752" gradientTransform="matrix(1.04428 3.13155 -2.06693 .689233 1745.59 29.2701)" gradientUnits="userSpaceOnUse" r="13.530645" xlink:href="#b"/><radialGradient id="h" cx="248.87601" cy="679.47131" gradientTransform="matrix(1.0617 4.6405 -2.57496 .589128 2096.01 -352.458)" gradientUnits="userSpaceOnUse" r="9.808055" xlink:href="#b"/><radialGradient id="i" cx="272.5" cy="676.36646" gradientTransform="matrix(.911738 3.53671 -2.63211 .678537 2164.32 -219.571)" gradientUnits="userSpaceOnUse" r="12.49624" xlink:href="#b"/><radialGradient id="j" cx="301.75" cy="677.38464" gradientTransform="matrix(1.3506 3.07111 -2.00921 .88361 1615.22 -318.379)" gradientUnits="userSpaceOnUse" r="14.099525" xlink:href="#b"/><radialGradient id="k" cx="337.17972" cy="666.13086" gradientTransform="matrix(.177517 1.94299 -3.56874 .326044 3011.89 338.049)" gradientUnits="userSpaceOnUse" r="19.736275" xlink:href="#b"/><linearGradient id="l" gradientUnits="userSpaceOnUse" x1="591.35043" x2="591.52721" xlink:href="#e" y1="1200.73111" y2="1232.69211"/><linearGradient id="m" gradientUnits="userSpaceOnUse" x1="591.35043" x2="591.52721" xlink:href="#e" y1="1200.73111" y2="1229.19211"/><linearGradient id="n" gradientUnits="userSpaceOnUse" x1="591.35043" x2="591.52721" xlink:href="#e" y1="1200.73111" y2="1232.44211"/><linearGradient id="o" gradientUnits="userSpaceOnUse" x1="591.35043" x2="591.77721" xlink:href="#e" y1="1200.73111" y2="1232.44211"/><linearGradient id="p" gradientUnits="userSpaceOnUse" x1="591.35043" x2="591.52721" xlink:href="#e" y1="1200.73111" y2="1232.94211"/><radialGradient id="q" cx="173.99998" cy="1006.1927" gradientTransform="matrix(.815479 2.28981 -2.19017 .779996 2594.82 23.3414)" gradientUnits="userSpaceOnUse" r="15.98686" xlink:href="#b"/><linearGradient id="r" gradientUnits="userSpaceOnUse" x1="538.13718" x2="538.03362" xlink:href="#e" y1="1200.6225" y2="1234.0985"/><filter id="s" color-interpolation-filters="sRGB" height="1.450939" width="1.513065" x="-.256532" y="-.22547"><feGaussianBlur stdDeviation="4.1562689"/></filter><filter id="t" color-interpolation-filters="sRGB" height="1.231476" width="1.249176" x="-.124588" y="-.115738"><feGaussianBlur stdDeviation="1.1761841"/></filter><linearGradient id="u" gradientTransform="matrix(-.387175 .0478565 -.0478565 -.387175 -817.08 1153.8)" gradientUnits="userSpaceOnUse" x1="-39.067657" x2="-38.890881" xlink:href="#v" y1="661.93134" y2="647.78918"/><linearGradient id="v"><stop offset="0" stop-color="#091d55"/><stop offset="1" stop-color="#091d55" stop-opacity="0"/></linearGradient><linearGradient id="w" gradientTransform="matrix(-.387175 .0478565 -.0478565 -.387175 -817.08 1153.8)" gradientUnits="userSpaceOnUse" x1="-64.346725" x2="-50.64653" xlink:href="#x" y1="607.83765" y2="621.36108"/><linearGradient id="x"><stop offset="0" stop-color="#071848"/><stop offset="1" stop-color="#102f81"/></linearGradient><linearGradient id="y" gradientTransform="matrix(-.387175 .0478565 -.0478565 -.387175 -817.08 1153.8)" gradientUnits="userSpaceOnUse" x1="-29.344938" x2="-48.436817" xlink:href="#z" y1="643.90009" y2="609.60535"/><linearGradient id="z"><stop offset="0" stop-color="#4776ed"/><stop offset="1" stop-color="#123797"/></linearGradient><linearGradient id="A" gradientTransform="matrix(-.387175 .0478565 -.0478565 -.387175 -817.444 1153.94)" gradientUnits="userSpaceOnUse" x1="-22.106869" x2="-31.498558" xlink:href="#e" y1="616.99878" y2="623.03357"/><linearGradient id="B" gradientTransform="matrix(-.387175 .0478565 -.0478565 -.387175 -816.436 1153.94)" gradientUnits="userSpaceOnUse" x1="-55.812508" x2="-46.812508" xlink:href="#C" y1="616.01501" y2="621.89001"/><linearGradient id="C"><stop offset="0" stop-color="#081e58"/><stop offset="1" stop-color="#0d308d" stop-opacity="0"/></linearGradient><radialGradient id="D" cx="-29.565908" cy="763.40906" gradientTransform="matrix(-.401051 .0475509 -.00326643 -.0278097 -841.888 923.842)" gradientUnits="userSpaceOnUse" r="17.732456" xlink:href="#e"/><filter id="E" color-interpolation-filters="sRGB"><feGaussianBlur stdDeviation="1.0291694"/></filter><linearGradient id="F" gradientTransform="matrix(-.418092 .179869 -.179869 -.418092 -741.762 1178.3)" gradientUnits="userSpaceOnUse" x1="-39.067657" x2="-38.890881" xlink:href="#v" y1="661.93134" y2="647.78918"/><linearGradient id="G" gradientTransform="matrix(-.418092 .179869 -.179869 -.418092 -741.762 1178.3)" gradientUnits="userSpaceOnUse" x1="-64.346725" x2="-50.64653" xlink:href="#x" y1="607.83765" y2="621.36108"/><linearGradient id="H" gradientTransform="matrix(-.418092 .179869 -.179869 -.418092 -741.762 1178.3)" gradientUnits="userSpaceOnUse" x1="-29.344938" x2="-48.436817" xlink:href="#z" y1="643.90009" y2="609.60535"/><linearGradient id="I" gradientTransform="matrix(-.418092 .179869 -.179869 -.418092 -742.121 1178.59)" gradientUnits="userSpaceOnUse" x1="-22.106869" x2="-31.498558" xlink:href="#e" y1="616.99878" y2="623.03357"/><linearGradient id="J" gradientTransform="matrix(-.418092 .179869 -.179869 -.418092 -740.993 1178.26)" gradientUnits="userSpaceOnUse" x1="-55.812508" x2="-46.812508" xlink:href="#C" y1="616.01501" y2="621.89001"/><radialGradient id="K" cx="-29.565908" cy="763.40906" gradientTransform="matrix(-.433735 .184052 -.012728 -.0300861 -844.542 928.807)" gradientUnits="userSpaceOnUse" r="17.732456" xlink:href="#e"/><filter id="L" color-interpolation-filters="sRGB"><feGaussianBlur stdDeviation=".78428741"/></filter><linearGradient id="M" gradientTransform="matrix(-.313903 .414769 -.414769 -.313903 -597.994 1123.18)" gradientUnits="userSpaceOnUse" x1="-39.067657" x2="-38.890881" xlink:href="#v" y1="661.93134" y2="647.78918"/><linearGradient id="N" gradientTransform="matrix(-.313903 .414769 -.414769 -.313903 -597.994 1123.18)" gradientUnits="userSpaceOnUse" x1="-64.346725" x2="-50.64653" xlink:href="#x" y1="607.83765" y2="621.36108"/><linearGradient id="O" gradientTransform="matrix(-.313903 .414769 -.414769 -.313903 -597.994 1123.18)" gradientUnits="userSpaceOnUse" x1="-29.344938" x2="-48.436817" xlink:href="#z" y1="643.90009" y2="609.60535"/><linearGradient id="P" gradientTransform="matrix(-.313903 .414769 -.414769 -.313903 -598.19 1123.67)" gradientUnits="userSpaceOnUse" x1="-22.106869" x2="-31.498558" xlink:href="#e" y1="616.99878" y2="623.03357"/><linearGradient id="Q" gradientTransform="matrix(-.313903 .414769 -.414769 -.313903 -597.257 1122.7)" gradientUnits="userSpaceOnUse" x1="-55.812508" x2="-46.812508" xlink:href="#C" y1="616.01501" y2="621.89001"/><radialGradient id="R" cx="-29.565908" cy="763.40906" gradientTransform="matrix(-.327086 .427757 -.0296329 -.0227103 -840.979 933.288)" gradientUnits="userSpaceOnUse" r="17.732456" xlink:href="#e"/><filter id="S" color-interpolation-filters="sRGB"><feGaussianBlur stdDeviation=".44093064"/></filter><linearGradient id="T" gradientUnits="userSpaceOnUse" x1="-28.448957" x2="-28.272181" xlink:href="#v" y1="772.90634" y2="758.76418"/><linearGradient id="U" gradientUnits="userSpaceOnUse" x1="-53.728025" x2="-40.02783" xlink:href="#x" y1="718.81265" y2="732.33608"/><linearGradient id="V" gradientUnits="userSpaceOnUse" x1="-18.726238" x2="-37.818117" xlink:href="#z" y1="754.87509" y2="720.58035"/><linearGradient id="W" gradientUnits="userSpaceOnUse" x1="-10.515869" x2="-19.907558" xlink:href="#e" y1="727.70878" y2="733.74357"/><linearGradient id="X" gradientUnits="userSpaceOnUse" x1="-46.784758" x2="-37.784758" xlink:href="#C" y1="726.41601" y2="732.29101"/><radialGradient id="Y" cx="-29.565908" cy="763.40906" gradientTransform="matrix(1.0352 .00514062 -.00043493 .0717735 1.42201 703.767)" gradientUnits="userSpaceOnUse" r="17.732456" xlink:href="#e"/><linearGradient id="Z" gradientUnits="userSpaceOnUse" x1="-6.647373" x2="-6.64738" xlink:href="#b" y1="1108.17689" y2="1156.14479"/><linearGradient id="aa" gradientUnits="userSpaceOnUse" x1="200.4539138476" x2="154.4912814484" xlink:href="#e" y1="2733.344965792" y2="2781.38106454"/><filter id="ab" color-interpolation-filters="sRGB" height="1.235142" width="1.245063" x="-.122532" y="-.117571"><feGaussianBlur stdDeviation="1.0646233"/></filter><filter id="ac" color-interpolation-filters="sRGB"><feGaussianBlur stdDeviation=".31938699"/></filter><linearGradient id="ad" gradientTransform="matrix(.225324 .269654 -.269654 .225324 -627.406 801.284)" gradientUnits="userSpaceOnUse" x1="-39.067657" x2="-38.890881" xlink:href="#v" y1="661.93134" y2="647.78918"/><linearGradient id="ae" gradientTransform="matrix(.225324 .269654 -.269654 .225324 -627.406 801.284)" gradientUnits="userSpaceOnUse" x1="-64.346725" x2="-50.64653" xlink:href="#x" y1="607.83765" y2="621.36108"/><linearGradient id="af" gradientTransform="matrix(.225324 .269654 -.269654 .225324 -627.406 801.284)" gradientUnits="userSpaceOnUse" x1="-29.344938" x2="-48.436817" xlink:href="#z" y1="643.90009" y2="609.60535"/><linearGradient id="ag" gradientTransform="matrix(.225324 .269654 -.269654 .225324 -627.116 801.486)" gradientUnits="userSpaceOnUse" x1="-22.106869" x2="-31.498558" xlink:href="#e" y1="616.99878" y2="623.03357"/><linearGradient id="ah" gradientTransform="matrix(.225324 .269654 -.269654 .225324 -627.61 800.725)" gradientUnits="userSpaceOnUse" x1="-55.812508" x2="-46.812508" xlink:href="#C" y1="616.01501" y2="621.89001"/><radialGradient id="ai" cx="-29.565908" cy="763.40906" gradientTransform="matrix(.23187 .280305 -.019452 .016055 -789.327 932.374)" gradientUnits="userSpaceOnUse" r="17.732456" xlink:href="#e"/><filter id="aj" color-interpolation-filters="sRGB"><feGaussianBlur stdDeviation=".92951207"/></filter><linearGradient id="ak" gradientTransform="matrix(.321109 .254882 -.254882 .321109 -553.846 731.771)" gradientUnits="userSpaceOnUse" x1="-39.067657" x2="-38.890881" xlink:href="#v" y1="661.93134" y2="647.78918"/><linearGradient id="al" gradientTransform="matrix(.321109 .254882 -.254882 .321109 -553.846 731.771)" gradientUnits="userSpaceOnUse" x1="-64.346725" x2="-50.64653" xlink:href="#x" y1="607.83765" y2="621.36108"/><linearGradient id="am" gradientTransform="matrix(.321109 .254882 -.254882 .321109 -553.846 731.771)" gradientUnits="userSpaceOnUse" x1="-29.344938" x2="-48.436817" xlink:href="#z" y1="643.90009" y2="609.60535"/><linearGradient id="an" gradientTransform="matrix(.321109 .254882 -.254882 .321109 -553.466 731.933)" gradientUnits="userSpaceOnUse" x1="-22.106869" x2="-31.498558" xlink:href="#e" y1="616.99878" y2="623.03357"/><linearGradient id="ao" gradientTransform="matrix(.321109 .254882 -.254882 .321109 -554.211 731.181)" gradientUnits="userSpaceOnUse" x1="-55.812508" x2="-46.812508" xlink:href="#C" y1="616.01501" y2="621.89001"/><radialGradient id="ap" cx="-29.565908" cy="763.40906" gradientTransform="matrix(.331103 .265505 -.0184334 .0229362 -707.891 919.777)" gradientUnits="userSpaceOnUse" r="17.732456" xlink:href="#e"/><filter id="aq" color-interpolation-filters="sRGB"><feGaussianBlur stdDeviation=".70244051"/></filter><linearGradient id="ar" gradientTransform="matrix(.421895 .203794 -.203794 .421895 -588.075 664.897)" gradientUnits="userSpaceOnUse" x1="-39.067657" x2="-38.890881" xlink:href="#v" y1="661.93134" y2="647.78918"/><linearGradient id="as" gradientTransform="matrix(.421895 .203794 -.203794 .421895 -588.075 664.897)" gradientUnits="userSpaceOnUse" x1="-64.346725" x2="-50.64653" xlink:href="#x" y1="607.83765" y2="621.36108"/><linearGradient id="at" gradientTransform="matrix(.421895 .203794 -.203794 .421895 -588.075 664.897)" gradientUnits="userSpaceOnUse" x1="-29.344938" x2="-48.436817" xlink:href="#z" y1="643.90009" y2="609.60535"/><linearGradient id="au" gradientTransform="matrix(.421895 .203794 -.203794 .421895 -587.61 664.984)" gradientUnits="userSpaceOnUse" x1="-22.106869" x2="-31.498558" xlink:href="#e" y1="616.99878" y2="623.03357"/><linearGradient id="av" gradientTransform="matrix(.421895 .203794 -.203794 .421895 -588.629 664.331)" gradientUnits="userSpaceOnUse" x1="-55.812508" x2="-46.812508" xlink:href="#C" y1="616.01501" y2="621.89001"/><radialGradient id="aw" cx="-29.565908" cy="763.40906" gradientTransform="matrix(.4357 .213137 -.0148105 .0301922 -712.762 913.119)" gradientUnits="userSpaceOnUse" r="17.732456" xlink:href="#e"/><filter id="ax" color-interpolation-filters="sRGB"><feGaussianBlur stdDeviation=".40013067"/></filter><linearGradient id="ay" gradientTransform="matrix(.499779 .167512 -.167512 .499779 -614.429 613.888)" gradientUnits="userSpaceOnUse" x1="-39.067657" x2="-38.890881" xlink:href="#v" y1="661.93134" y2="647.78918"/><linearGradient id="az" gradientTransform="matrix(.499779 .167512 -.167512 .499779 -614.429 613.888)" gradientUnits="userSpaceOnUse" x1="-64.346725" x2="-50.64653" xlink:href="#x" y1="607.83765" y2="621.36108"/><linearGradient id="aA" gradientTransform="matrix(.499779 .167512 -.167512 .499779 -614.429 613.888)" gradientUnits="userSpaceOnUse" x1="-29.344938" x2="-48.436817" xlink:href="#z" y1="643.90009" y2="609.60535"/><linearGradient id="aB" gradientTransform="matrix(.499779 .167512 -.167512 .499779 -613.898 613.918)" gradientUnits="userSpaceOnUse" x1="-22.106869" x2="-31.498558" xlink:href="#e" y1="616.99878" y2="623.03357"/><linearGradient id="aC" gradientTransform="matrix(.499779 .167512 -.167512 .499779 -615.128 613.334)" gradientUnits="userSpaceOnUse" x1="-55.812508" x2="-46.812508" xlink:href="#C" y1="616.01501" y2="621.89001"/><radialGradient id="aD" cx="-29.565908" cy="763.40906" gradientTransform="matrix(.516512 .175978 -.0122403 .035798 -718.325 908.612)" gradientUnits="userSpaceOnUse" r="17.732456" xlink:href="#e"/><linearGradient id="aE" gradientUnits="userSpaceOnUse" x1="172.1617237497" x2="172.2646567022" xlink:href="#v" y1="528.36471872386" y2="520.13003594122"/><linearGradient id="aF" gradientUnits="userSpaceOnUse" x1="157.44225331372" x2="165.41958915813" xlink:href="#x" y1="496.86709900435" y2="504.74150830132"/><linearGradient id="aG" gradientUnits="userSpaceOnUse" x1="177.8230588463" x2="166.70625863406" xlink:href="#z" y1="517.86550050511" y2="497.89639359265"/><linearGradient id="aH" gradientUnits="userSpaceOnUse" x1="182.60363442555" x2="177.13505114632" xlink:href="#e" y1="502.04643261962" y2="505.56036410603"/><linearGradient id="aI" gradientUnits="userSpaceOnUse" x1="161.48454865427" x2="166.72505965427" xlink:href="#C" y1="501.29360400779" y2="504.71449313279"/><radialGradient id="aJ" cx="-29.565908" cy="763.40906" gradientTransform="matrix(.602778 .00299328 -.00025325 .0417922 189.555 488.106)" gradientUnits="userSpaceOnUse" r="17.732456" xlink:href="#e"/><linearGradient id="aK" gradientUnits="userSpaceOnUse" x1="217.3856558498" x2="206.9452130552" xlink:href="#e" y1="2745.86978645" y2="2790.395324312"/><g transform="matrix(1.71675 0 0 1.71675 1599.97096 -5032.20047)"><g transform="matrix(.991769 0 0 .991769 -1333.1 1765.04)"><path d="m567.36189 1239.9112h-7.24003v-36.197h7.24003z" fill="url(#a)"/><path d="m579.68005 1210.0752h-7.13588v-6.361h7.13588zm.10415 29.836h-7.24003v-26.7856h7.24003z" fill="url(#c)"/><path d="m567.375 1225.1703v-21.4688h-7.25v21.4375c2.41806.022 4.83427.036 7.25.031zm5.15625-21.4688v6.375h7.15625v-6.375z" fill="url(#d)"/><path d="m524.35091 1239.9112h-10.18623l-9.35934-14.1171h-9.72229v14.1171h-8.6871v-36.197h26.47631c2.99824 0 5.47997 1.1636 7.44518 3.4906 1.96515 2.3271 2.94774 5.0766 2.94778 8.2484-.00004 2.5165-.84455 4.6537-2.53354 6.4116-1.68906 1.7579-3.82651 2.861-6.41236 3.3091zm-11.53072-24.8209c-.00003-1.6885-.62914-2.9896-1.88733-3.9033-1.25825-.9137-2.95622-1.3705-5.09391-1.3706h-10.85847v10.1358h11.11727c1.62009 0 3.0682-.3624 4.34434-1.0873 1.58537-.8963 2.37807-2.1545 2.3781-3.7746z" fill="url(#f)"/><path d="m609.89158 1231.7417c-.00003 2.2745-.73276 4.222-2.19821 5.8427-1.46549 1.6206-3.31863 2.431-5.55942 2.431h-17.73557v-4.862h14.58265c1.03412 0 1.90441-.2585 2.61086-.7756.70642-.5171 1.05963-1.2579 1.05965-2.2227-.00002-2.2408-1.51704-3.3612-4.55106-3.3612h-7.44518c-1.58541 0-3.11926-.7585-4.60155-2.2755-1.48231-1.517-2.22346-3.1545-2.22346-4.9124 0-2.4817.55126-4.4811 1.65378-5.9982 1.27505-1.7231 3.15397-2.5848 5.63675-2.5848h17.06332v5.0671h-15.20281c-.58599 0-1.09438.2843-1.52517.8529-.43082.5687-.64622 1.2149-.64621 1.9386-.00001.7933.28456 1.4742.85372 2.0428.56913.5687 1.24979.853 2.04198.8529h8.01485c2.51642.0001 4.50738.7499 5.97287 2.2495 1.46545 1.4997 2.19818 3.4047 2.19821 5.7149z" fill="url(#g)"/><path d="m629.98 1218.7103h-6.98124v12.1524c-.00001 1.1026.37924 2.0157 1.13776 2.7395.8616.7238 1.99936 1.0857 3.4133 1.0857h2.1193v5.2233h-6.67036c-1.99886 0-3.70524-.7238-5.11915-2.1714-.8269-.8616-1.36107-1.8097-1.6025-2.8444-.24144-1.0347-.36216-2.2584-.36216-3.6713v-12.5138h-4.55106v-5.5847h4.55106v-9.4114h7.08381v9.4114h6.98124z" fill="url(#h)"/><path d="m656.70563 1240.0658h-12.61641c-3.06771 0-5.73065-1.3184-7.98881-3.9553-2.25817-2.6369-3.38726-5.6791-3.38726-9.1266 0-3.7578 1.23245-7.007 3.69734-9.7475s5.21383-4.1108 8.24683-4.1108h11.99782v5.5326h-8.79125c-1.10359 0-2.04305.095-2.81838.2848-.77535.1899-1.49073.5605-2.14613 1.1118-1.20668 1.0341-1.81002 2.4302-1.81001 4.1881h15.51369v5.5846h-15.46161c-.00001.828.0949 1.5263.28484 2.0949.18988.5686.57781 1.1372 1.1638 1.7058.58596.5687 1.28398.9479 2.09405 1.1378.81005.1899 1.80106.2849 2.97303.2848h9.04846z" fill="url(#i)"/><path d="m687.98865 1239.9633h-19.33885c-2.17244 0-4.02558-.7328-5.55942-2.1982-1.53386-1.4655-2.30078-3.3181-2.30078-5.5579 0-2.3449.69802-4.2843 2.09405-5.8182 1.39604-1.5338 3.14555-2.3008 5.24856-2.3008h12.51383v-1.4486c-.00002-.4471-.0776-.8345-.23276-1.1622-.15519-.3277-.40531-.7157-.75035-1.1638-.48185-.5513-.9813-.9045-1.49835-1.0597-.51709-.1552-1.24114-.2327-2.17217-.2328h-13.3928v-5.8955h11.47864 2.22346c2.51747 0 4.39665.2154 5.63753.6462 1.24084.4308 2.30944 1.0776 3.20579 1.9402 1.13721 1.1373 1.89546 2.3781 2.27474 3.7226.37923 1.3445.56885 3.0682.56888 5.1712zm-7.39468-5.4821v-5.2738h-9.10054c-.86162 0-1.59409.2498-2.19742.7495-.60335.4998-.90501 1.1636-.90501 1.9915 0 .7238.29298 1.3269.87897 1.8092.58597.4824 1.25821.7236 2.01673.7236z" fill="url(#j)"/><path d="m731.60402 1239.9633h-6.98123v-16.8061c-.00004-.6544-.069-1.1712-.20673-1.5504-.13785-.3793-.41348-.7846-.82689-1.2159-.41348-.4313-.82719-.7417-1.24113-.9311-.414-.1893-.89661-.284-1.44784-.284h-5.11916v20.7875h-7.08381v-20.9422h-8.32572v20.8901h-7.24004v-26.7856h28.69977c1.79261 0 3.20601.1639 4.24018.4916 1.03411.3277 2.05089 1.026 3.05035 2.0948.79319.8616 1.4052 1.7061 1.83605 2.5335.43076.8275.64616 1.7235.6462 2.6882z" fill="url(#k)"/><path d="m579.78125 1225.264v-12.125h-7.25v12.0625c2.24761-.02 4.50453.1003 6.75.062h.5z" fill="url(#l)"/><path d="m605.28125 1224.4515c-1.04634-.4316-2.21267-.6874-3.5625-.6875h-8c-.79219.0001-1.49337-.2751-2.0625-.8437-.56916-.5686-.84376-1.238-.84375-2.0313-.00001-.7237.22543-1.3688.65625-1.9375.43079-.5685.91401-.8749 1.5-.875h15.21875v-5.0625h-17.0625c-2.48278.0001-4.3812.8706-5.65625 2.5938-1.10252 1.517-1.625 3.5183-1.625 6 0 1.2264.49875 2.3615 1.21875 3.4687 6.75091-.1541 13.48912-.3729 20.21875-.625z" fill="url(#m)"/><path d="m623 1223.8265v-5.125h6.96875v-5.5625h-6.96875v-9.4375h-7.09375v9.4375h-4.53125v5.5625h4.53125v5.4063c2.37201-.097 4.72468-.182 7.09375-.2813z" fill="url(#n)"/><path d="m641.3125 1223.0765c.22269-1.1973.68034-2.2484 1.59375-3.0312.6554-.5512 1.34965-.9038 2.125-1.0938.77533-.1898 1.74016-.2812 2.84375-.2812h8.78125v-5.5313h-12c-3.033.0001-5.78511 1.3533-8.25 4.0938-1.62107 1.8023-2.51046 3.9132-3.0625 6.1562 2.65625-.1084 5.31648-.2113 7.96875-.3125z" fill="url(#m)"/><path d="m687.71875 1222.264c-.10069-.9687-.10472-2.107-.3125-2.8437-.37928-1.3445-1.11279-2.5815-2.25-3.7188-.89635-.8626-1.97791-1.5066-3.21875-1.9375-1.24088-.4307-3.10753-.6249-5.625-.625h-2.21875-11.5v5.875h13.40625c.93103.0001 1.63916.095 2.15625.25.51705.1552 1.01815.5113 1.5 1.0625.34504.4482.59481.8286.75 1.1563.0925.1953.11394.4515.15625.6875.18667-.0001.37585 0 .5625 0 2.20104.0005 4.39599.07 6.59375.094z" fill="url(#o)"/><path d="m731.59375 1224.6703v-3.75c-.00004-.9647-.19424-1.8601-.625-2.6875-.43085-.8274-1.05056-1.6696-1.84375-2.5313-.99946-1.0688-2.02839-1.766-3.0625-2.0937-1.03417-.3277-2.42614-.4687-4.21875-.4688h-28.71875v9.1875c1.59162.032 3.19143.016 4.78125.062.82558.024 1.64366.097 2.46875.125v-3.5h8.3125v3.9063c1.96966.1025 3.9395.1516 5.90625.2812.39594.026.79167.067 1.1875.094v-4.125h5.125c.55123.0001 1.0235.092 1.4375.2813.41394.1894.83652.5062 1.25.9375.41341.4313.67465.8395.8125 1.2187.13773.3793.21871.9082.21875 1.5625v.9063c2.20439.2023 4.42445.3195 6.625.5625.11415.013.22961.019.34375.031z" fill="url(#p)"/><path d="m486.40624 1203.7015v15c2.26925.4305 4.54449.9636 6.8125 1.3438 5.76311.9662 11.52701 1.7668 17.28125 2.4375 2.78315.3244 5.56287.5188 8.34375.7812.64526-.4344 1.32422-.833 1.875-1.4062 1.68899-1.7579 2.53121-3.8898 2.53125-6.4063-.00004-3.1718-.97235-5.9228-2.9375-8.25-1.96521-2.327-4.43926-3.4999-7.4375-3.5zm8.5625 6.125h10.875c2.13769.0001 3.8355.4614 5.09375 1.375 1.25819.9138 1.87497 2.1866 1.875 3.875-.00003 1.6202-.78963 2.885-2.375 3.7813-1.27614.7249-2.72366 1.0938-4.34375 1.0937h-11.125z" fill="url(#m)"/><g fill="none"><path d="m524.35091 1239.9112h-10.18623l-9.35934-14.1171h-9.72229v14.1171h-8.6871v-36.197h26.47631c2.99824 0 5.47997 1.1636 7.44518 3.4906 1.96515 2.3271 2.94774 5.0766 2.94778 8.2484-.00004 2.5165-.84455 4.6537-2.53354 6.4116-1.68906 1.7579-3.82651 2.861-6.41236 3.3091zm-11.53072-24.8209c-.00003-1.6885-.62914-2.9896-1.88733-3.9033-1.25825-.9137-2.95622-1.3705-5.09391-1.3706h-10.85847v10.1358h11.11727c1.62009 0 3.0682-.3624 4.34434-1.0873 1.58537-.8963 2.37807-2.1545 2.3781-3.7746z" stroke="#123797"/><path d="m567.36189 1239.9112h-7.24003v-36.197h7.24003z" stroke="#123797"/><path d="m579.68005 1210.0752h-7.13588v-6.361h7.13588zm.10415 29.836h-7.24003v-26.7856h7.24003z"/><path d="m609.89158 1231.7417c-.00003 2.2745-.73276 4.222-2.19821 5.8427-1.46549 1.6206-3.31863 2.431-5.55942 2.431h-17.73557v-4.862h14.58265c1.03412 0 1.90441-.2585 2.61086-.7756.70642-.5171 1.05963-1.2579 1.05965-2.2227-.00002-2.2408-1.51704-3.3612-4.55106-3.3612h-7.44518c-1.58541 0-3.11926-.7585-4.60155-2.2755-1.48231-1.517-2.22346-3.1545-2.22346-4.9124 0-2.4817.55126-4.4811 1.65378-5.9982 1.27505-1.7231 3.15397-2.5848 5.63675-2.5848h17.06332v5.0671h-15.20281c-.58599 0-1.09438.2843-1.52517.8529-.43082.5687-.64622 1.2149-.64621 1.9386-.00001.7933.28456 1.4742.85372 2.0428.56913.5687 1.24979.853 2.04198.8529h8.01485c2.51642.0001 4.50738.7499 5.97287 2.2495 1.46545 1.4997 2.19818 3.4047 2.19821 5.7149z" stroke="#123797"/><path d="m629.98 1218.7103h-6.98124v12.1524c-.00001 1.1026.37924 2.0157 1.13776 2.7395.8616.7238 1.99936 1.0857 3.4133 1.0857h2.1193v5.2233h-6.67036c-1.99886 0-3.70524-.7238-5.11915-2.1714-.8269-.8616-1.36107-1.8097-1.6025-2.8444-.24144-1.0347-.36216-2.2584-.36216-3.6713v-12.5138h-4.55106v-5.5847h4.55106v-9.4114h7.08381v9.4114h6.98124z" stroke="#123797"/><path d="m656.70563 1240.0658h-12.61641c-3.06771 0-5.73065-1.3184-7.98881-3.9553-2.25817-2.6369-3.38726-5.6791-3.38726-9.1266 0-3.7578 1.23245-7.007 3.69734-9.7475s5.21383-4.1108 8.24683-4.1108h11.99782v5.5326h-8.79125c-1.10359 0-2.04305.095-2.81838.2848-.77535.1899-1.49073.5605-2.14613 1.1118-1.20668 1.0341-1.81002 2.4302-1.81001 4.1881h15.51369v5.5846h-15.46161c-.00001.828.0949 1.5263.28484 2.0949.18988.5686.57781 1.1372 1.1638 1.7058.58596.5687 1.28398.9479 2.09405 1.1378.81005.1899 1.80106.2849 2.97303.2848h9.04846z" stroke="#123797"/><path d="m687.98865 1239.9633h-19.33885c-2.17244 0-4.02558-.7328-5.55942-2.1982-1.53386-1.4655-2.30078-3.3181-2.30078-5.5579 0-2.3449.69802-4.2843 2.09405-5.8182 1.39604-1.5338 3.14555-2.3008 5.24856-2.3008h12.51383v-1.4486c-.00002-.4471-.0776-.8345-.23276-1.1622-.15519-.3277-.40531-.7157-.75035-1.1638-.48185-.5513-.9813-.9045-1.49835-1.0597-.51709-.1552-1.24114-.2327-2.17217-.2328h-13.3928v-5.8955h11.47864 2.22346c2.51747 0 4.39665.2154 5.63753.6462 1.24084.4308 2.30944 1.0776 3.20579 1.9402 1.13721 1.1373 1.89546 2.3781 2.27474 3.7226.37923 1.3445.56885 3.0682.56888 5.1712zm-7.39468-5.4821v-5.2738h-9.10054c-.86162 0-1.59409.2498-2.19742.7495-.60335.4998-.90501 1.1636-.90501 1.9915 0 .7238.29298 1.3269.87897 1.8092.58597.4824 1.25821.7236 2.01673.7236z" stroke="#123797"/><path d="m731.60402 1239.9633h-6.98123v-16.8061c-.00004-.6544-.069-1.1712-.20673-1.5504-.13785-.3793-.41348-.7846-.82689-1.2159-.41348-.4313-.82719-.7417-1.24113-.9311-.414-.1893-.89661-.284-1.44784-.284h-5.11916v20.7875h-7.08381v-20.9422h-8.32572v20.8901h-7.24004v-26.7856h28.69977c1.79261 0 3.20601.1639 4.24018.4916 1.03411.3277 2.05089 1.026 3.05035 2.0948.79319.8616 1.4052 1.7061 1.83605 2.5335.43076.8275.64616 1.7235.6462 2.6882z" stroke="#123797"/><path d="m579.68005 1210.0752h-7.13588v-6.361h7.13588zm.10415 29.836h-7.24003v-26.7856h7.24003z" stroke="#123797"/></g><path d="m557.21149 1225.6654c-.00003 4.6531-1.48234 8.221-4.44691 10.7038-2.72372 2.2745-6.42947 3.4117-11.11727 3.4117-4.68889 0-8.32574-1.0341-10.91056-3.1024-2.99932-2.3786-4.49898-6.0844-4.49898-11.1173 0-4.206 1.62012-7.5151 4.86036-9.9274 2.89621-2.1724 6.46415-3.2586 10.70382-3.2587 4.65414.0001 8.38593 1.1636 11.19539 3.4907 2.8094 2.3271 4.21412 5.5936 4.21415 9.7996zm-8.01485-.052c-.00003-2.1724-.68095-3.9911-2.04277-5.4561-1.36187-1.4649-3.21475-2.1974-5.55864-2.1974-2.13668 0-3.90329.7499-5.29984 2.2495-1.39657 1.4997-2.09485 3.3873-2.09484 5.6628-.00001 2.6196.70668 4.7049 2.12009 6.2561 1.41338 1.5512 3.24048 2.3269 5.48131 2.3268 2.55114.0001 4.44742-.81 5.68883-2.4301 1.13721-1.4823 1.70583-3.6195 1.70586-6.4116z" fill="url(#q)"/><path d="m541.78672 1212.3603c-4.23967.0003-7.79129 1.1089-10.6875 3.2813-2.79618 2.0817-4.30469 4.8652-4.6875 8.2813 2.67976.171 5.35149.2745 8.03125.4062.25783-1.5734.78896-2.9923 1.84375-4.125 1.39655-1.4996 3.17582-2.25 5.3125-2.25 2.34389 0 4.20063.7537 5.5625 2.2188 1.19159 1.2818 1.75948 2.8676 1.90625 4.6874 2.69789.074 5.39586.075 8.09375.125-.15381-3.8612-1.50959-6.9326-4.15625-9.125-2.80946-2.3271-6.56461-3.4997-11.21875-3.5z" fill="url(#r)"/><path d="m557.21149 1225.6654c-.00003 4.6531-1.48234 8.221-4.44691 10.7038-2.72372 2.2745-6.42947 3.4117-11.11727 3.4117-4.68889 0-8.32574-1.0341-10.91056-3.1024-2.99932-2.3786-4.49898-6.0844-4.49898-11.1173 0-4.206 1.62012-7.5151 4.86036-9.9274 2.89621-2.1724 6.46415-3.2586 10.70382-3.2587 4.65414.0001 8.38593 1.1636 11.19539 3.4907 2.8094 2.3271 4.21412 5.5936 4.21415 9.7996zm-8.01485-.052c-.00003-2.1724-.68095-3.9911-2.04277-5.4561-1.36187-1.4649-3.21475-2.1974-5.55864-2.1974-2.13668 0-3.90329.7499-5.29984 2.2495-1.39657 1.4997-2.09485 3.3873-2.09484 5.6628-.00001 2.6196.70668 4.7049 2.12009 6.2561 1.41338 1.5512 3.24048 2.3269 5.48131 2.3268 2.55114.0001 4.44742-.81 5.68883-2.4301 1.13721-1.4823 1.70583-3.6195 1.70586-6.4116z" fill="none" stroke="#123797"/></g><path d="m-662.4738 2953.8529c-86.5315-20.8728-196.69297-40.89-232.07807 35.0352l12.77429-4.936c37.6014-74.8691 169.99888-36.5186 219.30378-30.0992z" fill="#163c9e"/><path d="m-670.6838 2948.781c-86.5316-20.8728-207.76697-39.429-239.18497 46.1659l12.45748-4.966c39.63999-88.506 177.4167-47.6193 226.72749-41.1999z" fill="#99ade0"/><path d="m-611.3163 3001.7136-211.7415 25.3837v-8.1464z" fill="#163c9e"/><path d="m-611.4901 3003.0562-211.5677 33.8207v-7.657z" fill="#99ade0"/><g transform="matrix(.981076 0 0 .981076 -1054.82 301.208)"><path d="m-1013.1991 1146.7984c-.8237 0-1.6678.4823-3.3126 1.4375-4.3294 2.3698-8.4614 4.9464-12.7187 7.375-3.3963 1.9357-3.4233 1.9493-3.4375 5.6875-.085 5.1843-.024 10.7231-.031 15.2187 0 3.7383.015 3.7671 3.4062 5.7188 4.2457 2.4487 8.3694 5.016 12.6875 7.4062 2.0504 1.1607 2.8102 1.599 3.9063 1.3126.6576-.1719 1.4469-.5922 2.6874-1.2813 4.3295-2.3698 8.4616-4.9464 12.7188-7.375 3.39631-1.9357 3.39206-1.9493 3.40625-5.6875.0697-5.0654.0697-10.1481.0312-15.25.004-3.7383.0123-3.7358-3.375-5.6875-4.24575-2.4486-8.36935-5.0473-12.68745-7.4375-1.6497-.9551-2.4576-1.4335-3.2812-1.4375z" fill="#000f36" filter="url(#s)" transform="matrix(1.06134 0 0 .851538 1231.86 1787.43)"/><g filter="url(#t)" opacity=".2" transform="matrix(1.14325 0 0 1.14325 1145.16 1720.71)"><path d="m-828.64471 919.50622c2.21989-1.60556 4.32534-3.3104 6.50145-4.94334 1.73615-1.30173 1.73965-1.30573 1.48804-3.3655-.31302-2.86106-.72967-5.92049-1.03788-8.39685-.2575-2.05905-.26187-2.06207-2.26272-2.9019-2.50822-1.05393-4.96541-2.19481-7.50944-3.21153-1.93562-.7951-1.93539-.79323-3.62976.44865-2.2199 1.60557-4.32535 3.31041-6.50146 4.94334-1.73615 1.30174-1.72753 1.30424-1.47594 3.36401.31313 2.79453.66266 5.58973 1.03789 8.39686.25749 2.05904.24976 2.06356 2.25061 2.90339 2.50822 1.05393 4.96541 2.1948 7.50944 3.21153 1.9496.823 1.95071.832 3.62977-.44866z" fill="#0d308d"/><path d="m-823.95582 899.89863c-2.50822-1.05393-4.96541-2.19481-7.50944-3.21153-1.93562-.7951-1.93539-.79323-3.62976.44865-2.2199 1.60557-4.32535 3.31041-6.50146 4.94334-1.43076 8.9165 22.7716 5.607 17.64066-2.18046z" fill="url(#u)"/><path d="m-828.64471 919.50622c2.21989-1.60556 4.32534-3.3104 6.50145-4.94334 1.73615-1.30173 1.73965-1.30573 1.48804-3.3655-.31302-2.86106-.72967-5.92049-1.03788-8.39685l-10.58138 17.15435c1.9496.823 1.95071.832 3.62977-.44866z" fill="url(#w)"/><path d="m-828.11627 918.22572 6.06002-14.56307c.71779-1.98578-1.03941-3.82744-3.13068-3.61185l-15.48535 1.91406c-1.92017.23734-2.96914 2.95244-1.78176 4.31611l9.33441 12.54489c1.65216 2.29529 4.03424 2.00086 5.00336-.60016z" fill="url(#y)"/><g fill="#fff"><path d="m935.7914-800.93969c-.4451-.16294-.77494-.39542-.98954-.69745s-.3219-.66367-.3219-1.08492c0-.63585.22851-1.17036.68553-1.60354.45701-.43316 1.06504-.64975 1.82409-.64976.76302.00001 1.37701.22157 1.84198.66467.46496.44311.69744.98259.69745 1.61843-.00001.40536-.10631.75806-.31892 1.0581-.21262.30004-.53551.53153-.96868.69447.5365.17486.94483.45702 1.22501.84647.28016.38946.42025.85443.42025 1.3949 0 .74712-.26428 1.37503-.79282 1.8837-.52856.50868-1.22402.76302-2.08639.76302s-1.55783-.25533-2.08638-.766c-.52855-.51066-.79283-1.14751-.79283-1.91053 0-.56829.14406-1.04418.43218-1.42768.28812-.38349.69844-.64479 1.23097-.78388zm-.2146-1.81814c0 .41331.13313.7511.39939 1.01339s.61201.39343 1.03724.39343c.41329 0 .75208-.13015 1.01636-.39045.26427-.2603.39641-.57922.39642-.95676-.00001-.39342-.13612-.72426-.40834-.99252-.27223-.26824-.61102-.40237-1.01637-.40237-.40933 0-.74911.13115-1.01934.39343-.27024.26229-.40536.57624-.40536.94185zm-.34574 4.03566c0 .30601.0725.60208.21758.88821.14505.28613.36064.50768.64678.66466.28613.15698.59412.23546.92397.23546.51265 0 .93588-.16492 1.26971-.49477.33382-.32984.50073-.74911.50073-1.25779 0-.51663-.17188-.94384-.51563-1.28164-.34376-.33779-.77396-.50668-1.29058-.50669-.50471.00001-.92298.16692-1.25481.50073-.33184.33383-.49775.7511-.49775 1.25183z" transform="matrix(-.992447 .122671 -.122671 -.992447 0 0)"/><path d="m-556.57646 1334.2037.52213-.07c.06.2959.16196.5091.30603.6396s.31957.1958.52649.1958c.24559 0 .453-.085.62221-.2553.16921-.1701.25381-.3809.25382-.6323-.00001-.2398-.0783-.4376-.23496-.5932-.15665-.1557-.35583-.2335-.59756-.2335-.0986 0-.22142.019-.36839.058l.058-.4583c.0348 0 .0629.01.0841.01.22239 0 .42254-.058.60046-.1741.17791-.116.26687-.2949.26687-.5366 0-.1915-.0648-.3501-.19435-.4758-.12957-.1257-.29685-.1885-.50183-.1885-.20306 0-.37227.064-.50764.1914-.13537.1277-.22239.3191-.26106.5744l-.52214-.093c.0638-.3501.20885-.6213.43511-.8137s.50763-.2886.84412-.2886c.23206 0 .44575.05.64107.1494.19532.1.3447.2354.44817.4075.10345.1721.15518.3549.15519.5483-.00001.1837-.0493.351-.14794.5018-.0986.1508-.24463.2707-.43802.3597.2514.058.44672.1784.58596.3611.13923.1828.20885.4115.20885.6861 0 .3713-.13537.686-.4061.9442-.27074.2581-.61303.3872-1.02687.3872-.37323 0-.68313-.1112-.92969-.3336-.24657-.2224-.38725-.5105-.42206-.8644z" transform="matrix(1.67504 -.207042 .0726814 .588017 0 0)"/><path d="m1656.762-223.31616h-.5907v-3.76375c-.1421.13564-.3286.27127-.5594.40689-.2308.13564-.4381.23736-.6219.30517v-.57096c.3304-.15531.6191-.34344.8663-.5644.2472-.22094.4222-.43532.5251-.64315h.3806z" transform="matrix(-.634321 .422814 -.939224 -.95044 0 0)"/><path d="m266.43333-890.96817.66611-.0564c.0493.32424.16388.56801.34363.73131.17974.1633.39649.24494.65025.24494.30544 0 .5639-.11513.77536-.34539s.31719-.5357.3172-.91634c-.00001-.36183-.10163-.64731-.30486-.85642-.20324-.20911-.46934-.31367-.79828-.31367-.20441 0-.38885.0464-.55332.13921-.16448.0928-.2937.21323-.38769.36125l-.59562-.0775.50046-2.65386h2.56928v.60619h-2.06176l-.27843 1.38861c.31014-.21616.63556-.32424.97625-.32424.45112 0 .83176.15625 1.14191.46874.31014.3125.46521.71428.46522 1.20534-.00001.46757-.13628.8717-.40883 1.21239-.3313.41823-.78359.62734-1.35689.62734-.46992 0-.85349-.13157-1.15071-.39473-.29723-.26315-.46699-.61207-.50928-1.04674z" transform="matrix(-.432301 -.604211 .793105 -1.20471 0 0)"/></g><path d="m-842.91675 904.66971c-.0208.48428.1318 1.14872.42187 1.48186.005.007.0103.015.0151.0227l9.33989 12.55458c.6205.86203 1.3048 1.28343 1.93688 1.36373z" fill="url(#A)"/><path d="m-822.02086 902.2085c.1381.46464.15186 1.14624-.0484 1.53998-.003.008-.006.017-.009.0257l-6.00191 14.45088c-.39192.98718-.95302 1.56251-1.54653 1.79429z" fill="url(#B)"/><path d="m-824.68484 900.68258-15.16844 1.87488-.0838-.67755 15.16844-1.87489z" fill="url(#D)"/></g><g filter="url(#E)" opacity=".4" transform="matrix(1.14325 0 0 1.14325 1145.16 1720.71)"><path d="m-831.12105 919.63208c1.96305-2.52243 3.76552-5.11874 5.6706-7.65755 1.52025-2.02433 1.52287-2.02995.56931-4.25517-1.28366-3.10277-2.7481-6.39395-3.90091-9.06737-.95992-2.22249-.9658-2.22445-3.48096-2.51269-3.15331-.36262-6.27781-.83926-9.4591-1.14852-2.4275-.25941-2.42663-.25738-3.91961 1.68628-1.96305 2.52243-3.76553 5.11873-5.6706 7.65754-1.52025 2.02434-1.50979 2.02432-.55625 4.24955 1.26208 3.02822 2.56517 6.0453 3.90092 9.06737.95991 2.22249.95273 2.23007 3.46788 2.51831 3.15331.36262 6.27782.83926 9.45911 1.14852 2.45225.28611 2.45643.29582 3.91961-1.68627z" fill="#0d308d"/><path d="m-832.26301 896.1393c-3.15331-.36262-6.27781-.83926-9.4591-1.14852-2.4275-.25941-2.42663-.25738-3.91961 1.68628-1.96305 2.52243-3.76553 5.11873-5.6706 7.65754 1.3051 10.45451 27.33637-1.14535 19.04931-8.1953z" fill="url(#F)"/><path d="m-831.12105 919.63208c1.96305-2.52243 3.76552-5.11874 5.6706-7.65755 1.52025-2.02433 1.52287-2.02995.56931-4.25517-1.28366-3.10277-2.7481-6.39395-3.90091-9.06737l-6.25861 22.66636c2.45225.28611 2.45643.29582 3.91961-1.68627z" fill="url(#G)"/><path d="m-830.9467 918.02537 2.03901-18.28924c.15645-2.45847-2.41248-3.94839-4.68474-3.02489l-16.72189 7.19401c-2.07351.89205-2.3631 4.27548-.58832 5.4158l14.54709 11.00823c2.5992 2.03231 5.17149.92567 5.40885-2.30393z" fill="url(#H)"/><g fill="#fff"><path d="m1127.6092-504.68398c-.5192-.19008-.9041-.46131-1.1544-.81369-.2504-.35236-.3756-.77427-.3756-1.26574 0-.74181.2666-1.36541.7998-1.87079.5332-.50536 1.2426-.75804 2.1281-.75805.8902.00001 1.6065.25849 2.149.77544.5425.51697.8137 1.14636.8137 1.88818 0 .47292-.124.8844-.3721 1.23444-.248.35006-.6247.62013-1.1301.81021.6259.20401 1.1023.5332 1.4292.98756.3268.45437.4903.99683.4903 1.62738 0 .87164-.3084 1.6042-.925 2.19766s-1.428.89019-2.4341.89019-1.8175-.29789-2.4341-.89367c-.6167-.59578-.925-1.33876-.925-2.22896 0-.663.1681-1.21821.5042-1.66563.3362-.4474.8149-.75225 1.4361-.91453zm-.2503-2.12115c0 .48219.1553.87628.4659 1.18228.3107.30601.714.45901 1.2101.459.4822.00001.8775-.15183 1.1858-.45552.3083-.30368.4625-.67575.4625-1.11622 0-.45899-.1588-.84497-.4764-1.15794-.3176-.31295-.7129-.46943-1.1858-.46944-.4775.00001-.8739.15301-1.1892.45901-.3153.30601-.4729.67228-.4729 1.09883zm-.4034 4.70827c0 .35701.085.70242.2539 1.03624.1692.33382.4207.5923.7545.77544.3338.18313.6932.2747 1.078.2747.5981 0 1.0919-.19241 1.4813-.57723.3895-.38482.5842-.87396.5842-1.46742 0-.60273-.2005-1.10115-.6016-1.49525-.401-.39408-.9029-.59113-1.5056-.59114-.5889.00001-1.0768.19474-1.464.58419-.3871.38946-.5807.87629-.5807 1.46047z" transform="matrix(-.918598 .395194 -.395194 -.918598 0 0)"/><path d="m-670.58158 831.2522.60916-.0812c.0699.34519.18895.59393.35704.74622.16808.15229.37282.22843.61423.22843.28653 0 .5285-.0993.72591-.29781.19741-.19854.29612-.44446.29612-.73776 0-.27976-.0914-.51045-.27412-.69207-.18275-.18162-.41513-.27243-.69715-.27243-.11506 0-.25833.0226-.42979.0677l.0677-.53471c.0406.005.0733.007.0982.007.25945 0 .49296-.0677.70053-.20305.20756-.13537.31134-.34406.31135-.62608-.00001-.22336-.0756-.40836-.22675-.55502-.15116-.14664-.34632-.21997-.58547-.21997-.23689 0-.43431.0745-.59223.22336-.15793.14891-.25946.37227-.30458.67007l-.60916-.10829c.0745-.40836.24366-.72478.50763-.94927s.59224-.33673.98481-.33673c.27073 0 .52004.0581.74791.17428.22787.1162.40215.27469.52286.47549.1207.2008.18105.414.18105.63961 0 .21434-.0575.4095-.17259.58547-.11507.17598-.28541.31586-.51102.41964.2933.0677.52117.20814.68361.42134.16244.21321.24366.47999.24367.80037-.00001.43318-.15794.80036-.47379 1.10156-.31586.30119-.7152.45179-1.19801.45179-.43544 0-.79699-.12973-1.08464-.38919-.28766-.25945-.4518-.59562-.49241-1.00849z" transform="matrix(1.5504 -.667004 .23415 .544262 0 0)"/><path d="m1620.3636 44.546463h-.6891v-4.391036c-.1659.15824-.3835.316475-.6527.474707-.2693.158239-.5111.276916-.7255.35603v-.666121c.3854-.181201.7223-.400688 1.0107-.658464.2884-.257765.4926-.507879.6125-.750342h.4441z" transform="matrix(-.490849 .583268 -1.16746 -.650017 0 0)"/><path d="m751.98488-910.33906.77712-.0658c.0576.37829.1912.66269.4009.8532s.46258.28577.75863.28577c.35635 0 .65788-.13432.90459-.40296.2467-.26863.37006-.62499.37006-1.06906 0-.42214-.11856-.7552-.35567-.99916-.23711-.24397-.54755-.36595-.93132-.36595-.23848 0-.45367.0541-.64555.16241-.19188.10828-.34265.24877-.45229.42146l-.6949-.0905.58388-3.09617h2.99749v.70722h-2.40539l-.32484 1.62005c.36184-.25219.74149-.37828 1.13897-.37829.5263.00001.97038.1823 1.33222.54687.36183.36458.54275.83333.54275 1.40623 0 .5455-.15899 1.01698-.47696 1.41446-.38652.48793-.91419.73189-1.58304.73189-.54824 0-.99574-.1535-1.3425-.46052-.34676-.30701-.54481-.71408-.59415-1.2212z" transform="matrix(-.58396 -.459287 .424744 -1.37838 0 0)"/></g><path d="m-851.94641 907.66707c.13462.54926.52225 1.24377.95583 1.52234.008.007.0164.0134.0243.0205l14.5564 11.0173c.97617.76327 1.88012 1.01214 2.61434.89596z" fill="url(#I)"/><path d="m-829.34227 898.09571c.30622.47543.54392 1.23445.44803 1.7408-.00095.0106-.002.0211-.002.0317l-2.0105 18.14462c-.11709 1.23362-.55799 2.06106-1.14722 2.51425z" fill="url(#J)"/><path d="m-832.82397 897.25519-16.37968 7.04678-.31477-.73166 16.37968-7.04678z" fill="url(#K)"/></g><g filter="url(#L)" opacity=".6" transform="matrix(1.14325 0 0 1.14325 1145.16 1720.71)"><path d="m-832.82309 916.59448c.52659-3.61474.85191-7.21223 1.31164-10.81052.3678-2.8698.36723-2.87687-1.83657-4.54969-3.02724-2.35846-6.34047-4.80208-8.9953-6.80776-2.20857-1.66652-2.21552-1.66515-4.8775-.53162-3.3381 1.4199-6.71195 2.71023-10.04772 4.19894-2.55861 1.1127-2.55661 1.11422-2.94284 3.88846-.52659 3.61474-.85191 7.21223-1.31164 10.81052-.36779 2.86981-.35741 2.86389 1.84638 4.53673 2.9637 2.29655 5.96187 4.5589 8.9953 6.80776 2.20857 1.66652 2.20571 1.67811 4.8677.54458 3.33809-1.4199 6.71194-2.71023 10.04771-4.19894 2.59828-1.10014 2.60792-1.09285 2.94284-3.88846z" fill="#0d308d"/><path d="m-847.22082 893.89489c-3.3381 1.4199-6.71195 2.71023-10.04772 4.19894-2.55861 1.1127-2.55661 1.11422-2.94284 3.88846-.52659 3.61474-.85191 7.21223-1.31164 10.81052 7.19901 9.65163 26.51697-16.57104 14.3022-18.89792z" fill="url(#M)"/><path d="m-832.82309 916.59448c.52659-3.61474.85191-7.21223 1.31164-10.81052.3678-2.8698.36723-2.87687-1.83657-4.54969-3.02724-2.35846-6.34047-4.80208-8.9953-6.80776l6.57739 26.05643c2.59828-1.10014 2.60792-1.09285 2.94284-3.88846z" fill="url(#N)"/><path d="m-833.55691 914.8995-8.29919-19.32478c-1.23248-2.53125-4.62632-2.56145-6.36285-.36097l-12.55477 16.58899c-1.55679 2.05702.0656 5.58256 2.47292 5.71371l20.66991 2.726c3.73013.55207 5.6614-1.99978 4.07396-5.34297z" fill="url(#O)"/><g fill="#fff"><path d="m1234.2748 124.23701c-.5935-.21724-1.0333-.52722-1.3194-.92993-.2861-.4027-.4292-.88489-.4292-1.44656 0-.84779.3047-1.56048.9141-2.13805.6093-.57755 1.42-.86633 2.4321-.86635 1.0173.00002 1.836.29542 2.456.88622.6199.59082.9299 1.31013.9299 2.15792 0 .54048-.1418 1.01074-.4252 1.41079-.2835.40006-.7141.70872-1.2916.92596.7153.23315 1.2598.60936 1.6333 1.12863.3736.51928.5604 1.13924.5604 1.85986 0 .99617-.3524 1.83337-1.0571 2.51161-.7048.67824-1.6321 1.01736-2.7819 1.01736s-2.0771-.34044-2.7818-1.02133c-.7048-.68089-1.0571-1.53001-1.0571-2.54738 0-.75771.1921-1.39224.5762-1.90357.3842-.51133.9313-.85972 1.6413-1.04518zm-.2861-2.42418c0 .55108.1775 1.00147.5325 1.35118.355.34973.816.52458 1.383.52458.551 0 1.0028-.17353 1.3551-.52061.3524-.34706.5286-.77228.5286-1.27567 0-.52457-.1815-.96569-.5445-1.32336-.3629-.35766-.8147-.53649-1.3551-.5365-.5458.00001-.9988.17487-1.3592.52457-.3603.34973-.5404.76833-.5404 1.25581zm-.461 5.38088c0 .40801.097.80277.2901 1.18427.1934.38152.4808.67692.8624.88622.3815.2093.7921.31395 1.2319.31395.6836 0 1.2479-.2199 1.693-.65969.4451-.4398.6676-.99882.6676-1.67706 0-.68883-.2292-1.25845-.6875-1.70885-.4583-.45039-1.0319-.67558-1.7208-.67559-.6729.00001-1.2306.22256-1.673.66764-.4425.4451-.6637 1.00147-.6637 1.66911z" transform="matrix(-.603471 .797385 -.797385 -.603471 0 0)"/><path d="m-734.1346-233.16708.69618-.0928c.0799.3945.21594.67878.40804.85282.19209.17405.42608.26107.70198.26107.32746 0 .604-.11345.82961-.34036.22562-.2269.33842-.50795.33843-.84315-.00001-.31973-.10443-.58337-.31329-.79094-.20885-.20756-.47443-.31134-.79674-.31135-.1315.00001-.29523.0258-.49119.0774l.0774-.6111c.0464.005.0838.008.11217.008.29651 0 .56338-.0773.8006-.23206.23722-.1547.35583-.39321.35583-.71552 0-.25526-.0864-.46669-.25913-.6343-.17276-.16759-.3958-.25139-.66911-.2514-.27074.00001-.49635.0851-.67684.25527-.1805.17018-.29653.42545-.3481.7658l-.69618-.12377c.0851-.46669.27848-.82832.58015-1.08488.30168-.25655.67685-.38483 1.1255-.38483.30941 0 .59433.0664.85475.19918.26042.1328.45961.31393.59756.54341.13794.22949.20692.47315.20692.73099 0 .24496-.0657.46799-.19725.66911-.13151.20112-.32618.36098-.58402.47959.33519.0774.59562.23786.78127.48153.18564.24366.27847.54856.27847.9147 0 .49506-.18049.9147-.54147 1.25893-.36099.34422-.81737.51633-1.36916.51633-.49764 0-.91084-.14826-1.23959-.44478s-.51633-.68071-.56274-1.15257z" transform="matrix(1.01853 -1.34581 .472444 .357552 0 0)"/><path d="m1222.5319 509.98032h-.7876v-5.01833c-.1896.18085-.4382.36169-.7459.54252-.3078.18085-.5841.31648-.8291.40689v-.76128c.4404-.20708.8254-.45793 1.155-.75253.3296-.29459.563-.58043.7-.85753h.5076z" transform="matrix(-.138651 .749606 -1.33617 .0115382 0 0)"/><path d="m1455.0198-756.06437.8881-.0752c.066.43233.2185.75735.4582.97508s.5287.32659.867.32659c.4073 0 .7519-.1535 1.0338-.46052.282-.30701.4229-.71427.423-1.22178-.0001-.48245-.1355-.86308-.4065-1.14191-.271-.27881-.6258-.41822-1.0644-.41822-.2725 0-.5185.0619-.7378.18561-.2193.12375-.3916.28431-.5169.48167l-.7941-.10338.6672-3.53849h3.4258v.80826h-2.7491l-.3712 1.85148c.4135-.28821.8474-.43232 1.3017-.43232.6015 0 1.109.20833 1.5225.62499s.6203.95237.6203 1.60712c0 .62343-.1817 1.16226-.5451 1.61652-.4417.55763-1.0448.83645-1.8092.83645-.6266 0-1.138-.17543-1.5343-.52631-.3963-.35087-.6226-.81609-.679-1.39565z" transform="matrix(-.734618 -.110867 -.3116 -1.40828 0 0)"/></g><path d="m-860.27174 916.46219c.44386.46979 1.22113.94106 1.80924.97311.012.002.0239.004.0357.007l20.68427 2.72975c1.40092.20734 2.43965-.0557 3.10364-.58565z" fill="url(#P)"/><path d="m-843.21404 894.19001c.57269.29955 1.23739.91958 1.42798 1.47686.005.011.0104.0219.0161.0326l8.24587 19.16497c.5801 1.29192.60912 2.36304.27946 3.14602z" fill="url(#Q)"/><path d="m-847.14826 895.32042-12.29784 16.2495-.72585-.54933 12.29784-16.2495z" fill="url(#R)"/></g><g filter="url(#S)" opacity=".8" transform="matrix(1.14325 0 0 1.14325 1145.16 1720.71)"><path d="m-33.631269 710.63141c-6.152161 3.38644-12.044383 7.06141-18.09375 10.53125-4.82598 2.76563-4.83615 2.77469-4.84375 8.09375-.10332 7.37682-.0054 15.29085 0 21.6875.0076 5.31906.01777 5.32812 4.84375 8.09375 6.049367 3.46984 11.941589 7.14481 18.09375 10.53125 4.674117 2.63133 4.674117 2.62649 9.374999 0 6.152161-3.38644 12.044383-7.06141 18.0937504-10.53125 4.825984-2.76563 4.80486-2.77469 4.8125-8.09375.08214-7.2076.07187-14.42834 0-21.6875-.0076-5.31906.01348-5.32812-4.8125-8.09375-6.0493674-3.46984-11.9415894-7.14481-18.0937504-10.53125-4.700882-2.7067-4.700882-2.72994-9.374999 0z" fill="#0d308d" transform="matrix(.0702818 .580946 -.580946 .0702818 -423.411 877.585)"/><path d="m-51.725019 759.03766c6.049367 3.46984 11.941589 7.14481 18.09375 10.53125 4.674116 2.63133 4.674116 2.62649 9.374998 0 6.152161-3.38644 12.044383-7.06141 18.0937504-10.53125 6.443499-22.2332-56.1666084-21.42425-45.5624984 0z" fill="url(#T)" transform="matrix(.0702818 .580946 -.580946 .0702818 -423.411 877.585)"/><path d="m-33.631269 710.63141c-6.152161 3.38644-12.044383 7.06141-18.09375 10.53125-4.82598 2.76563-4.83615 2.77469-4.84375 8.09375-.10332 7.37682-.0054 15.29085 0 21.6875l32.312498-40.3125c-4.700882-2.7067-4.700882-2.72994-9.374998 0z" fill="url(#U)" transform="matrix(.0702818 .580946 -.580946 .0702818 -423.411 877.585)"/><path d="m-35.378251 713.72278-19.9956 35.14213c-2.450432 4.826 1.440686 10.06363 6.828568 10.17275h39.9957264c4.959448 0 8.481715-6.57722 5.889874-10.4197l-19.8015924-34.84864c-3.48125-6.3586-9.633712-6.3586-12.916976-.0465z" fill="url(#V)" transform="matrix(.0702818 .580946 -.580946 .0702818 -423.411 877.585)"/><g fill="#fff"><path d="m-32.071201 736.1913c-1.140919-.41764-1.986418-1.01356-2.536498-1.78777-.550086-.77418-.825128-1.70117-.825126-2.78098-.000002-1.62986.585735-2.99997 1.757212-4.11035 1.17147-1.11033 2.73004-1.66551 4.675713-1.66553 1.955843.00002 3.529693.56793 4.721553 1.70373 1.191834 1.13584 1.787758 2.51869 1.787773 4.14855-.000015 1.03907-.27251 1.94314-.817486 2.71222-.545004.76911-1.372676 1.36249-2.483017 1.78013 1.375196.44823 2.421882 1.17149 3.140062 2.16978.718149.99831 1.077231 2.19016 1.077247 3.57554-.000016 1.91512-.677433 3.52462-2.032254 4.82852-1.354849 1.3039-3.137526 1.95585-5.348038 1.95585-2.210528 0-3.993205-.6545-5.348037-1.96349-1.354838-1.30899-2.032255-2.94142-2.032254-4.89728-.000001-1.45669.369267-2.67655 1.107808-3.65958.738535-.98301 1.790315-1.65279 3.155342-2.00934zm-.550084-4.66043c-.000005 1.05944.34125 1.92531 1.023767 2.59762.682505.67234 1.56875 1.0085 2.658739 1.00849 1.059411.00001 1.927829-.33361 2.605258-1.00085.677406-.66722 1.016115-1.4847 1.016127-2.45246-.000012-1.00847-.348908-1.85651-1.046687-2.54414-.697802-.68758-1.566221-1.03138-2.605259-1.0314-1.049241.00002-1.920206.33618-2.612898 1.00848-.692703.67235-1.039052 1.4771-1.039047 2.41426zm-.886246 10.34463c-.000005.78439.185903 1.5433.557723 2.27674.371811.73345.924441 1.30136 1.657892 1.70373.733438.40238 1.52291.60357 2.368417.60357 1.314079 0 2.398965-.42275 3.254662-1.26825.855674-.8455 1.283516-1.9202 1.283529-3.22411-.000013-1.32426-.440589-2.41934-1.321729-3.28522-.881164-.86586-1.983877-1.2988-3.308143-1.29881-1.293723.00001-2.365876.42786-3.216462 1.28353-.850598.8557-1.275894 1.9253-1.275889 3.20882z" transform="matrix(.0702818 .580946 -.580946 .0702818 -423.411 877.585)"/><path d="m13.548824-1287.6763 1.338393-.1784c.153665.7584.415148 1.3049.784447 1.6395.369295.3346.819143.5019 1.349547.5019.629536 0 1.161175-.2181 1.594918-.6543.433733-.4362.650602-.9765.650608-1.6209-.000006-.6147-.200765-1.1216-.602277-1.5206-.401523-.399-.912095-.5986-1.531716-.5986-.252812 0-.567582.05-.944311.1487l.14871-1.1748c.08922.01.161099.015.21563.015.570052 0 1.083103-.1487 1.539152-.4461.45604-.2974.684062-.756.684068-1.3756-.000006-.4907-.166066-.8972-.49818-1.2194-.332124-.3222-.760906-.4833-1.286344-.4833-.52049 0-.954228.1636-1.301216.4907-.346993.3272-.570058.8179-.669196 1.4722l-1.338394-.2379c.163581-.8972.535356-1.5924 1.115328-2.0857.579968-.4932 1.301212-.7398 2.163736-.7398.594836 0 1.142586.1277 1.643249.3829.500652.2553.883581.6036 1.148788 1.0447.265193.4412.397793.9097.3978 1.4053-.000007.471-.126411.8997-.379212 1.2864-.252814.3866-.627068.694-1.122763.922.644405.1487 1.145063.4573 1.501975.9257.356897.4685.535349 1.0546.535357 1.7585-.000008.9518-.346998 1.7585-1.040972 2.4203-.693988.6617-1.571378.9926-2.632174.9926-.956706 0-1.751066-.285-2.383083-.8551-.63202-.57-.992643-1.3086-1.081868-2.2158z" transform="matrix(-.118621 -.980513 .344206 -.0416414 -423.411 877.585)"/><path d="m-600.88604 497.2912h-1.51401v-9.64763c-.36449.34768-.84253.69534-1.43411 1.04299-.59159.34767-1.12289.60842-1.59392.78224v-1.46355c.84672-.39811 1.58691-.88036 2.22055-1.44672.63364-.56634 1.08224-1.11587 1.34579-1.64859h.9757z" transform="matrix(.246462 .371832 -.5576 .548176 -423.411 877.585)"/><path d="m620.81996 292.64978 1.70744-.14454c.12647.83113.42008 1.45599.88082 1.87457s1.01633.62787 1.66679.62786c.78295.00001 1.44545-.29511 1.9875-.88533.54203-.59023.81306-1.37318.81306-2.34886 0-.9275-.26049-1.65926-.78144-2.19529-.52098-.53601-1.20305-.80402-2.04622-.80403-.52398.00001-.99677.11896-1.41835.35685-.4216.2379-.75285.54657-.99375.92599l-1.52676-.19875 1.28284-6.80266h6.58584v1.55386h-5.28493l-.7137 3.55943c.795-.55408 1.62914-.83113 2.50244-.83114 1.15636.00001 2.13204.40052 2.92704 1.20154.79499.80102 1.19249 1.83091 1.1925 3.08965-.00001 1.19852-.34932 2.23443-1.04795 3.10772-.84921 1.07205-2.00858 1.60807-3.47812 1.60807-1.20455 0-2.18776-.33727-2.94963-1.01182-.76187-.67454-1.19701-1.56891-1.30542-2.68312z" transform="matrix(-.354227 .252059 -.703772 -.465934 -423.411 877.585)"/></g><path d="m-1.9892118 752.86242c.205216-1.22544.0259-2.96372-.607279-3.90243-.01109-.0205-.02151-.0413-.03125-.0625l-19.8125002-34.875c-1.307446-2.38809-2.915761-3.67526-4.498493-4.07829z" fill="url(#W)" transform="matrix(.0702818 .580946 -.580946 .0702818 -423.411 877.585)"/><path d="m-55.921128 752.55306c-.205216-1.22544-.0259-2.96372.607279-3.90243.01109-.0205.02151-.0413.03125-.0625l19.8125-34.875c1.307446-2.38809 2.915761-3.67526 4.498493-4.07829z" fill="url(#X)" transform="matrix(.0702818 .580946 -.580946 .0702818 -423.411 877.585)"/><path d="m-49.62393 757.27258h39.177222v1.75h-39.177222z" fill="url(#Y)" transform="matrix(.0702818 .580946 -.580946 .0702818 -423.411 877.585)"/></g><g fill="url(#Z)" stroke="none" stroke-width="1.71739" transform="matrix(.251658 .699446 -.699446 .251658 683.184 2603.51)"><path d="m-33.631269 710.63141c-6.152161 3.38644-12.044383 7.06141-18.09375 10.53125-4.82598 2.76563-4.83615 2.77469-4.84375 8.09375-.10332 7.37682-.0054 15.29085 0 21.6875.0076 5.31906.01777 5.32812 4.84375 8.09375 6.049367 3.46984 11.941589 7.14481 18.09375 10.53125 4.674117 2.63133 4.674117 2.62649 9.374999 0 6.152161-3.38644 12.044383-7.06141 18.0937504-10.53125 4.825984-2.76563 4.80486-2.77469 4.8125-8.09375.08214-7.2076.07187-14.42834 0-21.6875-.0076-5.31906.01348-5.32812-4.8125-8.09375-6.0493674-3.46984-11.9415894-7.14481-18.0937504-10.53125-4.700882-2.7067-4.700882-2.72994-9.374999 0z" fill="#0d308d"/><path d="m-51.725019 759.03766c6.049367 3.46984 11.941589 7.14481 18.09375 10.53125 4.674116 2.63133 4.674116 2.62649 9.374998 0 6.152161-3.38644 12.044383-7.06141 18.0937504-10.53125 6.443499-22.2332-56.1666084-21.42425-45.5624984 0z" fill="url(#T)"/><path d="m-33.631269 710.63141c-6.152161 3.38644-12.044383 7.06141-18.09375 10.53125-4.82598 2.76563-4.83615 2.77469-4.84375 8.09375-.10332 7.37682-.0054 15.29085 0 21.6875l32.312498-40.3125c-4.700882-2.7067-4.700882-2.72994-9.374998 0z" fill="url(#U)"/><path d="m-35.378251 713.72278-19.9956 35.14213c-2.450432 4.826 1.440686 10.06363 6.828568 10.17275h39.9957264c4.959448 0 8.481715-6.57722 5.889874-10.4197l-19.8015924-34.84864c-3.48125-6.3586-9.633712-6.3586-12.916976-.0465z" fill="url(#V)"/><g fill="#fff"><path d="m-32.071201 736.1913c-1.140919-.41764-1.986418-1.01356-2.536498-1.78777-.550086-.77418-.825128-1.70117-.825126-2.78098-.000002-1.62986.585735-2.99997 1.757212-4.11035 1.17147-1.11033 2.73004-1.66551 4.675713-1.66553 1.955843.00002 3.529693.56793 4.721553 1.70373 1.191834 1.13584 1.787758 2.51869 1.787773 4.14855-.000015 1.03907-.27251 1.94314-.817486 2.71222-.545004.76911-1.372676 1.36249-2.483017 1.78013 1.375196.44823 2.421882 1.17149 3.140062 2.16978.718149.99831 1.077231 2.19016 1.077247 3.57554-.000016 1.91512-.677433 3.52462-2.032254 4.82852-1.354849 1.3039-3.137526 1.95585-5.348038 1.95585-2.210528 0-3.993205-.6545-5.348037-1.96349-1.354838-1.30899-2.032255-2.94142-2.032254-4.89728-.000001-1.45669.369267-2.67655 1.107808-3.65958.738535-.98301 1.790315-1.65279 3.155342-2.00934zm-.550084-4.66043c-.000005 1.05944.34125 1.92531 1.023767 2.59762.682505.67234 1.56875 1.0085 2.658739 1.00849 1.059411.00001 1.927829-.33361 2.605258-1.00085.677406-.66722 1.016115-1.4847 1.016127-2.45246-.000012-1.00847-.348908-1.85651-1.046687-2.54414-.697802-.68758-1.566221-1.03138-2.605259-1.0314-1.049241.00002-1.920206.33618-2.612898 1.00848-.692703.67235-1.039052 1.4771-1.039047 2.41426zm-.886246 10.34463c-.000005.78439.185903 1.5433.557723 2.27674.371811.73345.924441 1.30136 1.657892 1.70373.733438.40238 1.52291.60357 2.368417.60357 1.314079 0 2.398965-.42275 3.254662-1.26825.855674-.8455 1.283516-1.9202 1.283529-3.22411-.000013-1.32426-.440589-2.41934-1.321729-3.28522-.881164-.86586-1.983877-1.2988-3.308143-1.29881-1.293723.00001-2.365876.42786-3.216462 1.28353-.850598.8557-1.275894 1.9253-1.275889 3.20882z"/><path d="m13.548824-1287.6763 1.338393-.1784c.153665.7584.415148 1.3049.784447 1.6395.369295.3346.819143.5019 1.349547.5019.629536 0 1.161175-.2181 1.594918-.6543.433733-.4362.650602-.9765.650608-1.6209-.000006-.6147-.200765-1.1216-.602277-1.5206-.401523-.399-.912095-.5986-1.531716-.5986-.252812 0-.567582.05-.944311.1487l.14871-1.1748c.08922.01.161099.015.21563.015.570052 0 1.083103-.1487 1.539152-.4461.45604-.2974.684062-.756.684068-1.3756-.000006-.4907-.166066-.8972-.49818-1.2194-.332124-.3222-.760906-.4833-1.286344-.4833-.52049 0-.954228.1636-1.301216.4907-.346993.3272-.570058.8179-.669196 1.4722l-1.338394-.2379c.163581-.8972.535356-1.5924 1.115328-2.0857.579968-.4932 1.301212-.7398 2.163736-.7398.594836 0 1.142586.1277 1.643249.3829.500652.2553.883581.6036 1.148788 1.0447.265193.4412.397793.9097.3978 1.4053-.000007.471-.126411.8997-.379212 1.2864-.252814.3866-.627068.694-1.122763.922.644405.1487 1.145063.4573 1.501975.9257.356897.4685.535349 1.0546.535357 1.7585-.000008.9518-.346998 1.7585-1.040972 2.4203-.693988.6617-1.571378.9926-2.632174.9926-.956706 0-1.751066-.285-2.383083-.8551-.63202-.57-.992643-1.3086-1.081868-2.2158z" transform="scale(-1.68779 -.592492)"/><path d="m-600.88604 497.2912h-1.51401v-9.64763c-.36449.34768-.84253.69534-1.43411 1.04299-.59159.34767-1.12289.60842-1.59392.78224v-1.46355c.84672-.39811 1.58691-.88036 2.22055-1.44672.63364-.56634 1.08224-1.11587 1.34579-1.64859h.9757z" transform="matrix(.681397 -.341808 .815539 1.05848 0 0)"/><path d="m620.81996 292.64978 1.70744-.14454c.12647.83113.42008 1.45599.88082 1.87457s1.01633.62787 1.66679.62786c.78295.00001 1.44545-.29511 1.9875-.88533.54203-.59023.81306-1.37318.81306-2.34886 0-.9275-.26049-1.65926-.78144-2.19529-.52098-.53601-1.20305-.80402-2.04622-.80403-.52398.00001-.99677.11896-1.41835.35685-.4216.2379-.75285.54657-.99375.92599l-1.52676-.19875 1.28284-6.80266h6.58584v1.55386h-5.28493l-.7137 3.55943c.795-.55408 1.62914-.83113 2.50244-.83114 1.15636.00001 2.13204.40052 2.92704 1.20154.79499.80102 1.19249 1.83091 1.1925 3.08965-.00001 1.19852-.34932 2.23443-1.04795 3.10772-.84921 1.07205-2.00858 1.60807-3.47812 1.60807-1.20455 0-2.18776-.33727-2.94963-1.01182-.76187-.67454-1.19701-1.56891-1.30542-2.68312z" transform="matrix(.354917 .652678 -.934898 1.09832 0 0)"/></g><path d="m-1.9892118 752.86242c.205216-1.22544.0259-2.96372-.607279-3.90243-.01109-.0205-.02151-.0413-.03125-.0625l-19.8125002-34.875c-1.307446-2.38809-2.915761-3.67526-4.498493-4.07829z" fill="url(#W)"/><path d="m-55.921128 752.55306c-.205216-1.22544-.0259-2.96372.607279-3.90243.01109-.0205.02151-.0413.03125-.0625l19.8125-34.875c1.307446-2.38809 2.915761-3.67526 4.498493-4.07829z" fill="url(#X)"/><path d="m-49.62393 757.27258h39.177222v1.75h-39.177222z" fill="url(#Y)"/></g><path d="m161.84888 2746.6084c-.71287.053-1.5976.3553-2.99346.8554-5.18569 1.7841-10.67787 3.8235-15.15063 5.4369-3.71848 1.3445-3.73974 1.3658-4.45967 5.4373-.591 3.3349-1.21175 6.6788-1.83274 10.0189 1.57124-.3261 3.2379-.7834 4.70403-.9774 2.64342-.3495 5.11268-.5204 7.45313-.4888 2.34045.031 4.51069.26 6.59787.611 2.08715.3508 4.10337.8582 5.98693 1.4662 3.76713 1.2159 7.13461 2.8939 10.38551 4.765 1.83963 1.0589 3.60207 2.216 5.37603 3.36.73798-3.8977 1.51077-7.7865 2.1382-11.7295.71019-3.9693.70317-3.9542-2.38256-6.5367-3.91685-3.4508-7.96346-6.661-11.91279-10.0189-1.96808-1.6746-2.72172-2.2879-3.90985-2.1994z" fill="url(#aa)"/></g></g><g transform="matrix(1.56430775025 0 0 1.56430775025 -187.08166925 -4175.2160375)"><path d="m-1013.1991 1146.7984c-.8237 0-1.6678.4823-3.3126 1.4375-4.3294 2.3698-8.4614 4.9464-12.7187 7.375-3.3963 1.9357-3.4233 1.9493-3.4375 5.6875-.085 5.1843-.024 10.7231-.031 15.2187 0 3.7383.015 3.7671 3.4062 5.7188 4.2457 2.4487 8.3694 5.016 12.6875 7.4062 2.0504 1.1607 2.8102 1.599 3.9063 1.3126.6576-.1719 1.4469-.5922 2.6874-1.2813 4.3295-2.3698 8.4616-4.9464 12.7188-7.375 3.39631-1.9357 3.39206-1.9493 3.40625-5.6875.0697-5.0654.0697-10.1481.0312-15.25.004-3.7383.0123-3.7358-3.375-5.6875-4.24575-2.4486-8.36935-5.0473-12.68745-7.4375-1.6497-.9551-2.4576-1.4335-3.2812-1.4375z" fill="#000f36" filter="url(#s)" transform="matrix(1.26613 0 0 1.01584 1483.3 1600.27)"/><g filter="url(#ab)" transform="matrix(1.21901 0 0 1.21901 1211.12 1640.21)"><path d="m-799.07673 924.46821c-2.29939-.89592-4.61801-1.65671-6.91673-2.50611-1.83318-.67819-1.83791-.67889-3.27393.51757-2.01249 1.63429-4.1244 3.444-5.84813 4.88671-1.43276 1.20036-1.43272 1.20536-1.0911 3.12985.42741 2.41307.76409 4.82998 1.23715 7.25199.34365 1.85329.34495 1.8522 2.11241 2.528 2.2994.89591 4.61802 1.65672 6.91674 2.50612 1.83318.67818 1.83086.67045 3.26689-.526 1.96206-1.60191 3.90683-3.23169 5.84812-4.88671 1.43276-1.20036 1.43985-1.19685 1.09814-3.12143-.42741-2.41307-.76409-4.82998-1.23715-7.25199-.32934-1.87749-.32308-1.88273-2.11241-2.528z" fill="#0d308d" filter="url(#ac)" opacity=".2"/><path d="m-816.20662 930.49623c.42741 2.41307.76409 4.82998 1.23715 7.25199.34365 1.85329.34495 1.8522 2.11241 2.528 2.2994.89591 4.61802 1.65672 6.91674 2.50612 7.44715-3.27215-6.87852-19.97295-10.2663-12.28611z" fill="url(#ad)" filter="url(#ac)" opacity=".2"/><path d="m-799.07673 924.46821c-2.29939-.89592-4.61801-1.65671-6.91673-2.50611-1.83318-.67819-1.83791-.67889-3.27393.51757-2.01249 1.63429-4.1244 3.444-5.84813 4.88671l18.1512-.37017c-.32934-1.87749-.32308-1.88273-2.11241-2.528z" fill="url(#ae)" filter="url(#ac)" opacity=".2"/><path d="m-800.30396 924.69369-13.9817 2.52645c-1.85349.42665-2.38908 2.65606-1.20449 4.13352l9.01198 10.785c1.11748 1.33734 3.68471.80513 4.13684-.75957l4.93532-13.19181c.93021-2.37147-.45608-4.03051-2.89795-3.4936z" fill="url(#af)" filter="url(#ac)" opacity=".2"/><g fill="#fff"><g filter="url(#ac)" opacity=".2" transform="matrix(.641211 .767364 -.767364 .641211 -83.1958 5.875)"><path d="m244.70873 1147.7226c0-1.0093.10384-1.8216.31153-2.4369s.51631-1.0899.92586-1.4238c.40955-.3338.92488-.5007 1.54601-.5007.45807 0 .85986.092 1.20536.2765.34549.1845.63082.4504.85598.7978.22515.3474.40178.7706.52989 1.2694.1281.4989.19216 1.1714.19216 2.0177 0 1.0015-.10288 1.81-.30862 2.4253-.20575.6153-.5134 1.0908-.92294 1.4266-.40956.3358-.92683.5037-1.55183.5037-.82299 0-1.46934-.295-1.93906-.8851-.56289-.7104-.84434-1.8672-.84434-3.4705zm1.07726 0c0 1.4014.16401 2.334.49204 2.7979s.73273.6959 1.2141.6959c.48136 0 .88606-.2329 1.21409-.6988.32803-.4658.49204-1.3975.49205-2.795-.00001-1.4053-.16402-2.3389-.49205-2.8009-.32803-.4619-.73661-.6929-1.22574-.6929-.48137 0-.86569.2038-1.15295.6114-.36103.5202-.54154 1.481-.54154 2.8824z"/></g><g filter="url(#ac)" opacity=".2" transform="matrix(-1.08223 -1.29515 .454657 -.379913 -83.1958 5.875)"><path d="m-147.91655-1952.3128.49383-.042c.0366.2404.1215.4211.25476.5422.13325.121.29394.1816.48207.1816.22645 0 .41806-.085.57483-.2561.15677-.1707.23516-.3971.23516-.6793 0-.2683-.0753-.4799-.22601-.635-.15068-.155-.34795-.2325-.59182-.2325-.15155 0-.28828.034-.41022.1032-.12193.069-.21774.1581-.28741.2678l-.44158-.058.37103-1.9674h1.90478v.4494h-1.52853l-.20641 1.0294c.22993-.1602.47118-.2403.72376-.2404.33444.0001.61663.1159.84657.3476.22993.2316.34489.5295.3449.8936-.00001.3466-.10104.6462-.3031.8988-.24561.31-.58093.4651-1.00595.4651-.34838 0-.63275-.098-.8531-.2927-.22035-.1951-.3462-.4537-.37756-.776z"/></g><g filter="url(#ac)" opacity=".2" transform="matrix(.69921 .303708 -.289304 1.30452 -83.1958 5.875)"><path d="m-662.36282 865.06915-.52907.0414c-.0473-.20887-.11429-.36059-.20099-.45518-.14385-.15172-.32119-.22759-.53203-.22759-.16946 0-.31824.0473-.44631.14187-.1675.12218-.29952.3005-.39607.53499-.0965.23449-.1468.56848-.15074 1.00199.12808-.19508.28473-.33991.46996-.43449.18522-.0946.37931-.14188.58227-.14188.35469 0 .65666.13055.90593.39163.24926.26109.37389.59854.3739 1.01234-.00001.27192-.0586.52464-.17587.75814-.11724.2335-.27833.41232-.48326.53646s-.43745.18621-.69755.18621c-.44335 0-.80494-.16306-1.08474-.48917-.27981-.32612-.41972-.86356-.41971-1.61234-.00001-.83745.15468-1.44633.46404-1.82664.26996-.33103.63351-.49655 1.09066-.49656.34089.00001.62021.0956.83795.28671.21773.19114.34827.45518.39163.79213zm-2.17245 1.86801c0 .18326.0389.35863.11675.52612.0778.16749.1867.29508.32661.38276.1399.0877.2867.13153.4404.13153.22463 0 .41774-.0906.57932-.27192.16157-.18129.24236-.4276.24237-.73893-.00001-.29951-.0798-.53548-.23942-.7079-.15961-.17241-.3606-.25862-.60296-.25862-.2404 0-.44435.0862-.61184.25862s-.25123.39854-.25123.67834z"/></g><path d="m256.58246 1144.7833h.26355v1.8449h-.26355z" filter="url(#ac)" opacity=".2" transform="matrix(.641211 .767364 -.767364 .641211 -83.1958 5.875)"/><g filter="url(#ac)" opacity=".2" transform="matrix(-.273265 .690855 -1.44228 -.0131512 -83.1958 5.875)"><path d="m1333.792 251.26508v-1.11429h-2.019v-.52381l2.1238-3.01587h.4666v3.01587h.6286v.52381h-.6286v1.11429zm0-1.6381v-2.09841l-1.4571 2.09841z" fill="#fff"/></g></g><path d="m-803.33479 942.51626c.37668-.22078.80502-.6608.91547-1.04306.003-.007.006-.0151.01-.0225l4.93996-13.20068c.34936-.89065.33406-1.61437.0861-2.13197z" fill="url(#ag)" filter="url(#ac)" opacity=".2"/><path d="m-815.4035 927.90359c.2842-.33145.79334-.67478 1.18914-.71555.008-.002.0159-.004.0239-.006l13.86841-2.51565c.93856-.18553 1.64804-.0419 2.11335.2941z" fill="url(#ah)" filter="url(#ac)" opacity=".2"/><path d="m-815.25723 930.66508 8.82755 10.56429-.4719.39432-8.82754-10.56429z" fill="url(#ai)" filter="url(#ac)" opacity=".2"/></g><g filter="url(#aj)" transform="matrix(1.21901 0 0 1.21901 1107.92 1648.64)"><path d="m-720.89686 913.04685c-2.83866-.48067-5.66738-.80241-8.49428-1.2301-2.25458-.34198-2.26015-.34166-3.61832 1.36439-1.91342 2.34241-3.89902 4.90871-5.52776 6.96405-1.35352 1.70975-1.3523 1.71545-.50757 3.83356 1.0581 2.65607 2.01346 5.33794 3.12583 7.99344.83022 2.03628.83145 2.03473 3.01039 2.38951 2.83866.48066 5.66738.80242 8.49428 1.23009 2.25458.34199 2.2501.3337 3.60829-1.37235 1.86345-2.2935 3.70057-4.61477 5.52775-6.96405 1.35352-1.70974 1.36245-1.7074.51761-3.82559-1.0581-2.65607-2.01346-5.33795-3.12583-7.99344-.8196-2.06731-.81368-2.07478-3.01039-2.38951z" fill="#0d308d" opacity=".4"/><path d="m-739.04479 923.97875c1.0581 2.65607 2.01346 5.33794 3.12583 7.99344.83022 2.03628.83145 2.03473 3.01039 2.38951 2.83866.48066 5.66738.80242 8.49428 1.23009 7.73591-5.49694-12.57493-21.19535-14.6305-11.61304z" fill="url(#ak)" opacity=".4"/><path d="m-720.89686 913.04685c-2.83866-.48067-5.66738-.80241-8.49428-1.2301-2.25458-.34198-2.26015-.34166-3.61832 1.36439-1.91342 2.34241-3.89902 4.90871-5.52776 6.96405l20.65075-4.70883c-.8196-2.06731-.81368-2.07478-3.01039-2.38951z" fill="url(#al)" opacity=".4"/><path d="m-722.24577 913.59424-15.37784 6.18793c-2.01692.92509-2.10242 3.59872-.40014 5.00703l12.84296 10.19418c1.59253 1.26408 4.39998.0498 4.54709-1.84463l2.52382-16.23727c.50284-2.92911-1.47277-4.49726-4.13588-3.30725z" fill="url(#am)" opacity=".4"/><g fill="#fff"><path d="m1.6585787 1174.2605c-.0000006-1.1775.1211501-2.1252.3634525-2.843.2423005-.7179.6023559-1.2716 1.0801673-1.6611.4778074-.3894 1.0790319-.5842 1.8036756-.5842.534418 0 1.0031694.1076 1.4062555.3227.4030757.2151.7359571.5254.9986453.9307.2626757.4054.4687451.899.6182089 1.481.1494501.582.2241786 1.3666.2241857 2.3539-.0000071 1.1685-.1200255 2.1117-.3600558 2.8295-.2400436.7179-.5989668 1.2727-1.0767705 1.6644-.477815.3918-1.0813041.5877-1.8104691.5877-.9601516 0-1.7142299-.3442-2.2622372-1.0326-.6567064-.8288-.9850588-2.1785-.9850582-4.049zm1.2567984 0c-.0000018 1.635.1913484 2.7231.5740512 3.2643.382698.5412.8548461.8118 1.4164458.8118.561592 0 1.0337401-.2717 1.4164458-.8152.3826951-.5435.5740453-1.6304.5740512-3.2609-.0000059-1.6395-.1913561-2.7287-.5740512-3.2676-.3827057-.539-.8593828-.8085-1.4300328-.8085-.5615997 0-1.0099706.2378-1.345114.7134-.4211994.6068-.6317978 1.7278-.631796 3.3627z" opacity=".4" transform="matrix(.783249 .621708 -.621708 .783249 0 0)"/><path d="m-4.3993245-1999.637.5761364-.049c.042676.2805.1417469.4913.2972133.6326.1554641.1412.3429368.2118.5624188.2118.2641876 0 .4877324-.1.670635-.2987.1828979-.1992.274348-.4634.2743507-.7926-.0000027-.3129-.087896-.5599-.2636815-.7407-.1757898-.1809-.4059393-.2713-.6904492-.2713-.1768053 0-.3363349.04-.4785895.1204-.142257.08-.2540293.1844-.3353175.3124l-.5151696-.067.4328644-2.2954h2.2222405v.5243h-1.7832794l-.2408189 1.201c.2682527-.1869.5497159-.2804.8443904-.2804.3901854 0 .7194059.1351.9876624.4054.2682509.2703.4023778.6178.402381 1.0425-.0000032.4045-.1178723.754-.3536076 1.0487-.2865466.3617-.6777499.5426-1.1736112.5426-.4064467 0-.7382074-.1138-.9952832-.3414-.2570772-.2276-.4039055-.5294-.4404853-.9054z" opacity=".4" transform="matrix(-1.32196 -1.04931 .368357 -.464069 0 0)"/><path d="m-938.8299 799.97084-.61725.0483c-.0552-.24368-.13334-.42069-.23449-.53105-.16782-.177-.37472-.26551-.6207-.26552-.1977.00001-.37127.0552-.52069.16552-.19541.14254-.34944.35059-.46208.62415-.11265.27357-.17127.66323-.17587 1.16899.14943-.22759.33219-.39656.54829-.50691.21609-.11034.44253-.16551.67932-.16552.4138.00001.7661.15231 1.05691.45691s.43621.69829.43622 1.18105c-.00001.31725-.0684.61208-.20518.8845s-.32472.48104-.5638.62587c-.23909.14483-.51036.21725-.81381.21725-.51725 0-.93909-.19024-1.26553-.5707-.32645-.38047-.48967-1.00749-.48967-1.88107 0-.97702.18046-1.68738.54139-2.13107.31495-.38621.73909-.57931 1.27244-.57932.3977.00001.72357.1115.9776.33449.25402.223.40632.53105.4569.92415zm-2.53452 2.17935c0 .2138.0454.4184.13621.6138.0908.19541.21781.34426.38104.44656.16322.1023.33448.15345.5138.15345.26207 0 .48736-.10575.67587-.31724.18851-.2115.28276-.49886.28277-.86209-.00001-.34943-.0931-.62472-.27932-.82587-.18621-.20115-.4207-.30173-.70346-.30173-.28047 0-.5184.10058-.7138.30173-.19541.20115-.29311.46495-.29311.79139z" opacity=".4" transform="matrix(.746208 .155909 -.0192934 1.33608 0 0)"/><path d="m15.51125 1170.8314h.307477v2.1524h-.307477z" opacity=".4" transform="matrix(.783249 .621708 -.621708 .783249 0 0)"/><path d="m1090.3251 419.92319v-1.3h-2.3555v-.61111l2.4778-3.51852h.5444v3.51852h.7333v.61111h-.7333v1.3zm0-1.91111v-2.44815l-1.7 2.44815z" opacity=".4" transform="matrix(-.127787 .731864 -1.41509 .279025 0 0)"/></g><path d="m-721.50025 934.67257c.37825-.34119.76373-.94506.79967-1.40789.002-.009.004-.0187.006-.028l2.52704-16.24851c.18885-1.10008.00048-1.92333-.40502-2.45615z" fill="url(#an)" opacity=".4"/><path d="m-738.73939 920.82697c.24644-.4458.74707-.95828 1.18966-1.09832.009-.004.0174-.008.026-.0121l15.25096-6.14883c1.02852-.43359 1.87304-.43698 2.48399-.16299z" fill="url(#ao)" opacity=".4"/><path d="m-737.92023 923.94749 12.58014 9.98556-.44604.56194-12.58014-9.98556z" fill="url(#ap)" opacity=".4"/></g><g filter="url(#aq)" transform="matrix(1.21901 0 0 1.21901 1107.92 1649.15)"><path d="m-728.94983 908.87126c-3.2857.17495-6.52053.52461-9.77986.75569-2.59967.1833-2.60581.18505-3.69301 2.42758-1.54697 3.09118-3.11835 6.45008-4.41978 9.14985-1.08109 2.24549-1.0783 2.25154.3941 4.40184 1.84507 2.69673 3.58202 5.44797 5.48745 8.13047 1.43574 2.0627 1.43672 2.06066 3.95526 1.91057 3.28571-.17495 6.52053-.5246 9.77987-.75569 2.59967-.1833 2.59261-.19142 3.67982-2.43395 1.5035-3.02413 2.9707-6.07262 4.41978-9.14985 1.08109-2.24548 1.09164-2.24511-.38091-4.39547-1.84507-2.69673-3.58202-5.44798-5.48746-8.13047-1.43166-2.09996-1.42693-2.10976-3.95526-1.91057z" fill="#0d308d" opacity=".6"/><path d="m-746.44838 925.60622c1.84507 2.69673 3.58202 5.44797 5.48745 8.13047 1.43574 2.0627 1.43672 2.06066 3.95526 1.91057 3.28571-.17495 6.52053-.5246 9.77987-.75569 7.24947-8.06693-19.33027-20.48519-19.22258-9.28535z" fill="url(#ar)" opacity=".6"/><path d="m-728.94983 908.87126c-3.2857.17495-6.52053.52461-9.77986.75569-2.59967.1833-2.60581.18505-3.69301 2.42758-1.54697 3.09118-3.11835 6.45008-4.41978 9.14985l21.84791-10.42255c-1.43166-2.09996-1.42693-2.10976-3.95526-1.91057z" fill="url(#as)" opacity=".6"/><path d="m-730.31687 909.81947-15.59779 10.75131c-2.01734 1.53668-1.44309 4.53939.80779 5.68345l16.87399 8.15088c2.09237 1.0107 4.91879-1.04638 4.60838-3.1957l-1.25225-18.73791c-.17288-3.39212-2.76857-4.64595-5.44012-2.65203z" fill="url(#at)" opacity=".6"/><g fill="#fff"><path d="m-262.60443 1147.9478c0-1.3458.13845-2.4289.41537-3.2493.27692-.8203.68841-1.4531 1.23448-1.8983.54606-.4451 1.23318-.6676 2.06134-.6677.61077.0001 1.14648.123 1.60715.3688.46066.2459.84109.6005 1.14131 1.0637.3002.4633.53571 1.0274.70652 1.6926.1708.6651.25621 1.5618.25622 2.6902-.00001 1.3354-.13718 2.4133-.4115 3.2337-.27433.8204-.68453 1.4544-1.23059 1.9022-.54608.4477-1.23578.6716-2.06911.6716-1.09731 0-1.95912-.3934-2.58541-1.1802-.75052-.9472-1.12578-2.4896-1.12578-4.6273zm1.43634 0c0 1.8685.21868 3.1121.65606 3.7306.43737.6185.97696.9278 1.61879.9278.64182 0 1.18142-.3106 1.6188-.9317.43736-.6211.65605-1.8634.65606-3.7267-.00001-1.8737-.2187-3.1186-.65606-3.7345-.43738-.6159-.98215-.9239-1.63433-.9239-.64182 0-1.15425.2717-1.53727.8152-.48137.6936-.72205 1.9747-.72205 3.8432z" opacity=".6" transform="matrix(.900451 .434958 -.434958 .900451 0 0)"/><path d="m151.68634-1957.7604.65844-.056c.0488.3205.162.5614.33967.7229.17767.1614.39193.2421.64277.2421.30192 0 .5574-.1138.76644-.3414.20902-.2276.31354-.5296.31354-.9058 0-.3577-.10045-.6399-.30135-.8466s-.46393-.31-.78909-.3101c-.20206.0001-.38438.046-.54696.1377-.16257.092-.29031.2107-.38321.3571l-.58877-.077.4947-2.6233h2.53971v.5992h-2.03804l-.27522 1.3726c.30657-.2136.62825-.3205.96502-.3205.44592 0 .82218.1545 1.12875.4634.30658.3089.45987.706.45987 1.1914 0 .4622-.13471.8617-.40412 1.1985-.32749.4134-.77458.6201-1.34127.6201-.46451 0-.84367-.1301-1.13747-.3902s-.46161-.605-.50341-1.0347z" opacity=".6" transform="matrix(-1.51977 -.734115 .257709 -.53351 0 0)"/><path d="m-1194.6484 691.60947-.7054.0552c-.063-.27849-.1524-.4808-.268-.60691-.1918-.2023-.4282-.30345-.7093-.30345-.226 0-.4244.0631-.5951.18916-.2233.1629-.3994.40067-.5281.71331-.1288.31266-.1957.75798-.201 1.33599.1708-.2601.3796-.45321.6266-.57932s.5058-.18917.7764-.18917c.4729 0 .8755.17406 1.2079.52218.3323.34812.4985.79804.4985 1.34977 0 .36257-.078.69952-.2345 1.01086-.1563.31133-.3711.54976-.6443.71528-.2733.16552-.5833.24828-.9301.24828-.5911 0-1.0732-.21741-1.4463-.65223-.3731-.43481-.5596-1.15141-.5596-2.14979 0-1.1166.2062-1.92843.6187-2.43551.3599-.44138.8447-.66207 1.4542-.66208.4545.00001.8269.12743 1.1173.38228.2903.25485.4643.60691.5221 1.05617zm-2.8966 2.49068c0 .24435.052.47817.1557.70149.1038.22333.2489.39344.4355.51036.1865.11691.3823.17537.5872.17537.2995 0 .557-.12086.7724-.36257.2155-.24171.3232-.57012.3232-.98524 0-.39934-.1064-.71396-.3192-.94385-.2129-.22989-.4808-.34483-.804-.34484-.3205.00001-.5925.11495-.8158.34484s-.335.53137-.335.90444z" opacity=".6" transform="matrix(.762236 -.0114026 .273961 1.30783 0 0)"/><path d="m-246.7728 1144.0287h.35141v2.4598h-.35141z" opacity=".6" transform="matrix(.900451 .434958 -.434958 .900451 0 0)"/><path d="m774.14965 583.66876v-1.48571h-2.69206v-.69841l2.83174-4.02117h.62222v4.02117h.8381v.69841h-.8381v1.48571zm0-2.18412v-2.79789l-1.94286 2.79789z" opacity=".6" transform="matrix(.0356981 .742078 -1.31955 .582344 0 0)"/></g><path d="m-724.20663 933.13676c.33632-.47518.61493-1.24509.53909-1.77017-.00018-.0107-.00066-.0218-.00045-.0327l-1.25148-18.75125c-.0649-1.27397-.48115-2.14479-1.06676-2.63737z" fill="url(#au)" opacity=".6"/><path d="m-746.89717 922.01525c.16315-.55882.59304-1.25566 1.0515-1.52265.009-.007.0175-.013.0259-.02l15.4661-10.67592c1.03828-.74108 1.97914-.95637 2.72902-.80385z" fill="url(#av)" opacity=".6"/><path d="m-745.20223 925.28973 16.52866 7.98407-.35664.73832-16.52866-7.98407z" fill="url(#aw)" opacity=".6"/></g><g filter="url(#ax)" transform="matrix(1.21901 0 0 1.21901 1106.65 1650.17)"><path d="m-736.99362 906.17096c-3.64199.6619-7.20239 1.51156-10.80697 2.23237-2.87521.57379-2.88181.57662-3.77661 3.23369-1.28738 3.66947-2.56398 7.64118-3.63293 10.83896-.88757 2.65951-.88359 2.66587 1.06501 4.85647 2.4421 2.7475 4.7713 5.57118 7.27875 8.29422 1.89525 2.09805 1.89605 2.09564 4.68542 1.57043 3.642-.66192 7.2024-1.51157 10.80699-2.23238 2.8752-.57379 2.86616-.58185 3.76099-3.23893 1.24839-3.58846 2.4528-7.19895 3.63292-10.83895.88757-2.6595.89939-2.66058-1.04939-4.85124-2.44211-2.74749-4.7713-5.57118-7.27876-8.29422-1.89599-2.1402-1.8921-2.15182-4.68542-1.57042z" fill="#0d308d" opacity=".8"/><path d="m-754.14512 927.33245c2.4421 2.7475 4.7713 5.57118 7.27875 8.29422 1.89525 2.09805 1.89605 2.09564 4.68542 1.57043 3.642-.66192 7.2024-1.51157 10.80699-2.23238 6.94466-10.03232-24.48205-20.11597-22.77116-7.63227z" fill="url(#ay)" opacity=".8"/><path d="m-736.99362 906.17096c-3.64199.6619-7.20239 1.51156-10.80697 2.23237-2.87521.57379-2.88181.57662-3.77661 3.23369-1.28738 3.66947-2.56398 7.64118-3.63293 10.83896l22.90193-14.7346c-1.89599-2.1402-1.8921-2.15182-4.68542-1.57042z" fill="url(#az)" opacity=".8"/><path d="m-738.38457 907.42332-15.8801 14.21378c-2.03309 2.00146-.96576 5.27092 1.70871 6.228l19.98901 6.69976c2.47863.83077 5.34075-1.86636 4.68906-4.22091l-4.05884-20.73363c-.67471-3.76104-3.74959-4.79166-6.44783-2.18701z" fill="url(#aA)" opacity=".8"/><g fill="#fff"><path d="m-412.54251 1107.4613c0-1.514.15576-2.7324.4673-3.6554.31153-.9229.77445-1.6348 1.38878-2.1356.61433-.5007 1.38733-.7511 2.31901-.7511.68711 0 1.28979.1383 1.80805.4149.51824.2766.94623.6754 1.28397 1.1966.33773.5212.60267 1.1559.79484 1.9041.19215.7483.28823 1.7571.28824 3.0265-.00001 1.5024-.15432 2.715-.46293 3.6379-.30863.923-.7701 1.6363-1.38442 2.14-.61433.5037-1.39025.7555-2.32775.7555-1.23448 0-2.20401-.4425-2.90859-1.3276-.84433-1.0656-1.2665-2.8009-1.2665-5.2058zm1.61588 0c0 2.1021.24602 3.5011.73807 4.1969.49204.6959 1.09909 1.0438 1.82114 1.0438s1.3291-.3494 1.82115-1.0481c.49204-.6988.73806-2.0963.73806-4.1926 0-2.1079-.24602-3.5083-.73806-4.2013-.49205-.6929-1.10492-1.0394-1.83861-1.0394-.72206 0-1.29854.3057-1.72944.9171-.54154.7803-.81231 2.2215-.81231 4.3236z" opacity=".8" transform="matrix(.948159 .317797 -.317797 .948159 0 0)"/><path d="m240.03538-1891.9616.74075-.063c.0549.3606.18224.6317.38213.8133.19988.1816.44092.2724.72311.2724.33967 0 .62708-.128.86224-.3841s.35274-.5957.35274-1.019c0-.4024-.11301-.7199-.33902-.9524-.22602-.2326-.52192-.3488-.88772-.3488-.22732 0-.43243.052-.61533.1548-.1829.1032-.32661.2371-.43112.4017l-.66236-.086.55654-2.9512h2.85716v.6741h-2.29278l-.30963 1.5442c.3449-.2404.70678-.3606 1.08565-.3606.50166 0 .92495.1738 1.26985.5213.34489.3475.51734.7943.51734 1.3404 0 .5199-.15155.9693-.45463 1.3482-.36842.4651-.8714.6976-1.50893.6976-.52258 0-.94913-.1463-1.27965-.4389-.33053-.2927-.51931-.6807-.56634-1.1641z" opacity=".8" transform="matrix(-1.60029 -.536373 .188292 -.561777 0 0)"/><path d="m-1317.8974 612.66741-.7936.0621c-.071-.3133-.1714-.54089-.3014-.68277-.2158-.22758-.4818-.34137-.7981-.34138-.2542.00001-.4773.0709-.6695.21281-.2512.18326-.4492.45075-.5941.80248-.1448.35173-.2202.85272-.2261 1.50298.1922-.29261.4271-.50986.705-.65174.2778-.14187.5689-.2128.8734-.21281.532.00001.985.19582 1.3589.58745.3739.39164.5608.8978.5608 1.5185 0 .40789-.088.78696-.2638 1.13721s-.4175.61848-.7249.80469-.6561.27932-1.0463.27932c-.665 0-1.2074-.24459-1.6271-.73376s-.6296-1.29534-.6296-2.41851c0-1.25618.232-2.16949.6961-2.73995.4049-.49655.9503-.74483 1.636-.74484.5113.00001.9303.14336 1.2569.43006.3266.28671.5224.68277.5874 1.18819zm-3.2586 2.80202c0 .27489.058.53794.1751.78918.1167.25123.2801.44262.4899.57415.2099.13153.4301.19729.6606.19729.337 0 .6266-.13596.869-.40789.2424-.27192.3635-.64139.3635-1.10839 0-.44927-.1197-.80322-.3591-1.06184s-.5409-.38794-.9044-.38794c-.3606 0-.6665.12932-.9178.38794-.2512.25862-.3768.59779-.3768 1.0175z" opacity=".8" transform="matrix(.754698 -.107542 .43688 1.26278 0 0)"/><path d="m-394.73193 1103.0524h.39532v2.7673h-.39532z" opacity=".8" transform="matrix(.948159 .317797 -.317797 .948159 0 0)"/><path d="m570.28873 667.76654v-1.67143h-3.02857v-.78571l3.18571-4.52381h.7v4.52381h.94286v.78571h-.94286v1.67143zm0-2.45714v-3.14762l-2.18571 3.14762z" opacity=".8" transform="matrix(.129099 .731634 -1.23547 .744275 0 0)"/></g><path d="m-728.25381 932.57755c.30785-.57807.50942-1.47686.35021-2.05208-.002-.0119-.004-.0242-.005-.0365l-4.05988-20.74862c-.2534-1.41253-.84158-2.32525-1.56509-2.79179z" fill="url(#aB)" opacity=".8"/><path d="m-755.156 923.38868c.10272-.64681.4835-1.48554.95721-1.84862.009-.008.0176-.017.0261-.026l15.74384-14.11095c1.05347-.97451 2.07289-1.34839 2.93142-1.28469z" fill="url(#aC)" opacity=".8"/><path d="m-752.79937 926.80226 19.57994 6.56266-.29315.87461-19.57993-6.56266z" fill="url(#aD)" opacity=".8"/></g><g transform="matrix(1.22611 .00289428 -.00289428 1.22611 -8.23341 2152.78)"><path d="m169.14378 492.10315c-3.58228 1.97185-7.01318 4.11171-10.5356 6.13212-2.81007 1.61037-2.81599 1.61565-2.82042 4.71282-.0602 4.29537-.003 8.90354 0 12.62818.004 3.09718.0104 3.10245 2.82042 4.71282 3.52242 2.02042 6.95332 4.16027 10.5356 6.13213 2.72164 1.53216 2.72164 1.52935 5.45886 0 3.58228-1.97186 7.01319-4.11171 10.53561-6.13213 2.81007-1.61037 2.79777-1.61564 2.80222-4.71282.0478-4.19684.0418-8.40132 0-12.62818-.004-3.09717.008-3.10245-2.80222-4.71282-3.52242-2.02041-6.95333-4.16027-10.53561-6.13212-2.73722-1.57606-2.73722-1.58959-5.45886 0z" fill="#0d308d"/><path d="m158.60818 520.28909c3.52242 2.02042 6.95332 4.16027 10.5356 6.13213 2.72164 1.53216 2.72164 1.52935 5.45886 0 3.58228-1.97186 7.01319-4.11171 10.53561-6.13213 3.75192-12.94593-32.70463-12.47489-26.53007 0z" fill="url(#aE)"/><path d="m169.14378 492.10315c-3.58228 1.97185-7.01318 4.11171-10.5356 6.13212-2.81007 1.61037-2.81599 1.61565-2.82042 4.71282-.0602 4.29537-.003 8.90354 0 12.62818l18.81488-23.47312c-2.73722-1.57606-2.73722-1.58959-5.45886 0z" fill="url(#aF)"/><path d="m168.12655 493.90319-11.64301 20.46252c-1.42684 2.81008.83888 5.85984 3.97613 5.92338h23.28866c2.88779 0 4.93873-3.82978 3.42955-6.06717l-11.53005-20.29164c-2.02706-3.70248-5.60951-3.70248-7.52128-.0271z" fill="url(#aG)"/><g fill="#fff"><path d="m176.35617 512.93397v1.66924h-9.34968c-.0129-.41811.0547-.82015.20262-1.2061.23801-.63682.61913-1.26399 1.14339-1.88151.52424-.61752 1.28167-1.33153 2.27228-2.14203 1.53737-1.26077 2.57622-2.25942 3.11656-2.99595.54033-.73652.81049-1.43284.8105-2.08896-.00001-.68827-.24605-1.26881-.73813-1.74161-.4921-.47278-1.13374-.70917-1.92493-.70919-.83624.00002-1.50522.25088-2.00695.75261-.50174.50175-.75583 1.19646-.76226 2.08414l-1.78502-.18333c.12221-1.33152.58214-2.34625 1.37977-3.04419.79763-.69792 1.86865-1.04688 3.21305-1.0469 1.35726.00002 2.43149.37632 3.2227 1.12891.79119.75262 1.18679 1.68533 1.1868 2.79815-.00001.56607-.1158 1.12249-.34736 1.66924-.23158.54677-.61592 1.12248-1.15303 1.72713-.53712.60467-1.42963 1.43446-2.67754 2.48939-1.04207.87483-1.71105 1.46823-2.00695 1.7802-.2959.31198-.54033.62557-.7333.94076z"/><path d="m-103.93414-881.95686.81829-.0693c.0606.39832.20132.69778.42213.89838.2208.2006.48707.3009.7988.3009.37523 0 .69273-.14143.9525-.42429s.38966-.65809.38966-1.12568c0-.4445-.12484-.79519-.37451-1.05208s-.57655-.38533-.98064-.38533c-.25111 0-.47769.057-.67974.17101-.20204.11402-.36079.26195-.47625.44378l-.73169-.0952.6148-3.26015h3.15623v.74469h-2.53278l-.34203 1.70584c.38099-.26554.78076-.39832 1.19928-.39832.55418 0 1.02177.19195 1.40277.57583.380999.38389.571499.87746.571504 1.4807-.000005.57439-.167414 1.07085-.502224 1.48937-.40698.51377-.96261.77066-1.66688.77066-.57727 0-1.04847-.16164-1.4136-.48491-.36512-.32327-.57366-.7519-.62562-1.28588z" transform="scale(-1.68779 -.592492)"/><path d="m-212.73781 402.01393-.87668.0686c-.0784-.34609-.18938-.59751-.33304-.75424-.23835-.2514-.53221-.37711-.88157-.37712-.28081.00001-.52732.0784-.73955.23509-.27754.20244-.4963.49794-.65629.88648-.15999.38855-.24325.94198-.24978 1.6603.21223-.32324.47181-.56322.77873-.71995.30692-.15672.62853-.23509.96484-.23509.58771 0 1.08809.21632 1.50113.64894.41303.43263.61955.99178.61955 1.67744 0 .45059-.0971.86934-.29141 1.25625-.19428.38692-.4612.68323-.80076.88893-.33958.2057-.72486.30855-1.15585.30855-.73465 0-1.3338-.27019-1.79744-.81056-.46364-.54038-.69547-1.43093-.69547-2.67167 0-1.38767.25631-2.39658.76894-3.02675.44731-.54853 1.04972-.8228 1.80723-.82281.56486.00001 1.02769.15837 1.38849.47507.36078.31672.5771.75425.64893 1.31257zm-3.59977 3.09532c0 .30366.0645.59425.19346.87179.12897.27753.30936.48895.54119.63424.23182.1453.47507.21795.72975.21795.37222 0 .6922-.1502.95994-.45059.26773-.30039.4016-.70852.4016-1.22441 0-.49629-.13224-.88729-.39671-1.17299-.26447-.28569-.59751-.42854-.99912-.42854-.39834 0-.73628.14285-1.01381.42854-.27754.2857-.4163.66037-.4163 1.12401z" transform="matrix(.681397 -.341808 .815539 1.05848 0 0)"/><path d="m186.90331 502.75668h.4367v3.05697h-.4367z"/><path d="m645.02679 77.042297v-1.846384h-3.34559v-.867958l3.51918-4.997336h.77327v4.997336h1.04155v.867958h-1.04155v1.846384zm0-2.714342v-3.477094l-2.4145 3.477094z" transform="matrix(.354917 .652678 -.934898 1.09832 0 0)"/></g><path d="m187.56828 516.69338c.1195-.71355.0151-1.72571-.3536-2.27231-.006-.0119-.0125-.024-.0182-.0364l-11.5364-20.30698c-.7613-1.39053-1.69779-2.14003-2.61938-2.3747z" fill="url(#aH)"/><path d="m156.16487 516.51324c-.11949-.71354-.0151-1.72571.35361-2.2723.006-.0119.0125-.024.0182-.0364l11.53639-20.30698c.7613-1.39054 1.69779-2.14003 2.61938-2.37471z" fill="url(#aI)"/><path d="m159.8316 519.26132h22.81206v1.01899h-22.81206z" fill="url(#aJ)"/></g><path d="m201.08416 2755.1878c-.83664 0-1.69475.4957-3.36555 1.4655-4.39797 2.4075-8.5947 5.0239-12.91941 7.4911-3.45013 1.9664-3.45973 1.9567-3.47413 5.754-.0205 1.2567.009 2.4121 0 3.6913 2.59917 1.6745 5.20913 3.323 8.03392 4.7226 3.03086 1.5018 6.30201 2.7155 9.93382 3.4741 1.81592.3794 3.72165.6492 5.75402.7602 2.03239.1116 4.16672.1037 6.45971-.1094 2.29299-.213 4.73047-.602 7.32823-1.1941.59292-.1355 1.28972-.3863 1.89992-.543.0122-3.5582.027-7.1113 0-10.6937.003-3.7976.0212-3.8255-3.41985-5.8083-4.31302-2.4875-8.47857-5.1173-12.86512-7.5454-1.67579-.9701-2.52892-1.4613-3.36556-1.4655z" fill="url(#aK)"/></g></svg>