<svg height="800" viewBox="0 0 58 58" width="800" xmlns="http://www.w3.org/2000/svg"><path d="m13.105 47.78 5.946-3.243c-.034-.033-.005-.043.065-.036l2.91-1.587a3.643 3.643 0 0 0 1.899-3.199v-3.655s-1.062-1.275-2.092-3.323l-.001-.003a20.31 20.31 0 0 1 -.399-.844l-.054-.121a18.523 18.523 0 0 1 -.386-.944l-.023-.065a18.79 18.79 0 0 1 -.306-.896l-.077-.251a16.731 16.731 0 0 1 -.278-1.038 2.992 2.992 0 0 1 -1.384-2.515v-4c0-.88.391-1.667 1-2.217v-5.648c-1.413-1.096-3.603-2.135-7-2.135-9.563 0-10 8-10 8v4.995c-.526.475-1 1.154-1 1.914v3.455c0 .911.479 1.711 1.194 2.174.863 3.758 3.761 6.462 3.761 6.462v3.157c0 1.151-.527 2.18-1.538 2.73l-5.374 3.445c.021 2.25-.036 5.218.004 6.871l.044 2.797h8.909v-3.239a8.02 8.02 0 0 1 4.18-7.041zm32.381-.069-5.946-3.243c.034-.033.005-.043-.065-.036l-2.91-1.587a3.643 3.643 0 0 1 -1.899-3.199v-3.655s1.062-1.275 2.092-3.323l.001-.003c.135-.268.268-.55.4-.844l.053-.12c.133-.304.263-.617.386-.945l.023-.065c.108-.29.21-.589.306-.896l.077-.25c.101-.339.196-.683.278-1.039a2.992 2.992 0 0 0 1.384-2.515v-4c0-.88-.39-1.667-1-2.217v-5.648c1.413-1.096 3.603-2.135 7-2.135 9.563 0 10 8 10 8v4.995c.526.475 1 1.154 1 1.914v3.455c0 .911-.479 1.711-1.194 2.174-.863 3.758-3.76 6.462-3.76 6.462v3.157c0 1.151.628 2.211 1.64 2.762l4.648 3.041c.007 4.207.005 5.992 0 10.04h-14.047l5.714-3.239c2.554-1.447-1.603-5.636-4.18-7.04z" fill="#556080"/><path d="m48.491 47.843-9.552-4.776a3.644 3.644 0 0 1 -2.014-3.259v-3.748c.268-.305.576-.698.904-1.162a21.964 21.964 0 0 0 2.969-5.984c1.225-.377 2.127-1.509 2.127-2.854v-4c0-.88-.391-1.667-1-2.217v-5.783s1.187-9-11-9c-12.188 0-11 9-11 9v5.783c-.609.55-1 1.337-1 2.217v4a3 3 0 0 0 1.383 2.517c.999 4.352 3.617 7.483 3.617 7.483v3.655c0 1.333-.728 2.56-1.899 3.198l-8.921 4.867a8.02 8.02 0 0 0 -4.18 7.041v3.239h44v-3.043a8.022 8.022 0 0 0 -4.434-7.174z" fill="#8697cb"/></svg>