<svg viewBox="0 0 400 400" xmlns="http://www.w3.org/2000/svg"><path d="m90 320v-320h200l60 60v260z" fill="#acabb1"/><path d="m290 0 60 60h-60z" fill="#818085"/><path d="m70 360v-320h200l60 60v260z" fill="#eeeeef"/><path d="m270 40 60 60h-60z" fill="#dedde0"/><path d="m50 400v-320h200l60 60v260z" fill="#78b9eb"/><path d="m310 253.75-260 146.25h260z" fill="#5a8bb0"/><path d="m110 200h140v20h-140z" fill="#dedde0"/><path d="m110 240h140v20h-140z" fill="#dedde0"/><g fill="#fff"><path d="m110 160h70v20h-70z"/><path d="m110 200h70v20h-70z"/><path d="m110 240h70v20h-70z"/></g><path d="m110 280h140v20h-140z" fill="#dedde0"/><path d="m110 280h70v20h-70z" fill="#fff"/><path d="m110 320h140v20h-140z" fill="#dedde0"/><path d="m110 320h70v20h-70z" fill="#fff"/><path d="m250 80 60 60h-60z" fill="#1e2e3b"/></svg>