<svg height="800" viewBox="0 0 503.82 503.82" width="800" xmlns="http://www.w3.org/2000/svg"><g transform="translate(5 1)"><path d="m460.655 123.087v341.333c0 18.773-15.36 34.133-34.133 34.133h-358.4c-18.773 0-34.133-15.36-34.133-34.133v-426.667c0-18.773 15.36-34.133 34.133-34.133h273.067v85.333c0 18.773 15.36 34.133 34.133 34.133h85.333z" fill="#f2edda"/><path d="m460.655 123.087h-85.333c-18.773 0-34.133-15.36-34.133-34.133v-85.334z" fill="#ffd0a1"/><path d="m375.321 191.354v119.466h-256v-119.466z" fill="#ecf4f7"/><path d="m375.321 310.82h-204.8l59.734-59.733 25.6 25.6 42.666-42.667z" fill="#50dd8e"/><path d="m161.988 225.487c4.267 0 8.533 4.267 8.533 8.533 0 4.267-4.267 8.533-8.533 8.533s-8.533-4.267-8.533-8.533c0-4.267 4.266-8.533 8.533-8.533" fill="#ffe079"/></g><path d="m431.521 503.82h-358.4c-21.333 0-38.4-17.067-38.4-38.4v-426.667c0-21.333 17.067-38.4 38.4-38.4h238.933c2.56 0 4.267 1.707 4.267 4.267s-1.707 4.267-4.267 4.267h-238.933c-16.213 0-29.867 13.653-29.867 29.867v426.666c0 16.213 13.653 29.867 29.867 29.867h358.4c16.213 0 29.867-13.653 29.867-29.867v-339.626l-110.933-110.934v75.093c0 17.067 12.8 29.867 29.867 29.867h34.133c2.56 0 4.267 1.707 4.267 4.267s-1.707 4.267-4.267 4.267h-34.133c-21.333 0-38.4-17.067-38.4-38.4v-85.334c0-1.707.853-3.413 2.56-4.267s3.413 0 4.267.853l119.467 119.467c.853.853.853 1.707.853 3.413v341.334c.852 21.334-16.214 38.4-37.548 38.4zm-68.266-85.333h-119.467c-2.56 0-4.267-1.707-4.267-4.267s1.707-4.267 4.267-4.267h119.467c2.56 0 4.267 1.707 4.267 4.267-.001 2.56-1.707 4.267-4.267 4.267zm-153.6 0h-85.333c-2.56 0-4.267-1.707-4.267-4.267s1.707-4.267 4.267-4.267h85.333c2.56 0 4.267 1.707 4.267 4.267-.001 2.56-1.707 4.267-4.267 4.267zm170.666-51.2h-51.2c-2.56 0-4.267-1.707-4.267-4.267s1.707-4.267 4.267-4.267h51.2c2.56 0 4.267 1.707 4.267 4.267s-1.707 4.267-4.267 4.267zm-85.333 0h-85.333c-2.56 0-4.267-1.707-4.267-4.267s1.707-4.267 4.267-4.267h85.333c2.56 0 4.267 1.707 4.267 4.267s-1.707 4.267-4.267 4.267zm-119.467 0h-51.2c-2.56 0-4.267-1.707-4.267-4.267s1.707-4.267 4.267-4.267h51.2c2.56 0 4.267 1.707 4.267 4.267s-1.707 4.267-4.267 4.267zm204.8-51.2h-153.6c-2.56 0-4.267-1.707-4.267-4.267s1.707-4.267 4.267-4.267h149.333v-110.933h-247.466v110.933h45.227l58.88-58.88c1.707-1.707 4.267-1.707 5.973 0l22.187 22.187 39.253-39.253c1.707-1.707 4.267-1.707 5.973 0l42.667 42.667c1.707 1.707 1.707 4.267 0 5.973-1.707 1.707-4.267 1.707-5.973 0l-39.253-39.253-39.253 39.253c-1.707 1.707-4.267 1.707-5.973 0l-22.187-22.187-56.32 56.32c-.853.853-1.707.853-3.413.853h-51.2c-2.56 0-4.267-1.707-4.267-4.267v-119.466c0-2.56 1.707-4.267 4.267-4.267h256c2.56 0 4.267 1.707 4.267 4.267v119.467c-.855 3.413-2.562 5.12-5.122 5.12zm-213.333-68.267c-6.827 0-12.8-5.973-12.8-12.8s5.973-12.8 12.8-12.8 12.8 5.973 12.8 12.8-5.973 12.8-12.8 12.8zm0-17.067c-2.56 0-4.267 1.707-4.267 4.267s1.707 4.267 4.267 4.267 4.267-1.707 4.267-4.267-1.707-4.267-4.267-4.267zm42.667-85.333h-85.333c-2.56 0-4.267-1.707-4.267-4.267s1.707-4.267 4.267-4.267h85.333c2.56 0 4.267 1.707 4.267 4.267-.001 2.56-1.707 4.267-4.267 4.267z" fill="#51565f"/></svg>