<svg height="800" viewBox="0 0 512 512" width="800" xmlns="http://www.w3.org/2000/svg"><path d="m503.83 8.17h-53.92l-170.801 170.8-7.703 38.516-42.367 11.553-91.901 91.902 19.257 65.475z" fill="#a0f6fa"/><path d="m503.83 8.17-197.761 197.761-26.96-26.961-46.218 46.218 26.961 26.96-95.754 95.754-26.96-26.961-30.812 30.812 53.921 53.921 343.583-343.584z" fill="#78e3ec"/><path d="m198.762 428.783-46.217-46.217-19.258 3.852-3.852 19.258 23.109 23.109c-12.763 12.763-12.763 33.455 0 46.217 12.763 12.763 33.454 12.763 46.217 0 12.764-12.764 12.764-33.456.001-46.219z" fill="#e02e00"/><path d="m83.217 313.238c-12.763-12.763-33.455-12.763-46.217 0-12.763 12.763-12.763 33.455 0 46.217 12.763 12.763 33.455 12.763 46.217 0l23.109 23.109-73.08 73.08 23.109 23.109 96.19-96.19z" fill="#ff4719"/><path d="m63.96 448.04-30.812 15.406-15.406 30.812c12.763 12.763 33.455 12.763 46.217 0 12.764-12.763 12.764-33.455.001-46.218z" fill="#e02e00"/><path d="m17.742 448.04c-12.763 12.763-12.763 33.455 0 46.217l46.218-46.217c-12.763-12.763-33.456-12.763-46.218 0z" fill="#ff4719"/><path d="m8.17 8.17v53.92l312.771 312.772 65.475-19.257z" fill="#d0fbfd"/><path d="m8.17 8.17 339.732 339.732-26.961 26.96 30.812 30.812 53.921-53.921-343.583-343.583z" fill="#a0f6fa"/><path d="m428.783 313.238-46.217 46.217 3.852 19.258 19.258 3.852 23.109-23.109c12.763 12.763 33.455 12.763 46.217 0 12.763-12.763 12.763-33.454 0-46.217-12.764-12.764-33.456-12.764-46.219-.001z" fill="#ff4719"/><path d="m382.565 405.674-23.109 23.109c12.763 12.763 12.763 33.455 0 46.217-12.763 12.763-33.455 12.763-46.217 0-12.763-12.763-12.763-33.455 0-46.217l69.327-69.327 96.19 96.19-23.109 23.109z" fill="#ff754f"/><path d="m448.04 448.04 15.406 30.811 30.812 15.406c12.763-12.763 12.763-33.455 0-46.217-12.763-12.763-33.455-12.763-46.218 0z" fill="#ff4719"/><path d="m448.04 494.258c12.763 12.763 33.455 12.763 46.217 0l-46.217-46.218c-12.763 12.763-12.763 33.456 0 46.218z" fill="#ff754f"/><circle cx="60.111" cy="336.351" r="8.17"/><circle cx="175.649" cy="451.889" r="8.17"/><circle cx="451.889" cy="336.351" r="8.17"/><circle cx="336.351" cy="451.889" r="8.17"/><path d="m509.608 67.868c1.532-1.533 2.392-3.61 2.392-5.778v-53.92c0-4.513-3.657-8.17-8.17-8.17h-53.921c-2.167 0-4.244.861-5.778 2.392l-188.131 188.132-188.132-188.132c-1.532-1.531-3.611-2.392-5.778-2.392h-53.92c-4.513 0-8.17 3.657-8.17 8.17v53.92c0 2.167.861 4.244 2.392 5.778l188.133 188.132-59.164 59.164c-3.191 3.192-3.191 8.364 0 11.555 1.596 1.595 3.687 2.392 5.778 2.392s4.182-.797 5.778-2.392l59.164-59.164 15.405 15.405-59.164 59.164c-3.191 3.192-3.191 8.364 0 11.555 1.596 1.595 3.687 2.392 5.778 2.392 2.09 0 4.182-.797 5.778-2.392l59.164-59.164 86.124 86.124c1.596 1.595 3.688 2.392 5.778 2.392s4.182-.797 5.778-2.392c3.191-3.192 3.191-8.364 0-11.555l-310.382-310.377v-42.367h42.366l327.71 327.71-78.956 78.956c-15.928 15.928-15.928 41.845 0 57.772 7.965 7.964 18.425 11.946 28.888 11.946 10.461 0 20.921-3.982 28.887-11.946 7.715-7.716 11.964-17.974 11.964-28.887 0-8.135-2.363-15.909-6.763-22.535l12.129-12.13 48.16 48.161c-1.735 12.287 2.109 25.218 11.539 34.647 7.716 7.715 17.974 11.964 28.887 11.964s21.171-4.25 28.887-11.964c15.928-15.928 15.928-41.845 0-57.772-7.717-7.715-17.976-11.964-28.888-11.964-1.951 0-3.88.142-5.778.409l-48.143-48.142 12.13-12.129c6.626 4.4 14.399 6.763 22.535 6.763 10.912 0 21.171-4.25 28.887-11.964 15.928-15.929 15.928-41.845 0-57.773s-41.845-15.928-57.772 0l-25.034 25.034-76.499-76.496zm-21.128 385.95c9.557 9.556 9.557 25.105 0 34.661-4.629 4.63-10.784 7.18-17.331 7.18s-12.702-2.55-17.331-7.18c-9.557-9.556-9.557-25.105 0-34.661 4.629-4.63 10.784-7.18 17.331-7.18s12.702 2.55 17.331 7.18zm-53.919-134.802c9.555-9.557 25.107-9.557 34.661 0 9.557 9.556 9.557 25.107 0 34.662-4.629 4.63-10.784 7.18-17.331 7.18s-12.702-2.55-17.331-7.18c-3.191-3.189-8.364-3.191-11.554 0l-23.11 23.109c-1.533 1.533-2.393 3.61-2.393 5.778s.861 4.244 2.392 5.778l48.721 48.721c-2.262 1.501-4.39 3.237-6.353 5.2-1.977 1.978-3.709 4.11-5.195 6.358l-48.725-48.725c-1.533-1.532-3.61-2.392-5.778-2.392s-4.244.861-5.778 2.393l-23.109 23.11c-3.191 3.191-3.191 8.363 0 11.554 4.63 4.629 7.18 10.784 7.18 17.331s-2.55 12.702-7.18 17.331c-9.555 9.556-25.107 9.558-34.662 0-9.557-9.556-9.557-25.105 0-34.661zm18.731-302.676h42.367v42.366l-185.738 185.738-15.406-15.405 188.132-188.13c3.191-3.192 3.191-8.364 0-11.555-3.191-3.189-8.363-3.191-11.555 0l-188.132 188.129-15.405-15.405z"/><path d="m227.113 327.252-59.164 59.164-78.956-78.956c-15.928-15.928-41.845-15.928-57.772 0-15.928 15.929-15.928 41.845 0 57.773 7.716 7.715 17.974 11.964 28.887 11.964 8.135 0 15.909-2.363 22.535-6.763l12.13 12.129-48.143 48.142c-1.898-.267-3.827-.409-5.778-.409-10.912 0-21.171 4.25-28.887 11.964-15.928 15.928-15.928 41.845 0 57.772 7.715 7.718 17.974 11.968 28.886 11.968s21.171-4.25 28.887-11.964c9.43-9.43 13.274-22.36 11.539-34.647l48.16-48.161 12.129 12.13c-4.4 6.627-6.763 14.399-6.763 22.535 0 10.912 4.25 21.171 11.964 28.887 7.965 7.964 18.425 11.946 28.887 11.946s20.922-3.982 28.888-11.946c7.715-7.716 11.964-17.974 11.964-28.887s-4.25-21.171-11.964-28.887l-25.034-25.034 59.164-59.164c3.191-3.192 3.191-8.364 0-11.555-3.194-3.191-8.367-3.191-11.559-.001zm-168.931 161.228c-4.629 4.63-10.784 7.18-17.331 7.18s-12.702-2.55-17.331-7.18c-9.557-9.556-9.557-25.105 0-34.661 4.629-4.63 10.784-7.18 17.331-7.18s12.702 2.55 17.331 7.18c9.558 9.555 9.558 25.105 0 34.661zm141.982-36.589c0 6.547-2.55 12.702-7.18 17.331-9.556 9.558-25.108 9.556-34.663 0-4.629-4.629-7.179-10.784-7.179-17.331s2.55-12.702 7.18-17.331c3.191-3.192 3.191-8.364 0-11.554l-23.109-23.11c-1.533-1.533-3.61-2.393-5.778-2.393s-4.244.861-5.778 2.392l-48.724 48.725c-1.487-2.247-3.218-4.38-5.195-6.358-1.963-1.963-4.093-3.698-6.353-5.2l48.721-48.721c1.532-1.533 2.392-3.61 2.392-5.778s-.861-4.244-2.393-5.778l-23.11-23.109c-3.19-3.19-8.363-3.19-11.554 0-4.629 4.63-10.784 7.18-17.331 7.18s-12.702-2.55-17.331-7.18c-9.557-9.556-9.557-25.107 0-34.662 9.555-9.557 25.107-9.557 34.661 0l84.726 84.725c.015.015 30.82 30.82 30.82 30.82 4.627 4.63 7.178 10.786 7.178 17.332z"/><path d="m353.68 342.125-312.771-312.772c-3.192-3.19-8.364-3.19-11.555 0-3.191 3.192-3.191 8.364 0 11.555l312.771 312.772c1.596 1.595 3.688 2.392 5.778 2.392s4.182-.797 5.778-2.392c3.19-3.192 3.19-8.364-.001-11.555z"/></svg>