<svg height="800" viewBox="0 0 59 59" width="800" xmlns="http://www.w3.org/2000/svg"><path d="m12 49h44v-47h-56v47z" fill="#df4d60" transform="matrix(1.05425 0 0 1.25188 0 -2.402)"/><path d="m44.659 13.283a.999.999 0 0 0 -.79-.24l-18 2.368a1 1 0 0 0 -.869.99v19.435c-1.169-1.02-2.754-1.65-4.5-1.65-3.584 0-6.5 2.643-6.5 5.89s2.916 5.889 6.5 5.889 6.5-2.642 6.5-5.89v-17.795l16-2.104v10.402c-1.133-.966-2.653-1.562-4.327-1.562-3.488 0-6.326 2.572-6.326 5.734s2.838 5.735 6.326 5.735c3.489 0 6.327-2.573 6.327-5.735v-20.715a1 1 0 0 0 -.341-.752z" fill="#fff"/></svg>