<svg height="800" viewBox="0 0 512 512" width="800" xmlns="http://www.w3.org/2000/svg"><circle cx="395.314" cy="142.801" fill="#98c8ed" r="60.855"/><path d="m480.883 351.456c17.186 0 31.117-13.931 31.117-31.116 0-64.443-52.242-116.684-116.684-116.684-64.443 0-116.684 52.241-116.684 116.684 0 17.185 13.932 31.116 31.117 31.116z" fill="#98c8ed"/><path d="m456.174 142.798c0-33.612-27.247-60.858-60.858-60.858v121.717c33.611 0 60.858-27.248 60.858-60.859z" fill="#7ab9e8"/><path d="m395.315 203.657v147.8h85.567c17.186 0 31.117-13.931 31.117-31.116.001-64.443-52.243-116.684-116.684-116.684z" fill="#7ab9e8"/><circle cx="116.69" cy="142.801" fill="#98c8ed" r="60.855"/><path d="m202.252 351.456c17.186 0 31.117-13.931 31.117-31.116 0-64.443-52.242-116.684-116.684-116.684-64.443.001-116.685 52.242-116.685 116.684 0 17.185 13.932 31.116 31.117 31.116z" fill="#98c8ed"/><path d="m177.543 142.798c0-33.612-27.247-60.858-60.858-60.858v121.717c33.611 0 60.858-27.248 60.858-60.859z" fill="#7ab9e8"/><path d="m116.684 203.657v147.8h85.567c17.186 0 31.117-13.931 31.117-31.116.001-64.443-52.243-116.684-116.684-116.684z" fill="#7ab9e8"/><circle cx="255.828" cy="160.544" fill="#98c8ed" r="78.609"/><path d="m366.352 430.065c22.199 0 40.193-17.995 40.193-40.192 0-83.238-67.48-150.716-150.717-150.716-83.238 0-150.717 67.478-150.717 150.716 0 22.197 17.995 40.192 40.192 40.192z" fill="#98c8ed"/><g fill="#7ab9e8"><path d="m334.437 160.548c0-43.415-35.194-78.609-78.609-78.609v157.218c43.415 0 78.609-35.193 78.609-78.609z"/><path d="m255.829 239.157v190.908h110.524c22.199 0 40.193-17.995 40.193-40.192-.001-83.237-67.48-150.716-150.717-150.716z"/></g></svg>