<svg viewBox="0 0 64 64" xmlns="http://www.w3.org/2000/svg"><circle cx="32" cy="32" fill="#77b3d4" r="32"/><path d="m48 14h-32c-2.2 0-4 1.8-4 4v5.5 26.5c0 2.2 1.8 4 4 4h32c2.2 0 4-1.8 4-4v-26.5-5.5c0-2.2-1.8-4-4-4z" fill="#231f20" opacity=".2"/><path d="m48 12h-32c-2.2 0-4 1.8-4 4v5.5 26.5c0 2.2 1.8 4 4 4h32c2.2 0 4-1.8 4-4v-26.5-5.5c0-2.2-1.8-4-4-4z" fill="#e0995e"/><path d="m16 18h32v32h-32z" fill="#231f20" opacity=".2"/><path d="m16 16h32v32h-32z" fill="#fff"/><g fill="#e0e0d1"><path d="m22 24h20v2h-20z"/><path d="m22 28h20v2h-20z"/><path d="m22 32h20v2h-20z"/><path d="m22 36h20v2h-20z"/><path d="m22 40h20v2h-20z"/></g><path d="m37 12h-10-3v3 1 1c0 1.7 1.3 3 3 3h10c1.7 0 3-1.3 3-3v-1-1-3z" fill="#231f20" opacity=".2"/><path d="m37 10h-10-3v3 1 1c0 1.7 1.3 3 3 3h10c1.7 0 3-1.3 3-3v-1-1-3z" fill="#4f5d73"/></svg>