<svg viewBox="0 0 64 64" xmlns="http://www.w3.org/2000/svg"><circle cx="32" cy="32" fill="#76c2af" r="32"/><path d="m49.9 46.2-14.1-14.1c-1-1-2.5-1.4-3.8-1l-8.1-8-3-5.9-5.9-3-2.9 2.8 3 5.9 5.9 3 8.1 8c-.4 1.3 0 2.8 1 3.8l14.1 14.1c1.6 1.6 4.1 1.6 5.7 0 1.6-1.5 1.6-4 0-5.6z" fill="#231f20" opacity=".2"/><path d="m34.5 37.3-16.1-15.9 2.9-2.8 16.1 15.9z" fill="#4f5d73"/><path d="m49.9 49.9c-1.6 1.6-4.1 1.6-5.7 0l-14.1-14.1c-1.6-1.6-1.6-4.1 0-5.7s4.1-1.6 5.7 0l14.1 14.1c1.6 1.6 1.6 4.1 0 5.7z" fill="#f5cf87"/><path d="m53.3 18.4-6.5 6.5c-1.6 1.6-4.1 1.6-5.7 0s-1.6-4.1 0-5.7l6.5-6.5c-1.1-.4-2.3-.7-3.6-.7-5.5 0-10 4.5-10 10 0 1.3.3 2.5.7 3.6l-11 11c-1.2-.3-2.4-.6-3.7-.6-5.5 0-10 4.5-10 10 0 1.3.3 2.5.7 3.6l6.5-6.5c1.6-1.6 4.1-1.6 5.7 0s1.6 4.1 0 5.7l-6.5 6.5c1.1.4 2.4.7 3.6.7 5.5 0 10-4.5 10-10 0-1.3-.3-2.5-.7-3.6l11-11c1.1.4 2.4.7 3.6.7 5.5 0 10-4.5 10-10 .1-1.4-.2-2.6-.6-3.7z" fill="#231f20" opacity=".2"/><path d="m23.4 28h17.1v8h-17.1z" fill="#fff" transform="matrix(.7071 -.7071 .7071 .7071 -13.2548 32)"/><path d="m21 23.9-5.9-3-3-5.9 2.8-2.9 5.9 3.1 3.1 5.9z" fill="#4f5d73"/><g fill="#fff"><path d="m46.8 22.8c-1.6 1.6-4.1 1.6-5.7 0s-1.6-4.1 0-5.7l6.5-6.5c-1.1-.3-2.3-.6-3.6-.6-5.5 0-10 4.5-10 10s4.5 10 10 10 10-4.5 10-10c0-1.3-.3-2.5-.7-3.6z"/><path d="m17.2 41.2c1.6-1.6 4.1-1.6 5.7 0s1.6 4.1 0 5.7l-6.5 6.5c1.1.4 2.4.7 3.6.7 5.5 0 10-4.5 10-10s-4.5-10-10-10-10 4.5-10 10c0 1.3.3 2.5.7 3.6z"/></g></svg>