<svg width="438.857" height="438.857" xmlns="http://www.w3.org/2000/svg">
    <path style="fill:#F00;fill-opacity:1;stroke-width:.857143" d="m193.266 363.214-6.837-7.071 7.071 6.837c6.568 6.35 7.462 7.306 6.837 7.306-.129 0-3.311-3.182-7.071-7.072zm51.448.215c3.75-3.772 7.01-6.858 7.246-6.858.235 0-2.64 3.086-6.389 6.858-3.749 3.771-7.01 6.857-7.245 6.857-.236 0 2.639-3.086 6.388-6.857zM363 245.143c3.75-3.772 7.01-6.857 7.245-6.857.236 0-2.639 3.085-6.388 6.857-3.75 3.771-7.01 6.857-7.245 6.857-.236 0 2.639-3.086 6.388-6.857zm-293.224-5.357-1.633-1.929 1.928 1.633c1.813 1.534 2.32 2.224 1.633 2.224-.162 0-1.03-.868-1.928-1.928zM75 193.714c3.75-3.771 7.01-6.857 7.245-6.857.236 0-2.639 3.086-6.388 6.857-3.75 3.772-7.01 6.857-7.245 6.857-.236 0 2.639-3.085 6.388-6.857zm287.98-.214-6.837-7.071 7.071 6.837c6.568 6.35 7.462 7.305 6.837 7.305-.129 0-3.31-3.182-7.071-7.071zM193.286 75.429c3.749-3.772 7.01-6.858 7.245-6.858.236 0-2.639 3.086-6.388 6.858-3.75 3.771-7.01 6.857-7.246 6.857-.235 0 2.64-3.086 6.389-6.857zm51.408-.215-6.837-7.071 7.072 6.837c6.567 6.35 7.462 7.306 6.837 7.306-.13 0-3.311-3.182-7.072-7.072z" transform="translate(.635 .785)"/>
    <path style="fill:#F00;fill-opacity:1;stroke-width:.857143" d="m186.423 409.5-26.566-26.786 26.786 26.567c24.893 24.689 27.171 27.005 26.566 27.005-.12 0-12.174-12.054-26.786-26.786zm65.148.214c14.609-14.614 26.754-26.571 26.99-26.571.236 0-11.524 11.957-26.132 26.571-14.609 14.615-26.754 26.572-26.99 26.572-.236 0 11.524-11.957 26.132-26.572zm-83.571-45c3.986-4.007 7.44-7.285 7.676-7.285.236 0-2.833 3.278-6.819 7.285-3.986 4.007-7.44 7.286-7.676 7.286-.236 0 2.833-3.279 6.819-7.286zm101.981-.214-7.267-7.5 7.5 7.267c4.125 3.997 7.5 7.372 7.5 7.5 0 .623-.984-.301-7.733-7.267zM28.71 251.786 2.143 225l26.786 26.566c24.893 24.69 27.171 27.005 26.566 27.005-.12 0-12.174-12.053-26.786-26.785zm380.577.214c14.608-14.614 26.754-26.571 26.99-26.571.235 0-11.525 11.957-26.133 26.571-14.609 14.614-26.754 26.571-26.99 26.571-.235 0 11.524-11.957 26.133-26.571zM73.714 270.429c3.987-4.008 7.441-7.286 7.677-7.286.235 0-2.833 3.278-6.82 7.286-3.986 4.007-7.44 7.285-7.676 7.285-.236 0 2.833-3.278 6.82-7.285zm290.553-.215-7.267-7.5 7.5 7.267c4.125 3.997 7.5 7.372 7.5 7.5 0 .624-.984-.3-7.733-7.267zm-288.01-24-4.686-4.928 4.929 4.685c4.579 4.352 5.321 5.172 4.685 5.172-.134 0-2.352-2.218-4.929-4.929zm-47.543-59.357c14.609-14.614 26.754-26.571 26.99-26.571.236 0-11.524 11.957-26.133 26.571-14.608 14.614-26.753 26.572-26.99 26.572-.235 0 11.525-11.958 26.133-26.572zm380.567-.214-26.567-26.786 26.786 26.566c14.732 14.612 26.786 26.665 26.786 26.786 0 .605-2.316-1.673-27.005-26.566zM73.695 168.214l-7.266-7.5 7.5 7.267c4.125 3.997 7.5 7.372 7.5 7.5 0 .624-.984-.3-7.734-7.267zm290.59.215c3.987-4.008 7.441-7.286 7.677-7.286.236 0-2.833 3.278-6.82 7.286-3.985 4.007-7.44 7.285-7.676 7.285-.235 0 2.833-3.278 6.82-7.285zm-196.304-94.5-7.267-7.5 7.5 7.266c6.966 6.75 7.89 7.734 7.267 7.734-.128 0-3.503-3.375-7.5-7.5zM270 74.143c3.986-4.007 7.44-7.286 7.676-7.286.236 0-2.833 3.279-6.819 7.286-3.986 4.007-7.44 7.286-7.676 7.286-.236 0 2.833-3.279 6.819-7.286zm-83.571-45c14.608-14.614 26.753-26.572 26.99-26.572.235 0-11.525 11.958-26.133 26.572-14.609 14.614-26.754 26.571-26.99 26.571-.236 0 11.524-11.957 26.133-26.571zm65.137-.214L225 2.143l26.786 26.566c24.893 24.69 27.171 27.005 26.566 27.005-.12 0-12.174-12.053-26.786-26.785zM214.071 278.794c2.947-.167 7.768-.167 10.715 0 2.946.167.535.304-5.357.304-5.893 0-8.304-.137-5.358-.304zm-54.312-59.365c0-5.893.137-8.304.304-5.358.168 2.947.168 7.768 0 10.715-.167 2.946-.304.535-.304-5.357zm119.143 0c0-5.893.137-8.304.304-5.358.167 2.947.167 7.768 0 10.715-.167 2.946-.304.535-.304-5.357zm-64.83-59.778c2.946-.167 7.767-.167 10.714 0 2.946.167.535.304-5.357.304-5.893 0-8.304-.137-5.358-.304zM200.969 328.286c0-23.336.11-32.882.245-21.215.134 11.668.134 30.761 0 42.429-.135 11.668-.245 2.121-.245-21.214zm36.857 0c0-23.336.11-32.882.245-21.215.134 11.668.134 30.761 0 42.429-.135 11.668-.245 2.121-.245-21.214zM89.357 237.644c11.668-.135 30.76-.135 42.429 0 11.668.134 2.121.245-21.215.245-23.335 0-32.882-.11-21.214-.245zm217.714 0c11.668-.135 30.761-.135 42.429 0 11.668.134 2.121.245-21.214.245-23.336 0-32.882-.11-21.215-.245zM89.357 200.786c11.668-.134 30.76-.134 42.429 0 11.668.135 2.121.245-21.215.245-23.335 0-32.882-.11-21.214-.245zm217.714 0c11.668-.134 30.761-.134 42.429 0 11.668.135 2.121.245-21.214.245-23.336 0-32.882-.11-21.215-.245zM200.97 110.571c0-23.335.11-32.882.245-21.214.134 11.668.134 30.76 0 42.429-.135 11.668-.245 2.121-.245-21.215zm36.857 0c0-23.335.11-32.882.245-21.214.134 11.668.134 30.76 0 42.429-.135 11.668-.245 2.121-.245-21.215z" transform="translate(.635 .785)"/>
    <path style="fill:#F00;fill-opacity:1;stroke-width:.857143" d="m187.527 409.901-28.098-28.099v-3.748c0-3.626.306-4.056 9.295-13.044 8.864-8.865 9.461-9.296 12.887-9.296 3.343 0 4.115.505 11.15 7.286 4.156 4.007 7.807 7.286 8.112 7.286.306 0 .568-19.382.583-43.072.029-45.428-.038-44.644 3.988-46.788 2.529-1.347 25.44-1.347 27.97 0 4.025 2.144 3.959 1.36 3.987 46.788.015 23.69.277 43.072.583 43.072.305 0 3.956-3.279 8.113-7.286 7.035-6.781 7.806-7.286 11.15-7.286 3.425 0 4.022.431 12.886 9.296 8.989 8.988 9.296 9.418 9.296 13.044v3.748l-28.1 28.1L223.232 438h-7.605zM28.956 251.33.857 223.23v-7.604l28.099-28.099 28.099-28.098h3.749c3.625 0 4.055.306 13.044 9.295 8.864 8.864 9.295 9.461 9.295 12.887 0 3.343-.505 4.115-7.286 11.15-4.007 4.156-7.286 7.807-7.286 8.112 0 .306 19.383.568 43.072.583 45.428.029 44.644-.038 46.788 3.988 1.347 2.529 1.347 25.44 0 27.97-2.144 4.025-1.36 3.959-46.788 3.987-23.69.015-43.072.277-43.072.583 0 .305 3.279 3.956 7.286 8.113 6.781 7.035 7.286 7.806 7.286 11.15 0 3.425-.43 4.022-9.295 12.886-8.989 8.989-9.42 9.296-13.044 9.296h-3.75zm336.054 18.803c-8.865-8.864-9.296-9.461-9.296-12.887 0-3.343.505-4.114 7.286-11.149 4.007-4.157 7.286-7.808 7.286-8.113 0-.306-19.382-.568-43.072-.583-45.428-.028-44.644.038-46.788-3.988-1.347-2.529-1.347-25.44 0-27.97 2.144-4.025 1.36-3.958 46.788-3.987 23.69-.015 43.072-.277 43.072-.583 0-.305-3.279-3.956-7.286-8.113-6.781-7.034-7.286-7.806-7.286-11.15 0-3.425.431-4.022 9.296-12.886 8.988-8.989 9.418-9.295 13.044-9.295h3.748l28.1 28.098 28.098 28.1v7.604l-28.099 28.099-28.099 28.099h-3.748c-3.626 0-4.056-.307-13.044-9.296zm-159.724-111.74c-3.853-2.209-3.802-1.586-3.83-46.75-.015-23.69-.277-43.072-.583-43.072-.305 0-3.956 3.279-8.113 7.286-7.034 6.781-7.806 7.286-11.15 7.286-3.425 0-4.022-.43-12.886-9.295-8.989-8.989-9.295-9.42-9.295-13.044v-3.75l28.098-28.098 28.1-28.099h7.604l28.099 28.099 28.099 28.099v3.749c0 3.625-.307 4.055-9.296 13.044-8.864 8.864-9.461 9.295-12.887 9.295-3.343 0-4.114-.505-11.149-7.286-4.157-4.007-7.808-7.286-8.113-7.286-.306 0-.568 19.383-.583 43.072-.028 45.428.038 44.644-3.988 46.788-2.507 1.336-25.787 1.304-28.127-.038z" transform="translate(.635 .785)"/>
</svg>
