<svg height="800" viewBox="0 0 20 20" width="800" xmlns="http://www.w3.org/2000/svg"><path d="m3 0v20h14v-15-1l-4-4h-1zm1 1h8v3 1h4v14h-12zm9 .3535156 2.646484 2.6464844h-2.646484zm-4.5234375 6.6425782c-.3021258.0100806-.5262905.2838555-.4765625.5820312v4.693359c-.3036956-.176772-.6486051-.27041-1-.271484-1.1045695 0-2 .895431-2 2s.8954305 2 2 2 2-.895431 2-2v-3.738281c.1931497.078.3502477.15289.6171875.234375.7904185.241278 1.9337475.460884 3.3828125.490234v2.285156c-.303696-.176772-.648605-.27041-1-.271484-1.104569 0-2 .895431-2 2s.895431 2 2 2c1.10457 0 2-.895431 2-2v-6.4492188c.030439-.2980672-.206284-.555812-.505859-.5507812-1.596279.0218002-2.794309-.2192894-3.5859379-.4609375-.7916291-.2416481-1.1464845-.4648439-1.1464843-.4648437-.0850044-.0541895-.1844023-.0814219-.2851563-.078125zm.5234375 1.265625c.1931497.0780025.3502478.1528904.6171875.234375.7904185.2412785 1.9337475.4608847 3.3828125.4902343v.9999999c-1.342613-.029248-2.38725-.232198-3.0917969-.447266-.4512438-.137742-.7256218-.253964-.9082031-.341796zm-2 4.7382812c.5522847 0 1 .447715 1 1s-.4477153 1-1 1-1-.447715-1-1 .4477153-1 1-1zm5 1c.552285 0 1 .447715 1 1s-.447715 1-1 1-1-.447715-1-1 .447715-1 1-1z" fill="#222"/></svg>