<svg height="519.117" width="452.631" xmlns="http://www.w3.org/2000/svg"><g stroke="#000" transform="translate(-99.55 -63.221)"><path d="m104.55 212.42v364.918h207.968c-20-6.19-36.617-97.864 70.077-106.404v-96.89l107.329-63.11v-242.714h-260.114v144.2z" stroke-linejoin="round" stroke-width="10"/><path d="m104.55 192.217 107.078-123.996-.198 124.141z"/><path d="m542.679 320.144-128.75 75.176-.018 63.63 128.768-77.035zm-128.75 138.805v71.071c2.082 46.044-79.98 46.697-84.645 4.982-4.865-18.587 53.265-60.295 84.645-4.828zm128.75-77.02v134.968-32.27zm0 127.392c.582-23.075-72.673-45.5-84.36 4.565-3.646 26.202 66.117 48.808 84.36 7.62z" fill="none" stroke-linejoin="round" stroke-width="19"/></g></svg>