<svg height="128" width="128" xmlns="http://www.w3.org/2000/svg"><path d="m58.918 125.531c-3.102-1.255-7.418-6.845-7.418-9.608v-2.423h25.217l-.676 2.75c-1.926 7.833-9.95 12.183-17.123 9.281zm-39.418-18.725c-2.342-.837-4-3.442-4-6.285 0-1.792 1.548-4.121 5-7.521l5-4.925v-18.738c0-10.306.499-21.123 1.109-24.038 2.555-12.211 11.848-23.782 22.193-27.633 5.008-1.864 5.217-2.094 5.724-6.3.649-5.385 1.305-6.469 5.11-8.437 6.002-3.103 12.573.981 13.573 8.438.517 3.852.872 4.216 6.827 7.003 7.892 3.693 13.885 9.774 17.867 18.13l3.097 6.5.5 22.642.5 22.643 5.315 5.616c5.739 6.065 6.111 8.283 1.987 11.849-1.863 1.611-5.448 1.744-45.163 1.671-23.726-.043-43.814-.32-44.639-.615z"/></svg>