<svg height="128" width="128" xmlns="http://www.w3.org/2000/svg"><path d="m20.869 127.957.196-26.439.222-1.596c.837-6.008 2.912-10.627 6.28-13.976 1.569-1.561 2.579-2.286 4.578-3.286 2.18-1.09 3.509-1.557 5.269-1.853 2.025-.34 3.099-.636 5.193-1.429 2.161-.818 7.568-3.145 10.02-4.312l1.945-.926.069-3.993.07-3.993-.58-.643c-1.46-1.624-2.64-4.39-3.231-7.574-.12-.642-.244-1.302-.277-1.468-.045-.225-.122-.28-.307-.222-.346.11-1.082-.226-1.41-.645-.668-.848-1.063-2.836-1.283-6.453-.151-2.493.195-3.666 1.109-3.755.408-.039.428-.064.359-.456-.327-1.841-.535-4.498-.537-6.862l-.002-2.67.431-1.238c1.895-5.447 6.689-9.277 12.987-10.377 2.2-.385 5.551-.047 8.142.82 4.918 1.646 8.265 5.351 9.337 10.338.32 1.488.294 4.168-.07 7.296-.155 1.325-.31 2.534-.343 2.687-.05.222.012.292.317.353.942.188 1.255 1.178 1.14 3.594-.116 2.422-.437 4.835-.759 5.697-.392 1.05-.967 1.608-1.66 1.608-.448 0-.54.046-.587.293-.669 3.508-1.077 4.855-2.044 6.746-.35.683-.953 1.626-1.34 2.095l-.705.855.07 3.918.07 3.919 1.52.72c3.4 1.608 9.989 4.372 12.13 5.089.747.25 2.227.635 3.289.855 2.052.427 3.122.802 5.264 1.846 4.554 2.218 7.508 5.6 9.48 10.856.85 2.268 1.745 6.376 1.764 8.1l1.137 26.547c-8.032.554-58.154-.834-87.253-.066z" stroke-width=".130272"/><path d="m5.886 5.862h116.895v116.957h-116.895z" fill="none" stroke="#000" stroke-linejoin="round" stroke-width="10.337626"/></svg>