<?xml version="1.0" encoding="UTF-8" standalone="no"?>
<!-- Created with Inkscape (http://www.inkscape.org/) -->

<svg
   xmlns:dc="http://purl.org/dc/elements/1.1/"
   xmlns:cc="http://creativecommons.org/ns#"
   xmlns:rdf="http://www.w3.org/1999/02/22-rdf-syntax-ns#"
   xmlns:svg="http://www.w3.org/2000/svg"
   xmlns="http://www.w3.org/2000/svg"
   xmlns:sodipodi="http://sodipodi.sourceforge.net/DTD/sodipodi-0.dtd"
   xmlns:inkscape="http://www.inkscape.org/namespaces/inkscape"
   width="128px"
   height="128px"
   viewBox="0 0 128 128"
   version="1.1"
   id="SVGRoot"
   inkscape:version="0.92.3 (2405546, 2018-03-11)"
   sodipodi:docname="character_layer.svg">
  <sodipodi:namedview
     id="base"
     pagecolor="#ffffff"
     bordercolor="#666666"
     borderopacity="1.0"
     inkscape:pageopacity="0.0"
     inkscape:pageshadow="2"
     inkscape:zoom="6.5556655"
     inkscape:cx="25.008383"
     inkscape:cy="73.53483"
     inkscape:document-units="px"
     inkscape:current-layer="layer1"
     showgrid="false"
     inkscape:window-width="2560"
     inkscape:window-height="1440"
     inkscape:window-x="2560"
     inkscape:window-y="0"
     inkscape:window-maximized="1"
     inkscape:grid-bbox="true" />
  <defs
     id="defs815" />
  <metadata
     id="metadata818">
    <rdf:RDF>
      <cc:Work
         rdf:about="">
        <dc:format>image/svg+xml</dc:format>
        <dc:type
           rdf:resource="http://purl.org/dc/dcmitype/StillImage" />
        <dc:title></dc:title>
      </cc:Work>
    </rdf:RDF>
  </metadata>
  <g
     id="layer1"
     inkscape:groupmode="layer"
     inkscape:label="Layer 1">
    <path
       style="fill:#000000;stroke-width:0.13027219"
       d="m 20.868822,127.95706 0.195948,-26.43904 0.22233,-1.595648 c 0.83719,-6.008458 2.91222,-10.627169 6.27899,-13.976153 1.56952,-1.561226 2.57991,-2.286277 4.57918,-3.285998 2.17917,-1.08968 3.50827,-1.557139 5.26866,-1.853051 2.02551,-0.340476 3.09864,-0.635766 5.19346,-1.429075 2.1608,-0.818295 7.56766,-3.145492 10.01905,-4.312357 l 1.94537,-0.926002 0.0692,-3.992644 0.0692,-3.992642 -0.57877,-0.643731 c -1.46015,-1.624042 -2.63991,-4.389091 -3.23163,-7.574064 -0.11922,-0.641718 -0.24382,-1.301992 -0.27689,-1.467274 -0.0451,-0.225534 -0.12167,-0.280983 -0.30678,-0.222233 -0.34608,0.109842 -1.08197,-0.226402 -1.41103,-0.644728 -0.66751,-0.848608 -1.06234,-2.836147 -1.28206,-6.453772 -0.15137,-2.492178 0.19533,-3.66586 1.10897,-3.754209 0.40809,-0.03946 0.42793,-0.06469 0.35849,-0.455953 -0.32686,-1.841728 -0.53439,-4.498469 -0.53608,-6.862652 l -0.002,-2.67058 0.43067,-1.237585 c 1.89531,-5.446379 6.68843,-9.276192 12.9871,-10.376994 2.1998,-0.384452 5.55091,-0.04679 8.14201,0.820396 4.91812,1.645997 8.26449,5.351242 9.33689,10.338231 0.32,1.488109 0.29406,4.167235 -0.0706,7.295243 -0.15454,1.325519 -0.30882,2.534746 -0.34284,2.68717 -0.0497,0.222562 0.0128,0.292073 0.31747,0.352998 0.94141,0.188281 1.25535,1.178247 1.13993,3.594623 -0.11568,2.421719 -0.43708,4.834354 -0.7589,5.696694 -0.39218,1.05089 -0.967,1.607639 -1.6598,1.607639 -0.44793,0 -0.54043,0.04615 -0.58749,0.293113 -0.66853,3.508364 -1.07663,4.855016 -2.04431,6.74579 -0.34955,0.682984 -0.95256,1.626124 -1.34002,2.095866 l -0.70448,0.854075 0.0698,3.91876 0.0698,3.918761 1.52062,0.719378 c 3.40042,1.608672 9.98842,4.372723 12.13051,5.089452 0.74635,0.249726 2.22607,0.634761 3.28825,0.855634 2.0524,0.426779 3.12175,0.801592 5.26403,1.84508 4.55422,2.218318 7.50799,5.60125 9.47948,10.856803 0.8506,2.26749 1.74538,6.376065 1.76418,8.100569 l 1.13755,26.54606 c -8.03224,0.55356 -58.153916,-0.83443 -87.253458,-0.066 z"
       id="path1439"
       inkscape:connector-curvature="0"
       sodipodi:nodetypes="ccssssscccccccccccccccscccccccscccccccccccccc" />
    <rect
       style="fill:none;fill-rule:evenodd;stroke:#000000;stroke-width:10.33762646;stroke-linecap:butt;stroke-linejoin:round;stroke-miterlimit:4;stroke-dasharray:none;stroke-opacity:1"
       id="rect1441"
       width="116.89505"
       height="116.95741"
       x="5.8856373"
       y="5.8619995" />
  </g>
</svg>
