<?xml version="1.0" encoding="UTF-8" standalone="no"?>
<!-- Created with Inkscape (http://www.inkscape.org/) -->

<svg
   xmlns:dc="http://purl.org/dc/elements/1.1/"
   xmlns:cc="http://creativecommons.org/ns#"
   xmlns:rdf="http://www.w3.org/1999/02/22-rdf-syntax-ns#"
   xmlns:svg="http://www.w3.org/2000/svg"
   xmlns="http://www.w3.org/2000/svg"
   xmlns:sodipodi="http://sodipodi.sourceforge.net/DTD/sodipodi-0.dtd"
   xmlns:inkscape="http://www.inkscape.org/namespaces/inkscape"
   width="128px"
   height="128px"
   viewBox="0 0 128 128"
   version="1.1"
   id="SVGRoot"
   inkscape:version="0.92.5 (2060ec1f9f, 2020-04-08)"
   sodipodi:docname="chaticon_with_message.svg">
  <sodipodi:namedview
     id="base"
     pagecolor="#ffffff"
     bordercolor="#666666"
     borderopacity="1.0"
     inkscape:pageopacity="0.0"
     inkscape:pageshadow="2"
     inkscape:zoom="4"
     inkscape:cx="-8.64972"
     inkscape:cy="105.55678"
     inkscape:document-units="px"
     inkscape:current-layer="layer1"
     showgrid="false"
     inkscape:window-width="1920"
     inkscape:window-height="1043"
     inkscape:window-x="2560"
     inkscape:window-y="190"
     inkscape:window-maximized="1"
     inkscape:grid-bbox="true" />
  <defs
     id="defs815" />
  <metadata
     id="metadata818">
    <rdf:RDF>
      <cc:Work
         rdf:about="">
        <dc:format>image/svg+xml</dc:format>
        <dc:type
           rdf:resource="http://purl.org/dc/dcmitype/StillImage" />
        <dc:title />
      </cc:Work>
    </rdf:RDF>
  </metadata>
  <g
     id="layer1"
     inkscape:groupmode="layer"
     inkscape:label="Layer 1">
    <path
       style="opacity:1;fill:#ffffff;fill-opacity:1;fill-rule:nonzero;stroke:#ffffff;stroke-width:0.38929135;stroke-linecap:butt;stroke-linejoin:round;stroke-miterlimit:4;stroke-dasharray:none;stroke-dashoffset:0;stroke-opacity:1"
       d="m 114.75,54.375 c 0,23.67632 -11.81316,38.815759 -35.769408,42.498761 C 75.205672,97.454113 78.379238,113 74,113 70.23709,113 59.396445,97.524697 55.989247,97.082938 30.26698,93.747928 15,78.07639 15,53.875 15,26.467869 31.829413,10 64,10 c 32.170587,0 50.75,16.967869 50.75,44.375 z"
       id="path818"
       inkscape:connector-curvature="0"
       sodipodi:nodetypes="sssssss" />
    <path
       style="fill:#000000;stroke:#fffffd;stroke-width:0.37795275;stroke-miterlimit:4;stroke-dasharray:none;stroke-opacity:1"
       d="M 57.810962,100.62919 C 33.379101,97.547487 13.071947,78.951411 12.195955,51.235017 12.461076,34.997071 30.084642,6.3134808 63.853114,6.7181536 101.97325,7.1749757 117.20235,31.780927 118.28531,53.902532 117.07659,87.903837 85.196755,97.061974 80.910189,98.417143 72.188496,101.17444 78.820505,110.40028 84.84375,118.55 72.579774,114.84946 62.254297,112.82066 57.810962,100.62919 Z m 17.297233,9.41753 C 71.627868,103.72111 67.893066,98.816636 72.446155,93.433364 77.953514,91.555117 107.94052,87.682284 110.96541,53.631795 107.93338,25.493428 86.519172,13.484449 63.018857,13.990846 50.53919,13.049344 19.759331,25.752039 19.762171,52.016578 19.58866,78.366524 37.85017,90.721419 61.069049,93.909107 c 0.04511,6.072714 2.94083,13.681083 14.039146,16.137613 z"
       id="path1385"
       inkscape:connector-curvature="0"
       sodipodi:nodetypes="ccscsccccccccc" />
    <path
       style="opacity:1;fill:#000000;fill-opacity:1;fill-rule:nonzero;stroke:none;stroke-width:1;stroke-linecap:butt;stroke-linejoin:round;stroke-miterlimit:4;stroke-dasharray:1, 1;stroke-dashoffset:0;stroke-opacity:1"
       id="path1417"
       sodipodi:type="arc"
       sodipodi:cx="93.161324"
       sodipodi:cy="54.508659"
       sodipodi:rx="3.4913397"
       sodipodi:ry="3.4913397"
       sodipodi:start="0"
       sodipodi:end="6.2715091"
       sodipodi:open="true"
       d="m 96.652663,54.508659 a 3.4913397,3.4913397 0 0 1 -3.481148,3.491325 3.4913397,3.4913397 0 0 1 -3.501472,-3.470942 3.4913397,3.4913397 0 0 1 3.460707,-3.511588 3.4913397,3.4913397 0 0 1 3.521675,3.450441" />
    <path
       style="opacity:1;fill:#000000;fill-opacity:1;fill-rule:nonzero;stroke:none;stroke-width:1;stroke-linecap:butt;stroke-linejoin:round;stroke-miterlimit:4;stroke-dasharray:1, 1;stroke-dashoffset:0;stroke-opacity:1"
       id="path1417-7"
       sodipodi:type="arc"
       sodipodi:cx="32.57111"
       sodipodi:cy="54.508659"
       sodipodi:rx="3.4913397"
       sodipodi:ry="3.4913397"
       sodipodi:start="0"
       sodipodi:end="6.2715091"
       sodipodi:open="true"
       d="m 36.062449,54.508659 a 3.4913397,3.4913397 0 0 1 -3.481148,3.491325 3.4913397,3.4913397 0 0 1 -3.501471,-3.470942 3.4913397,3.4913397 0 0 1 3.460706,-3.511588 3.4913397,3.4913397 0 0 1 3.521675,3.450441" />
    <path
       style="opacity:1;fill:#000000;fill-opacity:1;fill-rule:nonzero;stroke:none;stroke-width:1;stroke-linecap:butt;stroke-linejoin:round;stroke-miterlimit:4;stroke-dasharray:1, 1;stroke-dashoffset:0;stroke-opacity:1"
       id="path1417-5"
       sodipodi:type="arc"
       sodipodi:cx="52.060738"
       sodipodi:cy="54.508659"
       sodipodi:rx="3.4913397"
       sodipodi:ry="3.4913397"
       sodipodi:start="0"
       sodipodi:end="6.2715091"
       sodipodi:open="true"
       d="m 55.552077,54.508659 a 3.4913397,3.4913397 0 0 1 -3.481148,3.491325 3.4913397,3.4913397 0 0 1 -3.501472,-3.470942 3.4913397,3.4913397 0 0 1 3.460707,-3.511588 3.4913397,3.4913397 0 0 1 3.521675,3.450441" />
    <path
       style="opacity:1;fill:#000000;fill-opacity:1;fill-rule:nonzero;stroke:none;stroke-width:1;stroke-linecap:butt;stroke-linejoin:round;stroke-miterlimit:4;stroke-dasharray:1, 1;stroke-dashoffset:0;stroke-opacity:1"
       id="path1417-3"
       sodipodi:type="arc"
       sodipodi:cx="73.494911"
       sodipodi:cy="54.508659"
       sodipodi:rx="3.4913397"
       sodipodi:ry="3.4913397"
       sodipodi:start="0"
       sodipodi:end="6.2715091"
       sodipodi:open="true"
       d="m 76.986251,54.508659 a 3.4913397,3.4913397 0 0 1 -3.481148,3.491325 3.4913397,3.4913397 0 0 1 -3.501472,-3.470942 3.4913397,3.4913397 0 0 1 3.460706,-3.511588 3.4913397,3.4913397 0 0 1 3.521676,3.450441" />
    <path
       sodipodi:type="star"
       style="opacity:1;fill:#f70000;fill-opacity:1;fill-rule:nonzero;stroke:#000000;stroke-width:1.00157475;stroke-linecap:butt;stroke-linejoin:round;stroke-miterlimit:4;stroke-dasharray:none;stroke-dashoffset:0;stroke-opacity:1"
       id="path1465"
       sodipodi:sides="5"
       sodipodi:cx="91.010696"
       sodipodi:cy="38.902683"
       sodipodi:r1="37.584072"
       sodipodi:r2="18.792036"
       sodipodi:arg1="0.96987931"
       sodipodi:arg2="1.5981978"
       inkscape:flatsided="false"
       inkscape:rounded="0"
       inkscape:randomized="0"
       d="M 112.2607,69.902683 90.495831,57.687665 68.094556,68.692161 72.986015,44.217896 55.597743,26.313593 80.385696,23.402684 92.040428,1.3327201 102.46877,24.007944 l 24.59129,4.264315 -18.34289,16.924969 z"
       inkscape:transform-center-x="-0.31820459"
       inkscape:transform-center-y="-3.2849817" />
  </g>
</svg>
