<?xml version="1.0" encoding="UTF-8" standalone="no"?>
<!-- Created with Inkscape (http://www.inkscape.org/) -->

<svg
   xmlns:dc="http://purl.org/dc/elements/1.1/"
   xmlns:cc="http://creativecommons.org/ns#"
   xmlns:rdf="http://www.w3.org/1999/02/22-rdf-syntax-ns#"
   xmlns:svg="http://www.w3.org/2000/svg"
   xmlns="http://www.w3.org/2000/svg"
   xmlns:sodipodi="http://sodipodi.sourceforge.net/DTD/sodipodi-0.dtd"
   xmlns:inkscape="http://www.inkscape.org/namespaces/inkscape"
   width="128px"
   height="128px"
   viewBox="0 0 128 128"
   version="1.1"
   id="SVGRoot"
   inkscape:version="0.92.5 (2060ec1f9f, 2020-04-08)"
   sodipodi:docname="chaticon.svg">
  <sodipodi:namedview
     id="base"
     pagecolor="#ffffff"
     bordercolor="#666666"
     borderopacity="1.0"
     inkscape:pageopacity="0.0"
     inkscape:pageshadow="2"
     inkscape:zoom="4"
     inkscape:cx="41.694958"
     inkscape:cy="67.708087"
     inkscape:document-units="px"
     inkscape:current-layer="layer1"
     showgrid="false"
     inkscape:window-width="1920"
     inkscape:window-height="1043"
     inkscape:window-x="2560"
     inkscape:window-y="190"
     inkscape:window-maximized="1"
     inkscape:grid-bbox="true" />
  <defs
     id="defs815" />
  <metadata
     id="metadata818">
    <rdf:RDF>
      <cc:Work
         rdf:about="">
        <dc:format>image/svg+xml</dc:format>
        <dc:type
           rdf:resource="http://purl.org/dc/dcmitype/StillImage" />
        <dc:title />
      </cc:Work>
    </rdf:RDF>
  </metadata>
  <g
     id="layer1"
     inkscape:groupmode="layer"
     inkscape:label="Layer 1">
    <path
       style="opacity:1;fill:#ffffff;fill-opacity:1;fill-rule:nonzero;stroke:#ffffff;stroke-width:0.38929135;stroke-linecap:butt;stroke-linejoin:round;stroke-miterlimit:4;stroke-dasharray:none;stroke-dashoffset:0;stroke-opacity:1"
       d="M 111.5,54.125 C 111.5,76.014672 95.266292,94.264019 73.727197,98.380689 70.743582,98.950934 78.658168,112.625 75.5,112.625 73.212053,112.625 59.96229,99.09304 57.761754,98.789724 34.996604,95.651831 17.5,76.850177 17.5,54.125 17.5,29.203151 38.542617,9 64.5,9 c 25.957383,0 47,20.203151 47,45.125 z"
       id="path825"
       inkscape:connector-curvature="0"
       sodipodi:nodetypes="sssssss" />
    <path
       style="fill:#000000;stroke:#fffffd;stroke-width:0.37795275;stroke-miterlimit:4;stroke-dasharray:none;stroke-opacity:1"
       d="M 57.810962,100.62919 C 33.379101,97.547487 13.071947,78.951411 12.195955,51.235017 12.461076,34.997071 30.084642,6.3134808 63.853114,6.7181536 101.97325,7.1749757 117.20235,31.780927 118.28531,53.902532 117.07659,87.903837 85.196755,97.061974 80.910189,98.417143 72.188496,101.17444 78.820505,110.40028 84.84375,118.55 72.579774,114.84946 62.254297,112.82066 57.810962,100.62919 Z m 17.297233,9.41753 C 71.627868,103.72111 67.893066,98.816636 72.446155,93.433364 77.953514,91.555117 107.94052,87.682284 110.96541,53.631795 107.93338,25.493428 86.519172,13.484449 63.018857,13.990846 50.53919,13.049344 19.759331,25.752039 19.762171,52.016578 19.58866,78.366524 37.85017,90.721419 61.069049,93.909107 c 0.04511,6.072714 2.94083,13.681083 14.039146,16.137613 z"
       id="path1385"
       inkscape:connector-curvature="0"
       sodipodi:nodetypes="ccscsccccccccc" />
    <path
       style="opacity:1;fill:#000000;fill-opacity:1;fill-rule:nonzero;stroke:none;stroke-width:1;stroke-linecap:butt;stroke-linejoin:round;stroke-miterlimit:4;stroke-dasharray:1, 1;stroke-dashoffset:0;stroke-opacity:1"
       id="path1417"
       sodipodi:type="arc"
       sodipodi:cx="93.161324"
       sodipodi:cy="54.508659"
       sodipodi:rx="3.4913397"
       sodipodi:ry="3.4913397"
       sodipodi:start="0"
       sodipodi:end="6.2715091"
       sodipodi:open="true"
       d="m 96.652663,54.508659 a 3.4913397,3.4913397 0 0 1 -3.481148,3.491325 3.4913397,3.4913397 0 0 1 -3.501472,-3.470942 3.4913397,3.4913397 0 0 1 3.460707,-3.511588 3.4913397,3.4913397 0 0 1 3.521675,3.450441" />
    <path
       style="opacity:1;fill:#000000;fill-opacity:1;fill-rule:nonzero;stroke:none;stroke-width:1;stroke-linecap:butt;stroke-linejoin:round;stroke-miterlimit:4;stroke-dasharray:1, 1;stroke-dashoffset:0;stroke-opacity:1"
       id="path1417-7"
       sodipodi:type="arc"
       sodipodi:cx="32.57111"
       sodipodi:cy="54.508659"
       sodipodi:rx="3.4913397"
       sodipodi:ry="3.4913397"
       sodipodi:start="0"
       sodipodi:end="6.2715091"
       sodipodi:open="true"
       d="m 36.062449,54.508659 a 3.4913397,3.4913397 0 0 1 -3.481148,3.491325 3.4913397,3.4913397 0 0 1 -3.501471,-3.470942 3.4913397,3.4913397 0 0 1 3.460706,-3.511588 3.4913397,3.4913397 0 0 1 3.521675,3.450441" />
    <path
       style="opacity:1;fill:#000000;fill-opacity:1;fill-rule:nonzero;stroke:none;stroke-width:1;stroke-linecap:butt;stroke-linejoin:round;stroke-miterlimit:4;stroke-dasharray:1, 1;stroke-dashoffset:0;stroke-opacity:1"
       id="path1417-5"
       sodipodi:type="arc"
       sodipodi:cx="52.060738"
       sodipodi:cy="54.508659"
       sodipodi:rx="3.4913397"
       sodipodi:ry="3.4913397"
       sodipodi:start="0"
       sodipodi:end="6.2715091"
       sodipodi:open="true"
       d="m 55.552077,54.508659 a 3.4913397,3.4913397 0 0 1 -3.481148,3.491325 3.4913397,3.4913397 0 0 1 -3.501472,-3.470942 3.4913397,3.4913397 0 0 1 3.460707,-3.511588 3.4913397,3.4913397 0 0 1 3.521675,3.450441" />
    <path
       style="opacity:1;fill:#000000;fill-opacity:1;fill-rule:nonzero;stroke:none;stroke-width:1;stroke-linecap:butt;stroke-linejoin:round;stroke-miterlimit:4;stroke-dasharray:1, 1;stroke-dashoffset:0;stroke-opacity:1"
       id="path1417-3"
       sodipodi:type="arc"
       sodipodi:cx="73.494911"
       sodipodi:cy="54.508659"
       sodipodi:rx="3.4913397"
       sodipodi:ry="3.4913397"
       sodipodi:start="0"
       sodipodi:end="6.2715091"
       sodipodi:open="true"
       d="m 76.986251,54.508659 a 3.4913397,3.4913397 0 0 1 -3.481148,3.491325 3.4913397,3.4913397 0 0 1 -3.501472,-3.470942 3.4913397,3.4913397 0 0 1 3.460706,-3.511588 3.4913397,3.4913397 0 0 1 3.521676,3.450441" />
  </g>
</svg>
