<svg height="128" width="128" xmlns="http://www.w3.org/2000/svg"><path d="m111.5 54.125c0 21.89-16.234 40.139-37.773 44.256-2.983.57 4.931 14.244 1.773 14.244-2.288 0-15.538-13.532-17.738-13.835-22.765-3.138-40.262-21.94-40.262-44.665 0-24.922 21.043-45.125 47-45.125s47 20.203 47 45.125z" fill="#fff" stroke="#fff" stroke-linejoin="round" stroke-width=".389291"/><path d="m57.811 100.63c-24.432-3.083-44.74-21.679-45.615-49.395.265-16.238 17.889-44.922 51.657-44.517 38.12.457 53.35 25.063 54.432 47.185-1.208 34-33.088 43.159-37.375 44.514-8.722 2.757-2.09 11.983 3.934 20.133-12.264-3.7-22.59-5.73-27.033-17.92zm17.297 9.417c-3.48-6.326-7.215-11.23-2.662-16.614 5.508-1.878 35.495-5.75 38.52-39.801-3.033-28.139-24.447-40.148-47.947-39.641-12.48-.942-43.26 11.761-43.257 38.026-.172 26.35 18.088 38.703 41.308 41.892.045 6.073 2.94 13.681 14.04 16.138z" stroke="#fffffd" stroke-width=".377953"/><path d="m96.653 54.509a3.491 3.491 0 0 1 -3.481 3.491 3.491 3.491 0 0 1 -3.502-3.471 3.491 3.491 0 0 1 3.46-3.512 3.491 3.491 0 0 1 3.522 3.45m-60.59.042a3.491 3.491 0 0 1 -3.48 3.491 3.491 3.491 0 0 1 -3.502-3.471 3.491 3.491 0 0 1 3.46-3.512 3.491 3.491 0 0 1 3.522 3.45m19.49.042a3.491 3.491 0 0 1 -3.481 3.491 3.491 3.491 0 0 1 -3.502-3.471 3.491 3.491 0 0 1 3.461-3.512 3.491 3.491 0 0 1 3.522 3.45m21.434.042a3.491 3.491 0 0 1 -3.48 3.491 3.491 3.491 0 0 1 -3.502-3.471 3.491 3.491 0 0 1 3.46-3.512 3.491 3.491 0 0 1 3.522 3.45"/></svg>