<?xml version="1.0" encoding="UTF-8" standalone="no"?>
<!-- Created with Inkscape (http://www.inkscape.org/) -->

<svg
   xmlns:dc="http://purl.org/dc/elements/1.1/"
   xmlns:cc="http://creativecommons.org/ns#"
   xmlns:rdf="http://www.w3.org/1999/02/22-rdf-syntax-ns#"
   xmlns:svg="http://www.w3.org/2000/svg"
   xmlns="http://www.w3.org/2000/svg"
   xmlns:sodipodi="http://sodipodi.sourceforge.net/DTD/sodipodi-0.dtd"
   xmlns:inkscape="http://www.inkscape.org/namespaces/inkscape"
   width="128px"
   height="128px"
   viewBox="0 0 128 128"
   version="1.1"
   id="SVGRoot"
   inkscape:version="0.92.3 (2405546, 2018-03-11)"
   sodipodi:docname="chaticon_with_message.svg">
  <sodipodi:namedview
     id="base"
     pagecolor="#ffffff"
     bordercolor="#666666"
     borderopacity="1.0"
     inkscape:pageopacity="0.0"
     inkscape:pageshadow="2"
     inkscape:zoom="4"
     inkscape:cx="-27.51476"
     inkscape:cy="49.582029"
     inkscape:document-units="px"
     inkscape:current-layer="layer1"
     showgrid="false"
     inkscape:window-width="2560"
     inkscape:window-height="1412"
     inkscape:window-x="2560"
     inkscape:window-y="0"
     inkscape:window-maximized="1"
     inkscape:grid-bbox="true" />
  <defs
     id="defs815" />
  <metadata
     id="metadata818">
    <rdf:RDF>
      <cc:Work
         rdf:about="">
        <dc:format>image/svg+xml</dc:format>
        <dc:type
           rdf:resource="http://purl.org/dc/dcmitype/StillImage" />
        <dc:title></dc:title>
      </cc:Work>
    </rdf:RDF>
  </metadata>
  <g
     id="layer1"
     inkscape:groupmode="layer"
     inkscape:label="Layer 1">
    <path
       style="fill:#000000;stroke-width:0.37795276;stroke:#fffffd;stroke-opacity:1;stroke-miterlimit:4;stroke-dasharray:none"
       d="m 62.954423,111.8454 c -5.171024,-3.57566 -8.825927,-5.31433 -13.032548,-8.73398 0,0 -7.533171,-5.409421 -13.471436,-9.701738 C 31.616456,89.915566 8.6309688,76.284156 8.483644,50.704687 8.3952124,35.350624 29.730583,9.7297577 63.499561,9.369804 103.56424,8.9427426 134.00732,46.098671 105.91094,79.358376 100.33618,85.957621 92.267822,92.46578 87.981256,93.820949 79.259563,96.57825 77.559834,111.29465 84.84375,118.55 c -8.518764,-1.053 -8.779566,-0.21536 -21.889327,-6.7046 z m 9.275093,-11.13446 c 0.006,-3.952497 4.894234,-9.530855 14.896167,-14.882815 C 116.9085,69.89156 115.51055,41.23839 93.601225,23.536788 65.388433,0.32142281 12.33471,25.044932 15.873084,54.314675 c -0.188519,18.31393 26.643552,33.445114 31.44755,35.305114 3.995491,1.546964 11.386848,8.090563 13.089405,10.367745 6.537747,8.744286 12.742645,12.219166 11.819477,0.723406 z"
       id="path1385"
       inkscape:connector-curvature="0"
       sodipodi:nodetypes="ccssssscccsccssc" />
    <path
       style="opacity:1;fill:#000000;fill-opacity:1;fill-rule:nonzero;stroke:none;stroke-width:1;stroke-linecap:butt;stroke-linejoin:round;stroke-miterlimit:4;stroke-dasharray:1, 1;stroke-dashoffset:0;stroke-opacity:1"
       id="path1417"
       sodipodi:type="arc"
       sodipodi:cx="93.161324"
       sodipodi:cy="54.508659"
       sodipodi:rx="3.4913397"
       sodipodi:ry="3.4913397"
       sodipodi:start="0"
       sodipodi:end="6.2715091"
       sodipodi:open="true"
       d="m 96.652663,54.508659 a 3.4913397,3.4913397 0 0 1 -3.481148,3.491325 3.4913397,3.4913397 0 0 1 -3.501472,-3.470942 3.4913397,3.4913397 0 0 1 3.460707,-3.511588 3.4913397,3.4913397 0 0 1 3.521675,3.450441" />
    <path
       style="opacity:1;fill:#000000;fill-opacity:1;fill-rule:nonzero;stroke:none;stroke-width:1;stroke-linecap:butt;stroke-linejoin:round;stroke-miterlimit:4;stroke-dasharray:1, 1;stroke-dashoffset:0;stroke-opacity:1"
       id="path1417-7"
       sodipodi:type="arc"
       sodipodi:cx="32.57111"
       sodipodi:cy="54.508659"
       sodipodi:rx="3.4913397"
       sodipodi:ry="3.4913397"
       sodipodi:start="0"
       sodipodi:end="6.2715091"
       sodipodi:open="true"
       d="m 36.062449,54.508659 a 3.4913397,3.4913397 0 0 1 -3.481148,3.491325 3.4913397,3.4913397 0 0 1 -3.501471,-3.470942 3.4913397,3.4913397 0 0 1 3.460706,-3.511588 3.4913397,3.4913397 0 0 1 3.521675,3.450441" />
    <path
       style="opacity:1;fill:#000000;fill-opacity:1;fill-rule:nonzero;stroke:none;stroke-width:1;stroke-linecap:butt;stroke-linejoin:round;stroke-miterlimit:4;stroke-dasharray:1, 1;stroke-dashoffset:0;stroke-opacity:1"
       id="path1417-5"
       sodipodi:type="arc"
       sodipodi:cx="52.060738"
       sodipodi:cy="54.508659"
       sodipodi:rx="3.4913397"
       sodipodi:ry="3.4913397"
       sodipodi:start="0"
       sodipodi:end="6.2715091"
       sodipodi:open="true"
       d="m 55.552077,54.508659 a 3.4913397,3.4913397 0 0 1 -3.481148,3.491325 3.4913397,3.4913397 0 0 1 -3.501472,-3.470942 3.4913397,3.4913397 0 0 1 3.460707,-3.511588 3.4913397,3.4913397 0 0 1 3.521675,3.450441" />
    <path
       style="opacity:1;fill:#000000;fill-opacity:1;fill-rule:nonzero;stroke:none;stroke-width:1;stroke-linecap:butt;stroke-linejoin:round;stroke-miterlimit:4;stroke-dasharray:1, 1;stroke-dashoffset:0;stroke-opacity:1"
       id="path1417-3"
       sodipodi:type="arc"
       sodipodi:cx="73.494911"
       sodipodi:cy="54.508659"
       sodipodi:rx="3.4913397"
       sodipodi:ry="3.4913397"
       sodipodi:start="0"
       sodipodi:end="6.2715091"
       sodipodi:open="true"
       d="m 76.986251,54.508659 a 3.4913397,3.4913397 0 0 1 -3.481148,3.491325 3.4913397,3.4913397 0 0 1 -3.501472,-3.470942 3.4913397,3.4913397 0 0 1 3.460706,-3.511588 3.4913397,3.4913397 0 0 1 3.521676,3.450441" />
    <path
       sodipodi:type="star"
       style="opacity:1;fill:#f70000;fill-opacity:1;fill-rule:nonzero;stroke:#000000;stroke-width:1.0015748;stroke-linecap:butt;stroke-linejoin:round;stroke-miterlimit:4;stroke-dasharray:none;stroke-dashoffset:0;stroke-opacity:1"
       id="path1465"
       sodipodi:sides="5"
       sodipodi:cx="92"
       sodipodi:cy="38"
       sodipodi:r1="37.584072"
       sodipodi:r2="18.792036"
       sodipodi:arg1="0.96987931"
       sodipodi:arg2="1.5981978"
       inkscape:flatsided="false"
       inkscape:rounded="0"
       inkscape:randomized="0"
       d="M 113.25,69 91.485135,56.784982 69.083859,67.789478 73.975319,43.315213 56.587046,25.41091 81.374999,22.500001 93.029732,0.43003687 103.45807,23.105261 l 24.59129,4.264315 -18.34288,16.924968 z"
       inkscape:transform-center-x="-0.31820459"
       inkscape:transform-center-y="-3.2849817" />
  </g>
</svg>
