<svg height="512" viewBox="0 0 60 60" width="512" xmlns="http://www.w3.org/2000/svg"><g id="045---Cloning"><path id="Shape" d="m37.2 46.2c2.07-5.17-.28-9.9-4.36-11.45-3.61-1.36-7.41-.89-10.9-1.13-2.77-.19-3.45-.78-5-2.56-.8699138-1.0723478-1.8787848-2.0240494-3-2.83-1.86-1.29-4.92-2.62-7.25-2.11-2.69.61-3.79 3.21-3.03 4.88-2 1.24-4 3.37-3.61 5.39.44 2.29 1.92 3.45 4.47 3.2.49 3.31 2.06 7.23 4.89 9 .2235748.7972666.56033643 1.5583479 1 2.26.55.75 1.13 3.75.72 6.58-.1014317.6345759.0770945 1.2819696.4894395 1.7748658.412345.4928961 1.0180452.7829264 1.6605605.7951342h2c1.1371894-.0004602 2.0866192-.8675194 2.19-2 .1758701-2.2908519.6706438-4.5459428 1.47-6.7 2.5683861.4349051 5.1916139.4349051 7.76 0 .1680373.0998522.3416549.1899998.52.27 2.71 1.16 3.82 3 3.6 6-.0618529.6180222.1392159 1.2335451.55398 1.6958739.4147642.4623288 1.0049333.7287822 1.62602.7341261h2.15c.6256573-.005086 1.2201203-.2739519 1.6370965-.7404321.4169761-.4664802.6177467-1.0872591.5529035-1.7095679-.14-1.37-.28-4.58.35-5.78.74-1.45.1-3.2-.44-4.39-.1808918-.3690484-.1990242-.7969721-.05-1.18zm-34.45-8.84c-.4229966-.3337923-.69341138-.8241444-.75-1.36-.21-1.09 2.17-3.38 4.12-4 1-.25 1.57-.58 2.21.17.67637917 1.0138539.9177395 2.2566795.67 3.45-.17 1.28-1.83 1.38-3.41 1.75-.46.07-2 .55-2.84-.01zm12.49 20.64c-2.08 0-2 0-2.1-.07s0-.17.08-1.91h2.45c-.09.62-.17 1.23-.23 1.8-.0103084.1025803-.0969044.1805166-.2.18zm12.76-8.27-.15-.08c-.1477462-.2107729-.3754607-.3517391-.63-.39-1.78-1.4-1.34-4-1.32-4.17.0643078-.3572656-.0668683-.7217004-.3441154-.9560254-.2772472-.234325-.658445-.3029406-1-.18s-.5915768.4187598-.6558846.7760254c-.2788318 1.6504694.03274 3.3464118.88 4.79-1.57328.1666225-3.1605939.1498433-4.73-.05 2-2.72 1.26-4.58 1.17-4.8-.2167142-.4568469-.7403518-.6800367-1.22-.52-.5110673.1960218-.7695668.7665034-.58 1.28 0 0 .4 1.26-1.28 3.31-1.0948868 1.5727724-1.8259026 3.3695681-2.14 5.26h-2.82c-.0327349-1.5118702-.4380499-2.9923001-1.18-4.31-.53-.72-1.31-4-1.7-6.1-.0994113-.5522847-.62771525-.9194113-1.18-.82s-.91941125.6277153-.82 1.18c0 .17.09.47.17.85-1.04881366-1.7000244-1.73009419-3.6007971-2-5.58 2.15-.46 4.15-1 4.51-3.29.3515245-1.7751381-.0624408-3.6161943-1.14-5.07-1.71-2-3.76-.81-4.4-.78-.17-.71.44-1.72 1.72-2 1.22490154-.1421809 2.46437778.084128 3.56.65 3.87 1.66 4.45 3.81 6.42 5.38s4.83 1.56 7.76 1.6c5.1.06 9.68.29 10.91 5.29.329513 1.5116141.1647535 3.0890982-.47 4.5-.3608844.8855711-.3391657 1.8810118.06 2.75.21.47.87 1.9.49 2.64-.4249617.9827493-.6526102 2.0394459-.67 3.11h-2.88c-.7636741-1.9822911-2.3455543-3.5386571-4.34-4.27zm7.29 8.2c-.09.1 0 .07-2.29.07-.0584432-.0050696-.1124414-.0332704-.1499964-.0783364-.0375549-.0450659-.055556-.1032642-.0500036-.1616636.0505558-.5788983.0505558-1.1611017 0-1.74h2.4c.06 1.77.19 1.76.06 1.91z"/><path id="Shape" d="m7 35c.55228475 0 1-.4477153 1-1s-.44771525-1-1-1-1 .4477153-1 1 .44771525 1 1 1z"/><path id="Shape" d="m29 9c.5522847 0 1-.44771525 1-1s-.4477153-1-1-1-1 .44771525-1 1 .4477153 1 1 1z"/><path id="Shape" d="m13.49 16.86c.4749776.2815765 1.088281.1248931 1.37-.35l3-5c.1494798-.251555.1812792-.5559604.0870164-.8329778-.0942629-.2770174-.3051291-.498849-.5770164-.6070222l-5-2c-.5136248-.20434535-1.0956546.04637519-1.3.56000001-.2043453.51362481.0463752 1.09565463.56 1.29999999l1.92.77c-2.78 1.03-6.55 3.65-6.55 10.3 0 .5522847.44771525 1 1 1s1-.4477153 1-1c0-6 3.41-8 6.06-8.7l-1.92 3.19c-.2815765.4749776-.1248931 1.088281.35 1.37z"/><path id="Shape" d="m52 38c-.5522847 0-1 .4477153-1 1 0 6-3.41 8-6.06 8.7l1.92-3.19c.2111896-.4672916.0346812-1.0186013-.408637-1.2763444-.4433181-.2577431-1.0097539-.1383777-1.311363.2763444l-3 5c-.1494798.251555-.1812792.5559604-.0870164.8329778.0942629.2770174.3051291.498849.5770164.6070222 5.43 2.16 5.1 2.05 5.37 2.05.480605.0011766.8940741-.339705.9845632-.8117159.0904892-.4720108-.1675978-.9416363-.6145632-1.1182841l-1.92-.77c2.78-1.03 6.55-3.65 6.55-10.3 0-.5522847-.4477153-1-1-1z"/><path id="Shape" d="m59.2 20.2c2.07-5.17-.28-9.9-4.36-11.45-3.61-1.36-7.41-.89-10.9-1.13-2.87-.2-3.52-.87-4.95-2.55-1.4312566-1.83867574-3.311535-3.27815632-5.46-4.18-1.4755548-.74422388-3.1453811-1.01321265-4.78-.77-2.68.59-3.88 3.15-3.09 4.88-2 1.24-4 3.37-3.61 5.39.45 2.31 1.94 3.45 4.47 3.2.49 3.31 2.06 7.23 4.89 9.05.2235748.7972666.5603364 1.5583479 1 2.26.55.75 1.13 3.75.72 6.58-.0856379.6267301.1001453 1.2602299.5107041 1.7414429.4105587.4812131 1.0068996.7644355 1.6392959.7785571h2c1.1371894-.0004602 2.0866192-.8675194 2.19-2 .1758701-2.2908519.6706438-4.5459428 1.47-6.7 2.5682578.4364289 5.1917422.4364289 7.76 0 .1680373.0998522.3416549.1899998.52.27 2.71 1.16 3.82 3 3.6 6.05-.0470817.6097997.1606519 1.211844.5737632 1.6628555.4131114.4510115.9946567.7106569 1.6062368.7171445h2.15c.624954-.0047856 1.2186627-.273955 1.6341082-.7408548.4154455-.4668997.6137804-1.0878711.5458918-1.7091452-.13-1.36-.27-4.57.36-5.78.73-1.43.15-3.1-.44-4.38-.1813763-.3724666-.1994924-.8036314-.05-1.19zm-34.45-8.84c-.4229966-.3337923-.6934114-.8241444-.75-1.36-.21-1.09 2.17-3.38 4.12-4 1-.25 1.57-.58 2.21.17.6763792 1.01385395.9177395 2.25667953.67 3.45-.19 1.28-1.85 1.36-3.43 1.75-.44.07-1.98.55-2.82-.01zm12.49 20.64c-2.08 0-2 0-2.1-.07s0-.17.08-1.91h2.45c-.09.62-.17 1.23-.23 1.8-.0103084.1025803-.0969044.1805166-.2.18zm12.76-8.27-.15-.08c-.1499057-.2037331-.3714475-.34309-.62-.39-1.78-1.4-1.35-4-1.33-4.17.0643078-.3572656-.0668683-.7217004-.3441154-.9560254-.2772472-.234325-.658445-.3029406-1-.18s-.5915768.4187598-.6558846.7760254c-.2788318 1.6504694.03274 3.3464118.88 4.79-1.5732757.166713-3.1606001.1499336-4.73-.05 2-2.72 1.26-4.58 1.17-4.8-.2167142-.4568469-.7403518-.6800367-1.22-.52-.5110673.1960218-.7695668.7665034-.58 1.28 0 .05.4 1.26-1.28 3.31-1.0948868 1.5727724-1.8259026 3.3695681-2.14 5.26h-2.82c-.0327349-1.5118702-.4380499-2.9923001-1.18-4.31-.53-.72-1.31-4-1.7-6.1-.0994113-.5522847-.6277153-.9194113-1.18-.82s-.9194113.6277153-.82 1.18c0 .17.09.47.17.85-1.0488137-1.7000244-1.7300942-3.6007971-2-5.58 2.15-.46 4.15-1 4.51-3.29.3515245-1.7751381-.0624408-3.61619434-1.14-5.07-1.71-2-3.77-.81-4.4-.78-.18-.65.4-1.71 1.72-2 1.2249015-.14218086 2.4643778.084128 3.56.65 6 2.57 4.3 6.42 11.07 6.88 3.54.24 7.11-.2 10.32 1 1.9171447.7142258 3.320757 2.3795928 3.7 4.39.3301731 1.5082709.1653563 3.0827979-.47 4.49-.3613758.8889255-.3396651 1.8876189.06 2.76.21.47.87 1.9.49 2.64-.4249617.9827493-.6526102 2.0394459-.67 3.11h-2.88c-.7636741-1.9822911-2.3455543-3.5386571-4.34-4.27zm7.29 8.2c-.09.1 0 .07-2.29.07-.0584432-.0050696-.1124414-.0332704-.1499964-.0783364-.0375549-.0450659-.055556-.1032642-.0500036-.1616636.0505558-.5788983.0505558-1.1611017 0-1.74h2.4c.06 1.78.19 1.76.06 1.91z"/></g></svg>