<svg enable-background="new 0 0 128 128" height="128" viewBox="0 0 128 128" width="128" xmlns="http://www.w3.org/2000/svg" xmlns:xlink="http://www.w3.org/1999/xlink"><linearGradient id="a" gradientUnits="userSpaceOnUse" x1="19.9995" x2="32.9995" y1="67.5" y2="67.5"><stop offset="0" stop-color="#d67210"/><stop offset=".5449" stop-color="#e07711"/></linearGradient><linearGradient id="b" gradientUnits="userSpaceOnUse" x1="58.1685" x2="77.6685" y1="21.7676" y2="56.2676"><stop offset="0" stop-color="#727273"/><stop offset="1" stop-color="#7f7e7f"/></linearGradient><linearGradient id="c" gradientUnits="userSpaceOnUse" x1="77.8511" x2="86.4412" y1="4.5283" y2="58.8908"><stop offset="0" stop-color="#b8b8b9"/><stop offset="1" stop-color="#bdbdbe"/></linearGradient><path d="m7 26c-.552 0-1 .448-1 1v98c0 .553.448 1 1 1h98c.553 0 1-.447 1-1v-27c0-.553-.447-1-1-1 0 0-68.057 0-70 0 0-1.943 0-70 0-70 0-.552-.448-1-1-1z" fill="#141414" opacity=".2"/><path d="m34 98v-71h-27v98h98v-27z" fill="#141414" opacity=".6"/><path d="m34 97v-71h-27v98h98v-27z" fill="#f98818"/><path d="m33 98v-71h-25v96h96v-25z" fill="#f9b471"/><g fill="#fcdab8"><path d="m8 121.5h96v1.5h-96z"/><path d="m20 40v1h13v-1zm6 6h7v-1h-7zm0 6h7v-1h-7zm0 6h7v-1h-7zm0 6h7v-1h-7zm1 11h6v-1h-7zm0 6h6v-1h-7zm0 6h6v-1h-7zm0 6h6v-1h-7zm-6-24h12v-1h-13zm0 29h12v-1h-13z"/><path d="m33 98h71v1h-71z"/></g><path d="m20 38v2h13v-2zm6 7h7v-2h-7zm0 6h7v-2h-7zm0 6h7v-2h-7zm0 6h7v-2h-7zm0 11h7v-2h-7zm0 6h7v-2h-7zm0 6h7v-2h-7zm0 6h7v-2h-7zm-6-24h13v-2h-13zm0 29h13v-2h-13z" fill="url(#a)"/><path d="m35 111h2v-14h-2zm5-6h2v-8h-2zm6 0h2v-8h-2zm6 0h2v-8h-2zm6 0h2v-8h-2zm11 0h2v-8h-2zm6 0h2v-8h-2zm6 0h2v-8h-2zm6 0h2v-8h-2zm-24 6h2v-14h-2zm29-14v14h2v-14z" fill="#e07711"/><path d="m35 112.166h2v-1.166h-2zm5-6h2v-1.166h-2zm6 0h2v-1.166h-2zm6 0h2v-1.166h-2zm6 0h2v-1.166h-2zm5 6h2v-1.166h-2zm6-6h2v-1.166h-2zm6 0h2v-1.166h-2zm12-.166h2v-1h-2zm5 5v1h2v-1z" fill="#fcdab8"/><path d="m94 97h-2v1h2zm-7 0v1h2v-1zm-6 0v1h2v-1zm-6 0v1h2v-1zm-6 0v1h2v-1zm-5 0v1h2v-1zm-6 0v1h2v-1zm-6 0v1h2v-1zm-6 0v1h2v-1zm-6 0v1h2v-1zm-5 0v1h2v-1z" fill="#e04b00"/><path d="m8 27h25v1h-25z" fill="#fcdab8"/><path d="m33 38v2h1v-2zm0 7h1v-2h-1zm0 6h1v-2h-1zm0 6h1v-2h-1zm0 6h1v-2h-1zm0 5h1v-2h-1zm0 6h1v-2h-1zm0 6h1v-2h-1zm0 6h1v-2h-1zm0 6h1v-2h-1zm0 5h1v-2h-1z" fill="#e04b00"/><path d="m8 28h1v94h-1z" fill="#fcc48d"/><path d="m54.931 15.071c-.747.317-1.218 1.055-1.218 1.844 0 .129.013.259.039.39.029.144 2.958 14.637 8.733 26.188 5.668 11.335 17.062 31.291 17.175 31.488.45.787 1.376 1.174 2.251.94.874-.231 1.485-1.026 1.485-1.933v-19.975l-.354-1.138c-.001-.001-25.684-37.102-25.684-37.102-.539-.775-1.559-1.07-2.427-.702z" opacity=".1"/><path d="m55.121 14.491c-.437.185-.683.651-.59 1.116.029.145 2.946 14.535 8.647 25.938 5.654 11.309 17.034 31.239 17.148 31.439.226.393.687.586 1.125.47s.743-.513.743-.966v-19.976c0-.204-.063-.402-.178-.569l-25.682-37.101c-.27-.389-.776-.536-1.213-.351z" opacity=".5"/><path d="m55.121 16.491c-.437.185-.683.651-.59 1.116.029.145 2.946 14.535 8.647 25.938 5.654 11.309 17.034 31.239 17.148 31.439.226.393.687.586 1.125.47s.743-.513.743-.966v-19.976c0-.204-.063-.402-.178-.569l-25.682-37.101c-.27-.389-.776-.536-1.213-.351z" opacity=".2"/><path d="m55.512 15.412 25.683 37.101v19.976s-11.415-19.976-17.122-31.391c-5.708-11.415-8.561-25.686-8.561-25.686z" fill="url(#b)"/><path d="m55.512 15.412 25.683 38.046v-.946z" fill="#949599"/><path d="m62.291 37.239c.56 1.305 1.153 2.6 1.782 3.858 5.707 11.415 17.122 31.391 17.122 31.391v-2.199c-.584-.905-11.132-17.308-16.695-28.789-.838-1.729-1.559-3.06-2.209-4.261z" fill="#949599"/><path d="m94.791 74.121-5.107 3.559c-.424.295-.553.865-.297 1.315.406.712 9.951 17.464 11.947 20.458l.188.281c1.921 2.889 4.099 6.164 9.479 6.164 4.208 0 12.166-2.486 12.166-11.898 0-9.596-6.464-13-12-13-4.387 0-7.489 2.34-8.968 3.746-1.079-1.863-5.97-10.307-5.97-10.307-.141-.241-.376-.414-.648-.475-.275-.06-.56-.003-.79.157zm13.601 14.745c2.362-1.612 5.338-1.173 7.074 1.047.815 1.042 1.166 2.426.987 3.896-.183 1.502-.894 2.838-1.95 3.665-1 .782-2.098 1.103-3.174.925-1.259-.209-2.42-1.077-3.357-2.512-2.527-3.866-1.66-5.602.42-7.021z" opacity=".2"/><path d="m80.621 3.614c-.563.233-.926.777-.926 1.386v74.5c0 .827.673 1.5 1.5 1.5h3.972c.548 0 1.051-.298 1.314-.777 0 0 1.353-2.463 1.589-2.893.154-.121 6.535-5.154 6.535-5.154.362-.287.57-.715.57-1.177 0-.014-.004-.108-.004-.122l-.27-3.326c-.372-4.536-.793-9.677-.793-11.185 0-20.476-5.871-46.444-11.854-52.426-.428-.431-1.071-.559-1.633-.326z" fill="#333" opacity=".2"/><path d="m92.351 69.238-5.098 4.342c-.213.181-.34.442-.351.721s.095.551.292.748l3.25 2.876c.353.353 5.621-2.874 5.404-3.306l-1.955-5.066c-.138-.275-.395-.471-.695-.533-.3-.061-.612.019-.847.218z" fill="#141414" opacity=".5"/><path d="m93 70 1.959 4.237-4.204 2.958-2.853-2.853z" fill="#999"/><path d="m80.804 3.076c-.369.155-.609.52-.609.924v74.5c0 .553.442 1 .987 1h3.922c.36 0 .692-.199.866-.519 0 0 1.444-2.664 1.617-2.98.299-.24 6.531-5.218 6.531-5.218.238-.191.375-.48.375-.784 0-.026 0-.054-.003-.081l-.267-3.326c-.367-4.547-.783-9.701-.783-11.226 0-20.372-5.727-46.165-11.561-52.073-.281-.286-.706-.372-1.075-.217z" fill="#333" opacity=".4"/><path d="m93.675 69.998c-.41-5.152-1.066-12.673-1.066-14.632 0-19.976-5.707-45.659-11.414-51.366v5.707 68.793h3.972l1.735-3.158z" fill="url(#c)"/><path d="m89.755 61.073h-8.56v33.573l1.305-32.373z" fill="#aba9ab"/><path d="m80.195 79.208v12.075c-1.264-3.047-17.122-2.092-17.122 14.117 0 13.267 8.8 19.453 14.269 19.453 2.854 0 8.561-2.254 8.561-9.054 0-2.854 0-36.592 0-36.592h-5.708zm-.195 36.292c0 1.5-1.188 3.45-3.05 3.45-2.784 0-7.95-5.616-7.95-12.171 0-12.603 11-10.496 11-9.279z" opacity=".2"/><path d="m80.195 78.208c-.553 0-1 .448-1 1v10.272c-1.518-.479-3.732-.503-5.658-.119-2.713.54-11.465 3.293-11.464 16.039 0 13.346 8.867 20.453 15.269 20.453 3.119 0 9.561-2.457 9.561-10.054v-36.591c0-.552-.447-1-1-1zm-10.195 28.571c0-4.337 1.393-7.296 4.025-8.559 2.191-1.049 4.379-.601 4.975-.301v17.58c0 .999-.799 2.45-2.05 2.45-1.959.001-6.95-4.953-6.95-11.17z" opacity=".2"/><path d="m80.195 78.208v12.075c-1.264-3.047-17.122-2.092-17.122 14.117 0 13.267 8.8 19.453 14.269 19.453 2.854 0 8.561-2.254 8.561-9.054 0-2.854 0-36.592 0-36.592h-5.708zm-.195 36.292c0 1.5-1.188 3.45-3.05 3.45-2.784 0-7.95-5.616-7.95-12.171 0-12.603 11-10.496 11-9.279z" fill="#292929"/><path d="m81.743 79.208v11.159c0 .461-.344.818-.802.932-.459.112-.959-.139-1.184-.546l.025.046c-.391-.479-3.58-1.194-7.318.083-3.172 1.083-8.393 4.306-8.392 13.71 0 13.141 8.918 18.595 13.692 18.595 2.546 0 7.803-1.983 7.803-8.115 0 0 0-33.956 0-35.863-1.105-.001-2.719-.001-3.824-.001zm-13.618 26.774c0-8.333 4.809-11.303 9.309-11.303 1.525 0 4.107.411 4.107 1.951v18.139c0 2.121-1.716 4.484-4.179 4.484-3.48.001-9.237-6.202-9.237-13.271z"/><path d="m111.166 82c-5.707 0-9.166 4.398-9.166 4.398l-6.637-11.457-5.108 3.559s9.91 17.398 11.91 20.398 3.834 6 8.834 6c3 0 11.166-1.697 11.166-10.898.001-8.25-5.165-12-10.999-12zm3.955 16.262c-2.55 1.994-5.795 1.524-7.986-1.828-2.744-4.197-1.98-6.568.693-8.394 2.719-1.854 6.321-1.433 8.426 1.257 2.105 2.688 1.415 6.969-1.133 8.965z" opacity=".2"/><path d="m111.166 81c-5.707 0-9.166 4.398-9.166 4.398l-6.637-11.457-5.108 3.559s9.91 17.398 11.91 20.398 3.834 6 8.834 6c3 0 11.166-1.697 11.166-10.898.001-8.25-5.165-12-10.999-12zm3.955 16.262c-2.55 1.994-5.795 1.524-7.986-1.828-2.744-4.197-1.98-6.568.693-8.394 2.719-1.854 6.321-1.433 8.426 1.257 2.105 2.688 1.415 6.969-1.133 8.965z" fill="#292929"/><path d="m91.777 77.498c1.96 3.433 9.706 16.973 11.422 19.546l.188.282c1.881 2.829 3.506 5.272 7.813 5.272.415 0 10.167-.112 10.167-9.899 0-8.109-5.166-11-10-11-5.131 0-8.351 3.979-8.383 4.02-.205.259-.526.4-.856.377-.33-.025-.628-.209-.793-.496 0 0-5.174-8.932-6.093-10.517-.998.696-2.597 1.81-3.465 2.415zm19.426 21.572c-1.825-.301-3.452-1.474-4.705-3.39-2.809-4.297-2.502-7.399.967-9.767 3.207-2.189 7.41-1.559 9.777 1.467 1.145 1.462 1.641 3.369 1.397 5.369-.247 2.025-1.231 3.847-2.702 4.998-1.433 1.122-3.113 1.592-4.734 1.323z"/><path d="m82.09 60.273 7.665.8h-8.56z" fill="#f8f9f8"/><path d="m81.195 61.073v-56.573l.349.773.729 54.909z" fill="#d2d6de"/><circle cx="87.028" cy="67.307" fill="#f8f9f8" r="1.427"/><circle cx="87.829" cy="68.007" fill="#727375" r="1.427"/></svg>