<svg height="800" viewBox="0 0 24 24" width="800" xmlns="http://www.w3.org/2000/svg"><path d="m3 23h18v-16.291l-5.71-5.709h-12.29zm12-21h.2l4.8 4.8v.2h-5zm-11 0h10v6h6v14h-16z"/><path d="m0 0h24v24h-24z" fill="none"/><g transform="matrix(.46383887 0 0 .46383887 7.777435 9.630711)"><path d="m11.7 9.989-.896-.766 1.349-8.977 1.847 1.847v9.861l-1-.854v-8.593l-.153-.153zm2.536 3.482 1.523 1.302a2.806 2.806 0 0 1 1.325-.688 4.34 4.34 0 0 1 4.555 2.08 2.473 2.473 0 0 1 -1.722 3.75 3.746 3.746 0 0 1 -.806.087 4.368 4.368 0 0 1 -3.75-2.166 2.59 2.59 0 0 1 -.18-2.242l-1.654-1.414-1.527 1.527v1.508a3.5 3.5 0 0 1 2 3.285 3.283 3.283 0 0 1 -3 3.5 3.283 3.283 0 0 1 -3-3.5 3.283 3.283 0 0 1 3-3.5v-1.293l-9-9v-3.692zm-3.236 4.529a2.295 2.295 0 0 0 -2 2.5 2.295 2.295 0 0 0 2 2.5 2.295 2.295 0 0 0 2-2.5 2.295 2.295 0 0 0 -2-2.5zm1.764-4.471-9.764-8.344v1.108l8.5 8.5zm3.477 3.832a3.384 3.384 0 0 0 3.459 1.577 1.48 1.48 0 0 0 1.06-2.3 3.391 3.391 0 0 0 -3.46-1.576 1.48 1.48 0 0 0 -1.06 2.3z"/><path d="m0 0h24v24h-24z" fill="none"/></g></svg>