<svg height="800" viewBox="0 0 24 24" width="800" xmlns="http://www.w3.org/2000/svg"><g transform="translate(0 -1028.4)"><path d="m22 12c0 5.523-4.477 10-10 10-5.5228 0-10-4.477-10-10 0-5.5228 4.4772-10 10-10 5.523 0 10 4.4772 10 10z" fill="#c0392b" transform="translate(0 1029.4)"/><path d="m22 12c0 5.523-4.477 10-10 10-5.5228 0-10-4.477-10-10 0-5.5228 4.4772-10 10-10 5.523 0 10 4.4772 10 10z" fill="#e74c3c" transform="translate(0 1028.4)"/><path d="m6 1039.4h12v4h-12z" fill="#c0392b"/><path d="m6 1039.4h12v3h-12z" fill="#ecf0f1"/></g></svg>