<svg height="32" viewBox="0 0 32 32" width="32" xmlns="http://www.w3.org/2000/svg"><g fill="#4d4d4d"><path d="m6 4v24h9v-1h-8v-22h11v7h7v3h1v-3-1l-7-7h-1z"/><path d="m11.5 2c-.828427 0-1.5.6715728-1.5 1.5s.671573 1.5 1.5 1.5 1.5-.6715728 1.5-1.5-.671573-1.5-1.5-1.5zm-3 3c-.2761424 0-.5.2238576-.5.5s.2238576.5.5.5.5-.2238576.5-.5-.2238576-.5-.5-.5zm-2 1c-.2761424 0-.5.2238576-.5.5s.2238576.5.5.5.5-.2238576.5-.5-.2238576-.5-.5-.5zm-3 1c-.8284271 0-1.5.6715728-1.5 1.5s.6715729 1.5 1.5 1.5 1.5-.6715728 1.5-1.5-.6715729-1.5-1.5-1.5zm3 3c-.2761424 0-.5.223858-.5.5s.2238576.5.5.5.5-.223858.5-.5-.2238576-.5-.5-.5zm2 1c-.2761424 0-.5.223858-.5.5s.2238576.5.5.5.5-.223858.5-.5-.2238576-.5-.5-.5zm3 0c-.828427 0-1.5.671573-1.5 1.5s.671573 1.5 1.5 1.5 1.5-.671573 1.5-1.5-.671573-1.5-1.5-1.5z" transform="matrix(.999999975 0 0 1.00000003166 13.0000005 13.99999959942)"/></g></svg>