<svg height="800" viewBox="0 0 506 506" width="800" xmlns="http://www.w3.org/2000/svg"><path d="m193 215.7c-.8-.8-.8-2 0-2.8s2-.8 2.8 0l150 150 140-140c9.2-9.2 14.4-21.6 14.4-35.2s-5.2-25.6-14.4-35.2l-106-105.6c-9.2-9.2-21.6-14.4-35.2-14.4s-25.6 5.2-35.2 14.4l-289.2 288.8c-19.2 19.6-19.2 51.2 0 70.4l67.6 67.6h147.6l107.6-107.6z" fill="#df5c4e"/><path d="m193 215.7c-.8-.8-.8-2 0-2.8s2-.8 2.8 0l150 150 140-140c9.2-9.2 14.4-21.6 14.4-35.2s-5.2-25.6-14.4-35.2l-106-105.6c-9.2-9.2-21.6-14.4-35.2-14.4s-25.6 5.2-35.2 14.4l-142.8 142.8 176 176z" fill="#33a5d2"/><path d="m168.2 191.3-156.8 157.2c-6.8 13.2-7.2 29.2-.8 43.2l179.2-179.2z" fill="#e36d60"/><path d="m189.4 212.5 176-175.6c-6.4-2.8-13.6-4.4-20.8-4.4-8 0-15.6 2-22.4 5.6l-154 153.2z" fill="#73badd"/><path d="m236.2 479.7h-149.6c-1.2 0-2-.4-2.8-1.2l-67.6-68c-21.6-21.6-21.6-57.2 0-78.8l2.8 2.8-2.8-2.8 289.2-289.2c21.6-21.6 56.8-21.6 78.4 0l106 106c21.6 21.6 21.6 57.2 0 78.8l-250.8 251.2c-.8.8-1.6 1.2-2.8 1.2zm-148-8h146.4l249.6-250c8.8-8.8 14-20.8 14-33.6s-4.8-24.8-14-33.6l-106-106c-18.4-18.4-48.8-18.4-67.2 0l-289.2 289.2c-18.4 18.4-18.4 49.2 0 67.6z"/><path d="m365 479.7h-276c-2.4 0-4-1.6-4-4s1.6-4 4-4h276c2.4 0 4 1.6 4 4s-1.6 4-4 4z"/><path d="m345 368.9c-1.2 0-2-.4-2.8-1.2l-150.8-150.4c-1.6-1.6-1.6-4 0-5.6s4-1.6 5.6 0l150.8 150.4c1.6 1.6 1.6 4 0 5.6-.8.8-1.6 1.2-2.8 1.2z"/><path d="m445 463.7h-192c-2.4 0-4-1.6-4-4s1.6-4 4-4h192c2.4 0 4 1.6 4 4s-1.6 4-4 4z"/></svg>