<svg viewBox="0 0 58.707 58.707" xmlns="http://www.w3.org/2000/svg"><path d="m46.072 14-14-14h-31v58h45z" fill="#efebde"/><g fill="#d5d0bb"><path d="m11.072 23h25c.552 0 1-.447 1-1s-.448-1-1-1h-25c-.552 0-1 .447-1 1s.448 1 1 1z"/><path d="m11.072 15h10c.552 0 1-.447 1-1s-.448-1-1-1h-10c-.552 0-1 .447-1 1s.448 1 1 1z"/><path d="m36.072 29h-25c-.552 0-1 .447-1 1s.448 1 1 1h25c.552 0 1-.447 1-1s-.448-1-1-1z"/><path d="m36.072 37h-25c-.552 0-1 .447-1 1s.448 1 1 1h25c.552 0 1-.447 1-1s-.448-1-1-1z"/><path d="m36.072 45h-25c-.552 0-1 .447-1 1s.448 1 1 1h25c.552 0 1-.447 1-1s-.448-1-1-1z"/><path d="m32.072 0v14h14z"/></g><path d="m36.201 49.214-.007.008-1.989 7.289 4.647-4.646z" fill="#eddcc7"/><path d="m55.451 35.266-1.247-1.247c-.775-.775-2.032-.775-2.807 0l-3.582 3.581 2.651 2.651z" fill="#d75a4a"/><path d="m41.459 36.521h3.749v16.424h-3.749z" fill="#f29c21" transform="matrix(.7071 .7071 -.7071 .7071 44.3228 -17.5395)"/><path d="m41.85 54.879.008-.008-3.006-3.006-4.647 4.646-.133.489z" fill="#d6c4b1"/><path d="m53.472 43.257 3.582-3.582c.775-.775.775-2.032 0-2.807l-1.602-1.602-4.985 4.985z" fill="#a34740"/><path d="m44.036 39.349h4.251v16.424h-4.251z" fill="#e18c25" transform="matrix(-.7071 -.7071 .7071 -.7071 45.1717 113.8333)"/><path d="m33.365 58.707c-.256 0-.512-.098-.707-.293-.391-.391-.391-1.023 0-1.414l2.207-2.207c.391-.391 1.023-.391 1.414 0s.391 1.023 0 1.414l-2.207 2.207c-.195.195-.451.293-.707.293z" fill="#5e5e5e"/></svg>