<?xml version="1.0" encoding="UTF-8" standalone="no"?>
<!-- Created with Inkscape (http://www.inkscape.org/) -->

<svg
   xmlns:dc="http://purl.org/dc/elements/1.1/"
   xmlns:cc="http://creativecommons.org/ns#"
   xmlns:rdf="http://www.w3.org/1999/02/22-rdf-syntax-ns#"
   xmlns:svg="http://www.w3.org/2000/svg"
   xmlns="http://www.w3.org/2000/svg"
   xmlns:sodipodi="http://sodipodi.sourceforge.net/DTD/sodipodi-0.dtd"
   xmlns:inkscape="http://www.inkscape.org/namespaces/inkscape"
   width="128px"
   height="128px"
   viewBox="0 0 128 128"
   version="1.1"
   id="SVGRoot"
   inkscape:version="0.92.3 (2405546, 2018-03-11)"
   sodipodi:docname="fogofwar.svg">
  <sodipodi:namedview
     id="base"
     pagecolor="#ffffff"
     bordercolor="#666666"
     borderopacity="1.0"
     inkscape:pageopacity="0.0"
     inkscape:pageshadow="2"
     inkscape:zoom="5.6568542"
     inkscape:cx="57.841424"
     inkscape:cy="90.491677"
     inkscape:document-units="px"
     inkscape:current-layer="layer1"
     showgrid="false"
     inkscape:window-width="2560"
     inkscape:window-height="1440"
     inkscape:window-x="2560"
     inkscape:window-y="0"
     inkscape:window-maximized="1"
     inkscape:grid-bbox="true" />
  <defs
     id="defs3119" />
  <metadata
     id="metadata3122">
    <rdf:RDF>
      <cc:Work
         rdf:about="">
        <dc:format>image/svg+xml</dc:format>
        <dc:type
           rdf:resource="http://purl.org/dc/dcmitype/StillImage" />
        <dc:title></dc:title>
      </cc:Work>
    </rdf:RDF>
  </metadata>
  <g
     id="layer1"
     inkscape:groupmode="layer"
     inkscape:label="Layer 1">
    <g
       id="g3826"
       transform="translate(1.0606598,0.35355322)">
      <path
         style="fill:#d0d0d0;fill-opacity:1;stroke-width:0.24316406"
         d="M 85.778683,108.98433 C 80.760974,108.30023 74.44691,106.41374 65.101074,102.80637 50.640548,97.224799 42.500597,95.435325 35.74902,96.353666 c -5.638753,0.766974 -9.091476,2.616477 -13.931149,7.462434 -1.923092,1.92559 -2.68226,2.51946 -3.629987,2.83962 -3.52639,1.19129 -7.055039,-0.32122 -8.5945308,-3.68391 -0.4976359,-1.08698 -0.5774672,-1.57608 -0.4963608,-3.04103 0.057325,-1.035408 0.2860088,-2.141486 0.5620297,-2.718378 0.6801219,-1.421478 5.6557689,-6.404428 8.2321359,-8.244219 3.871625,-2.764739 8.363336,-4.738847 13.166947,-5.786877 2.79495,-0.60979 10.447248,-0.868266 13.622674,-0.460144 6.91757,0.889085 13.023388,2.620676 23.459846,6.653146 2.607935,1.00766 6.008353,2.277737 7.556484,2.822393 11.218094,3.946699 17.67491,4.396112 23.446934,1.631983 2.404767,-1.151605 3.721157,-2.16904 7.050517,-5.449328 3.25994,-3.211896 4.14389,-3.691787 6.79236,-3.687527 3.86426,0.0062 6.98793,3.452618 6.637,7.322728 -0.18698,2.062077 -0.87242,3.245029 -3.4849,6.014398 -5.12148,5.429045 -10.60972,8.796235 -16.962962,10.407235 -2.131584,0.54051 -3.086394,0.63511 -7.083773,0.70187 -2.541064,0.0424 -5.382186,-0.0267 -6.313602,-0.15373 z M 85.26187,77.773964 C 79.73657,76.870216 74.298614,75.228346 65.101074,71.686855 56.267901,68.285666 51.381464,66.750141 46.012695,65.688482 42.077642,64.910335 35.861882,64.909868 33.003418,65.687509 c -4.221712,1.148501 -7.293339,3.065468 -11.160264,6.964992 -2.056367,2.073703 -2.670487,2.548282 -3.766873,2.910961 -1.625442,0.53768 -3.877523,0.407601 -5.273562,-0.304604 -1.31215,-0.669411 -2.8494329,-2.382461 -3.3764953,-3.762553 -0.5380569,-1.408883 -0.4302903,-4.005817 0.2244567,-5.408903 0.7334816,-1.57181 6.4191046,-7.062415 9.2645756,-8.946798 5.819804,-3.854104 11.10102,-5.459957 18.721991,-5.692772 9.331248,-0.285064 15.417069,1.086335 30.989706,6.983321 13.381384,5.067213 18.296165,6.319061 23.562807,6.001708 5.5134,-0.332221 8.95643,-2.0999 14.12762,-7.253234 1.40428,-1.399424 2.99092,-2.753405 3.52588,-3.008847 1.5279,-0.729567 4.12501,-0.780532 5.68029,-0.111471 2.63151,1.132048 4.35651,4.005484 4.10037,6.830248 -0.20324,2.241381 -0.91786,3.369862 -4.28399,6.765006 -5.20791,5.252794 -9.87933,8.038756 -16.195887,9.658968 -2.119236,0.543591 -3.040827,0.633902 -7.17334,0.702956 -3.144607,0.05255 -5.404265,-0.02914 -6.708833,-0.242523 z M 84.866736,46.621956 C 79.620077,45.805005 74.559801,44.255501 64.521293,40.391988 51.922922,35.543263 45.861245,34.025747 39.08252,34.023497 c -2.931402,-9.72e-4 -4.067615,0.102691 -5.787633,0.528043 -4.319584,1.068215 -7.436917,2.940043 -11.023134,6.618933 -3.008952,3.086708 -3.797808,3.519263 -6.411401,3.515574 -1.647328,-0.0024 -2.264338,-0.10903 -3.039551,-0.52566 C 10.427912,42.87436 9.0580565,40.626685 9.0541333,37.98 c -0.00374,-2.526696 0.8266948,-3.916743 4.4388787,-7.430104 5.471338,-5.321654 10.997562,-8.295155 18.107374,-9.743053 3.062306,-0.623632 12.290452,-0.608815 15.744693,0.02528 5.990091,1.099603 11.831517,2.839998 19.458144,5.797361 13.699707,5.31231 18.334643,6.584185 24.073242,6.605948 6.404479,0.02429 9.982615,-1.632411 15.258025,-7.064568 2.98216,-3.070766 4.12814,-3.725481 6.52711,-3.729037 3.03216,-0.0045 5.77539,1.999549 6.55756,4.790587 0.37662,1.343893 0.19436,3.846583 -0.36454,5.005644 -0.24482,0.507717 -1.20667,1.766091 -2.13744,2.796387 -5.82628,6.449268 -12.42567,10.31375 -19.81269,11.601939 -2.592003,0.452008 -9.092228,0.444217 -12.037754,-0.01442 z"
         id="path3842"
         inkscape:connector-curvature="0" />
      <path
         style="fill:#b9b9b9;fill-opacity:1;stroke-width:0.24316406"
         d="m 86.864258,109.08005 c -5.399363,-0.57823 -12.044463,-2.52924 -22.857422,-6.71096 -12.242438,-4.73454 -19.49111,-6.454926 -26.018555,-6.175183 -6.608007,0.283196 -10.83282,2.235069 -15.927078,7.358353 -2.149321,2.16156 -2.913193,2.77282 -3.874404,3.10034 -2.542255,0.86623 -5.326624,0.2425 -7.123878,-1.59583 -1.4065036,-1.43865 -1.9998021,-2.86154 -2.0034473,-4.80482 -0.00443,-2.360925 0.6978139,-3.639098 3.6926393,-6.721083 3.142187,-3.233635 5.831148,-5.261677 9.416682,-7.102154 5.406333,-2.775107 9.143709,-3.687629 15.828328,-3.864655 8.700694,-0.230417 15.78391,1.335596 29.03135,6.418474 14.505381,5.565536 19.639255,6.899143 25.306976,6.573894 4.135754,-0.237333 7.417039,-1.556846 10.962671,-4.408448 1.05876,-0.851519 2.60765,-2.315588 3.44196,-3.253481 1.07583,-1.209392 1.95332,-1.923326 3.0176,-2.455155 5.96238,-2.979438 12.1079,3.249795 9.08716,9.210943 -0.82472,1.627504 -5.84964,6.674685 -8.51525,8.552975 -4.17397,2.94114 -8.76678,4.87025 -13.477665,5.66101 -2.109441,0.35409 -7.590449,0.4725 -9.987667,0.21578 z m 0,-31.125001 C 81.482116,77.378662 74.999508,75.477671 64.006836,71.252234 51.456939,66.428219 44.465802,64.775029 37.866699,65.070891 c -3.409649,0.152868 -5.952671,0.749938 -8.753906,2.055311 -2.576211,1.20051 -4.615101,2.748741 -7.416504,5.631721 -1.856926,1.910999 -2.545122,2.455818 -3.508405,2.777476 -2.55948,0.854653 -5.331595,0.230728 -7.124963,-1.603631 -1.4065036,-1.438651 -1.9998021,-2.861543 -2.0034473,-4.804815 -0.00437,-2.330462 0.7029989,-3.638359 3.5692163,-6.599329 5.471979,-5.652872 11.129116,-8.843743 18.550997,-10.463573 3.280989,-0.71608 9.988832,-0.87737 14.103516,-0.339124 7.303075,0.955326 11.00544,2.064178 26.82282,8.033394 9.631147,3.634634 13.688028,4.627823 18.892024,4.625063 3.012902,-0.0017 3.79032,-0.08463 5.343477,-0.570718 3.736946,-1.169546 6.172276,-2.767769 9.754656,-6.401637 3.27309,-3.320123 4.48796,-3.96442 7.15279,-3.793401 1.33611,0.08575 2.04087,0.271855 2.87044,0.758016 3.31738,1.944113 4.46594,5.891568 2.67826,9.204824 -0.89253,1.654197 -5.93007,6.709415 -8.46808,8.497792 -4.17397,2.94114 -8.76678,4.870252 -13.477665,5.661012 -2.109441,0.354088 -7.590449,0.472502 -9.987667,0.215777 z M 86.499512,46.83303 C 80.647846,46.086015 75.073104,44.445808 64.493164,40.358296 50.482651,34.945395 42.303928,33.174962 35.678223,34.120777 c -5.617474,0.801895 -9.202556,2.705152 -13.73877,7.293677 -2.047578,2.071192 -2.790545,2.663211 -3.751569,2.989379 -4.519474,1.533891 -9.1313752,-1.699449 -9.1313752,-6.40188 0,-2.329059 0.7090916,-3.640309 3.5721812,-6.605659 5.254432,-5.442103 11.261149,-8.848261 18.429415,-10.450553 3.175035,-0.709702 10.16009,-0.880027 14.225098,-0.346867 7.300748,0.957552 10.99194,2.062245 26.748047,8.005107 9.658241,3.642877 13.745362,4.645226 18.966797,4.651517 3.028234,0.0036 3.782417,-0.07627 5.343477,-0.566218 3.775876,-1.185086 6.205216,-2.788097 9.854276,-6.5024 1.47114,-1.497445 3.05779,-2.916139 3.52588,-3.152655 0.47113,-0.238049 1.62601,-0.4803 2.5869,-0.542637 1.47659,-0.09579 1.93075,-0.02337 3.04103,0.484931 3.58722,1.642283 5.10836,5.667353 3.47286,9.189497 -0.77954,1.67879 -6.09433,7.027862 -9.00277,9.060847 -3.85219,2.692655 -8.54754,4.643023 -12.967775,5.386585 -2.110311,0.354993 -8.268495,0.485611 -10.352413,0.219582 z"
         id="path3840"
         inkscape:connector-curvature="0" />
      <path
         style="fill:#a3a3a3;fill-opacity:1;stroke-width:0.24316406"
         d="m 87.229004,109.08654 c -6.505745,-0.7992 -11.084252,-2.1199 -22.857422,-6.59335 -10.198799,-3.875231 -14.634202,-5.187286 -20.415829,-6.039287 -3.531928,-0.520478 -8.443174,-0.351087 -11.165894,0.385118 -4.086095,1.104853 -7.94405,3.546749 -11.002516,6.964049 -1.903383,2.12669 -3.40881,3.00848 -5.452583,3.19381 -2.594694,0.23528 -5.065638,-1.11289 -6.4944326,-3.54342 -0.5868604,-0.99831 -0.6666372,-1.38291 -0.6640698,-3.20151 0.00393,-2.782134 0.4347532,-3.536164 4.1036564,-7.182183 5.340822,-5.307513 10.863494,-8.355883 17.851384,-9.853501 3.05782,-0.65534 9.628441,-0.896388 13.187704,-0.483802 7.178679,0.832146 12.443923,2.342492 25.280607,7.251799 6.746432,2.580129 11.617647,4.180039 15.10212,4.960168 3.314699,0.742117 8.951791,0.798154 11.398608,0.113307 3.513112,-0.983293 6.236583,-2.744357 9.926833,-6.418938 3.0925,-3.079369 4.12205,-3.718429 6.26803,-3.890686 2.81173,-0.2257 5.30754,1.164936 6.59898,3.676862 0.84878,1.650931 0.91357,4.110876 0.15209,5.77441 -0.67106,1.466014 -3.44972,4.60069 -6.0535,6.829124 -6.67935,5.71647 -13.522912,8.27676 -21.873141,8.1831 -1.738623,-0.0195 -3.489404,-0.0758 -3.890625,-0.12507 z M 87.107422,77.954117 C 82.224785,77.425873 75.637375,75.62728 68.140625,72.775523 55.904001,68.120721 52.485696,67.004004 46.745743,65.786093 c -2.6322,-0.558504 -3.634121,-0.647062 -7.420059,-0.655852 -3.53047,-0.0082 -4.702171,0.0775 -6.058564,0.443098 -4.432682,1.194787 -7.412167,2.990872 -10.962921,6.608645 -1.337402,1.362645 -2.910655,2.719279 -3.496116,3.01474 -3.183066,1.606379 -7.067713,0.363905 -8.9677556,-2.868263 -0.5868604,-0.998308 -0.6666372,-1.382915 -0.6640698,-3.201508 0.00393,-2.782137 0.4347532,-3.536167 4.1036564,-7.182186 5.366944,-5.333471 10.798216,-8.322193 17.975541,-9.891586 2.154592,-0.47112 3.190466,-0.541504 7.948647,-0.540067 4.598687,0.0015 5.945281,0.08796 8.444056,0.542885 6.197275,1.12826 11.17728,2.649215 20.614049,6.295781 6.934516,2.679643 13.21187,4.76887 16.413574,5.462761 3.378621,0.732232 9.020993,0.79046 11.428711,0.117944 3.603986,-1.006656 6.323668,-2.788382 10.170038,-6.66264 2.90225,-2.923284 4.23973,-3.699259 6.38259,-3.703016 2.72455,-0.0048 5.02242,1.370597 6.23706,3.733147 0.50589,0.983985 0.64585,1.610869 0.65898,2.951489 0.0248,2.532763 -0.71088,3.840441 -4.07155,7.237258 -6.04213,6.107124 -12.09649,9.331258 -19.4987,10.383665 -1.615203,0.229641 -7.04607,0.27965 -8.875488,0.08173 z M 85.162109,46.612013 C 80.090298,45.877047 74.237183,44.097641 64.25,40.254523 c -12.695263,-4.8852 -18.176232,-6.2427 -25.16748,-6.23336 -3.482516,0.0046 -4.440271,0.0892 -6.079102,0.536641 -4.275824,1.167406 -8.1861,3.609797 -11.237165,7.018826 -1.005927,1.123946 -2.082118,2.047053 -2.825987,2.423998 C 15.62521,45.680495 11.77677,44.497551 9.8403274,41.203461 9.253467,40.205153 9.1736902,39.820546 9.1762576,38.001953 c 0.00393,-2.782137 0.4347532,-3.536167 4.1036564,-7.182186 7.004758,-6.961072 14.387485,-10.159402 24.222039,-10.493426 8.920053,-0.302964 16.075776,1.292596 30.51709,6.8046 12.393107,4.730239 16.591979,5.920887 21.764516,6.171628 3.848548,0.186561 6.271286,-0.258116 9.360484,-1.718049 2.629257,-1.24257 4.310947,-2.549743 7.538087,-5.85932 2.06422,-2.116958 2.62957,-2.558222 3.74159,-2.92037 2.5759,-0.838887 5.29595,-0.172868 7.11321,1.741704 1.28295,1.351661 1.73178,2.406744 1.85918,4.370445 0.16569,2.554113 -0.44793,3.722326 -3.75115,7.141356 -5.78527,5.988122 -11.99848,9.445139 -18.961574,10.550182 -2.977547,0.472538 -8.273461,0.474143 -11.521277,0.0035 z"
         id="path3838"
         inkscape:connector-curvature="0" />
      <path
         style="fill:#8c8c8c;fill-opacity:1;stroke-width:0.24316406"
         d="M 87.472168,109.10415 C 79.919315,108.02754 75.62876,106.78994 64.128418,102.37074 52.129249,97.759845 45.551206,96.118889 39.08252,96.122791 c -6.952666,0.0042 -11.662154,2.000246 -16.691196,7.074329 -1.423224,1.43597 -3.051188,2.84732 -3.617698,3.13633 -2.53155,1.2915 -5.571504,0.76236 -7.678616,-1.33655 -1.5619067,-1.55583 -2.1589737,-3.16013 -1.9845923,-5.332558 0.1765736,-2.199735 0.8812599,-3.314148 4.1683553,-6.591978 5.451607,-5.436239 10.909849,-8.367198 18.630407,-10.004129 2.934406,-0.62216 11.190818,-0.620006 14.95459,0.0039 6.018651,0.99769 11.687398,2.716206 22.371093,6.781936 11.317743,4.307017 15.508579,5.469348 20.561671,5.702793 6.734818,0.311138 10.617666,-1.342317 16.277686,-6.931615 3.4871,-3.443525 4.11118,-3.79888 6.68701,-3.807617 1.59835,-0.0054 2.15534,0.100678 3.12288,0.594877 2.29772,1.173629 3.66346,3.433725 3.67741,6.085536 0.0128,2.441041 -0.78168,3.805923 -4.21837,7.246736 -5.36519,5.371629 -10.78719,8.473079 -17.293345,9.891999 -1.761517,0.38416 -8.937094,0.70121 -10.577637,0.46736 z M 85.891602,77.770884 c -5.67998,-0.823979 -10.731278,-2.323681 -20.91211,-6.208687 -13.125964,-5.00887 -19.263163,-6.569033 -25.840527,-6.569033 -7.002507,0 -11.838746,2.0587 -16.852889,7.173972 -1.347371,1.374543 -2.920623,2.739387 -3.496117,3.032981 -4.543746,2.318046 -10.0644153,-1.398738 -9.693531,-6.526159 0.1406062,-1.943863 0.8957374,-3.314941 3.156633,-5.73144 5.570262,-5.953627 11.790156,-9.41504 19.777701,-11.006425 3.079957,-0.61363 11.08065,-0.606719 14.833008,0.01282 5.900524,0.974205 11.954562,2.796566 21.520019,6.477871 12.893395,4.962076 18.046898,6.26698 23.798129,6.025861 5.309387,-0.222595 8.824772,-1.965017 13.749262,-6.814907 3.65334,-3.598001 4.24837,-3.941903 6.83005,-3.947489 1.59533,-0.0035 2.15717,0.104004 3.12288,0.597267 2.29772,1.173629 3.66346,3.433725 3.67741,6.085536 0.0128,2.441041 -0.78168,3.805924 -4.21837,7.246736 -5.36519,5.371633 -10.78719,8.473076 -17.293345,9.891997 -2.5263,0.550956 -9.170318,0.692548 -12.158203,0.259104 z M 86.864258,46.84718 C 81.291866,46.158257 75.671871,44.573771 66.924805,41.225504 56.05309,37.06395 51.593945,35.627733 46.236973,34.562293 42.457892,33.810678 36.100375,33.757826 33.368164,34.455313 c -4.448356,1.135591 -7.49549,2.948354 -11.094785,6.600372 -3.049587,3.09426 -3.948961,3.601136 -6.413027,3.614306 -1.519941,0.0081 -2.031841,-0.09926 -3.073072,-0.644618 -2.464318,-1.290732 -3.8855593,-3.784613 -3.690852,-6.476415 0.1406062,-1.943863 0.8957374,-3.314941 3.156633,-5.73144 5.570262,-5.953627 11.790156,-9.41504 19.777701,-11.006424 3.079957,-0.61363 11.08065,-0.606719 14.833008,0.01281 6.036608,0.996673 11.335853,2.591403 21.520019,6.476138 12.613046,4.811227 17.395809,6.087104 22.782418,6.07757 5.911406,-0.01046 9.821223,-1.875817 15.057863,-7.184015 2.5967,-2.632183 3.09957,-3.032034 4.23871,-3.370322 2.56641,-0.762143 4.76578,-0.311792 6.67208,1.3662 1.72015,1.514133 2.1854,2.589338 2.18888,5.058569 0.003,1.842605 -0.0737,2.19883 -0.70283,3.282715 -1.07781,1.856798 -6.44348,7.056402 -9.12759,8.84511 -5.91762,3.943522 -10.423654,5.356337 -17.522617,5.494005 -2.340454,0.04539 -4.638354,0.03517 -5.106445,-0.02269 z"
         id="path3836"
         inkscape:connector-curvature="0" />
      <path
         style="fill:#767676;fill-opacity:1;stroke-width:0.24316406"
         d="m 85.891602,108.8591 c -5.401243,-0.71905 -11.062253,-2.40627 -21.491891,-6.4055 -13.15367,-5.043753 -19.25631,-6.500705 -26.277738,-6.273573 -3.023201,0.0978 -4.031989,0.230082 -5.801231,0.760737 -4.022036,1.206342 -6.518375,2.791229 -10.092352,6.407486 -2.999948,3.03544 -4.000153,3.58547 -6.48962,3.56879 -1.347622,-0.009 -1.962364,-0.14519 -2.95149,-0.65372 -3.2763217,-1.68443 -4.6308041,-5.71318 -3.026154,-9.00095 0.681578,-1.396486 3.571341,-4.503457 6.252862,-6.722856 10.732648,-8.883032 24.715766,-10.351867 42.706904,-4.486081 1.904218,0.620844 5.431842,1.892738 7.839167,2.826428 13.876381,5.382001 18.858083,6.751975 24.552525,6.751975 5.957676,0 9.622626,-1.710163 14.959726,-6.980611 3.00909,-2.971508 4.12417,-3.67781 6.13098,-3.883415 5.58148,-0.571846 9.36892,5.747949 6.25874,10.443466 -1.06792,1.612263 -5.26585,5.745694 -7.66095,7.543244 -7.04042,5.28392 -15.500301,7.35719 -24.909478,6.10458 z m 0,-31.124997 C 80.484255,77.014242 74.80359,75.320403 64.399711,71.325728 51.29061,66.292356 45.152473,64.827603 38.121973,65.055027 c -3.038311,0.09829 -4.031094,0.229355 -5.848047,0.772076 -4.017883,1.200128 -7.518714,3.492621 -10.615503,6.951474 -2.034344,2.272191 -3.543889,3.041982 -5.919653,3.018724 -1.340619,-0.01313 -1.967504,-0.153091 -2.95149,-0.65898 -3.3096648,-1.701572 -4.632393,-5.691301 -3.0028548,-9.057479 0.7717228,-1.594164 5.5430578,-6.34292 8.3859848,-8.346295 3.822442,-2.693631 8.267897,-4.58394 13.34872,-5.676184 3.314567,-0.712544 11.063795,-0.771915 15.101475,-0.115697 6.185868,1.005344 12.004079,2.737825 21.438198,6.38362 12.624594,4.878749 17.480376,6.18055 23.053781,6.18055 5.957676,0 9.622626,-1.710163 14.959726,-6.980611 1.59656,-1.576627 3.2587,-2.984306 3.87743,-3.283823 4.92261,-2.382998 10.61737,2.07851 9.50324,7.445236 -0.36407,1.753716 -1.23889,3.008618 -4.12932,5.923404 -8.31465,8.384693 -17.851236,11.664772 -29.432058,10.123061 z m 1.337402,-30.897562 c -6.28415,-0.77198 -11.90593,-2.358086 -21.398438,-6.037265 -13.192683,-5.113324 -20.191648,-6.931112 -26.686611,-6.931112 -7.004399,0 -11.834754,2.062041 -16.915565,7.221119 -2.99885,3.045047 -3.994904,3.59425 -6.48962,3.578235 C 13.120815,44.65071 11.046659,43.386763 9.8362131,41.07062 8.9310979,39.338718 8.9020843,36.729454 9.7683664,34.969038 10.535033,33.411057 15.291175,28.643539 17.9818,26.735958 23.633577,22.729002 29.966921,20.63974 37.380371,20.3367 c 4.252991,-0.17385 7.461849,0.115534 12.53403,1.130355 5.510166,1.102452 9.05818,2.257741 21.614856,7.038135 9.324046,3.549714 13.544659,4.6403 18.617716,4.810729 6.673139,0.224183 10.531777,-1.448754 15.805667,-6.852644 2.89536,-2.96673 4.09651,-3.749207 6.06757,-3.952639 2.05279,-0.211866 3.83827,0.441124 5.35592,1.958781 1.54826,1.548252 2.17659,3.169623 2.02744,5.231625 -0.14688,2.030612 -0.90999,3.332953 -3.64255,6.216484 -7.12352,7.517067 -15.3543,11.165739 -24.915763,11.045064 -1.587718,-0.02004 -3.215032,-0.07676 -3.616253,-0.126049 z"
         id="path3834"
         inkscape:connector-curvature="0" />
      <path
         style="fill:#606060;fill-opacity:1;stroke-width:0.24316406"
         d="m 87.836914,109.09663 c -3.349991,-0.42413 -7.470875,-1.2643 -10.577637,-2.15656 -3.458191,-0.99319 -5.724816,-1.80143 -15.684082,-5.59271 -5.088867,-1.937219 -10.998957,-3.742992 -14.833008,-4.532086 -2.366268,-0.487004 -3.507016,-0.575501 -7.416503,-0.575358 -5.327779,1.95e-4 -6.640624,0.248735 -10.212891,1.933442 -2.737509,1.29103 -4.517077,2.635552 -7.258743,5.484202 -2.552759,2.65238 -3.650237,3.24664 -6.010488,3.25458 -2.707637,0.009 -4.780696,-1.28818 -6.1290897,-3.83548 -0.4094988,-0.7736 -0.5291717,-1.41525 -0.5268286,-2.82471 0.00435,-2.617561 0.5676733,-3.613636 3.9853833,-7.047023 6.720629,-6.751457 14.470163,-10.169952 24.085762,-10.624781 8.629586,-0.408187 16.811196,1.47042 31.976074,7.342139 6.808312,2.636125 12.174364,4.370245 15.835333,5.117429 2.781731,0.567735 3.525249,0.626192 6.657343,0.523404 3.921765,-0.1287 5.4314,-0.501353 8.250513,-2.036638 2.163918,-1.178468 3.886408,-2.566623 6.561268,-5.287726 2.84061,-2.889716 3.84493,-3.431002 6.34349,-3.418848 1.54587,0.0075 2.02096,0.116772 3.11823,0.717081 2.20451,1.206077 3.48908,3.295525 3.51184,5.712303 0.0243,2.579441 -0.68667,3.864641 -4.02436,7.274773 -5.45608,5.574497 -10.94709,8.696377 -17.803461,10.122057 -1.890725,0.39315 -8.068926,0.67577 -9.848145,0.45051 z m 0,-31.125 C 84.486923,77.547496 80.366039,76.707333 77.259277,75.815074 73.801086,74.821885 71.534461,74.013639 61.575195,70.222361 56.486328,68.285141 50.576238,66.479368 46.742187,65.690274 44.375919,65.20327 43.235171,65.114773 39.325684,65.114916 c -5.327779,1.95e-4 -6.640624,0.248735 -10.212891,1.933442 -2.737509,1.29103 -4.517077,2.635548 -7.258743,5.484203 -2.552759,2.652375 -3.650237,3.246641 -6.010488,3.254578 -2.707637,0.0091 -4.780696,-1.288181 -6.1290897,-3.835478 -0.7691275,-1.452985 -0.7483724,-4.230982 0.042905,-5.742677 1.3037177,-2.490688 5.6877387,-6.667381 9.8108647,-9.346898 8.015078,-5.208795 18.163195,-6.693988 29.84875,-4.368413 5.502934,1.095155 10.006907,2.525397 19.696289,6.254581 11.70782,4.506024 16.45411,5.7576 21.836763,5.758249 6.218138,7.29e-4 10.175606,-1.875184 15.589276,-7.389688 2.7918,-2.843796 3.85392,-3.429352 6.22191,-3.430184 3.81729,-0.0015 6.71704,2.763557 6.75165,6.437659 0.0243,2.579441 -0.68667,3.864641 -4.02436,7.274773 -5.45608,5.574493 -10.94709,8.696376 -17.803461,10.122055 -1.890725,0.39315 -8.068926,0.675777 -9.848145,0.450512 z M 86.621094,46.743203 C 80.603637,45.994085 75.30846,44.444921 64.614746,40.305001 51.582249,35.259656 44.998361,33.684546 37.988281,33.934961 c -2.853649,0.101939 -3.943124,0.249392 -5.714355,0.773393 -4.007101,1.185462 -7.002289,3.122521 -10.538038,6.815196 -2.419676,2.527065 -3.552966,3.13072 -5.892326,3.138589 -2.707637,0.0091 -4.780696,-1.288181 -6.1290897,-3.835478 -0.7691275,-1.452985 -0.7483724,-4.230982 0.042905,-5.742677 1.3037177,-2.490688 5.6877387,-6.667381 9.8108647,-9.346897 8.015078,-5.208796 18.163195,-6.693989 29.84875,-4.368413 5.635682,1.121573 10.03701,2.541137 21.674682,6.990749 9.744479,3.725758 14.847887,5.022413 19.767341,5.022413 3.464711,0 5.670616,-0.453516 8.285028,-1.703335 2.574967,-1.230962 4.730507,-2.899289 7.185667,-5.561513 2.63719,-2.859601 3.84328,-3.536712 6.30994,-3.54247 1.51337,-0.0035 2.03634,0.107103 3.07307,0.650109 3.36136,1.760576 4.64178,5.738312 2.92614,9.090373 -0.33454,0.65363 -1.55526,2.198969 -2.71272,3.434084 -5.12491,5.468777 -10.88846,8.92746 -17.390007,10.435675 -2.914844,0.676181 -8.76631,0.950431 -11.915039,0.558444 z"
         id="path3832"
         inkscape:connector-curvature="0" />
      <path
         style="fill:#494949;fill-opacity:1;stroke-width:0.24316406"
         d="m 88.444824,109.093 c -7.464636,-0.8509 -12.273611,-2.16962 -23.024315,-6.31376 -6.178791,-2.38178 -10.829037,-3.997785 -13.913663,-4.835125 -9.750439,-2.646817 -16.948202,-2.559178 -22.586515,0.275016 -2.647809,1.330966 -3.685249,2.114119 -6.741301,5.088909 -1.603553,1.56091 -3.214054,2.90379 -3.769043,3.14272 -0.585727,0.25217 -1.620469,0.42134 -2.615774,0.42767 -5.162585,0.0328 -8.3266126,-5.47526 -5.743376,-9.998341 0.97791,-1.712256 5.175598,-5.858028 7.88365,-7.786144 4.116071,-2.930619 9.28673,-5.0725 14.582603,-6.04066 3.036971,-0.555202 10.008713,-0.545736 13.738769,0.01865 6.108775,0.92431 12.088819,2.682437 21.641602,6.362608 13.758913,5.300569 19.897806,6.808018 25.253884,6.201275 5.107595,-0.578597 7.926415,-2.082601 12.801295,-6.830218 3.49713,-3.405846 4.44323,-3.957936 6.80859,-3.973121 3.83985,-0.02465 6.42592,2.445632 6.64178,6.344391 0.15152,2.736897 -0.46083,3.814291 -4.3957,7.733935 -6.15697,6.133145 -12.26993,9.221145 -19.949175,10.077425 -2.208253,0.24624 -4.986195,0.29025 -6.613311,0.10477 z m 0,-31.125 C 80.995381,77.118832 75.835272,75.693623 64.936338,71.475018 59.262661,69.278933 54.551467,67.645595 51.506846,66.819115 41.756407,64.172298 34.558644,64.259937 28.920331,67.094131 c -2.647809,1.330966 -3.685249,2.114114 -6.741301,5.088906 -1.603553,1.560916 -3.214054,2.903792 -3.769043,3.142725 -0.585727,0.252166 -1.620469,0.421342 -2.615774,0.42767 -5.162585,0.03282 -8.3266126,-5.475265 -5.743376,-9.998343 0.97791,-1.712256 5.175598,-5.858028 7.88365,-7.786144 4.116071,-2.930619 9.28673,-5.0725 14.582603,-6.04066 3.036971,-0.555202 10.008713,-0.545736 13.738769,0.01865 6.108775,0.92431 12.088819,2.682437 21.641602,6.362608 13.758913,5.300569 19.897806,6.808018 25.253884,6.201275 5.107595,-0.578597 7.926415,-2.082601 12.801295,-6.830218 3.49713,-3.405846 4.44323,-3.957936 6.80859,-3.973121 2.03908,-0.01308 3.49705,0.566453 4.79991,1.907972 1.25789,1.295204 1.73105,2.434892 1.84187,4.436419 0.15152,2.736897 -0.46083,3.814291 -4.3957,7.733935 -6.15697,6.133147 -12.26993,9.221141 -19.949175,10.077426 -2.208253,0.246236 -4.986195,0.290243 -6.613311,0.104765 z M 88.080078,46.862382 C 87.745728,46.804514 86.487354,46.634421 85.283691,46.484396 80.447197,45.881573 74.916948,44.236188 65.344238,40.55192 58.639546,37.971473 54.556036,36.574979 50.754395,35.562434 45.590973,34.187186 44.267971,34.006041 39.325684,33.99762 c -5.248441,-0.0089 -6.600006,0.236499 -10.011867,1.818152 -2.803466,1.299617 -3.949449,2.141626 -7.134787,5.242265 -1.603553,1.560916 -3.214054,2.903792 -3.769043,3.142725 -0.585727,0.252166 -1.620469,0.421342 -2.615774,0.42767 -5.162585,0.03282 -8.3266126,-5.475265 -5.743376,-9.998343 0.97791,-1.712256 5.175598,-5.858028 7.88365,-7.786144 4.116071,-2.930619 9.28673,-5.0725 14.582603,-6.04066 3.036971,-0.555201 10.008713,-0.545735 13.738769,0.01865 6.108775,0.92431 12.088819,2.682436 21.641602,6.362608 13.758913,5.300568 19.897806,6.808018 25.253884,6.201275 5.207592,-0.589924 8.624005,-2.473297 13.239975,-7.298833 1.54437,-1.614486 2.71695,-2.617972 3.42519,-2.931263 3.33099,-1.473452 6.9611,-0.257915 8.75259,2.930792 0.6556,1.16691 0.75064,1.569074 0.7471,3.161133 -0.006,2.537555 -0.70371,3.735921 -4.24491,7.287289 -5.3279,5.343197 -11.03989,8.55909 -17.513309,9.860118 -1.774993,0.356738 -8.267277,0.676852 -9.477903,0.467325 z"
         id="path3830"
         inkscape:connector-curvature="0" />
      <path
         style="fill:#000600;fill-opacity:1;stroke-width:0.24316406"
         d="m 88.687988,109.08679 c -6.45281,-0.53391 -12.256453,-2.11617 -23.465332,-6.3974 -13.486769,-5.151267 -19.366668,-6.644406 -26.140136,-6.638018 -7.130371,0.0067 -11.771502,1.977011 -16.804783,7.134088 -2.906491,2.97798 -4.063675,3.62606 -6.480826,3.62955 -1.935713,0.003 -3.324478,-0.55451 -4.692454,-1.88308 -1.9992717,-1.94167 -2.5164515,-5.06865 -1.2610978,-7.624876 0.8689318,-1.769371 6.0287988,-6.829224 8.9598518,-8.786184 6.748814,-4.505942 15.068171,-6.545641 23.673067,-5.804049 8.074994,0.695924 13.716286,2.258887 28.581445,7.918716 10.247688,3.901749 14.854713,5.07549 19.940324,5.080232 6.072385,0.0057 9.972273,-1.82135 15.197753,-7.119812 2.97992,-3.021537 4.30672,-3.768187 6.67022,-3.753624 1.89703,0.0117 2.99618,0.437873 4.40505,1.708013 2.15517,1.942959 2.81302,5.152479 1.59311,7.772416 -0.73405,1.576479 -5.53436,6.494198 -8.36688,8.571508 -6.37455,4.67497 -13.996005,6.839 -21.809312,6.19252 z m 0,-31.124998 C 82.228717,77.427344 76.407967,75.839524 65.222656,71.560775 51.893895,66.462087 45.818013,64.92002 39.08252,64.926372 c -7.130371,0.0067 -11.771502,1.977011 -16.804783,7.13409 -2.906491,2.97798 -4.063675,3.626053 -6.480826,3.629545 -1.935599,0.0028 -3.44259,-0.601897 -4.744444,-1.903751 -1.9423146,-1.942314 -2.448435,-5.082455 -1.2212869,-7.577272 0.8251609,-1.677567 4.6650529,-5.630213 7.6408759,-7.865243 2.295835,-1.724313 6.962325,-4.179354 9.573842,-5.036796 4.619534,-1.516736 10.346313,-2.153284 15.43038,-1.715124 7.841389,0.67579 13.542526,2.198293 25.785929,6.886192 15.784611,6.043802 21.541343,7.186301 27.808646,5.518983 3.642923,-0.969142 6.392287,-2.741244 10.124947,-6.526039 2.97992,-3.021537 4.30672,-3.768187 6.67022,-3.753624 1.89703,0.0117 2.99618,0.437873 4.40505,1.708013 2.16519,1.951997 2.81358,5.151151 1.5807,7.799218 -0.74141,1.592442 -5.46174,6.419361 -8.35447,8.54311 -6.36696,4.674423 -13.994456,6.840727 -21.809312,6.194118 z M 86.98584,46.733233 C 81.057502,46.010982 75.351368,44.382702 65.650892,40.645171 52.115148,35.429939 45.946234,33.849115 39.109907,33.843874 c -7.141315,-0.0055 -11.889893,2.019967 -17.035258,7.266149 -2.963685,3.021753 -3.986368,3.553546 -6.559482,3.410913 -1.987811,-0.11019 -3.119404,-0.586504 -4.405084,-1.854204 -2.0054837,-1.977434 -2.5239581,-5.051526 -1.2789029,-7.582748 0.8251609,-1.677567 4.6650529,-5.630213 7.6408759,-7.865243 2.295835,-1.724314 6.962325,-4.179354 9.573842,-5.036796 4.619534,-1.516737 10.346313,-2.153283 15.43038,-1.715125 7.841389,0.675791 13.542526,2.198294 25.785929,6.886193 15.444373,5.913529 21.028065,7.067873 27.311609,5.646263 3.678982,-0.832346 6.803664,-2.795665 10.621984,-6.67407 2.89212,-2.937625 3.35631,-3.263895 5.20898,-3.661221 2.49973,-0.536095 5.46012,0.697821 6.82043,2.842816 1.53328,2.417726 1.51627,5.155743 -0.0467,7.515381 -1.10487,1.668047 -5.07873,5.575827 -7.60577,7.479293 -3.81793,2.875822 -9.29447,5.259145 -13.81954,6.014092 -2.217997,0.370045 -7.542645,0.488704 -9.76737,0.217666 z"
         id="path3828"
         inkscape:connector-curvature="0" />
    </g>
  </g>
</svg>
