<svg height="128" width="128" xmlns="http://www.w3.org/2000/svg"><g stroke-width=".243164" transform="translate(1.06 .354)"><path d="m85.779 108.984c-5.018-.684-11.332-2.57-20.678-6.178-14.46-5.581-22.6-7.37-29.352-6.452-5.639.767-9.091 2.616-13.931 7.462-1.923 1.926-2.682 2.52-3.63 2.84-3.527 1.191-7.055-.322-8.595-3.684-.497-1.087-.577-1.576-.496-3.041.057-1.036.286-2.142.562-2.719.68-1.421 5.656-6.404 8.232-8.244 3.872-2.765 8.363-4.739 13.167-5.787 2.795-.61 10.447-.868 13.623-.46 6.917.89 13.023 2.62 23.46 6.653 2.608 1.008 6.008 2.278 7.556 2.823 11.218 3.946 17.675 4.396 23.447 1.632 2.405-1.152 3.721-2.17 7.05-5.45 3.26-3.212 4.144-3.691 6.793-3.687 3.864.006 6.988 3.452 6.637 7.323-.187 2.062-.872 3.245-3.485 6.014-5.121 5.429-10.61 8.796-16.963 10.407-2.132.54-3.086.635-7.084.702-2.54.042-5.382-.027-6.313-.154zm-.517-31.21c-5.525-.904-10.963-2.546-20.16-6.087-8.834-3.401-13.72-4.937-19.09-5.999-3.934-.778-10.15-.778-13.009 0-4.221 1.148-7.293 3.065-11.16 6.965-2.056 2.073-2.67 2.548-3.767 2.91-1.625.538-3.877.408-5.273-.304-1.312-.67-2.85-2.383-3.377-3.763-.538-1.409-.43-4.006.225-5.409.733-1.571 6.419-7.062 9.264-8.946 5.82-3.854 11.101-5.46 18.722-5.693 9.331-.285 15.417 1.086 30.99 6.983 13.381 5.067 18.296 6.32 23.563 6.002 5.513-.332 8.956-2.1 14.127-7.253 1.405-1.4 2.991-2.754 3.526-3.01 1.528-.729 4.125-.78 5.68-.11 2.632 1.131 4.357 4.005 4.1 6.83-.202 2.24-.917 3.37-4.283 6.765-5.208 5.252-9.88 8.038-16.196 9.659-2.12.543-3.04.633-7.173.702-3.145.053-5.405-.029-6.71-.242zm-.395-31.152c-5.247-.817-10.307-2.366-20.346-6.23-12.598-4.849-18.66-6.366-25.438-6.369-2.932 0-4.068.103-5.788.529-4.32 1.068-7.437 2.94-11.023 6.618-3.01 3.087-3.798 3.52-6.412 3.516-1.647-.002-2.264-.109-3.04-.526-2.392-1.286-3.762-3.533-3.766-6.18-.004-2.527.827-3.917 4.439-7.43 5.471-5.322 10.998-8.295 18.107-9.743 3.063-.624 12.29-.609 15.745.025 5.99 1.1 11.832 2.84 19.458 5.797 13.7 5.313 18.335 6.585 24.073 6.606 6.405.025 9.983-1.632 15.258-7.064 2.983-3.07 4.129-3.726 6.528-3.73 3.032-.004 5.775 2 6.557 4.791.377 1.344.195 3.847-.364 5.006-.245.508-1.207 1.766-2.138 2.796-5.826 6.45-12.425 10.314-19.813 11.602-2.592.452-9.092.445-12.037-.014z" fill="#d0d0d0"/><path d="m86.864 109.08c-5.4-.578-12.044-2.53-22.857-6.71-12.243-4.735-19.491-6.456-26.019-6.176-6.608.283-10.833 2.235-15.927 7.358-2.15 2.162-2.913 2.773-3.874 3.1-2.542.867-5.327.243-7.124-1.595-1.407-1.439-2-2.862-2.004-4.805-.004-2.361.698-3.64 3.693-6.721 3.142-3.234 5.831-5.262 9.417-7.102 5.406-2.775 9.144-3.688 15.828-3.865 8.7-.23 15.784 1.336 29.031 6.419 14.506 5.565 19.64 6.899 25.307 6.573 4.136-.237 7.417-1.556 10.963-4.408 1.059-.852 2.608-2.316 3.442-3.254 1.076-1.209 1.953-1.923 3.018-2.455 5.962-2.98 12.108 3.25 9.087 9.211-.825 1.628-5.85 6.675-8.515 8.553-4.174 2.941-8.767 4.87-13.478 5.661-2.11.354-7.59.473-9.988.216zm0-31.125c-5.382-.576-11.864-2.477-22.857-6.703-12.55-4.824-19.541-6.477-26.14-6.181-3.41.153-5.953.75-8.754 2.055-2.576 1.2-4.615 2.749-7.417 5.632-1.857 1.91-2.545 2.456-3.508 2.777-2.56.855-5.332.231-7.125-1.603-1.407-1.439-2-2.862-2.004-4.805-.004-2.33.703-3.638 3.57-6.6 5.472-5.652 11.129-8.843 18.55-10.463 3.282-.716 9.99-.877 14.104-.34 7.303.956 11.006 2.065 26.823 8.034 9.631 3.635 13.688 4.628 18.892 4.625 3.013-.001 3.79-.084 5.344-.57 3.736-1.17 6.172-2.768 9.754-6.402 3.273-3.32 4.488-3.964 7.153-3.793 1.336.085 2.04.271 2.87.758 3.318 1.944 4.466 5.891 2.679 9.204-.893 1.655-5.93 6.71-8.468 8.498-4.174 2.941-8.767 4.87-13.478 5.661-2.11.354-7.59.473-9.988.216zm-.364-31.122c-5.852-.747-11.427-2.387-22.007-6.475-14.01-5.413-22.19-7.183-28.815-6.237-5.617.802-9.202 2.705-13.739 7.293-2.047 2.072-2.79 2.664-3.751 2.99-4.52 1.534-9.131-1.7-9.131-6.402 0-2.33.709-3.64 3.572-6.606 5.254-5.442 11.26-8.848 18.43-10.45 3.174-.71 10.16-.88 14.224-.347 7.301.957 10.992 2.062 26.748 8.005 9.658 3.643 13.746 4.645 18.967 4.651 3.028.004 3.782-.076 5.344-.566 3.775-1.185 6.205-2.788 9.854-6.502 1.47-1.498 3.058-2.916 3.526-3.153.47-.238 1.626-.48 2.587-.542 1.476-.096 1.93-.024 3.04.485 3.588 1.642 5.109 5.667 3.473 9.189-.78 1.679-6.094 7.028-9.002 9.06-3.852 2.694-8.548 4.644-12.968 5.387-2.11.355-8.269.486-10.352.22z" fill="#b9b9b9"/><path d="m87.229 109.087c-6.506-.8-11.084-2.12-22.857-6.594-10.2-3.875-14.635-5.187-20.416-6.04-3.532-.52-8.443-.35-11.166.386-4.086 1.105-7.944 3.547-11.003 6.964-1.903 2.127-3.408 3.009-5.452 3.194-2.595.235-5.066-1.113-6.495-3.544-.587-.998-.666-1.382-.664-3.201.004-2.782.435-3.536 4.104-7.182 5.34-5.308 10.863-8.356 17.851-9.854 3.058-.655 9.629-.896 13.188-.484 7.179.833 12.444 2.343 25.28 7.252 6.747 2.58 11.618 4.18 15.103 4.96 3.314.743 8.952.799 11.398.114 3.513-.984 6.237-2.745 9.927-6.42 3.093-3.079 4.122-3.718 6.268-3.89 2.812-.226 5.308 1.165 6.6 3.677.848 1.65.913 4.11.151 5.774-.67 1.466-3.45 4.601-6.053 6.83-6.68 5.716-13.523 8.276-21.873 8.183-1.739-.02-3.49-.076-3.891-.125zm-.122-31.133c-4.882-.528-11.47-2.327-18.966-5.178-12.237-4.655-15.655-5.772-21.395-6.99-2.632-.558-3.634-.647-7.42-.656-3.53-.008-4.702.078-6.059.443-4.433 1.195-7.412 2.991-10.963 6.609-1.337 1.363-2.91 2.72-3.496 3.015-3.183 1.606-7.068.364-8.968-2.869-.587-.998-.666-1.382-.664-3.201.004-2.782.435-3.536 4.104-7.182 5.367-5.334 10.798-8.322 17.975-9.892 2.155-.47 3.19-.541 7.95-.54 4.598.002 5.944.088 8.443.543 6.197 1.128 11.177 2.65 20.614 6.296 6.935 2.68 13.212 4.769 16.414 5.463 3.378.732 9.02.79 11.428.117 3.604-1.006 6.324-2.788 10.17-6.662 2.903-2.923 4.24-3.7 6.383-3.703 2.725-.005 5.023 1.37 6.237 3.733.506.984.646 1.61.66 2.951.024 2.533-.712 3.84-4.072 7.238-6.043 6.107-12.097 9.331-19.5 10.383-1.614.23-7.045.28-8.875.082zm-1.945-31.342c-5.072-.735-10.925-2.514-20.912-6.357-12.695-4.886-18.176-6.243-25.167-6.234-3.483.005-4.44.09-6.08.537-4.275 1.167-8.186 3.61-11.237 7.019-1.006 1.123-2.082 2.047-2.826 2.423-3.315 1.68-7.163.497-9.1-2.798-.587-.998-.666-1.382-.664-3.201.004-2.782.435-3.536 4.104-7.182 7.005-6.961 14.387-10.16 24.222-10.494 8.92-.303 16.076 1.293 30.517 6.805 12.393 4.73 16.592 5.92 21.765 6.172 3.848.186 6.27-.259 9.36-1.718 2.63-1.243 4.311-2.55 7.538-5.86 2.064-2.117 2.63-2.558 3.742-2.92 2.576-.84 5.296-.173 7.113 1.742 1.283 1.351 1.732 2.406 1.86 4.37.165 2.554-.449 3.722-3.752 7.141-5.785 5.988-11.999 9.445-18.962 10.55-2.977.473-8.273.475-11.52.004z" fill="#a3a3a3"/><path d="m87.472 109.104c-7.553-1.076-11.843-2.314-23.344-6.733-11.999-4.611-18.577-6.252-25.045-6.248-6.953.004-11.663 2-16.692 7.074-1.423 1.436-3.05 2.847-3.617 3.136-2.532 1.292-5.572.763-7.679-1.336-1.562-1.556-2.159-3.16-1.985-5.333.177-2.2.882-3.314 4.169-6.592 5.451-5.436 10.91-8.367 18.63-10.004 2.935-.622 11.191-.62 14.955.004 6.018.998 11.687 2.716 22.37 6.782 11.319 4.307 15.51 5.47 20.563 5.703 6.734.311 10.617-1.342 16.277-6.932 3.487-3.443 4.111-3.799 6.687-3.807 1.599-.006 2.156.1 3.123.595 2.298 1.173 3.664 3.433 3.678 6.085.012 2.441-.782 3.806-4.219 7.247-5.365 5.371-10.787 8.473-17.293 9.892-1.762.384-8.937.701-10.578.467zm-1.58-31.333c-5.68-.824-10.732-2.324-20.913-6.209-13.125-5.009-19.263-6.569-25.84-6.569-7.003 0-11.839 2.059-16.853 7.174-1.347 1.375-2.92 2.74-3.496 3.033-4.544 2.318-10.064-1.399-9.694-6.526.141-1.944.896-3.315 3.157-5.731 5.57-5.954 11.79-9.416 19.778-11.007 3.08-.614 11.08-.607 14.833.013 5.9.974 11.954 2.796 21.52 6.478 12.893 4.962 18.047 6.267 23.798 6.026 5.31-.223 8.825-1.965 13.75-6.815 3.653-3.598 4.248-3.942 6.83-3.948 1.595-.003 2.156.104 3.122.598 2.298 1.173 3.664 3.433 3.678 6.085.012 2.441-.782 3.806-4.219 7.247-5.365 5.371-10.787 8.473-17.293 9.892-2.526.55-9.17.692-12.158.259zm.972-30.924c-5.572-.689-11.192-2.273-19.94-5.621-10.87-4.162-15.33-5.598-20.687-6.664-3.78-.751-10.137-.804-12.869-.107-4.448 1.136-7.495 2.949-11.095 6.6-3.05 3.095-3.949 3.602-6.413 3.615-1.52.008-2.031-.1-3.073-.645-2.464-1.29-3.885-3.784-3.69-6.476.14-1.944.895-3.315 3.156-5.731 5.57-5.954 11.79-9.416 19.778-11.007 3.08-.614 11.08-.607 14.833.013 6.036.997 11.336 2.591 21.52 6.476 12.613 4.811 17.396 6.087 22.782 6.078 5.912-.01 9.821-1.876 15.058-7.184 2.597-2.633 3.1-3.032 4.239-3.37 2.566-.763 4.766-.313 6.672 1.365 1.72 1.515 2.185 2.59 2.189 5.059.003 1.843-.074 2.199-.703 3.283-1.078 1.857-6.444 7.056-9.128 8.845-5.917 3.943-10.423 5.356-17.522 5.494-2.34.045-4.639.035-5.107-.023z" fill="#8c8c8c"/><path d="m85.892 108.86c-5.402-.72-11.063-2.407-21.492-6.406-13.154-5.044-19.257-6.501-26.278-6.274-3.023.098-4.032.23-5.801.76-4.022 1.207-6.519 2.792-10.093 6.408-3 3.036-4 3.586-6.49 3.569-1.347-.009-1.962-.145-2.95-.654-3.277-1.684-4.632-5.713-3.027-9 .682-1.397 3.571-4.504 6.253-6.723 10.733-8.884 24.716-10.352 42.707-4.487 1.904.621 5.432 1.893 7.84 2.827 13.875 5.382 18.857 6.752 24.552 6.752 5.957 0 9.622-1.71 14.96-6.98 3.008-2.972 4.123-3.679 6.13-3.884 5.582-.572 9.37 5.748 6.259 10.443-1.068 1.613-5.266 5.746-7.66 7.544-7.041 5.283-15.501 7.357-24.91 6.104zm0-31.126c-5.408-.72-11.088-2.414-21.492-6.408-13.11-5.034-19.248-6.498-26.278-6.271-3.038.098-4.031.23-5.848.772-4.018 1.2-7.519 3.493-10.616 6.952-2.034 2.272-3.543 3.042-5.92 3.018-1.34-.013-1.967-.153-2.95-.659-3.31-1.701-4.633-5.691-3.004-9.057.772-1.594 5.543-6.343 8.386-8.346 3.823-2.694 8.268-4.584 13.35-5.677 3.314-.712 11.063-.772 15.1-.115 6.186 1.005 12.005 2.737 21.439 6.383 12.624 4.879 17.48 6.18 23.054 6.18 5.957 0 9.622-1.71 14.96-6.98 1.596-1.576 3.258-2.984 3.877-3.284 4.922-2.383 10.617 2.079 9.503 7.446-.364 1.753-1.239 3.008-4.13 5.923-8.314 8.385-17.85 11.665-29.431 10.123zm1.337-30.897c-6.284-.772-11.906-2.359-21.398-6.038-13.193-5.113-20.192-6.93-26.687-6.93-7.004 0-11.835 2.061-16.916 7.22-2.998 3.045-3.995 3.595-6.49 3.579-2.617-.017-4.691-1.281-5.902-3.597-.905-1.732-.934-4.342-.068-6.102.767-1.558 5.523-6.325 8.214-8.233 5.652-4.007 11.985-6.096 19.398-6.4 4.253-.173 7.462.116 12.534 1.131 5.51 1.103 9.059 2.258 21.615 7.038 9.324 3.55 13.545 4.64 18.618 4.81 6.673.225 10.532-1.448 15.806-6.852 2.895-2.966 4.096-3.749 6.067-3.952 2.053-.212 3.838.44 5.356 1.958 1.548 1.549 2.177 3.17 2.028 5.232-.147 2.03-.91 3.333-3.643 6.217-7.123 7.517-15.354 11.165-24.916 11.045-1.587-.02-3.215-.077-3.616-.126z" fill="#767676"/><path d="m87.837 109.097c-3.35-.424-7.471-1.265-10.578-2.157-3.458-.993-5.725-1.801-15.684-5.593-5.089-1.937-10.999-3.743-14.833-4.532-2.366-.487-3.507-.575-7.416-.575-5.328 0-6.64.249-10.213 1.933-2.738 1.291-4.517 2.636-7.259 5.485-2.553 2.652-3.65 3.246-6.01 3.254-2.708.01-4.781-1.288-6.13-3.835-.409-.774-.529-1.416-.526-2.825.004-2.618.567-3.614 3.985-7.047 6.72-6.752 14.47-10.17 24.086-10.625 8.63-.408 16.811 1.47 31.976 7.342 6.808 2.636 12.174 4.37 15.835 5.118 2.782.567 3.525.626 6.658.523 3.921-.129 5.43-.501 8.25-2.037 2.164-1.178 3.886-2.566 6.561-5.287 2.84-2.89 3.845-3.431 6.344-3.42 1.546.008 2.02.118 3.118.718 2.205 1.206 3.49 3.296 3.512 5.712.024 2.58-.687 3.865-4.024 7.275-5.457 5.575-10.948 8.696-17.804 10.122-1.89.393-8.069.676-9.848.45zm0-31.125c-3.35-.425-7.471-1.265-10.578-2.157-3.458-.993-5.725-1.801-15.684-5.593-5.089-1.937-10.999-3.743-14.833-4.532-2.366-.487-3.507-.575-7.416-.575-5.328 0-6.64.249-10.213 1.933-2.738 1.291-4.517 2.636-7.259 5.485-2.553 2.652-3.65 3.246-6.01 3.254-2.708.01-4.781-1.288-6.13-3.835-.769-1.453-.748-4.231.043-5.743 1.304-2.49 5.688-6.667 9.811-9.347 8.015-5.209 18.163-6.694 29.849-4.368 5.503 1.095 10.007 2.525 19.696 6.254 11.708 4.506 16.454 5.758 21.837 5.759 6.218 0 10.176-1.876 15.59-7.39 2.791-2.844 3.853-3.43 6.221-3.43 3.818-.002 6.717 2.763 6.752 6.437.024 2.58-.687 3.865-4.024 7.275-5.457 5.575-10.948 8.696-17.804 10.122-1.89.393-8.069.676-9.848.45zm-1.217-31.229c-6.017-.749-11.313-2.298-22.006-6.438-13.033-5.045-19.617-6.62-26.627-6.37-2.853.102-3.943.25-5.714.773-4.007 1.186-7.002 3.123-10.538 6.816-2.42 2.527-3.553 3.13-5.892 3.138-2.708.01-4.781-1.288-6.13-3.835-.769-1.453-.748-4.231.043-5.743 1.304-2.49 5.688-6.667 9.811-9.347 8.015-5.209 18.163-6.694 29.849-4.368 5.636 1.121 10.037 2.54 21.675 6.99 9.744 3.726 14.848 5.023 19.767 5.023 3.465 0 5.67-.454 8.285-1.703 2.575-1.231 4.73-2.9 7.186-5.562 2.637-2.86 3.843-3.537 6.31-3.542 1.513-.004 2.036.107 3.073.65 3.361 1.76 4.641 5.738 2.926 9.09-.335.654-1.555 2.199-2.713 3.434-5.125 5.469-10.888 8.928-17.39 10.436-2.915.676-8.766.95-11.915.558z" fill="#606060"/><path d="m88.445 109.093c-7.465-.85-12.274-2.17-23.024-6.314-6.18-2.382-10.83-3.998-13.914-4.835-9.75-2.647-16.948-2.56-22.587.275-2.647 1.331-3.685 2.114-6.741 5.089-1.604 1.56-3.214 2.904-3.769 3.143-.586.252-1.62.421-2.616.427-5.162.033-8.326-5.475-5.743-9.998.978-1.712 5.175-5.858 7.883-7.786 4.117-2.93 9.287-5.073 14.583-6.04 3.037-.556 10.009-.546 13.739.018 6.109.924 12.089 2.682 21.641 6.363 13.76 5.3 19.898 6.808 25.254 6.2 5.108-.578 7.927-2.082 12.802-6.83 3.497-3.405 4.443-3.957 6.808-3.973 3.84-.024 6.426 2.446 6.642 6.345.152 2.737-.46 3.814-4.396 7.734-6.157 6.133-12.27 9.22-19.949 10.077-2.208.246-4.986.29-6.613.105zm0-31.125c-7.45-.85-12.61-2.274-23.509-6.493-5.673-2.196-10.385-3.83-13.43-4.656-9.75-2.647-16.947-2.56-22.586.275-2.647 1.331-3.685 2.114-6.741 5.089-1.604 1.561-3.214 2.904-3.769 3.143-.586.252-1.62.421-2.616.427-5.162.033-8.326-5.475-5.743-9.998.978-1.712 5.175-5.858 7.883-7.786 4.117-2.93 9.287-5.073 14.583-6.04 3.037-.556 10.009-.546 13.739.018 6.109.924 12.089 2.682 21.641 6.363 13.76 5.3 19.898 6.808 25.254 6.2 5.108-.578 7.927-2.082 12.802-6.83 3.497-3.405 4.443-3.957 6.808-3.973 2.04-.013 3.497.567 4.8 1.908 1.258 1.296 1.731 2.435 1.842 4.437.152 2.737-.46 3.814-4.396 7.734-6.157 6.133-12.27 9.22-19.949 10.077-2.208.246-4.986.29-6.613.105zm-.365-31.106a99.971 99.971 0 0 0 -2.796-.378c-4.837-.602-10.367-2.248-19.94-5.932-6.704-2.58-10.788-3.977-14.59-4.99-5.163-1.375-6.486-1.556-11.428-1.564-5.249-.01-6.6.236-10.012 1.818-2.804 1.3-3.95 2.141-7.135 5.242-1.604 1.561-3.214 2.904-3.769 3.143-.586.252-1.62.421-2.616.427-5.162.033-8.326-5.475-5.743-9.998.978-1.712 5.175-5.858 7.883-7.786 4.117-2.93 9.287-5.073 14.583-6.04 3.037-.556 10.009-.546 13.739.018 6.109.924 12.089 2.682 21.641 6.363 13.76 5.3 19.898 6.808 25.254 6.2 5.208-.59 8.624-2.472 13.24-7.298 1.545-1.615 2.717-2.618 3.426-2.931 3.33-1.474 6.96-.258 8.752 2.93.656 1.167.75 1.57.747 3.162-.006 2.537-.704 3.736-4.245 7.287-5.328 5.343-11.04 8.559-17.513 9.86-1.775.357-8.267.677-9.478.467z" fill="#494949"/><path d="m88.688 109.087c-6.453-.534-12.256-2.116-23.465-6.398-13.487-5.15-19.367-6.644-26.14-6.638-7.13.007-11.772 1.977-16.805 7.134-2.907 2.978-4.064 3.627-6.481 3.63-1.936.003-3.325-.555-4.693-1.883-1.999-1.942-2.516-5.069-1.26-7.625.868-1.77 6.028-6.83 8.96-8.786 6.748-4.506 15.067-6.546 23.672-5.804 8.075.696 13.717 2.259 28.582 7.919 10.247 3.901 14.854 5.075 19.94 5.08 6.072.005 9.972-1.822 15.198-7.12 2.98-3.022 4.307-3.768 6.67-3.754 1.897.012 2.996.438 4.405 1.708 2.155 1.943 2.813 5.153 1.593 7.773-.734 1.576-5.534 6.494-8.367 8.571-6.374 4.675-13.996 6.84-21.809 6.193zm0-31.125c-6.46-.535-12.28-2.122-23.465-6.401-13.33-5.099-19.405-6.641-26.14-6.635-7.13.007-11.772 1.977-16.805 7.134-2.907 2.978-4.064 3.627-6.481 3.63-1.936.003-3.443-.602-4.745-1.904-1.942-1.942-2.448-5.082-1.22-7.577.824-1.678 4.664-5.63 7.64-7.865 2.296-1.725 6.962-4.18 9.574-5.037 4.62-1.517 10.346-2.153 15.43-1.715 7.842.676 13.543 2.198 25.786 6.886 15.785 6.044 21.542 7.186 27.809 5.519 3.643-.97 6.392-2.741 10.125-6.526 2.98-3.022 4.307-3.768 6.67-3.754 1.897.012 2.996.438 4.405 1.708 2.165 1.952 2.814 5.151 1.58 7.8-.74 1.592-5.461 6.419-8.354 8.543-6.367 4.674-13.994 6.84-21.809 6.194zm-1.702-31.229c-5.928-.722-11.635-2.35-21.335-6.088-13.536-5.215-19.705-6.796-26.541-6.801-7.141-.006-11.89 2.02-17.035 7.266-2.964 3.022-3.987 3.554-6.56 3.41-1.988-.11-3.12-.586-4.405-1.853a6.596 6.596 0 0 1 -1.279-7.583c.825-1.678 4.665-5.63 7.641-7.865 2.296-1.725 6.962-4.18 9.574-5.037 4.62-1.517 10.346-2.153 15.43-1.715 7.842.676 13.543 2.198 25.786 6.886 15.445 5.914 21.028 7.068 27.312 5.646 3.679-.832 6.803-2.795 10.622-6.674 2.892-2.937 3.356-3.264 5.209-3.661 2.5-.536 5.46.698 6.82 2.843 1.533 2.418 1.516 5.156-.046 7.515-1.105 1.668-5.08 5.576-7.606 7.48-3.818 2.875-9.295 5.259-13.82 6.014-2.218.37-7.542.488-9.767.217z" fill="#000600"/></g></svg>