<svg height="800" viewBox="0 0 1024 1024" width="800" xmlns="http://www.w3.org/2000/svg"><path d="m390.4 200.8-8-8c-10.4-10.4-24-16-38.4-16h-163.2c-29.6 0-54.4 24-54.4 54.4v562.4c0 29.6 24 54.4 54.4 54.4h757.6c29.6 0 54.4-24 54.4-54.4v-523.2c0-29.6-24-54.4-54.4-54.4h-509.6c-14.4.8-28-4.8-38.4-15.2z" fill="#f1ed7b"/><path d="m390.4 200.8-8-8c-10.4-10.4-24-16-38.4-16h-163.2c-29.6 0-54.4 24-54.4 54.4v562.4c0 29.6 24 54.4 54.4 54.4h757.6c29.6 0 54.4-24 54.4-54.4v-523.2c0-29.6-24-54.4-54.4-54.4h-509.6c-14.4.8-28-4.8-38.4-15.2z" fill="#0e1115"/><path d="m937.6 855.2h-756.8c-34.4 0-62.4-28-62.4-62.4v-562.4c0-34.4 28-62.4 62.4-62.4h163.2c16.8 0 32 6.4 44 18.4l8 8c8.8 8.8 20 13.6 32.8 13.6h509.6c34.4 0 62.4 28 62.4 62.4v522.4c-.8 34.4-28.8 62.4-63.2 62.4zm-756.8-670.4c-25.6 0-46.4 20.8-46.4 46.4v562.4c0 25.6 20.8 46.4 46.4 46.4h757.6c25.6 0 46.4-20.8 46.4-46.4v-523.2c0-25.6-20.8-46.4-46.4-46.4h-509.6c-16.8 0-32-6.4-44-18.4l-8-8c-8.8-8.8-20-13.6-32.8-13.6h-163.2z" fill="#6a576d"/><path d="m208 256.8h703.2c29.6 0 54.4 24 54.4 54.4v449.6c0 29.6-24 54.4-54.4 54.4h-703.2c-29.6 0-54.4-24-54.4-54.4v-449.6c0-29.6 24-54.4 54.4-54.4z" fill="#fff"/><path d="m911.2 823.2h-703.2c-34.4 0-62.4-28-62.4-62.4v-449.6c0-34.4 28-62.4 62.4-62.4h703.2c34.4 0 62.4 28 62.4 62.4v449.6c-.8 34.4-28.8 62.4-62.4 62.4zm-703.2-558.4c-25.6 0-46.4 20.8-46.4 46.4v449.6c0 25.6 20.8 46.4 46.4 46.4h703.2c25.6 0 46.4-20.8 46.4-46.4v-449.6c0-25.6-20.8-46.4-46.4-46.4z" fill="#6a576d"/><path d="m153.6 836.8-38.4-477.6c-2.4-31.2 22.4-58.4 53.6-58.4h703.2c28 0 52 21.6 53.6 49.6l39.2 486.4" fill="#fff"/><path d="m964.8 844.8c-4 0-8-3.2-8-7.2l-39.2-486.4c-1.6-24-22.4-42.4-45.6-42.4h-703.2c-12.8 0-24.8 5.6-33.6 15.2s-12.8 21.6-12 35.2l38.4 477.6c0 4-3.2 8-7.2 8.8-4 0-8-3.2-8.8-7.2l-38.4-477.6c-1.6-17.6 4.8-34.4 16-47.2 12-12.8 28-20 45.6-20h703.2c32 0 59.2 24.8 61.6 56.8l39.2 486.4c.8 3.2-3.2 7.2-8 8z" fill="#6a576d"/><path d="m153.6 847.2-64.8-524.8" fill="#0e1115"/><path d="m153.6 836.8-84.8-428.8c-6.4-33.6 19.2-64 53.6-64h700.8c25.6 0 48 18.4 52.8 44l88.8 449.6" fill="#fff"/><path d="m964.8 844.8c-4 0-7.2-2.4-8-6.4l-88.8-449.6c-4-21.6-23.2-36.8-45.6-36.8h-700c-13.6 0-27.2 6.4-36 16.8s-12 24.8-9.6 38.4l84.8 428c.8 4-1.6 8.8-6.4 9.6-4 .8-8.8-1.6-9.6-6.4l-84.8-428.8c-4-18.4.8-36.8 12.8-51.2s29.6-22.4 48-22.4h700.8c29.6 0 55.2 20.8 60.8 50.4l88.8 449.6c.8 4-1.6 8.8-6.4 9.6 0-.8 0-.8-.8-.8z" fill="#6a576d"/><path d="m86.4 371.2h768c25.6 0 47.2 17.6 52.8 42.4l83.2 368c8 33.6-18.4 66.4-52.8 66.4h-768c-25.6 0-47.2-17.6-52.8-42.4l-83.2-368c-8-34.4 17.6-66.4 52.8-66.4z" fill="#f1ed7b"/><path d="m937.6 855.2h-768c-28.8 0-54.4-20-60.8-48l-83.2-368c-4-18.4 0-37.6 12-52.8s29.6-23.2 48.8-23.2h768c28.8 0 54.4 20 60.8 48l83.2 368c4 18.4 0 37.6-12 52.8s-29.6 23.2-48.8 23.2zm-851.2-476c-14.4 0-27.2 6.4-36 17.6s-12 25.6-8.8 39.2l83.2 368c4.8 20.8 23.2 36 44.8 36h768c14.4 0 27.2-6.4 36-17.6s12-25.6 8.8-39.2l-83.2-368c-4.8-20.8-23.2-36-44.8-36z" fill="#6a576d"/></svg>