<svg height="256" width="256" xmlns="http://www.w3.org/2000/svg"><path d="m6.253 6.254h243.5v243.5h-243.5z" fill="#00f" fill-rule="evenodd" stroke="#000" stroke-linejoin="round" stroke-width="12.5054"/><path d="m15 30h230v200h-230z" fill="#fff" fill-rule="evenodd"/><path d="m5 127.498v-122.501h245v245.003h-245zm136.78 92.202c17.435-2.37 35.257-3.19 52.278-7.737 8.755-9.848 12.514-23.192 18.536-34.793 8.97-20.21 18.573-40.2 26.27-60.933-2.883-11.531-13.423-19.37-19.825-29.08-15.13-18.538-29.843-37.475-45.9-55.219-11.381-4.224-24.054.315-35.895.738-25.662 3.42-51.727 5.002-76.995 10.69-10.426 15.375-16.716 33.25-24.741 49.989-6.605 15.243-13.79 30.29-19.39 45.936 3.724 11.37 13.477 19.55 20.185 29.236 14.529 18.009 28.752 36.296 43.984 53.715 9.486 6.938 21.56.814 32.175.821 9.771-1.13 19.544-2.25 29.318-3.363zm-55.022-8.677c-18.302-22.62-37.23-44.82-54.167-68.489-4.957-10.412 6.338-20.95 8.76-31.175 8.968-19.096 16.189-39.234 27.391-57.15 10.719-3.327 22.597-3.394 33.775-5.278 20.51-1.98 40.955-6.047 61.586-5.983 10.445 4.987 15.55 17.28 23.631 25.418 12.061 15.752 25.934 30.301 36.286 47.258-.409 10.277-7.71 19.643-10.953 29.48-8.143 18.045-15.626 36.445-24.645 54.06-8.812 6.728-21.996 4.086-32.6 6.8-21.371 2.555-42.721 5.375-64.155 7.352a7.98 7.98 0 0 1 -4.91-2.293zm60.927-12.814c7.003-2.052 32.973.917 19.825-11.169-7.606-11.986-19.6-1.273-28.818 2.64-4.115 3.098-20.835 8.632-16.824 11.604 8.6-1.073 17.202-2.127 25.817-3.075zm-28.74-8.706c7.869-5.919 23.437-8.79 26.422-17.485a722.44 722.44 0 0 0 -64.655-25.521c-3.684 8.678 5.015 22.038 6.213 32.207 2.821 9.357 5.07 29.138 18.553 17.602a442.783 442.783 0 0 0 13.467-6.803zm68.804-9.924c6.12-13.314 12.307-26.622 17.706-40.246-11.919 9.598-24.07 19.384-33.979 31.1-2.218 7.488 12.934 25.8 16.273 9.146zm-109.674 3.275c-4.444-12.601-6.035-26.398-12.621-38.113-6.254-5.703-26.944-2.82-14.367 7.203 8.61 11.133 16.831 22.876 27.052 32.552l.285-.355zm75.824-24.893c-2.003-22.159-4.706-44.345-8.812-66.208-9.329-1.807-18.48 11.253-27.39 15.778-11.603 8.85-23.756 17.14-34.46 27.058 8.856 7.84 22 10.297 32.712 15.508 11.801 4.569 23.492 9.512 35.564 13.32 2.957.35 2.19-3.88 2.386-5.456zm35.99-18.473c5.065-7.417 22.69-15.855 17.932-24.012-16.249-9.269-32.812-18.717-50.503-24.803-3.518 10.527 2.514 24.104 2.582 35.79 2.418 10.599.767 24.654 6.516 32.853 9.022-4.71 15.81-13.263 23.473-19.828zm-127.203-8.648c4.094-11.085 1.36-23.798 2.062-35.513.053-5.396-.046-16.498-3.7-5.583-5.708 13.438-13.463 26.316-16.796 40.575 2.354 6.141 13.728 1.956 18.434.52zm44.588-26.81c9.496-7.073 19.304-13.798 28.274-21.528-9.046-7.53-23.964-8.184-35.32-12.652-9.187-2.197-27.946-11.965-25.325 5.638-.335 15.942-.805 31.974.627 47.862 10.008-.12 18.399-11.39 27.508-16.257 1.414-1.018 2.826-2.04 4.236-3.064zm77.386-25.556c-6.86-5.538-17.72-31.044-23.96-13.325-10.34 13.463 8.596 18.378 17.364 23.872 6.226 2.55 20.033 12.284 21.786 9.175-4.842-6.74-10.032-13.223-15.19-19.722zm-38.217-7.66c6.8-6.91 12.29-24.357-4.044-17.941-14.734 1.766-29.588 3.088-44.132 6.06 13.08 5.403 27.083 8.732 40.73 12.467 2.47.298 5.13.597 7.446-.587z" stroke-width="1.35049"/></svg>