<svg height="128" width="128" xmlns="http://www.w3.org/2000/svg"><path d="m16 17h62.25v57.25h-62.25z" fill="#00f" fill-rule="evenodd" stroke="#000"/><path d="m121.41 97.253a21.4 21.932 0 0 1 -21.339 21.932 21.4 21.932 0 0 1 -21.461-21.804 21.4 21.932 0 0 1 21.212-22.06 21.4 21.932 0 0 1 21.587 21.676" fill="#f00" fill-rule="evenodd" stroke="#fff" stroke-linecap="round" stroke-width=".674799"/><path d="m26.05 114.892v-12.692h-25.383v-8.418h25.383v-25.382h-25.383v-8.55h25.383v-25.382h-25.383v-8.418h25.383v-25.383h8.418v25.383h25.382v-25.383h8.55v25.383h25.382v-25.383h8.418v25.383h25.383v8.418h-25.383v25.382h25.383v8.55h-25.383v25.382h25.383v8.418h-25.383v25.383h-8.418v-25.383h-25.382v25.383h-8.55v-25.383h-25.382v25.383h-8.418zm33.801-33.802v-12.69h-25.383v12.605c0 6.933.039 12.644.086 12.692.048.047 5.759.086 12.692.086h12.604zm33.9-.032.032-12.66h-25.383v25.386l12.659-.033 12.66-.033zm-33.9-33.899v-12.692l-12.659.033-12.66.033-.032 12.659-.033 12.66h25.383zm33.9.033-.034-12.66-12.659-.032-12.66-.033v25.383h25.386z" stroke-width=".129507"/></svg>