<?xml version="1.0" encoding="UTF-8" standalone="no"?>
<!-- Created with Inkscape (http://www.inkscape.org/) -->

<svg
   xmlns:dc="http://purl.org/dc/elements/1.1/"
   xmlns:cc="http://creativecommons.org/ns#"
   xmlns:rdf="http://www.w3.org/1999/02/22-rdf-syntax-ns#"
   xmlns:svg="http://www.w3.org/2000/svg"
   xmlns="http://www.w3.org/2000/svg"
   xmlns:sodipodi="http://sodipodi.sourceforge.net/DTD/sodipodi-0.dtd"
   xmlns:inkscape="http://www.inkscape.org/namespaces/inkscape"
   width="128px"
   height="128px"
   viewBox="0 0 128 128"
   version="1.1"
   id="SVGRoot"
   inkscape:version="0.92.3 (2405546, 2018-03-11)"
   sodipodi:docname="grid_above.svg">
  <sodipodi:namedview
     id="base"
     pagecolor="#ffffff"
     bordercolor="#666666"
     borderopacity="1.0"
     inkscape:pageopacity="0.0"
     inkscape:pageshadow="2"
     inkscape:zoom="4"
     inkscape:cx="75.313059"
     inkscape:cy="20.894598"
     inkscape:document-units="px"
     inkscape:current-layer="layer1"
     showgrid="false"
     inkscape:window-width="2560"
     inkscape:window-height="1440"
     inkscape:window-x="2560"
     inkscape:window-y="0"
     inkscape:window-maximized="1"
     inkscape:grid-bbox="true" />
  <defs
     id="defs1497" />
  <metadata
     id="metadata1500">
    <rdf:RDF>
      <cc:Work
         rdf:about="">
        <dc:format>image/svg+xml</dc:format>
        <dc:type
           rdf:resource="http://purl.org/dc/dcmitype/StillImage" />
        <dc:title></dc:title>
      </cc:Work>
    </rdf:RDF>
  </metadata>
  <g
     id="layer1"
     inkscape:groupmode="layer"
     inkscape:label="Layer 1">
    <rect
       style="fill:#0000ff;fill-rule:evenodd;stroke:#000000;stroke-width:1px;stroke-linecap:butt;stroke-linejoin:miter;stroke-opacity:1"
       id="rect2142"
       width="62.25"
       height="57.25"
       x="16"
       y="17" />
    <path
       style="fill:#ff0000;fill-opacity:1;fill-rule:evenodd;stroke:#ffffff;stroke-width:0.67479897;stroke-linecap:round;stroke-linejoin:miter;stroke-miterlimit:4;stroke-dasharray:none;stroke-opacity:1"
       id="path2144"
       sodipodi:type="arc"
       sodipodi:cx="100.0087"
       sodipodi:cy="97.253113"
       sodipodi:rx="21.4004"
       sodipodi:ry="21.932104"
       sodipodi:start="0"
       sodipodi:end="6.2715091"
       sodipodi:open="true"
       d="M 121.4091,97.253113 A 21.4004,21.932104 0 0 1 100.07117,119.18512 21.4004,21.932104 0 0 1 78.608662,97.381154 21.4004,21.932104 0 0 1 99.821293,75.32185 21.4004,21.932104 0 0 1 121.40764,96.997035" />
    <path
       style="fill:#000000;stroke-width:0.12950689"
       d="M 26.04998,114.8917 V 102.20003 H 13.3583 0.66662992 V 97.991052 93.782078 H 13.3583 26.04998 V 81.090403 68.398728 H 13.3583 0.66662992 V 64.125001 59.851274 H 13.3583 26.04998 V 47.159599 34.467924 H 13.3583 0.66662992 V 30.25895 26.049976 H 13.3583 26.04998 V 13.358301 0.66662601 h 4.20897 4.20897 V 13.358301 26.049976 H 47.1596 59.85127 V 13.358301 0.66662601 H 64.125 68.39873 V 13.358301 26.049976 H 81.0904 93.78208 V 13.358301 0.66662601 h 4.20897 4.20898 V 13.358301 26.049976 h 12.69167 12.69168 v 4.208974 4.208974 H 114.8917 102.20003 v 12.691675 12.691675 h 12.69167 12.69168 v 4.273727 4.273727 H 114.8917 102.20003 v 12.691675 12.691675 h 12.69167 12.69168 v 4.208974 4.208978 H 114.8917 102.20003 v 12.69167 12.69168 H 97.99105 93.78208 V 114.8917 102.20003 H 81.0904 68.39873 v 12.69167 12.69168 H 64.125 59.85127 V 114.8917 102.20003 H 47.1596 34.46792 v 12.69167 12.69168 H 30.25895 26.04998 Z M 59.85127,81.090403 V 68.398728 H 47.1596 34.46792 v 12.605337 c 0,6.932936 0.0388,12.64419 0.0863,12.691675 0.0475,0.04749 5.75874,0.08634 12.69168,0.08634 h 12.60534 z m 33.89907,-0.03238 0.033,-12.659298 H 81.09104 68.39873 V 81.09104 93.783354 l 12.6593,-0.03302 12.6593,-0.03301 z M 59.85127,47.158961 V 34.466648 l -12.65929,0.03301 -12.6593,0.03301 -0.033,12.659298 -0.033,12.659299 H 47.15899 59.8513 Z m 33.89907,0.03301 -0.033,-12.659298 -12.6593,-0.03301 -12.6593,-0.03301 v 12.692308 12.692313 h 12.69231 12.69231 z"
       id="path2121"
       inkscape:connector-curvature="0" />
  </g>
</svg>
