<svg xmlns="http://www.w3.org/2000/svg" width="128" height="128">
    <path style="fill:#000;stroke-width:.12950689" d="M26.05 114.892V102.2H.667v-8.418H26.05V68.4H.667V59.85H26.05V34.468H.667V26.05H26.05V.667h8.418V26.05H59.85V.667H68.4V26.05H93.782V.667h8.418V26.05H127.583v8.418H102.2V59.85H127.583V68.4H102.2V93.782H127.583v8.418H102.2V127.583h-8.418V102.2H68.4V127.583H59.85V102.2H34.468V127.583H26.05ZM59.851 81.09V68.4H34.468v12.605c0 6.933.039 12.644.086 12.692.048.047 5.759.086 12.692.086H59.85zm33.9-.032.032-12.66H68.4V93.784l12.659-.033 12.66-.033zm-33.9-33.899V34.467l-12.659.033-12.66.033-.032 12.659-.033 12.66H59.85Zm33.9.033-.034-12.66-12.659-.032-12.66-.033V59.85H93.784z"/>
</svg>
