<svg fill="none" height="800" viewBox="0 0 24 24" width="800" xmlns="http://www.w3.org/2000/svg"><path clip-rule="evenodd" d="m13.5 3c-.2761 0-.5.22386-.5.5v8.5c0 .5523-.4477 1-1 1s-1-.4477-1-1v-6.5c0-.27614-.2239-.5-.5-.5s-.50001.22386-.50001.5v8.4677c0 1.108-1.37344 1.6241-2.10309.7902l-2.54739-2.9113c-.15784-.1804-.39492-.2706-.63276-.2409-.56346.0704-.82871.7338-.46913 1.1733l4.69045 5.7328c1.28853 1.5749 3.21593 2.4882 5.25073 2.4882 3.2094 0 5.8112-2.6018 5.8112-5.8112v-7.6888c0-.27614-.2239-.5-.5-.5s-.5.22386-.5.5v4.5c0 .5523-.4477 1-1 1s-1-.4477-1-1v-6.5c0-.27614-.2239-.5-.5-.5s-.5.22386-.5.5v6.5c0 .5523-.4477 1-1 1s-1-.4477-1-1v-8.5c0-.27614-.2239-.5-.5-.5zm2.4611.05823c-.2086-1.17-1.2311-2.05823-2.4611-2.05823s-2.2525.88823-2.4611 2.05823c-.1736-.03813-.3539-.05823-.5389-.05823-1.38072 0-2.50001 1.11929-2.50001 2.5v6.3386l-1.14532-1.309c-.59517-.68018-1.48916-1.02057-2.38599-.90847-2.12467.26559-3.12487 2.76717-1.76898 4.42437l4.69046 5.7328c1.66838 2.0391 4.16394 3.2217 6.79864 3.2217 4.314 0 7.8112-3.4972 7.8112-7.8112v-7.6888c0-1.38071-1.1193-2.5-2.5-2.5-.185 0-.3653.0201-.5389.05823-.2086-1.17-1.2311-2.05823-2.4611-2.05823-.185 0-.3653.0201-.5389.05823z" fill="#0f0f0f" fill-rule="evenodd"/></svg>