<svg height="128" width="128" xmlns="http://www.w3.org/2000/svg"><g stroke="#000"><path d="m62.986 109.262c-6.23-12.494-13.98-19.506-34.134-30.888-3.787-2.139-5.68-3.358-7.653-4.93-13.261-10.567-19.844-29.136-15.805-44.581.843-3.222 2.76-7.535 4.5-10.126 2.79-4.151 6.782-7.979 11.127-10.666 4.402-2.724 8.043-3.993 13.603-4.742 2.708-.365 8.658-.367 11.301-.003 8.602 1.184 14.834 4.37 17.933 9.169l.806 1.249.547-.925c2.924-4.943 9.285-8.279 18.088-9.486 2.39-.327 8.294-.374 10.708-.083 6.466.778 10.478 2.255 15.643 5.762 12.95 8.793 18.176 23.812 13.98 40.184-.769 2.997-1.761 5.616-3.345 8.827-2.386 4.836-5.044 8.564-8.724 12.234-3.483 3.474-5.274 4.768-11.565 8.355-18.575 10.593-26.017 16.958-32.04 27.403-.803 1.393-2.55 4.907-3.125 6.285-.134.322-.331-.001-1.845-3.038z" fill="#f00" stroke-width=".529134"/><path d="m1.221 113.725h125.804v13.049h-125.804z" fill="#00a216" fill-opacity=".939024" fill-rule="evenodd" stroke-width=".566929"/></g></svg>