<?xml version="1.0" encoding="UTF-8" standalone="no"?>
<!-- Created with Inkscape (http://www.inkscape.org/) -->

<svg
   xmlns:dc="http://purl.org/dc/elements/1.1/"
   xmlns:cc="http://creativecommons.org/ns#"
   xmlns:rdf="http://www.w3.org/1999/02/22-rdf-syntax-ns#"
   xmlns:svg="http://www.w3.org/2000/svg"
   xmlns="http://www.w3.org/2000/svg"
   xmlns:sodipodi="http://sodipodi.sourceforge.net/DTD/sodipodi-0.dtd"
   xmlns:inkscape="http://www.inkscape.org/namespaces/inkscape"
   width="128px"
   height="128px"
   viewBox="0 0 128 128"
   version="1.1"
   id="SVGRoot"
   inkscape:version="0.92.3 (2405546, 2018-03-11)"
   sodipodi:docname="healthBar.svg">
  <sodipodi:namedview
     id="base"
     pagecolor="#ffffff"
     bordercolor="#666666"
     borderopacity="1.0"
     inkscape:pageopacity="0.0"
     inkscape:pageshadow="2"
     inkscape:zoom="4"
     inkscape:cx="62.456282"
     inkscape:cy="81.774708"
     inkscape:document-units="px"
     inkscape:current-layer="layer1"
     showgrid="false"
     inkscape:window-width="1920"
     inkscape:window-height="1052"
     inkscape:window-x="2560"
     inkscape:window-y="120"
     inkscape:window-maximized="1"
     inkscape:grid-bbox="true" />
  <defs
     id="defs1374" />
  <metadata
     id="metadata1377">
    <rdf:RDF>
      <cc:Work
         rdf:about="">
        <dc:format>image/svg+xml</dc:format>
        <dc:type
           rdf:resource="http://purl.org/dc/dcmitype/StillImage" />
        <dc:title></dc:title>
      </cc:Work>
    </rdf:RDF>
  </metadata>
  <g
     id="layer1"
     inkscape:groupmode="layer"
     inkscape:label="Layer 1">
    <path
       style="fill:#ff0000;stroke-width:0.52913386;stroke:#000000;stroke-opacity:1;fill-opacity:1;stroke-miterlimit:4;stroke-dasharray:none"
       d="M 62.98578,109.26204 C 56.75536,96.767951 49.00654,89.755901 28.85231,78.374049 25.06483,76.23512 23.17189,75.015656 21.19903,73.443696 7.93785,62.877273 1.354755,44.308315 5.394213,28.862993 6.236867,25.641012 8.15359,21.32803 9.89428,18.737023 12.68315,14.585805 16.67577,10.758252 21.02075,8.070557 25.42343,5.347174 29.06382,4.078198 34.62355,3.32887 c 2.70811,-0.364995 8.65811,-0.366452 11.3015,-0.0028 8.60212,1.183497 14.83407,4.369719 17.93268,9.168482 l 0.80652,1.249049 0.5467,-0.92414 C 68.1353,7.87613 74.49638,4.540135 83.29936,3.333203 85.6894,3.005518 91.59344,2.959498 94.00652,3.249743 c 6.46627,0.777765 10.47826,2.255574 15.64309,5.762106 12.95093,8.792705 18.17596,23.812019 13.97973,40.184615 -0.76795,2.996312 -1.76058,5.615885 -3.34457,8.826427 -2.38613,4.836323 -5.04405,8.563773 -8.72353,12.233807 -3.48351,3.474572 -5.27394,4.768151 -11.56508,8.355756 -18.57496,10.592602 -26.01707,16.957651 -32.03982,27.402826 -0.80323,1.39303 -2.55041,4.90637 -3.12515,6.28423 -0.13458,0.32264 -0.33118,-9.1e-4 -1.84541,-3.0375 z"
       id="path2136"
       inkscape:connector-curvature="0" />
    <rect
       style="fill:#00a216;fill-rule:evenodd;stroke:#000000;stroke-width:0.56692913;stroke-linecap:butt;stroke-linejoin:miter;stroke-opacity:1;fill-opacity:0.93902439;stroke-miterlimit:4;stroke-dasharray:none"
       id="rect2138"
       width="125.80403"
       height="13.049224"
       x="1.2205713"
       y="113.72539" />
  </g>
</svg>
