<svg height="800" viewBox="0 0 280.028 280.028" width="800" xmlns="http://www.w3.org/2000/svg"><path d="m140.014.005c-77.323 0-140.014 62.683-140.014 140.005s62.691 140.014 140.014 140.014c77.331 0 140.014-62.691 140.014-140.014s-62.683-140.005-140.014-140.005zm0 201.261c-33.831 0-61.256-27.425-61.256-61.256 0-33.822 27.425-61.256 61.256-61.256s61.256 27.434 61.256 61.256c0 33.83-27.426 61.256-61.256 61.256z" fill="#e4e7e7"/><path d="m140.014.005c-77.323 0-140.014 62.683-140.014 140.005s62.691 140.014 140.014 140.014c77.331 0 140.014-62.691 140.014-140.014s-62.683-140.005-140.014-140.005zm0 201.261c-33.831 0-61.256-27.425-61.256-61.256 0-33.822 27.425-61.256 61.256-61.256s61.256 27.434 61.256 61.256c0 33.83-27.426 61.256-61.256 61.256z" fill="#e4e7e7"/><path d="m140.014 279.988c-77.358 0-140.014-62.655-140.014-140.013 0-40.604 17.239-77.182 44.892-102.647-22.49 24.852-36.141 57.755-36.141 93.896 0 77.358 62.656 140.014 140.014 140.014 36.229 0 69.307-13.739 94.159-36.316-25.553 27.739-62.219 45.066-102.91 45.066z" fill="#cdcfcf"/><path d="m201.27 139.975c0-33.778-27.39-61.256-61.256-61.256-14.701 0-28.178 5.163-38.679 13.826 11.201-13.739 28.265-22.577 47.43-22.577 33.866 0 61.256 27.478 61.256 61.256 0 19.164-8.751 36.229-22.577 47.43 8.663-10.502 13.826-23.978 13.826-38.679z" fill="#cdcfcf"/><g fill="#e2574c"><path d="m111.827 85.659c8.445-4.384 18.018-6.904 28.187-6.904 10.168 0 19.742 2.52 28.187 6.904l14.369-79.029c-13.433-4.279-27.714-6.624-42.555-6.624s-29.123 2.354-42.547 6.633z"/><path d="m85.662 168.197c-4.393-8.445-6.904-18.018-6.904-28.187 0-10.168 2.52-19.733 6.904-28.178l-79.029-14.368c-4.279 13.423-6.633 27.705-6.633 42.546s2.354 29.123 6.633 42.547z"/><path d="m194.365 111.833c4.384 8.445 6.904 18.009 6.904 28.178s-2.512 19.742-6.904 28.187l79.029 14.369c4.279-13.433 6.633-27.714 6.633-42.555s-2.354-29.123-6.633-42.547z"/><path d="m168.2 194.361c-8.445 4.393-18.018 6.904-28.187 6.904s-19.742-2.512-28.187-6.904l-14.368 79.029c13.424 4.279 27.705 6.633 42.547 6.633 14.841 0 29.123-2.354 42.547-6.633z"/></g><path d="m140.014 279.988c-77.358 0-140.014-62.655-140.014-140.013 0-40.604 17.239-77.182 44.892-102.647-22.49 24.852-36.141 57.755-36.141 93.896 0 77.358 62.656 140.014 140.014 140.014 36.229 0 69.307-13.739 94.159-36.316-25.553 27.739-62.219 45.066-102.91 45.066z" fill="#cdcfcf"/><path d="m170.327 73.95c-6.712-2.529-13.958-3.982-21.562-3.982-14.133 0-27.11 4.83-37.445 12.873l.516 2.818c2.039-1.059 4.157-2.004 6.327-2.835 1.129-.429 2.301-.744 3.465-1.111 1.864-.595 3.745-1.111 5.671-1.523 1.199-.254 2.371-.481 3.588-.665 2.564-.385 5.163-.63 7.823-.683.429-.017.849-.123 1.304-.123 2.511 0 4.97.193 7.403.49.14.009.263.044.403.061 2.266.289 4.489.709 6.668 1.243.201.052.411.105.613.158 2.223.56 4.393 1.243 6.519 2.048.026.009.053.018.079.026 2.231.849 4.41 1.794 6.511 2.888z" fill="#cb4e44"/><path d="m197.165 118.081c.096.245.184.499.263.735.683 1.855 1.278 3.745 1.785 5.671.123.473.245.936.359 1.409.42 1.785.753 3.597 1.015 5.443.079.534.184 1.05.236 1.584.271 2.319.446 4.673.446 7.053v.009.018c0 3.255-.341 6.406-.84 9.521-.14.901-.315 1.776-.499 2.66-.508 2.459-1.146 4.874-1.934 7.219-.21.63-.376 1.295-.604 1.925-.884 2.363-1.89 4.647-3.037 6.861l2.8.516c8.068-10.344 12.864-23.33 12.864-37.48 0-7.578-1.444-14.815-3.964-21.518l-11.674 2.118c1.043 2.02 1.971 4.112 2.784 6.256z" fill="#cb4e44"/><path d="m17.843 180.527c-5.784-15.358-9.092-31.923-9.092-49.302 0-11.271 1.47-22.166 3.973-32.658l-6.091-1.103c-.184.604-.324 1.234-.516 1.829-.919 3.072-1.794 6.161-2.511 9.311-.394 1.724-.7 3.474-1.033 5.224-.516 2.748-.971 5.522-1.321 8.322-.201 1.523-.403 3.054-.543 4.585-.411 4.332-.691 8.698-.691 13.135-.009.043-.018.079-.018.123 0 4.34.263 8.62.648 12.864.14 1.444.333 2.87.516 4.297.333 2.757.753 5.496 1.251 8.2.306 1.68.621 3.36.989 5.023.56 2.529 1.234 5.023 1.934 7.499.438 1.549.805 3.115 1.286 4.638 0 .018.009.026.009.044z" fill="#cb4e44"/><path d="m181.44 267.255c-10.501 2.512-21.405 3.982-32.676 3.982-17.362 0-33.918-3.308-49.259-9.075l-2.03 11.201c.096.035.184.079.28.105 1.041.333 2.126.578 3.177.893 3.019.875 6.056 1.671 9.145 2.354 1.304.289 2.634.534 3.955.779 3.185.595 6.414 1.103 9.678 1.479.989.122 1.978.254 2.975.35 4.393.411 8.83.665 13.328.665 4.682 0 9.293-.289 13.853-.735 1.033-.105 2.039-.236 3.072-.359 3.518-.429 7.001-.998 10.431-1.671 1.155-.228 2.328-.429 3.465-.691 3.973-.893 7.876-1.951 11.717-3.168z" fill="#cb4e44"/></svg>