<?xml version="1.0" encoding="UTF-8" standalone="no"?>
<!-- Created with Inkscape (http://www.inkscape.org/) -->

<svg
   xmlns:dc="http://purl.org/dc/elements/1.1/"
   xmlns:cc="http://creativecommons.org/ns#"
   xmlns:rdf="http://www.w3.org/1999/02/22-rdf-syntax-ns#"
   xmlns:svg="http://www.w3.org/2000/svg"
   xmlns="http://www.w3.org/2000/svg"
   xmlns:sodipodi="http://sodipodi.sourceforge.net/DTD/sodipodi-0.dtd"
   xmlns:inkscape="http://www.inkscape.org/namespaces/inkscape"
   width="128px"
   height="128px"
   viewBox="0 0 128 128"
   version="1.1"
   id="SVGRoot"
   inkscape:version="0.92.3 (2405546, 2018-03-11)"
   sodipodi:docname="hexa_grid.svg">
  <sodipodi:namedview
     id="base"
     pagecolor="#ffffff"
     bordercolor="#666666"
     borderopacity="1.0"
     inkscape:pageopacity="0.0"
     inkscape:pageshadow="2"
     inkscape:zoom="8"
     inkscape:cx="51.698693"
     inkscape:cy="68.309178"
     inkscape:document-units="px"
     inkscape:current-layer="layer1"
     showgrid="false"
     inkscape:window-width="2560"
     inkscape:window-height="1412"
     inkscape:window-x="2560"
     inkscape:window-y="0"
     inkscape:window-maximized="1"
     inkscape:grid-bbox="true" />
  <defs
     id="defs815" />
  <metadata
     id="metadata818">
    <rdf:RDF>
      <cc:Work
         rdf:about="">
        <dc:format>image/svg+xml</dc:format>
        <dc:type
           rdf:resource="http://purl.org/dc/dcmitype/StillImage" />
        <dc:title></dc:title>
      </cc:Work>
    </rdf:RDF>
  </metadata>
  <g
     id="layer1"
     inkscape:groupmode="layer"
     inkscape:label="Layer 1">
    <path
       style="fill:#000000;stroke-width:0.14106606"
       d="m 11.681973,116.26744 c -1.648709,-2.8592 -2.997653,-5.2645 -2.997653,-5.34512 0,-0.0806 1.3024,-2.39882 2.894222,-5.15156 l 2.894223,-5.00498 -2.907165,-5.038538 c -1.871139,-3.24296 -2.882683,-5.132166 -2.838466,-5.301253 0.03778,-0.14449 1.323784,-2.438052 2.857775,-5.096806 1.533991,-2.658754 2.788165,-4.899115 2.787053,-4.97858 -0.0011,-0.07946 -1.281287,-2.353233 -2.844832,-5.05282 -1.563546,-2.699586 -2.84281,-4.994862 -2.84281,-5.100613 0,-0.105752 1.278504,-2.404061 2.841121,-5.107352 1.562616,-2.703293 2.842791,-4.983244 2.844832,-5.066557 0.002,-0.08331 -1.252174,-2.326737 -2.787144,-4.985385 -1.53497,-2.658648 -2.821558,-4.951318 -2.859085,-5.094823 -0.04361,-0.166762 0.977965,-2.072568 2.830971,-5.281337 l 2.899203,-5.020421 -2.884949,-4.985903 c -1.586722,-2.742245 -2.884747,-5.07325 -2.8845,-5.180011 5.73e-4,-0.247315 5.885249,-10.450116 6.109602,-10.592775 0.09206,-0.05854 2.770057,-0.108525 5.951096,-0.111077 l 5.783709,-0.0046 2.900302,-5.040631 2.900303,-5.040631 6.081093,-0.03676 c 4.924294,-0.02976 6.116836,-8.89e-4 6.268991,0.151764 0.103343,0.103687 1.455579,2.389627 3.004965,5.079868 l 2.817065,4.891348 5.646899,-0.0025 5.646896,-0.0025 2.900303,-5.040631 2.900303,-5.040631 6.081094,-0.03676 c 4.92429,-0.02976 6.11683,-8.89e-4 6.26899,0.151765 0.10334,0.103686 1.45558,2.389627 3.00497,5.079868 l 2.81706,4.891348 5.6469,-0.0025 5.6469,-0.0025 2.9003,-5.040631 2.9003,-5.040632 6.05739,-0.03396 c 3.33157,-0.01868 6.13054,0.01306 6.21995,0.07053 0.0894,0.05747 1.50967,2.442529 3.15614,5.300128 2.76359,4.796451 2.98104,5.223185 2.8302,5.554235 -0.0899,0.19723 -1.40207,2.505511 -2.91601,5.129513 l -2.75262,4.770911 2.89859,5.017194 c 1.59422,2.759455 2.89858,5.076536 2.89858,5.149067 0,0.07253 -1.30397,2.393154 -2.89772,5.156941 l -2.89773,5.025065 2.75176,4.769421 c 1.51347,2.623181 2.8247,4.929506 2.91385,5.125167 0.14903,0.32708 -0.0684,0.756384 -2.69886,5.327559 -1.57353,2.734498 -2.86096,5.051065 -2.86096,5.147928 0,0.09686 1.28617,2.406853 2.85816,5.13331 1.94687,3.376638 2.82883,5.034443 2.76614,5.199472 -0.0506,0.133253 -1.3601,2.441583 -2.90999,5.129624 l -2.81796,4.887345 2.89666,5.030611 c 1.59316,2.766836 2.89665,5.086836 2.89665,5.155546 0,0.24567 -5.80643,10.23227 -6.08991,10.47416 -0.26524,0.22632 -0.76687,0.24687 -6.02858,0.24687 h -5.73927 l -2.8854,5.00457 -2.8854,5.00457 -6.2091,0.003 -6.2091,0.003 -2.88966,-5.00723 -2.88966,-5.00723 -5.65235,-6.2e-4 -5.652349,-6.1e-4 -2.882149,5.00501 -2.882147,5.00502 -6.209102,0.003 -6.209101,0.003 -2.88966,-5.00723 -2.889659,-5.00723 -5.642642,0.002 -5.642643,0.002 -2.882147,5.00501 -2.882149,5.00502 -6.216612,-9.9e-4 -6.216613,-9.9e-4 z m 16.24855,1.92009 c 0.770743,-1.33802 2.025225,-3.51608 2.787742,-4.84015 l 1.386393,-2.40739 -2.807586,-4.85751 -2.807584,-4.85751 h -5.599431 -5.599429 l -2.80192,4.84964 -2.801919,4.84965 0.380428,0.66306 c 0.209236,0.36468 1.459584,2.54398 2.778551,4.84288 l 2.398123,4.17983 5.642643,0.005 5.642642,0.005 z m 36.300062,-1.8685 c 1.347699,-2.32759 2.601782,-4.49187 2.786849,-4.80952 l 0.336486,-0.57754 -2.798774,-4.8535 -2.798775,-4.8535 H 56.142606 50.52884 l -2.798677,4.85062 -2.798679,4.85062 2.78946,4.84446 2.789462,4.84446 5.634907,-0.0321 5.634909,-0.0321 z m 35.600415,-0.56426 2.7812,-4.79625 -0.47071,-0.84639 c -0.25889,-0.46552 -1.51737,-2.65557 -2.79662,-4.86678 l -2.3259,-4.02038 h -5.61181 -5.6118 l -2.79711,4.84789 -2.7971,4.84789 2.78789,4.84688 2.78788,4.84687 5.63645,-0.0317 5.63644,-0.0317 z m -52.909354,-10.19586 2.792837,-4.83534 -2.793239,-4.827683 -2.793241,-4.827678 h -5.624464 -5.624465 l -2.789483,4.827928 -2.789482,4.827933 2.627396,4.55296 c 1.445068,2.50413 2.717713,4.69652 2.828097,4.87198 l 0.2007,0.31901 5.586253,-0.0369 5.586254,-0.0369 z m 35.272034,9.9e-4 2.79256,-4.83429 -2.79174,-4.828735 -2.79173,-4.828735 h -5.62684 -5.62685 l -2.791552,4.829003 -2.791552,4.829007 2.70283,4.69295 c 1.486555,2.58113 2.765776,4.77303 2.842712,4.87089 0.109255,0.13898 1.360564,0.16987 5.714742,0.14107 l 5.57485,-0.0368 2.79257,-4.83429 z m 35.27104,0.003 2.78761,-4.83151 -2.78765,-4.831516 -2.78765,-4.831513 h -5.62784 -5.62784 l -2.79277,4.828218 -2.79277,4.828221 2.62431,4.55267 c 1.44337,2.50397 2.71542,4.69623 2.82676,4.87169 l 0.20245,0.31901 5.59389,-0.0369 5.59388,-0.0369 z M 29.28583,95.385375 c 2.124841,-3.677788 2.771756,-4.906887 2.672915,-5.078378 -0.07172,-0.124438 -1.324631,-2.289342 -2.784246,-4.810898 l -2.653846,-4.584647 -5.638381,-0.03406 -5.638381,-0.03406 -2.793088,4.852052 -2.793089,4.852054 2.630218,4.562897 c 1.446619,2.509594 2.721319,4.706454 2.832665,4.881912 l 0.202447,0.319013 5.579736,-0.0369 5.579735,-0.0369 z m 35.269423,-0.0015 c 2.110819,-3.660532 2.76695,-4.908871 2.669207,-5.078379 -0.07128,-0.123614 -1.323832,-2.287846 -2.783447,-4.809402 l -2.653846,-4.584647 -5.638381,-0.03209 -5.63838,-0.03209 -2.786807,4.850583 -2.786805,4.850582 2.626474,4.562404 c 1.44456,2.509323 2.716433,4.70596 2.826382,4.881418 l 0.199909,0.319016 5.583444,-0.0369 5.583443,-0.0369 z m 35.266517,0 c 2.11082,-3.660532 2.76695,-4.908871 2.6692,-5.078379 -0.0713,-0.123614 -1.32383,-2.287846 -2.78344,-4.809402 l -2.65385,-4.584647 -5.63838,-0.03209 -5.63838,-0.03209 -2.78681,4.850583 -2.7868,4.850582 2.62647,4.562404 c 1.44456,2.509323 2.71644,4.70596 2.82639,4.881418 l 0.1999,0.319016 5.58345,-0.0369 5.58344,-0.0369 z M 46.490023,85.961393 c 1.280175,-2.223603 2.527744,-4.396455 2.772378,-4.82856 l 0.444789,-0.785645 -2.773389,-4.796246 -2.773388,-4.796247 -5.641632,-0.03321 -5.641633,-0.03321 -2.734699,4.74468 c -1.504084,2.609574 -2.741939,4.814569 -2.750788,4.899989 -0.0088,0.08542 1.218961,2.297749 2.728466,4.916288 l 2.744555,4.760979 5.648875,-0.0029 5.648876,-0.0029 2.32759,-4.042916 z m 35.266517,0.0038 c 1.28017,-2.221925 2.52774,-4.394943 2.77238,-4.82893 l 0.44478,-0.789067 -2.77338,-4.796247 -2.77339,-4.796246 -5.64163,-0.03398 -5.641637,-0.03398 -2.786424,4.843533 -2.786424,4.843534 2.784179,4.818202 2.784182,4.818203 5.644884,-0.0026 5.64489,-0.0026 2.32759,-4.039861 z m 35.64936,-0.666121 c 1.49074,-2.590371 2.72859,-4.774505 2.75079,-4.853632 0.0222,-0.07913 -1.19751,-2.306138 -2.71044,-4.948913 l -2.75079,-4.805048 -5.64264,4.23e-4 -5.64264,4.24e-4 -2.73904,4.753949 c -1.50646,2.614672 -2.73903,4.826599 -2.73903,4.915393 0,0.08879 1.23207,2.296069 2.73794,4.905056 l 2.73793,4.743489 5.64374,-7.05e-4 5.64374,-7.05e-4 2.71044,-4.709767 z M 29.264217,75.086545 c 1.504272,-2.615276 2.738824,-4.809903 2.743448,-4.876949 0.0046,-0.06704 -1.226142,-2.271042 -2.735039,-4.897773 l -2.74345,-4.775873 -5.647405,-0.0043 -5.647403,-0.0043 -2.746027,4.755773 c -1.510314,2.615677 -2.746026,4.82165 -2.746026,4.902163 0,0.08051 1.236283,2.288777 2.747295,4.907253 l 2.747294,4.760863 5.646137,-0.0059 5.646135,-0.0059 z m 35.282262,-0.02452 c 1.512933,-2.629 2.747485,-4.823725 2.743449,-4.877165 -0.004,-0.05344 -1.24189,-2.246306 -2.750788,-4.873037 l -2.74345,-4.775873 -5.642642,-0.0029 -5.642642,-0.0029 -2.739033,4.744583 c -1.506467,2.60952 -2.739032,4.823005 -2.739032,4.918855 0,0.09585 1.232565,2.307667 2.739032,4.915147 l 2.739033,4.740872 5.642642,-0.0038 5.642642,-0.0038 2.750789,-4.780003 z m 35.266511,0.0013 c 1.51294,-2.629946 2.74856,-4.825971 2.74583,-4.880056 -0.003,-0.05409 -1.24058,-2.246673 -2.75079,-4.872421 l -2.74582,-4.774086 -5.64265,-0.0037 -5.64264,-0.0037 -2.73903,4.750309 c -1.50647,2.612671 -2.73903,4.825797 -2.73903,4.918059 0,0.09226 1.23256,2.301432 2.73903,4.909268 l 2.73903,4.741518 5.64264,-0.0018 5.64265,-0.0018 2.75078,-4.781721 z M 46.931904,64.82992 49.706875,60.033674 49.262243,59.244607 c -0.244546,-0.433987 -1.492045,-2.607005 -2.77222,-4.82893 l -2.32759,-4.039861 -5.650608,-0.0026 -5.650607,-0.0026 -2.780381,4.817161 -2.78038,4.817159 2.788346,4.845536 2.788345,4.845536 5.639892,-0.03494 5.639893,-0.03494 2.774971,-4.796246 z m 35.247836,0.05209 c 1.51293,-2.64175 2.72987,-4.876821 2.70432,-4.966826 -0.0256,-0.09 -1.26341,-2.273398 -2.75079,-4.851984 l -2.70432,-4.688338 -5.64626,-0.0021 -5.646262,-0.0021 -2.785077,4.817379 -2.785077,4.817378 2.788695,4.843182 2.788694,4.84318 5.642647,-0.0033 5.64264,-0.0033 2.75079,-4.803182 z m 35.26651,2.82e-4 c 1.51293,-2.643644 2.73059,-4.876663 2.70591,-4.962266 -0.0247,-0.0856 -1.26208,-2.26924 -2.74978,-4.852525 l -2.7049,-4.696855 h -5.64589 -5.6459 l -2.78411,4.818086 -2.78412,4.818084 2.78636,4.841729 2.78636,4.841729 5.64264,-7.05e-4 5.64264,-7.06e-4 2.75079,-4.806624 z M 27.165856,58.340881 c 0.3584,-0.62069 1.610145,-2.790636 2.781658,-4.822102 l 2.130021,-3.693574 -2.792078,-4.840923 -2.792078,-4.840923 h -5.622576 -5.622575 l -2.795571,4.841367 -2.795571,4.841367 2.793402,4.855635 2.793403,4.855636 5.635165,-0.03398 5.635164,-0.03398 z m 35.266515,0 c 0.358399,-0.62069 1.610145,-2.790636 2.781658,-4.822102 l 2.130021,-3.693574 -2.792078,-4.840923 -2.792079,-4.840923 h -5.617622 -5.617623 l -2.794276,4.843184 -2.794275,4.843185 2.787155,4.85066 2.787154,4.850659 5.635164,-0.03082 5.635165,-0.03082 z M 99.70377,54.884763 c 1.4611,-2.521556 2.7156,-4.686726 2.78779,-4.811489 0.0998,-0.172507 -0.539,-1.388915 -2.66695,-5.078378 l -2.7982,-4.851537 h -5.61762 -5.61763 l -2.79246,4.840039 -2.79246,4.840038 2.78534,4.854373 2.78534,4.854372 5.63516,-0.03139 5.63516,-0.03139 z m -52.782124,-10.407457 2.792837,-4.835345 -2.793239,-4.82768 -2.793241,-4.827679 h -5.622718 -5.62272 l -2.791552,4.829003 -2.791552,4.829002 2.70283,4.692958 c 1.486556,2.581125 2.765777,4.773026 2.842713,4.870891 0.109251,0.138971 1.359998,0.169862 5.711843,0.141066 l 5.571962,-0.03687 z m 35.270424,0.0038 2.79096,-4.831512 -2.791,-4.831513 -2.79099,-4.831513 h -5.6231 -5.623102 l -2.793829,4.830047 -2.793828,4.830047 2.702227,4.691913 c 1.486226,2.580551 2.765174,4.771982 2.84211,4.869847 0.109255,0.138974 1.360564,0.169862 5.714742,0.141066 l 5.57485,-0.03687 z m 35.27191,-0.0023 2.78546,-4.833764 -2.78401,-4.829256 -2.78402,-4.829261 h -5.63003 -5.63003 l -2.79277,4.828217 -2.79277,4.828217 2.62431,4.552677 c 1.44337,2.503972 2.71542,4.696232 2.82676,4.87169 l 0.20245,0.319012 5.5946,-0.03688 5.59459,-0.03688 2.78546,-4.833764 z M 29.277962,34.313842 32.076237,29.471791 29.946865,25.779345 c -1.171156,-2.030841 -2.422609,-4.200281 -2.781009,-4.820971 l -0.651636,-1.128529 -5.635164,-0.03331 -5.635165,-0.03331 -2.794171,4.856529 -2.794171,4.856526 2.631171,4.557678 c 1.447144,2.506722 2.722331,4.701233 2.833748,4.876691 l 0.202576,0.319012 5.578323,-0.03688 5.57832,-0.03688 2.798275,-4.842049 z m 35.269125,0.0025 2.798594,-4.83951 -2.130837,-3.694987 c -1.171961,-2.032237 -2.424074,-4.20282 -2.782473,-4.82351 l -0.651636,-1.128529 -5.635165,-0.03139 -5.635164,-0.03139 -2.786085,4.855664 -2.786084,4.855666 2.06128,3.569152 c 1.133703,1.963034 2.405814,4.157065 2.826914,4.875626 l 0.765636,1.306475 5.578214,-0.03688 5.578213,-0.03688 z m 35.266513,0 2.7986,-4.83951 -2.13084,-3.694987 c -1.17196,-2.032237 -2.42407,-4.20282 -2.78247,-4.82351 l -0.65164,-1.128529 -5.63516,-0.03139 -5.63517,-0.03139 -2.78665,4.856653 -2.78666,4.856655 2.06384,3.568163 c 1.13511,1.962489 2.40748,4.156076 2.82749,4.874637 l 0.76364,1.306475 5.57822,-0.03688 5.57821,-0.03688 z M 46.870777,24.221731 c 1.48959,-2.58582 2.727445,-4.770925 2.750788,-4.855787 0.02335,-0.08486 -1.19541,-2.313851 -2.708344,-4.953303 l -2.750788,-4.799005 -5.644087,-0.0055 -5.644085,-0.0055 -2.731757,4.737742 c -1.502466,2.605759 -2.739671,4.81168 -2.749344,4.902047 -0.0097,0.09037 1.216166,2.306744 2.724086,4.925283 l 2.741674,4.760978 5.651757,-0.0027 5.651756,-0.0027 2.708344,-4.70149 z m 35.262493,0.01432 c 1.48738,-2.578586 2.72523,-4.76423 2.75079,-4.856986 0.0256,-0.09276 -1.19139,-2.328494 -2.70432,-4.968307 l -2.75079,-4.79966 -5.64264,-0.0033 -5.642647,-0.0033 -2.73401,4.741605 c -1.503705,2.607883 -2.741559,4.813356 -2.750788,4.901054 -0.0092,0.0877 1.218934,2.301891 2.729247,4.92043 l 2.746028,4.76098 5.6474,-0.0021 5.64741,-0.0021 2.70432,-4.688338 z m 35.26911,-0.0043 c 1.4877,-2.583282 2.7251,-4.766918 2.74978,-4.852521 0.0247,-0.0856 -1.19298,-2.318623 -2.70591,-4.962267 l -2.75079,-4.806625 -5.64264,-0.0023 -5.64264,-0.0023 -2.78624,4.840632 -2.78625,4.840631 2.78437,4.820808 2.78437,4.820809 h 5.64553 5.64552 l 2.7049,-4.696882 z"
       id="path1460"
       inkscape:connector-curvature="0" />
  </g>
</svg>
