<svg height="800" viewBox="0 0 256 256" width="800" xmlns="http://www.w3.org/2000/svg"><path d="m128 234.80127a12.00322 12.00322 0 0 1 -5.90466-1.54395l-84-47.47827a12.01881 12.01881 0 0 1 -6.09534-10.44677v-94.66456a12.019 12.019 0 0 1 6.09521-10.44672l84.00013-47.47827a12.06282 12.06282 0 0 1 11.80932 0l84 47.47827a12.01881 12.01881 0 0 1 6.09534 10.44672v94.66456a12.019 12.019 0 0 1 -6.09521 10.44677l-84.00013 47.47827a12.00322 12.00322 0 0 1 -5.90466 1.54395zm0-205.60889a4.00152 4.00152 0 0 0 -1.96814.51465l-84 47.47827a4.00672 4.00672 0 0 0 -2.03186 3.48242v94.66456a4.00658 4.00658 0 0 0 2.032 3.48242l83.99986 47.4783a4.0215 4.0215 0 0 0 3.93628 0l84-47.47827a4.00672 4.00672 0 0 0 2.03186-3.48245v-94.66456a4.00658 4.00658 0 0 0 -2.032-3.48242l-83.99986-47.4783a4.00152 4.00152 0 0 0 -1.96814-.51462z"/></svg>