<svg height="128" width="128" xmlns="http://www.w3.org/2000/svg"><path d="m11.682 116.267c-1.649-2.859-2.998-5.264-2.998-5.345 0-.08 1.303-2.398 2.895-5.151l2.894-5.005-2.907-5.039c-1.872-3.243-2.883-5.132-2.839-5.301.038-.145 1.324-2.438 2.858-5.097s2.788-4.899 2.787-4.978c-.001-.08-1.281-2.354-2.845-5.053-1.563-2.7-2.843-4.995-2.843-5.1 0-.107 1.279-2.405 2.841-5.108 1.563-2.703 2.843-4.983 2.845-5.067.002-.083-1.252-2.326-2.787-4.985s-2.821-4.951-2.859-5.095c-.044-.167.978-2.073 2.831-5.281l2.9-5.02-2.886-4.987c-1.586-2.742-2.884-5.073-2.884-5.18 0-.247 5.885-10.45 6.11-10.592.091-.059 2.77-.109 5.95-.111l5.784-.005 2.9-5.04 2.9-5.041 6.082-.037c4.924-.03 6.117-.001 6.269.152.103.103 1.455 2.39 3.005 5.08l2.817 4.89 5.647-.002 5.647-.002 2.9-5.04 2.9-5.041 6.081-.037c4.925-.03 6.117-.001 6.27.152.103.103 1.455 2.39 3.004 5.08l2.817 4.89 5.647-.002 5.647-.002 2.9-5.04 2.9-5.041 6.058-.034c3.332-.02 6.13.013 6.22.07.09.058 1.51 2.443 3.156 5.3 2.764 4.797 2.981 5.223 2.83 5.555-.09.197-1.402 2.505-2.916 5.129l-2.752 4.77 2.898 5.018c1.595 2.76 2.899 5.077 2.899 5.15 0 .072-1.304 2.392-2.898 5.156l-2.897 5.025 2.751 4.77c1.514 2.623 2.825 4.93 2.914 5.125.15.327-.068.756-2.699 5.327-1.573 2.735-2.86 5.051-2.86 5.148s1.286 2.407 2.858 5.134c1.946 3.376 2.828 5.034 2.766 5.2-.05.132-1.36 2.44-2.91 5.129l-2.818 4.887 2.896 5.03c1.594 2.767 2.897 5.087 2.897 5.156 0 .246-5.806 10.232-6.09 10.474-.265.227-.767.247-6.028.247h-5.74l-2.885 5.005-2.886 5.004-6.209.003-6.209.003-2.89-5.007-2.89-5.007h-5.651l-5.653-.001-2.882 5.005-2.882 5.005-6.21.003-6.208.003-2.89-5.008-2.89-5.007-5.642.002-5.643.002-2.882 5.005-2.882 5.005h-6.217l-6.216-.002zm16.249 1.92 2.787-4.84 1.387-2.407-2.808-4.858-2.808-4.857h-11.199l-2.801 4.85-2.802 4.85.38.662 2.779 4.843 2.398 4.18 5.643.005 5.642.005zm36.3-1.868c1.347-2.328 2.601-4.492 2.786-4.81l.337-.577-2.799-4.854-2.799-4.853h-11.226l-2.799 4.85-2.799 4.851 2.79 4.845 2.79 4.844 5.634-.032 5.635-.032zm35.6-.564 2.781-4.796-.47-.847a651.834 651.834 0 0 0 -2.797-4.867l-2.326-4.02h-11.224l-2.797 4.848-2.797 4.848 2.788 4.847 2.788 4.846 5.636-.031 5.637-.032zm-52.91-10.196 2.793-4.835-2.793-4.828-2.793-4.828h-11.249l-2.79 4.828-2.789 4.828 2.628 4.553a625.142 625.142 0 0 0 2.828 4.872l.2.319 5.587-.037 5.586-.037zm35.273 0 2.792-4.833-2.792-4.83-2.791-4.828h-11.254l-2.791 4.83-2.792 4.828 2.703 4.693c1.486 2.581 2.766 4.773 2.843 4.871.109.139 1.36.17 5.714.141l5.575-.037 2.793-4.834zm35.27.004 2.788-4.832-2.787-4.831-2.788-4.832h-11.256l-2.792 4.829-2.793 4.828 2.624 4.552a559.317 559.317 0 0 0 2.827 4.872l.202.32 5.594-.038 5.594-.037zm-88.177-10.178c2.125-3.677 2.772-4.907 2.673-5.078l-2.785-4.81-2.653-4.586-5.639-.034-5.638-.034-2.793 4.852-2.793 4.852 2.63 4.563a561.348 561.348 0 0 0 2.833 4.882l.202.32 5.58-.038 5.58-.037zm35.27-.001c2.11-3.66 2.766-4.909 2.668-5.079-.07-.123-1.323-2.287-2.783-4.809l-2.654-4.585-5.638-.032-5.639-.032-2.786 4.85-2.787 4.851 2.626 4.563a639.437 639.437 0 0 0 2.827 4.881l.2.32 5.583-.038 5.583-.037zm35.266 0c2.11-3.66 2.767-4.909 2.669-5.079l-2.783-4.809-2.654-4.585-5.639-.032-5.638-.032-2.787 4.85-2.787 4.851 2.627 4.563a639.254 639.254 0 0 0 2.826 4.881l.2.32 5.584-.038 5.583-.037zm-53.333-9.424c1.28-2.223 2.528-4.396 2.772-4.828l.445-.786-2.773-4.796-2.774-4.796-5.641-.034-5.642-.033-2.735 4.745c-1.504 2.61-2.741 4.815-2.75 4.9-.01.085 1.219 2.298 2.728 4.916l2.745 4.761 5.649-.003 5.648-.003zm35.267.004c1.28-2.222 2.527-4.395 2.772-4.829l.445-.789-2.774-4.796-2.773-4.796-5.642-.034-5.641-.034-2.787 4.843-2.786 4.844 2.784 4.818 2.784 4.818 5.645-.002 5.645-.003zm35.649-.666c1.49-2.59 2.728-4.774 2.75-4.854.023-.079-1.197-2.306-2.71-4.948l-2.75-4.806h-5.643l-5.643.001-2.739 4.754c-1.506 2.615-2.739 4.827-2.739 4.916 0 .088 1.232 2.296 2.738 4.905l2.738 4.743h5.644l5.643-.001 2.71-4.71zm-88.142-10.211c1.504-2.616 2.739-4.81 2.744-4.877.004-.067-1.226-2.271-2.735-4.898l-2.744-4.776-5.647-.004-5.648-.005-2.746 4.756c-1.51 2.616-2.746 4.822-2.746 4.902s1.237 2.29 2.748 4.908l2.747 4.76 5.646-.005 5.646-.006zm35.282-.025c1.513-2.629 2.748-4.824 2.744-4.877-.004-.054-1.242-2.246-2.75-4.873l-2.744-4.776-5.643-.003-5.643-.003-2.739 4.745c-1.506 2.61-2.739 4.823-2.739 4.919 0 .095 1.233 2.307 2.74 4.915l2.738 4.74 5.643-.003 5.643-.004zm35.267.001c1.513-2.63 2.749-4.826 2.746-4.88s-1.24-2.246-2.751-4.872l-2.746-4.774-5.642-.004-5.643-.004-2.74 4.75c-1.506 2.613-2.738 4.826-2.738 4.919 0 .092 1.232 2.301 2.739 4.909l2.739 4.742 5.643-.002 5.642-.002zm-52.881-10.233 2.775-4.796-.445-.79c-.244-.433-1.492-2.606-2.772-4.828l-2.328-4.04-5.65-.003-5.65-.002-2.781 4.817-2.78 4.817 2.788 4.845 2.788 4.846 5.64-.035 5.64-.035zm35.248.052c1.513-2.642 2.73-4.877 2.704-4.967s-1.263-2.273-2.75-4.852l-2.705-4.688-5.646-.002-5.647-.002-2.785 4.817-2.785 4.817 2.789 4.844 2.789 4.843 5.642-.004 5.643-.003 2.75-4.803zm35.266 0c1.513-2.643 2.73-4.876 2.706-4.962-.025-.086-1.262-2.27-2.75-4.852l-2.705-4.697h-11.291l-2.784 4.818-2.785 4.818 2.787 4.842 2.786 4.841h5.643l5.642-.001zm-90.28-6.541 2.782-4.822 2.13-3.694-2.793-4.84-2.792-4.842h-11.245l-2.795 4.842-2.796 4.841 2.793 4.856 2.794 4.855 5.635-.034 5.635-.034zm35.266 0c.359-.62 1.61-2.79 2.782-4.822l2.13-3.694-2.792-4.84-2.792-4.842h-11.235l-2.795 4.844-2.794 4.843 2.787 4.85 2.787 4.851 5.636-.03 5.635-.032zm37.272-3.456c1.46-2.522 2.715-4.687 2.788-4.812.1-.172-.54-1.389-2.667-5.078l-2.799-4.852h-11.235l-2.791 4.84-2.793 4.84 2.786 4.855 2.785 4.854 5.635-.031 5.635-.032zm-52.782-10.408 2.792-4.835-2.793-4.828-2.793-4.827h-11.245l-2.792 4.829-2.792 4.829 2.703 4.693c1.487 2.58 2.766 4.773 2.843 4.87.11.14 1.36.17 5.712.142l5.572-.037zm35.27.004 2.791-4.831-2.791-4.832-2.791-4.831h-11.246l-2.794 4.83-2.794 4.83 2.702 4.692c1.487 2.58 2.766 4.772 2.843 4.87.109.138 1.36.17 5.714.14l5.575-.036zm35.272-.002 2.785-4.834-2.784-4.83-2.784-4.828h-11.26l-2.792 4.828-2.793 4.828 2.624 4.553a559.249 559.249 0 0 0 2.827 4.871l.202.32 5.595-.038 5.595-.036zm-88.186-10.165 2.798-4.842-2.13-3.693-2.78-4.82-.652-1.13-5.635-.032-5.635-.034-2.794 4.857-2.794 4.856 2.63 4.558a565.365 565.365 0 0 0 2.834 4.877l.203.319 5.578-.037 5.579-.037zm35.27.002 2.798-4.84-2.131-3.694a16271.46 16271.46 0 0 0 -2.783-4.824l-.651-1.128-5.635-.032-5.636-.031-2.786 4.856-2.786 4.855 2.062 3.57c1.133 1.963 2.405 4.157 2.826 4.875l.766 1.307 5.578-.037 5.578-.037zm35.266 0 2.798-4.84-2.13-3.694-2.783-4.824-.652-1.128-5.635-.032-5.635-.031-2.787 4.857-2.786 4.856 2.063 3.568a1833.95 1833.95 0 0 0 2.828 4.875l.764 1.307 5.578-.037 5.578-.037zm-52.944-10.094c1.49-2.586 2.727-4.771 2.75-4.856.024-.085-1.195-2.314-2.708-4.953l-2.75-4.8-5.645-.005-5.644-.005-2.731 4.737c-1.503 2.606-2.74 4.812-2.75 4.902s1.216 2.307 2.724 4.926l2.742 4.76 5.652-.002 5.651-.003zm35.262.014c1.488-2.579 2.726-4.764 2.751-4.857.026-.093-1.191-2.328-2.704-4.968l-2.751-4.8-5.643-.003-5.642-.004-2.734 4.742c-1.504 2.608-2.742 4.813-2.751 4.901-.01.088 1.219 2.302 2.73 4.92l2.745 4.762 5.648-.003 5.647-.002zm35.27-.004c1.487-2.584 2.724-4.767 2.75-4.853.024-.085-1.194-2.318-2.707-4.962l-2.75-4.807-5.643-.002-5.643-.002-2.786 4.84-2.786 4.841 2.784 4.82 2.784 4.822h11.291l2.705-4.697z" stroke-width=".141066"/></svg>