<svg fill="none" height="800" viewBox="0 0 24 24" width="800" xmlns="http://www.w3.org/2000/svg"><g stroke="#33363f" stroke-width="2"><path d="m6.8874 5.17157c.57806-.57806.86709-.86709 1.23463-1.01933s.77629-.15224 1.59379-.15224h4.61018c.8257 0 1.2386 0 1.6091.15505.3705.15506.6603.44914 1.2399 1.03729l1.674 1.69871c.5681.5764.8521.86461 1.0015 1.22919.1495.36458.1495.76921.1495 1.57847v4.64439c0 .8175 0 1.2263-.1522 1.5938-.1523.3676-.4413.6566-1.0194 1.2347l-1.6568 1.6568c-.5781.5781-.8671.8671-1.2347 1.0194-.3675.1522-.7763.1522-1.5938.1522h-4.64439c-.80926 0-1.21389 0-1.57847-.1495-.36458-.1494-.65279-.4334-1.22919-1.0015l-1.6987-1.674c-.58816-.5796-.88224-.8694-1.0373-1.2399-.15505-.3705-.15505-.7834-.15505-1.6091v-4.61017c0-.81751 0-1.22626.15224-1.5938s.44127-.65657 1.01933-1.23463z"/><g stroke-linecap="round"><path d="m8 11 .42229.2111c2.25221 1.1262 4.90321 1.1262 7.15541 0l.4223-.2111"/><path d="m12 12.5v1.5"/><path d="m9 12-.5 1"/><path d="m15 12 .5 1"/></g></g></svg>