<svg height="800" viewBox="0 0 512.001 512.001" width="800" xmlns="http://www.w3.org/2000/svg"><path d="m470.632 37.377h-429.264c-22.847 0-41.368 18.521-41.368 41.367v354.511c0 22.846 18.521 41.368 41.368 41.368h429.265c22.846 0 41.368-18.521 41.368-41.368v-354.511c-.001-22.846-18.522-41.367-41.369-41.367z" fill="#b4bbcc"/><path d="m473.083 233.282v-130.667c0-14.537-11.784-26.321-26.321-26.321h-381.524c-14.537 0-26.321 11.784-26.321 26.321v240.014l50.002 45.511z" fill="#a6e7ff"/><path d="m38.909 158.803c9.339-7.358 21.125-11.747 33.937-11.747 24.26 0 44.829 15.746 52.081 37.571 8.774-5.142 18.98-8.101 29.884-8.101 30.261 0 55.202 22.707 58.757 52.009 25.772 2.769 46.005 24.044 47.129 50.275l-63.977 62.539-157.801 1.281z" fill="#fff"/><path d="m157.978 310.558s-68.733-25.906-119.062 32.07v66.756c0 14.537 11.784 26.321 26.321 26.321l104.657-79.174z" fill="#6c994e"/><path d="m38.917 377.353c50.329-57.976 119.062-32.07 119.062-32.07l4.391 16.942 7.525-5.692-11.916-45.974s-68.733-25.906-119.062 32.07z" opacity=".1"/><path d="m65.238 435.706c34.925-92.71 144.432-202.073 235.563-140.329l-30.288 97.379-77.076 42.951h-128.199z" fill="#7eb35b"/><path d="m297.67 305.443 3.131-10.067c-91.132-61.743-200.638 47.619-235.563 140.329h33.258c38.339-77.51 121.995-155.814 199.174-130.262z" opacity=".1"/><path d="m473.083 409.385v-176.103c-175.29-17.428-279.647 202.424-279.647 202.424h253.326c14.537 0 26.321-11.784 26.321-26.321z" fill="#a5eb78"/><path d="m473.083 255.484v-22.203c-175.29-17.428-279.647 202.424-279.647 202.424h35.651c30.729-52.847 116.82-178.01 243.996-180.221z" opacity=".1"/><circle cx="343.505" cy="173.957" fill="#ffe97a" r="37.155"/><path d="m317.935 185.533c0-20.517 16.633-37.15 37.15-37.15 7.294 0 14.092 2.111 19.832 5.743-6.584-10.405-18.184-17.318-31.407-17.318-20.517 0-37.15 16.633-37.15 37.15 0 13.223 6.914 24.823 17.318 31.407-3.632-5.739-5.743-12.537-5.743-19.832z" opacity=".1"/></svg>