<svg viewBox="0 0 60 60" xmlns="http://www.w3.org/2000/svg"><g transform="matrix(1.05246 0 0 1.36394 .1 -4.034)"><path d="m1 4h55v42h-55z" fill="#ecf0f1" transform="matrix(1.0034 0 0 1 -.194 0)"/><path d="m57 47h-57v-44h57zm-55-2h53v-40h-53z" fill="#545e73" transform="matrix(1.0034 0 0 1 -.194 0)"/><path d="m5 8h47v34h-47z" fill="#545e73"/><path d="m53 43h-49v-36h49zm-47-2h45v-32h-45z" fill="#ecf0f1"/><circle cx="15" cy="15" fill="#f3d55a" r="5" stroke-width=".798878"/><path d="m27.5 31.5 5.483 5.483 4.017 4.017h14v-8.889l-1-1.111-12-11z" fill="#11a085"/><path d="m22.017 26.017-16.017 13.983v1h31l-4.017-4.017z" fill="#26b999"/></g></svg>