<?xml version="1.0" encoding="UTF-8" standalone="no"?>
<!-- Created with Inkscape (http://www.inkscape.org/) -->

<svg
   xmlns:dc="http://purl.org/dc/elements/1.1/"
   xmlns:cc="http://creativecommons.org/ns#"
   xmlns:rdf="http://www.w3.org/1999/02/22-rdf-syntax-ns#"
   xmlns:svg="http://www.w3.org/2000/svg"
   xmlns="http://www.w3.org/2000/svg"
   xmlns:sodipodi="http://sodipodi.sourceforge.net/DTD/sodipodi-0.dtd"
   xmlns:inkscape="http://www.inkscape.org/namespaces/inkscape"
   width="128px"
   height="128px"
   viewBox="0 0 128 128"
   version="1.1"
   id="SVGRoot"
   inkscape:version="0.92.3 (2405546, 2018-03-11)"
   sodipodi:docname="initScore.svg">
  <sodipodi:namedview
     id="base"
     pagecolor="#ffffff"
     bordercolor="#666666"
     borderopacity="1.0"
     inkscape:pageopacity="0.0"
     inkscape:pageshadow="2"
     inkscape:zoom="4"
     inkscape:cx="57.73864"
     inkscape:cy="56.116528"
     inkscape:document-units="px"
     inkscape:current-layer="layer1"
     showgrid="false"
     inkscape:window-width="1920"
     inkscape:window-height="1052"
     inkscape:window-x="2560"
     inkscape:window-y="120"
     inkscape:window-maximized="1"
     inkscape:grid-bbox="true" />
  <defs
     id="defs1374" />
  <metadata
     id="metadata1377">
    <rdf:RDF>
      <cc:Work
         rdf:about="">
        <dc:format>image/svg+xml</dc:format>
        <dc:type
           rdf:resource="http://purl.org/dc/dcmitype/StillImage" />
        <dc:title></dc:title>
      </cc:Work>
    </rdf:RDF>
  </metadata>
  <g
     id="layer1"
     inkscape:groupmode="layer"
     inkscape:label="Layer 1">
    <path
       style="fill:#000000;stroke-width:0.52231008"
       d="m 9.8391485,124.63677 c -1.1411,-0.76655 -2.04873,-1.97871 -2.54211,-3.39501 -0.67494,-1.93749 -0.67494,-2.4681 0,-4.40558 0.49508,-1.4212 1.40116,-2.62858 2.55362,-3.40278 0.9824505,-0.65999 2.1780605,-1.84285 2.6569205,-2.62857 0.47885,-0.78573 1.43848,-1.73102 2.13251,-2.10064 0.69402,-0.36962 1.66163,-1.36862 2.15026,-2.21999 0.48862,-0.85138 1.44804,-1.80294 2.13205,-2.1146 0.684,-0.31165 1.6573,-1.26691 2.16288,-2.1228 0.50559,-0.85588 1.48328,-1.81314 2.17266,-2.12725 0.68938,-0.314097 1.71434,-1.352309 2.27771,-2.307139 l 1.02429,-1.736049 -3.50236,-2.05353 c -1.9263,-1.129443 -4.75785,-2.485203 -6.29234,-3.012805 -1.53448,-0.527601 -2.97321,-1.311834 -3.19718,-1.742739 -0.54834,-1.05503 2.41362,-10.410481 3.41802,-10.795904 0.91021,-0.34928 6.13847,1.458634 9.88148,3.416983 1.43635,0.751505 2.74357,1.431308 2.90493,1.510683 0.34973,0.172028 14.59246,-14.914768 14.59246,-15.457255 0,-0.206302 -7.05119,-6.913836 -15.6693,-14.905634 -8.61812,-7.991797 -15.67606,-14.802383 -15.68431,-15.134634 -0.008,-0.332251 -0.8128,-6.096669 -1.78789,-12.809816 -0.9751,-6.713148 -1.6483205,-12.530376 -1.4960505,-12.927174 0.15227,-0.396799 0.8079105,-0.721452 1.4569805,-0.721452 1.2085,0 22.60636,2.95642 24.65108,3.4059 0.62713,0.137857 7.35929,6.95592 15.07378,15.266108 7.66729,8.259346 14.20852,15.059184 14.53605,15.110753 0.32754,0.05157 7.45742,-7.2576 15.84417,-16.242595 l 15.24865,-16.336356 12.098621,-0.671784 c 13.7442,-0.763155 13.1596,-0.918282 12.7576,3.385299 -0.13417,1.436353 -0.49074,6.724742 -0.79239,11.751977 l -0.54844,9.140427 -2.45776,2.426542 c -1.35177,1.334598 -8.80384,8.350057 -16.56015,15.589907 -7.756301,7.239851 -14.176331,13.362217 -14.266721,13.605253 -0.1875,0.504087 14.043001,15.746615 14.494221,15.525009 0.16215,-0.07963 1.47001,-0.759653 2.90637,-1.511158 3.74301,-1.958349 8.97127,-3.766263 9.88148,-3.416983 1.0044,0.385423 3.96636,9.740874 3.41801,10.795904 -0.22396,0.430905 -1.66269,1.215138 -3.19718,1.742739 -1.53449,0.527602 -4.36603,1.883362 -6.29233,3.012805 l -3.50236,2.05353 1.02429,1.736049 c 0.56336,0.95483 1.58833,1.993042 2.27771,2.307139 0.68938,0.31411 1.66707,1.27137 2.17266,2.12725 0.50558,0.85589 1.47888,1.81115 2.16288,2.1228 0.68401,0.31166 1.64343,1.26322 2.13205,2.1146 0.48862,0.85137 1.45624,1.85037 2.15026,2.21999 0.69402,0.36962 1.65365,1.31491 2.13251,2.10064 0.47886,0.78572 1.67447,1.96858 2.65692,2.62857 1.15246,0.7742 2.05853,1.98158 2.55362,3.40278 0.67494,1.93748 0.67494,2.46809 0,4.40558 -0.97657,2.80334 -3.49065,4.58799 -6.45943,4.58528 -2.42762,-0.002 -5.28253,-1.50544 -5.76879,-3.03749 -0.17845,-0.56225 -1.23841,-1.6271 -2.35545,-2.36633 -1.11704,-0.73922 -2.18388,-1.82575 -2.37074,-2.4145 -0.18686,-0.58875 -1.02423,-1.42441 -1.86082,-1.85703 -0.83659,-0.43262 -1.87504,-1.47106 -2.30766,-2.30765 -0.43261,-0.83659 -1.26828,-1.67396 -1.85702,-1.86083 -0.58876,-0.18686 -1.657981,-1.22755 -2.376071,-2.31265 -0.71808,-1.0851 -1.93344,-2.25897 -2.70079,-2.60859 -1.19909,-0.54635 -1.49592,-0.5018 -2.11199,0.31697 -1.08927,1.44768 -4.06083,7.48835 -4.79034,9.73793 -0.35587,1.09738 -0.96008,2.11536 -1.34268,2.26218 -1.00935,0.38732 -9.79626,-2.36387 -10.51696,-3.29288 -0.72772,-0.93805 0.31172,-4.33486 2.88854,-9.43952 0.90155,-1.78596 1.63919,-3.45253 1.63919,-3.70349 0,-0.25096 -3.5297,-3.80803 -7.84376,-7.904591 l -7.84376,-7.448299 -1.6884,1.346646 c -0.92862,0.740657 -4.6264,4.150521 -8.21728,7.577471 l -6.52887,6.230823 1.76415,3.57666 c 2.74525,5.56577 3.75446,8.82365 3.02473,9.7643 -0.7207,0.92901 -9.50761,3.6802 -10.51696,3.29288 -0.38261,-0.14682 -0.98681,-1.1648 -1.34268,-2.26218 -0.72951,-2.24958 -3.70108,-8.29025 -4.79034,-9.73793 -0.61607,-0.81877 -0.9129,-0.86332 -2.112,-0.31697 -0.76735,0.34962 -1.9827,1.52349 -2.70079,2.60859 -0.71808,1.0851 -1.78731,2.12579 -2.37606,2.31265 -0.58875,0.18687 -1.42441,1.02424 -1.85703,1.86083 -0.43262,0.83659 -1.47106,1.87503 -2.30765,2.30765 -0.83659,0.43262 -1.67396,1.26828 -1.86082,1.85703 -0.18686,0.58875 -1.2537,1.67528 -2.37074,2.4145 -1.11705,0.73923 -2.177,1.80408 -2.35546,2.36633 -0.91292,2.87636 -6.55298,3.95196 -9.6861005,1.84722 z m 6.0572405,-3.11683 1.36137,-1.1752 -2.28519,-2.2386 c -2.48347,-2.43283 -3.80234,-2.52827 -4.35775,-0.31534 -0.46602,1.85677 0.14771,3.61676 1.48613,4.2618 1.74797,0.84241 2.29079,0.76623 3.79544,-0.53266 z m 102.885691,0.56334 c 1.47748,-0.67318 2.12389,-2.36496 1.64012,-4.29248 -0.55541,-2.21293 -1.87428,-2.11749 -4.35775,0.31534 l -2.2852,2.2386 1.36138,1.1752 c 1.56786,1.35345 1.8213,1.39266 3.64145,0.56334 z m -99.532821,-8.18965 c -2.39272,-2.34545 -3.31227,-2.65518 -3.83542,-1.29187 -0.23049,0.60065 0.36061,1.58474 1.88458,3.13755 2.16391,2.20487 2.24508,2.23774 3.19095,1.29187 0.94587,-0.94587 0.91432,-1.02568 -1.24011,-3.13755 z m 96.176961,-1.35089 c -0.95545,-1.15125 -1.16459,-1.07412 -3.62377,1.33648 -2.111,2.0693 -2.16082,2.19143 -1.28763,3.15631 0.88703,0.98015 0.96327,0.94878 3.24853,-1.33649 1.99662,-1.99661 2.24075,-2.46 1.66287,-3.1563 z m -64.884331,1.50588 c 0.0937,-0.076 -0.50866,-1.75437 -1.33858,-3.72964 -3.06827,-7.30271 -9.30495,-15.256375 -16.03877,-20.454316 -3.53026,-2.725064 -13.88745,-8.135042 -14.4036,-7.523579 -0.41784,0.494998 -1.68943,4.895064 -1.46174,5.058025 0.0917,0.06565 2.02624,0.989333 4.2989,2.052642 10.8106,5.05791 19.88625,14.928938 23.4602,25.516218 0.28037,0.83054 0.47066,0.83427 2.80699,0.0549 1.37842,-0.45981 2.58289,-0.89823 2.6766,-0.97426 z m 35.60787,0.54799 c 0,-1.26274 3.92162,-8.36119 6.38151,-11.55106 4.7103,-6.108087 10.034491,-10.379758 16.994931,-13.635249 2.22466,-1.040509 4.11989,-1.945542 4.21162,-2.011191 0.22769,-0.162961 -1.0439,-4.563027 -1.46174,-5.058025 -0.51615,-0.611463 -10.87334,4.798515 -14.403601,7.523579 -6.73382,5.197941 -12.9705,13.151606 -16.03878,20.454316 -0.82991,1.97527 -1.43227,3.65548 -1.33857,3.73379 0.50977,0.42605 4.93086,1.67762 5.26289,1.48987 0.21546,-0.12182 0.39174,-0.54753 0.39174,-0.94603 z m -61.08318,-2.11917 c 0.57796,-0.6964 0.33098,-1.16245 -1.68363,-3.17706 -2.23486,-2.23487 -2.40902,-2.31286 -3.26132,-1.46057 -0.85229,0.8523 -0.78106,1.02196 1.33402,3.17706 2.49867,2.54596 2.65698,2.61 3.61093,1.46057 z m 84.514791,-1.46057 c 2.11508,-2.1551 2.18631,-2.32476 1.33402,-3.17706 -0.8523,-0.85229 -1.02646,-0.7743 -3.26132,1.46057 -2.01461,2.01461 -2.26159,2.48066 -1.68363,3.17706 0.95395,1.14943 1.11226,1.08539 3.61093,-1.46057 z m -81.640851,-6.0382 c -2.23984,-2.23984 -2.41527,-2.31864 -3.26663,-1.46727 -0.85136,0.85136 -0.7762,1.02549 1.39956,3.24242 2.17998,2.22125 2.3494,2.29735 3.26662,1.46728 0.93138,-0.84289 0.87928,-0.96359 -1.39955,-3.24243 z m 78.437591,-1.45228 c -0.85136,-0.85137 -1.02549,-0.77621 -3.24242,1.39955 -2.22125,2.17998 -2.29735,2.34941 -1.46728,3.26663 0.84289,0.93138 0.96359,0.87928 3.24243,-1.39956 2.23984,-2.23983 2.31864,-2.41526 1.46727,-3.26662 z m -72.560681,0.25798 c 0.49168,-0.49168 0.14687,-1.1221 -1.57122,-2.87271 -2.37462,-2.419561 -3.2492,-2.736891 -3.77397,-1.369342 -0.22629,0.589702 0.29901,1.522912 1.61705,2.872702 2.08197,2.13214 2.72804,2.36944 3.72814,1.36935 z m 67.130301,-1.36935 c 1.31804,-1.34979 1.84334,-2.283 1.61705,-2.872702 -0.52478,-1.367549 -1.39935,-1.050219 -3.773981,1.369342 -1.71809,1.75061 -2.06289,2.38103 -1.57121,2.87271 1.00009,1.00009 1.64617,0.76279 3.728141,-1.36935 z M 82.111849,67.273186 116.7049,34.832887 l 0.33735,-4.774292 c 0.18555,-2.625862 0.49261,-7.102206 0.68236,-9.947434 l 0.345,-5.17314 -7.73355,0.353349 c -4.25344,0.194342 -8.81019,0.490663 -10.12611,0.65849 l -2.392571,0.305141 -32.07989,34.234633 c -17.64395,18.829049 -32.16443,34.452748 -32.26776,34.719336 -0.10332,0.266587 0.36676,0.872816 1.04462,1.347178 0.67787,0.474362 2.07106,1.619647 3.09598,2.545071 l 1.8635,1.682601 4.92653,-4.972188 c 2.7096,-2.734701 5.35288,-5.207588 5.87397,-5.495303 1.09563,-0.604945 2.44758,0.23306 2.44758,1.517133 0,0.437378 -2.38602,3.219917 -5.30226,6.18342 l -5.30226,5.388188 1.86414,2.063381 c 1.02527,1.134854 2.12684,2.554253 2.44793,3.154209 0.32109,0.599957 0.69754,1.090829 0.83656,1.090829 0.13903,0 15.81965,-14.598133 34.84583,-32.440303 z m -25.86435,9.939133 c -1.52946,-0.890832 -1.03929,-2.309609 1.67514,-4.848636 2.78295,-2.603126 3.13437,-2.757119 4.09639,-1.795097 1.14371,1.143708 0.65358,2.339072 -1.9624,4.786011 -1.42405,1.332027 -2.658,2.414723 -2.74213,2.405985 -0.0841,-0.0087 -0.56427,-0.255451 -1.067,-0.548263 z m 9.03756,-10.109824 c -0.43482,-0.523924 -0.46399,-1.035736 -0.0967,-1.697508 0.28917,-0.521083 6.73302,-7.138287 14.31968,-14.704892 11.39285,-11.362747 14.01149,-13.726584 15.04387,-13.580063 2.99186,0.424621 1.89643,1.847325 -12.64885,16.427943 -7.84847,7.867529 -14.65818,14.304599 -15.13269,14.304599 -0.47451,0 -1.14288,-0.337532 -1.48526,-0.750079 z m 34.05303,-33.023683 c -1.61041,-0.649811 -0.52439,-2.677687 3.667081,-6.847379 4.29636,-4.27404 6.17923,-5.229286 6.85195,-3.476224 0.46935,1.223127 -0.21977,2.174415 -4.79671,6.621616 -4.12167,4.004817 -4.44824,4.216091 -5.722321,3.701987 z M 84.607559,98.62266 c 0.32108,-0.599956 1.42266,-2.019355 2.44793,-3.154209 l 1.86414,-2.063381 -5.30226,-5.388188 c -2.91625,-2.963503 -5.30226,-5.746042 -5.30226,-6.18342 0,-1.284073 1.35194,-2.122078 2.44758,-1.517133 0.52109,0.287715 3.16017,2.756382 5.86463,5.485927 l 4.9172,4.962808 2.64732,-2.315818 c 1.45603,-1.273701 2.82765,-2.315819 3.04803,-2.315819 1.1679,0 -0.23165,-1.822721 -6.45554,-8.407474 l -6.85625,-7.253764 -1.89244,1.652782 c -1.04085,0.909029 -4.5954,4.208425 -7.89902,7.33198 l -6.00656,5.679203 7.5735,7.264075 c 4.16542,3.995244 7.7415,7.275142 7.94685,7.28867 0.20535,0.01353 0.63606,-0.466282 0.95715,-1.066239 z M 54.918529,57.01464 c 4.20224,-4.524512 7.64397,-8.461424 7.64828,-8.748694 0.004,-0.287271 -5.32329,-6.262591 -11.83913,-13.278489 -6.51584,-7.015898 -12.66962,-13.671859 -13.67507,-14.791025 l -1.82809,-2.034848 -10.4462,-1.516795 c -5.74541,-0.834238 -10.69947,-1.523261 -11.00902,-1.531164 -0.36796,-0.0094 -0.006,3.770554 1.04463,10.918108 l 1.60743,10.932477 15.14699,14.110335 c 8.33085,7.760685 15.27361,14.12297 15.42837,14.13841 0.15476,0.01543 3.71957,-3.673804 7.92181,-8.198315 z M 41.115019,45.509309 c -5.68157,-5.681573 -10.33013,-10.726654 -10.33013,-11.21129 0,-0.484636 0.49418,-1.145634 1.09817,-1.468884 0.99912,-0.534709 2.03566,0.345502 11.49083,9.757741 5.71595,5.690007 10.39264,10.717517 10.39264,11.172245 0,0.934742 -0.98431,2.080321 -1.78746,2.080321 -0.29365,0 -5.18248,-4.64856 -10.86405,-10.330133 z m -17.615,-17.633247 c -1.76601,-1.867301 -2.62592,-3.178308 -2.42616,-3.698889 0.1702,-0.443516 0.30945,-0.90469 0.30945,-1.02483 0,-0.12014 0.5535,-0.218437 1.23001,-0.218437 0.81175,0 2.14381,0.96621 3.91732,2.84144 2.86787,3.032343 3.03675,3.390231 2.06055,4.36644 -1.16375,1.163748 -2.34481,0.63814 -5.09117,-2.265724 z"
       id="path2224"
       inkscape:connector-curvature="0" />
    <text
       xml:space="preserve"
       style="font-style:normal;font-weight:normal;font-size:70.33719635px;line-height:125%;font-family:Sans;letter-spacing:0px;word-spacing:0px;fill:#ff0000;fill-opacity:1;stroke:none;stroke-width:1.75842988px;stroke-linecap:butt;stroke-linejoin:miter;stroke-opacity:1"
       x="-4.367897"
       y="50.782722"
       id="text2025"
       transform="scale(1.0259136,0.97474095)"><tspan
         sodipodi:role="line"
         id="tspan2023"
         x="-4.367897"
         y="50.782722"
         style="stroke-width:1.75842988px">#</tspan></text>
  </g>
</svg>
