<svg height="128" viewBox="0 0 128 128" width="128" xmlns="http://www.w3.org/2000/svg"><path d="m9.8391485 124.63677c-1.1411-.76655-2.04873-1.97871-2.54211-3.39501-.67494-1.93749-.67494-2.4681 0-4.40558.49508-1.4212 1.40116-2.62858 2.55362-3.40278.9824505-.65999 2.1780605-1.84285 2.6569205-2.62857.47885-.78573 1.43848-1.73102 2.13251-2.10064.69402-.36962 1.66163-1.36862 2.15026-2.21999.48862-.85138 1.44804-1.80294 2.13205-2.1146.684-.31165 1.6573-1.26691 2.16288-2.1228.50559-.85588 1.48328-1.81314 2.17266-2.12725.68938-.314097 1.71434-1.352309 2.27771-2.307139l1.02429-1.736049-3.50236-2.05353c-1.9263-1.129443-4.75785-2.485203-6.29234-3.012805-1.53448-.527601-2.97321-1.311834-3.19718-1.742739-.54834-1.05503 2.41362-10.410481 3.41802-10.795904.91021-.34928 6.13847 1.458634 9.88148 3.416983 1.43635.751505 2.74357 1.431308 2.90493 1.510683.34973.172028 14.59246-14.914768 14.59246-15.457255 0-.206302-7.05119-6.913836-15.6693-14.905634-8.61812-7.991797-15.67606-14.802383-15.68431-15.134634-.008-.332251-.8128-6.096669-1.78789-12.809816-.9751-6.713148-1.6483205-12.530376-1.4960505-12.927174.15227-.396799.8079105-.721452 1.4569805-.721452 1.2085 0 22.60636 2.95642 24.65108 3.4059.62713.137857 7.35929 6.95592 15.07378 15.266108 7.66729 8.259346 14.20852 15.059184 14.53605 15.110753.32754.05157 7.45742-7.2576 15.84417-16.242595l15.24865-16.336356 12.098621-.671784c13.7442-.763155 13.1596-.918282 12.7576 3.385299-.13417 1.436353-.49074 6.724742-.79239 11.751977l-.54844 9.140427-2.45776 2.426542c-1.35177 1.334598-8.80384 8.350057-16.56015 15.589907-7.756301 7.239851-14.176331 13.362217-14.266721 13.605253-.1875.504087 14.043001 15.746615 14.494221 15.525009.16215-.07963 1.47001-.759653 2.90637-1.511158 3.74301-1.958349 8.97127-3.766263 9.88148-3.416983 1.0044.385423 3.96636 9.740874 3.41801 10.795904-.22396.430905-1.66269 1.215138-3.19718 1.742739-1.53449.527602-4.36603 1.883362-6.29233 3.012805l-3.50236 2.05353 1.02429 1.736049c.56336.95483 1.58833 1.993042 2.27771 2.307139.68938.31411 1.66707 1.27137 2.17266 2.12725.50558.85589 1.47888 1.81115 2.16288 2.1228.68401.31166 1.64343 1.26322 2.13205 2.1146.48862.85137 1.45624 1.85037 2.15026 2.21999s1.65365 1.31491 2.13251 2.10064c.47886.78572 1.67447 1.96858 2.65692 2.62857 1.15246.7742 2.05853 1.98158 2.55362 3.40278.67494 1.93748.67494 2.46809 0 4.40558-.97657 2.80334-3.49065 4.58799-6.45943 4.58528-2.42762-.002-5.28253-1.50544-5.76879-3.03749-.17845-.56225-1.23841-1.6271-2.35545-2.36633-1.11704-.73922-2.18388-1.82575-2.37074-2.4145s-1.02423-1.42441-1.86082-1.85703-1.87504-1.47106-2.30766-2.30765c-.43261-.83659-1.26828-1.67396-1.85702-1.86083-.58876-.18686-1.657981-1.22755-2.376071-2.31265-.71808-1.0851-1.93344-2.25897-2.70079-2.60859-1.19909-.54635-1.49592-.5018-2.11199.31697-1.08927 1.44768-4.06083 7.48835-4.79034 9.73793-.35587 1.09738-.96008 2.11536-1.34268 2.26218-1.00935.38732-9.79626-2.36387-10.51696-3.29288-.72772-.93805.31172-4.33486 2.88854-9.43952.90155-1.78596 1.63919-3.45253 1.63919-3.70349s-3.5297-3.80803-7.84376-7.904591l-7.84376-7.448299-1.6884 1.346646c-.92862.740657-4.6264 4.150521-8.21728 7.577471l-6.52887 6.230823 1.76415 3.57666c2.74525 5.56577 3.75446 8.82365 3.02473 9.7643-.7207.92901-9.50761 3.6802-10.51696 3.29288-.38261-.14682-.98681-1.1648-1.34268-2.26218-.72951-2.24958-3.70108-8.29025-4.79034-9.73793-.61607-.81877-.9129-.86332-2.112-.31697-.76735.34962-1.9827 1.52349-2.70079 2.60859-.71808 1.0851-1.78731 2.12579-2.37606 2.31265-.58875.18687-1.42441 1.02424-1.85703 1.86083s-1.47106 1.87503-2.30765 2.30765-1.67396 1.26828-1.86082 1.85703-1.2537 1.67528-2.37074 2.4145c-1.11705.73923-2.177 1.80408-2.35546 2.36633-.91292 2.87636-6.55298 3.95196-9.6861005 1.84722zm6.0572405-3.11683 1.36137-1.1752-2.28519-2.2386c-2.48347-2.43283-3.80234-2.52827-4.35775-.31534-.46602 1.85677.14771 3.61676 1.48613 4.2618 1.74797.84241 2.29079.76623 3.79544-.53266zm102.885691.56334c1.47748-.67318 2.12389-2.36496 1.64012-4.29248-.55541-2.21293-1.87428-2.11749-4.35775.31534l-2.2852 2.2386 1.36138 1.1752c1.56786 1.35345 1.8213 1.39266 3.64145.56334zm-99.532821-8.18965c-2.39272-2.34545-3.31227-2.65518-3.83542-1.29187-.23049.60065.36061 1.58474 1.88458 3.13755 2.16391 2.20487 2.24508 2.23774 3.19095 1.29187s.91432-1.02568-1.24011-3.13755zm96.176961-1.35089c-.95545-1.15125-1.16459-1.07412-3.62377 1.33648-2.111 2.0693-2.16082 2.19143-1.28763 3.15631.88703.98015.96327.94878 3.24853-1.33649 1.99662-1.99661 2.24075-2.46 1.66287-3.1563zm-64.884331 1.50588c.0937-.076-.50866-1.75437-1.33858-3.72964-3.06827-7.30271-9.30495-15.256375-16.03877-20.454316-3.53026-2.725064-13.88745-8.135042-14.4036-7.523579-.41784.494998-1.68943 4.895064-1.46174 5.058025.0917.06565 2.02624.989333 4.2989 2.052642 10.8106 5.05791 19.88625 14.928938 23.4602 25.516218.28037.83054.47066.83427 2.80699.0549 1.37842-.45981 2.58289-.89823 2.6766-.97426zm35.60787.54799c0-1.26274 3.92162-8.36119 6.38151-11.55106 4.7103-6.108087 10.034491-10.379758 16.994931-13.635249 2.22466-1.040509 4.11989-1.945542 4.21162-2.011191.22769-.162961-1.0439-4.563027-1.46174-5.058025-.51615-.611463-10.87334 4.798515-14.403601 7.523579-6.73382 5.197941-12.9705 13.151606-16.03878 20.454316-.82991 1.97527-1.43227 3.65548-1.33857 3.73379.50977.42605 4.93086 1.67762 5.26289 1.48987.21546-.12182.39174-.54753.39174-.94603zm-61.08318-2.11917c.57796-.6964.33098-1.16245-1.68363-3.17706-2.23486-2.23487-2.40902-2.31286-3.26132-1.46057-.85229.8523-.78106 1.02196 1.33402 3.17706 2.49867 2.54596 2.65698 2.61 3.61093 1.46057zm84.514791-1.46057c2.11508-2.1551 2.18631-2.32476 1.33402-3.17706-.8523-.85229-1.02646-.7743-3.26132 1.46057-2.01461 2.01461-2.26159 2.48066-1.68363 3.17706.95395 1.14943 1.11226 1.08539 3.61093-1.46057zm-81.640851-6.0382c-2.23984-2.23984-2.41527-2.31864-3.26663-1.46727-.85136.85136-.7762 1.02549 1.39956 3.24242 2.17998 2.22125 2.3494 2.29735 3.26662 1.46728.93138-.84289.87928-.96359-1.39955-3.24243zm78.437591-1.45228c-.85136-.85137-1.02549-.77621-3.24242 1.39955-2.22125 2.17998-2.29735 2.34941-1.46728 3.26663.84289.93138.96359.87928 3.24243-1.39956 2.23984-2.23983 2.31864-2.41526 1.46727-3.26662zm-72.560681.25798c.49168-.49168.14687-1.1221-1.57122-2.87271-2.37462-2.419561-3.2492-2.736891-3.77397-1.369342-.22629.589702.29901 1.522912 1.61705 2.872702 2.08197 2.13214 2.72804 2.36944 3.72814 1.36935zm67.130301-1.36935c1.31804-1.34979 1.84334-2.283 1.61705-2.872702-.52478-1.367549-1.39935-1.050219-3.773981 1.369342-1.71809 1.75061-2.06289 2.38103-1.57121 2.87271 1.00009 1.00009 1.64617.76279 3.728141-1.36935zm-18.835881-35.141834 34.593051-32.440299.33735-4.774292c.18555-2.625862.49261-7.102206.68236-9.947434l.345-5.17314-7.73355.353349c-4.25344.194342-8.81019.490663-10.12611.65849l-2.392571.305141-32.07989 34.234633c-17.64395 18.829049-32.16443 34.452748-32.26776 34.719336-.10332.266587.36676.872816 1.04462 1.347178.67787.474362 2.07106 1.619647 3.09598 2.545071l1.8635 1.682601 4.92653-4.972188c2.7096-2.734701 5.35288-5.207588 5.87397-5.495303 1.09563-.604945 2.44758.23306 2.44758 1.517133 0 .437378-2.38602 3.219917-5.30226 6.18342l-5.30226 5.388188 1.86414 2.063381c1.02527 1.134854 2.12684 2.554253 2.44793 3.154209.32109.599957.69754 1.090829.83656 1.090829.13903 0 15.81965-14.598133 34.84583-32.440303zm-25.86435 9.939133c-1.52946-.890832-1.03929-2.309609 1.67514-4.848636 2.78295-2.603126 3.13437-2.757119 4.09639-1.795097 1.14371 1.143708.65358 2.339072-1.9624 4.786011-1.42405 1.332027-2.658 2.414723-2.74213 2.405985-.0841-.0087-.56427-.255451-1.067-.548263zm9.03756-10.109824c-.43482-.523924-.46399-1.035736-.0967-1.697508.28917-.521083 6.73302-7.138287 14.31968-14.704892 11.39285-11.362747 14.01149-13.726584 15.04387-13.580063 2.99186.424621 1.89643 1.847325-12.64885 16.427943-7.84847 7.867529-14.65818 14.304599-15.13269 14.304599s-1.14288-.337532-1.48526-.750079zm34.05303-33.023683c-1.61041-.649811-.52439-2.677687 3.667081-6.847379 4.29636-4.27404 6.17923-5.229286 6.85195-3.476224.46935 1.223127-.21977 2.174415-4.79671 6.621616-4.12167 4.004817-4.44824 4.216091-5.722321 3.701987zm-14.73053 64.543848c.32108-.599956 1.42266-2.019355 2.44793-3.154209l1.86414-2.063381-5.30226-5.388188c-2.91625-2.963503-5.30226-5.746042-5.30226-6.18342 0-1.284073 1.35194-2.122078 2.44758-1.517133.52109.287715 3.16017 2.756382 5.86463 5.485927l4.9172 4.962808 2.64732-2.315818c1.45603-1.273701 2.82765-2.315819 3.04803-2.315819 1.1679 0-.23165-1.822721-6.45554-8.407474l-6.85625-7.253764-1.89244 1.652782c-1.04085.909029-4.5954 4.208425-7.89902 7.33198l-6.00656 5.679203 7.5735 7.264075c4.16542 3.995244 7.7415 7.275142 7.94685 7.28867.20535.01353.63606-.466282.95715-1.066239zm-29.68903-41.60802c4.20224-4.524512 7.64397-8.461424 7.64828-8.748694.004-.287271-5.32329-6.262591-11.83913-13.278489s-12.66962-13.671859-13.67507-14.791025l-1.82809-2.034848-10.4462-1.516795c-5.74541-.834238-10.69947-1.523261-11.00902-1.531164-.36796-.0094-.006 3.770554 1.04463 10.918108l1.60743 10.932477 15.14699 14.110335c8.33085 7.760685 15.27361 14.12297 15.42837 14.13841.15476.01543 3.71957-3.673804 7.92181-8.198315zm-13.80351-11.505331c-5.68157-5.681573-10.33013-10.726654-10.33013-11.21129s.49418-1.145634 1.09817-1.468884c.99912-.534709 2.03566.345502 11.49083 9.757741 5.71595 5.690007 10.39264 10.717517 10.39264 11.172245 0 .934742-.98431 2.080321-1.78746 2.080321-.29365 0-5.18248-4.64856-10.86405-10.330133zm-17.615-17.633247c-1.76601-1.867301-2.62592-3.178308-2.42616-3.698889.1702-.443516.30945-.90469.30945-1.02483s.5535-.218437 1.23001-.218437c.81175 0 2.14381.96621 3.91732 2.84144 2.86787 3.032343 3.03675 3.390231 2.06055 4.36644-1.16375 1.163748-2.34481.63814-5.09117-2.265724z" stroke-width=".52231"/><text style="font-size:70.337196;font-family:Sans;letter-spacing:0;word-spacing:0;fill:#f00;stroke-width:1.75843" transform="scale(1.0259136 .97474095)" x="-4.367897" y="50.782722"><tspan stroke-width="1.75843" x="-4.367897" y="50.782722">#</tspan></text></svg>