<svg fill="none" height="800" viewBox="0 0 24 24" width="800" xmlns="http://www.w3.org/2000/svg"><path d="m9.16488 17.6505c-.23975.2238-.4253.3736-.61492.4831-.92821.5359-2.0718.5359-3 0-.34205-.1975-.67084-.5263-1.32843-1.1838-.65759-.6576-.98639-.9864-1.18386-1.3285-.5359-.9282-.5359-2.0718 0-3 .19747-.342.52627-.6708 1.18386-1.3284l2.82843-2.82842c.65759-.65759.98638-.98639 1.32842-1.18386.92821-.5359 2.07182-.5359 3.00002-.00001.342.19748.6708.52628 1.3284 1.18387s.9864.98638 1.1839 1.32842c.5359.9282.5359 2.0718 0 3-.1095.1896-.2593.3752-.4832.6149m-2.8156-2.8156c-.2239.2397-.3737.4253-.4832.6149-.53586.9282-.53586 2.0718 0 3 .1975.3421.5263.6709 1.1839 1.3284.6576.6576.9864.9864 1.3284 1.1839.9282.5359 2.0718.5359 3 0 .3421-.1975.6709-.5263 1.3285-1.1839l2.8284-2.8284c.6576-.6576.9864-.9864 1.1838-1.3284.5359-.9282.5359-2.07181 0-3.00001-.1974-.34204-.5262-.67084-1.1838-1.32843s-.9864-.98638-1.3284-1.18386c-.9283-.5359-2.0718-.5359-3 0-.1897.10948-.3752.25931-.615.48315" stroke="#000" stroke-linecap="round" stroke-width="2"/></svg>