<svg height="800" viewBox="0 0 1024 1024" width="800" xmlns="http://www.w3.org/2000/svg"><path d="m598 276.5c0-42.3-38.6-76.8-86-76.8s-86 34.5-86 76.8v103.4h172z" fill="none"/><path d="m674 379.9v-109.4c0-80.4-72.7-145.8-162-145.8s-162 65.4-162 145.8v109.4h46v-103.4c0-58.9 52.1-106.8 116-106.8s116 47.9 116 106.8v103.4zm75.2 30h-474.4c-8.3 0-15 6.7-15 15v459.5c0 8.3 6.7 15 15 15h255.8l233.6-233.6v-240.9c0-8.3-6.7-15-15-15zm-447.5 93.7c0-24.4 19.8-44.2 44.2-44.2s44.2 19.8 44.2 44.2-19.8 44.2-44.2 44.2-44.2-19.8-44.2-44.2zm447.5 395.8c8.3 0 15-6.7 15-15v-56.5l-71.5 71.5zm-99 0 114-114v-77.2l-191.2 191.2z" fill="#ffbc00"/><path d="m749.2 379.9h-45.2v-109.4c0-47.2-20.2-91.6-56.8-124.8-36.2-32.9-84.2-51-135.2-51s-99 18.1-135.2 51c-36.6 33.3-56.8 77.6-56.8 124.8v109.4h-45.2c-24.8 0-45 20.2-45 45v459.5c0 24.8 20.2 45 45 45h474.4c24.8 0 45-20.2 45-45v-459.5c0-24.8-20.2-45-45-45zm-323.2-103.4c0-42.3 38.6-76.8 86-76.8s86 34.5 86 76.8v103.4h-172zm86-106.8c-64 0-116 47.9-116 106.8v103.4h-46v-109.4c0-80.4 72.7-145.8 162-145.8s162 65.4 162 145.8v109.4h-46v-103.4c0-58.9-52-106.8-116-106.8zm252.2 714.7c0 8.3-6.7 15-15 15h-56.5l71.5-71.5zm0-99-114 114h-77.2l191.2-191.2zm0-119.6-233.6 233.6h-255.8c-8.3 0-15-6.7-15-15v-459.5c0-8.3 6.7-15 15-15h474.4c8.3 0 15 6.7 15 15z" fill="#46287c"/><path d="m301.7 503.6a44.2 44.2 0 1 0 88.4 0 44.2 44.2 0 1 0 -88.4 0z" fill="#fff"/></svg>