<svg height="800" viewBox="0 0 1024 1024" width="800" xmlns="http://www.w3.org/2000/svg"><path d="m786 279-48-13 48-13 13-48 13 48 49 13-49 13-13 49zm48 53-19-4 19-5 4-19 5 19 19 5-19 4-5 19z" fill="#fdcd60"/><path d="m159 715-21-5 21-5 5-21 5 21 21 5-21 5-5 21z" fill="#fdcd60"/><path d="m235 247a9 9 0 1 0 18 0 9 9 0 1 0 -18 0z" fill="#5546cb"/><path d="m288 821-27-6 27-7 6-27 7 27 27 7-27 6-7 27z" fill="#fdcd60"/><path d="m832 828a25 25 0 1 1 25-25 25 25 0 0 1 -25 25zm0-36a10 10 0 1 0 10 10 10 10 0 0 0 -10-10z" fill="#5546cb"/><path d="m627 502-10-17 11-7v-191l-22 14a95 95 0 0 1 3 24c0 28-19 64-58 108 21 7 34 19 34 34s-31 40-71 40-71-17-71-40 13-27 34-34l-25-30-40 26v180h2l11-7 11 17-17 10h-7v112l216-102v-138zm-135 83-16 10-8 5-8 5h-1l-5-9-5-8 9-5 24-15zm56-35-33 20-10-17 33-20zm56-35-33 20-10-17 17-10 16-10zm-416 125 204 99v-312l-204-131zm162-74 32 22-11 16-32-22zm-57-31 4-5 8 6 23 16-11 16-15-11-8-6-8-6zm-42-45a29 29 0 1 1 -29 29 29 29 0 0 1 30-29zm397-13 12 6-9 18-3-2v141l217 95v-307l-217-143zm176 68a29 29 0 1 1 -29 29 29 29 0 0 1 29-29zm-72-15 36 19-9 18-36-18zm-69-23 5-10 9 4 9 4 18 9-9 18-27-14-9-4z" fill="#fdcd60"/><path d="m640 256-41 27a95 95 0 0 0 -181 43c0 17 7 38 22 61l-37 24-235-151v392l236 115 233-110 248 108v-348zm-202 69a75 75 0 0 1 151 0c0 33-40 81-75 118-62-63-76-99-76-118zm97 124c18 4 29 12 29 18s-20 20-51 20-51-12-51-20 11-14 29-18l15 15 7 7 7-7zm-143 290-204-99v-344l204 131zm20 2v-111h7l17-10-11-17-11 7h-2v-181l40-26 25 30c-21 7-34 19-34 34s31 40 71 40 71-17 71-40-13-27-34-34c39-44 58-80 58-108a95 95 0 0 0 -3-24l22-14v190l-11 7 10 17h1v138zm453-6-217-95v-141l3 2 9-18-12-6v-192l217 143z" fill="#5546cb"/><path d="m286 546 8 5 8 6 15 11 12-17-24-16-8-6-4 5zm85 58 11-16-32-22-11 16zm110-36-24 15-9 5 1 1h-1l5 8 5 9v-1l1 1 8-5 9-5h-1l17-11zm56-34-33 20 11 17 33-20-10-17zm57-35-16 10-17 10 10 17 33-20zm85 16 9 4 27 14 9-17v-1l-18-9-9-4-9-5-5 10zm100 51 9-18-36-18-9 17v1z" fill="#5546cb"/><path d="m824 585a11 11 0 1 0 -11-11 11 11 0 0 0 11 11z" fill="#f97744"/><path d="m824 603a29 29 0 1 0 -29-29 29 29 0 0 0 29 29zm0-40a11 11 0 1 1 -11 11 11 11 0 0 1 11-11z" fill="#5546cb"/><path d="m252 530a11 11 0 1 0 -11-11 11 11 0 0 0 11 11z" fill="#fff"/><path d="m252 548a29 29 0 1 0 -29-29 29 29 0 0 0 29 29zm0-40a11 11 0 1 1 -11 11 11 11 0 0 1 11-11z" fill="#5546cb"/><path d="m507 465-15-15c-18 4-29 12-29 18s20 20 51 20 51-12 51-20-11-14-29-18l-15 15-7 7z" fill="#afbcf3"/><path d="m514 444c36-37 75-85 75-118a75 75 0 0 0 -151 0c0 18 14 54 76 118zm-35-117a35 35 0 1 1 35 35 35 35 0 0 1 -35-35z" fill="#f97744"/><path d="m479 327a35 35 0 1 0 70 0 35 35 0 1 0 -70 0z" fill="#fff"/></svg>