<?xml version="1.0" encoding="UTF-8" standalone="no"?>
<!-- Created with Inkscape (http://www.inkscape.org/) -->

<svg
   xmlns:dc="http://purl.org/dc/elements/1.1/"
   xmlns:cc="http://creativecommons.org/ns#"
   xmlns:rdf="http://www.w3.org/1999/02/22-rdf-syntax-ns#"
   xmlns:svg="http://www.w3.org/2000/svg"
   xmlns="http://www.w3.org/2000/svg"
   xmlns:sodipodi="http://sodipodi.sourceforge.net/DTD/sodipodi-0.dtd"
   xmlns:inkscape="http://www.inkscape.org/namespaces/inkscape"
   width="125.41525mm"
   height="130.85188mm"
   viewBox="0 0 444.38475 463.6484"
   id="svg2"
   version="1.1"
   inkscape:version="0.91 r"
   sodipodi:docname="scroll.svg"
   inkscape:export-filename="/home/sankalpo/Projects/2010-05-30 Inkscape Drawings/scroll.png"
   inkscape:export-xdpi="405.04999"
   inkscape:export-ydpi="405.04999">
  <defs
     id="defs4">
    <inkscape:path-effect
       effect="spiro"
       id="path-effect3342"
       is_visible="true" />
  </defs>
  <sodipodi:namedview
     id="base"
     pagecolor="#ffffff"
     bordercolor="#666666"
     borderopacity="1.0"
     inkscape:pageopacity="0.0"
     inkscape:pageshadow="2"
     inkscape:zoom="0.70000001"
     inkscape:cx="438.19699"
     inkscape:cy="141.49303"
     inkscape:document-units="px"
     inkscape:current-layer="layer1"
     showgrid="false"
     inkscape:window-width="2560"
     inkscape:window-height="1337"
     inkscape:window-x="0"
     inkscape:window-y="0"
     inkscape:window-maximized="1"
     inkscape:object-nodes="true"
     inkscape:snap-intersection-paths="true"
     inkscape:snap-global="false"
     inkscape:object-paths="true"
     fit-margin-top="0"
     fit-margin-left="0"
     fit-margin-right="0"
     fit-margin-bottom="0" />
  <metadata
     id="metadata7">
    <rdf:RDF>
      <cc:Work
         rdf:about="">
        <dc:format>image/svg+xml</dc:format>
        <dc:type
           rdf:resource="http://purl.org/dc/dcmitype/StillImage" />
        <dc:title></dc:title>
      </cc:Work>
    </rdf:RDF>
  </metadata>
  <g
     inkscape:label="Layer 1"
     inkscape:groupmode="layer"
     id="layer1"
     transform="translate(-106.65041,-203.47266)">
    <path
       style="fill:#7a542e;fill-opacity:1;fill-rule:evenodd;stroke:none;stroke-width:1px;stroke-linecap:butt;stroke-linejoin:miter;stroke-opacity:1"
       d="m 269.16406,203.47266 c -20.75449,6.07779 -40.54967,17.15732 -55.68359,34.47265 l 7.57812,18.44336 -17.64453,-4.84765 c -7.09157,11.41345 -12.44302,24.87397 -15.39844,40.60937 -9.50715,50.61869 8.86497,143.01004 9.94532,169.69727 0.0441,1.08908 0.0742,2.23871 0.11523,3.3457 l 14.13281,8.48242 -13.76367,5.79688 c 0.24656,22.51936 -1.30513,47.08345 -9.73633,68.42382 -15.8638,-10.43728 -36.37042,-4.01782 -44.77929,7.40625 l 12.17383,15.73633 -15.15235,1.51563 8.08203,7.07226 -12.55468,1.16211 c -0.77233,10.23216 1.05653,20.71197 8.17968,28.42578 81.20848,19.01087 163.66042,38.3453 243.90235,57.125 0.0302,0.007 0.0597,0.0122 0.0898,0.0195 0.26064,0.12224 2.3162,0.70557 3.13672,0.76171 -1.2721,-0.34268 -1.80568,-0.46975 -2.30078,-0.58789 18.87984,3.90854 34.63497,-15.20845 43.52929,-30.27734 33.20113,-53.36883 31.71119,-115.74615 24.00782,-175.30664 -0.70233,-6.35642 -1.5238,-12.90248 -2.39063,-19.58203 l -21.33398,-4.17774 17.17383,-12.62695 -21.21289,-4.54492 20.88671,-14.08203 c -4.20177,-36.52283 -6.22895,-74.51883 4.33204,-107.19141 24.88812,-3.43171 41.92827,0.69698 67.80078,3.04297 15.64244,1.41838 25.09796,-8.3441 28.36718,-21.00195 l -15.78125,-9.76563 16.16993,-9.71289 c -0.46495,-2.29761 -1.09855,-4.56457 -1.92188,-6.75781 -8.01716,-21.35681 -28.96,-26.44309 -45.6914,-30.90039 -16.73141,-4.4573 -65.06703,-10.60581 -131.2461,-5.96485 -66.17907,4.64096 -90.84335,-5.81882 -103.01172,-14.21093 z"
       id="path4177"
       inkscape:connector-curvature="0" />
    <path
       style="fill:#9c6c3b;fill-opacity:1;fill-rule:evenodd;stroke:none;stroke-width:1px;stroke-linecap:butt;stroke-linejoin:miter;stroke-opacity:1"
       d="m 454.56836,236.1582 -20.70703,35.86133 77.76172,-12.17969 c -7.21532,7.93973 -5.56762,23.15809 0.8164,30.94532 8.22588,10.03394 21.14754,7.38909 27.92969,-3.93555 1.29346,-2.15978 2.30695,-4.49979 3.06445,-6.94531 l -14.58789,-8.9961 15.70508,-9.40039 c -1.14098,-6.89117 -3.96988,-13.31846 -8.25,-17.87304 -2.46136,-2.61919 -5.30215,-4.56024 -8.31055,-5.69922 l -73.42187,-1.77735 z"
       id="path4220"
       inkscape:connector-curvature="0" />
    <path
       style="fill:#c69956;fill-opacity:1;fill-rule:evenodd;stroke:none;stroke-width:1px;stroke-linecap:butt;stroke-linejoin:miter;stroke-opacity:1"
       d="m 431.58767,260.3106 c 16.33393,0.93499 16.11263,2.89281 28.27516,3.40348 12.16253,0.51066 30.38847,-1.47023 51.7608,-3.87474 -10.94308,16.8326 0.1026,35.40373 10.05999,37.02411 -25.47896,-3.19453 -43.06918,-9.33408 -76.86002,-6.62171 -10.68679,0.85782 -16.48083,1.27513 -31.93715,-1.17614 3.6988,-7.78564 15.02574,-19.71944 18.70122,-28.755 z"
       id="path4181"
       inkscape:connector-curvature="0"
       sodipodi:nodetypes="czccscc" />
    <path
       style="fill:#9c6c3b;fill-opacity:1;fill-rule:evenodd;stroke:none;stroke-width:1px;stroke-linecap:butt;stroke-linejoin:miter;stroke-opacity:1"
       d="m 458.03424,289.59218 c 6.25,-11.25 14.75272,-21.42349 20.467,-26.42349 l -17.41401,0.5879 -19.57064,26.74441 z"
       id="path4199"
       inkscape:connector-curvature="0"
       sodipodi:nodetypes="ccccc" />
    <path
       style="fill:#f2cb8a;fill-opacity:1;fill-rule:evenodd;stroke:none;stroke-width:1;stroke-linecap:butt;stroke-linejoin:miter;stroke-miterlimit:4;stroke-dasharray:none;stroke-opacity:1"
       d="m 270.66992,210.1875 c -23.74323,7.70468 -40.89991,18.43688 -53.125,31.51953 l 7.70117,18.74414 -18.26562,-5.02148 c -33.07687,52.72464 -8.56616,133.41781 -4.2207,210.4707 l 14.42382,8.6543 -13.86718,5.83789 c 0.75924,38.72798 -4.89971,76.0143 -27.09961,107.74804 -3.89518,5.568 -13.25006,16.29049 -26.22071,16.41407 l 240.71875,56.3789 c 14.9413,1.20307 26.75896,-11.79968 31.42774,-17.85742 43.06437,-55.87599 35.6709,-130.49122 26.76562,-200.75195 l -21.10937,-4.13477 17.17383,-12.62695 -21.21289,-4.54492 20.74218,-13.98438 C 434.94141,325.74717 435.0351,256.26421 527.99023,237.93555 430.32,201.1492 321.94005,245.53413 270.66992,210.1875 Z"
       id="path3340"
       inkscape:connector-curvature="0" />
    <path
       style="fill:none;fill-rule:evenodd;stroke:#7a542e;stroke-width:5;stroke-linecap:round;stroke-linejoin:miter;stroke-miterlimit:4;stroke-dasharray:30, 10;stroke-dashoffset:12;stroke-opacity:1"
       d="m 289.91378,608.06713 c 0,0 72.5929,27.1562 89.3985,-18.68681 41.32865,-112.73806 -125.13853,-74.26128 -121.72338,-150.34061 3.03045,-67.5093 162.21853,-28.36509 158.59394,-94.27733 -4.54568,-82.66193 -103.03556,-36.02746 -103.03556,-36.02746"
       id="path4206"
       inkscape:connector-curvature="0"
       sodipodi:nodetypes="csssc" />
    <path
       style="fill:#c69956;fill-opacity:1;fill-rule:evenodd;stroke:none;stroke-width:1px;stroke-linecap:butt;stroke-linejoin:miter;stroke-opacity:1"
       d="m 192.6866,556.88238 1.51523,-4.04061 c 28.39286,7.85714 30.3596,7.462 48.98804,9.97154 13.78499,1.85705 23.30453,2.34681 45.94634,5.15641 22.11239,2.74391 49.81205,7.89532 61.76271,11.11589 20.99584,5.65814 35.49315,10.37104 42.70343,16.3664 7.21028,5.99536 1.87237,5.62455 1.87237,5.62455 l -89.14596,-8.5863 -114.39978,-22.72843 z"
       id="path4175"
       inkscape:connector-curvature="0"
       sodipodi:nodetypes="ccssszcccc" />
    <path
       transform="matrix(-0.33603721,0.60801613,0.41331395,0.49433619,0.80167794,568.13643)"
       style="fill:#9c6c3b;fill-opacity:1;fill-rule:evenodd;stroke:#9c6c3b;stroke-width:1.54780054;stroke-linecap:butt;stroke-linejoin:miter;stroke-miterlimit:4;stroke-dasharray:none;stroke-opacity:1"
       d="m -431.98004,625.51771 c -13.47531,-12.08699 -8.80059,-33.59654 4.14902,-44.00286 17.70872,-14.23073 43.92562,-8.18838 56.68685,9.59733 10.77312,15.01482 10.92891,35.50493 1.50076,51.20581 11.83367,-22.79622 -8.4854,-48.93146 -28.6094,-53.21712 -9.79027,13.67257 -20.24295,25.68895 -33.72723,36.41684 z"
       id="path3365"
       inkscape:connector-curvature="0"
       sodipodi:nodetypes="cssccc" />
    <path
       style="fill:#f2cb8a;fill-opacity:1;fill-rule:evenodd;stroke:none;stroke-width:1px;stroke-linecap:butt;stroke-linejoin:miter;stroke-opacity:1"
       d="m 169.17383,546.78906 c -8.22216,0.1153 -15.13885,5.14502 -19.94141,12.34375 l 10.3711,13.40625 -15.15235,1.51563 8.08203,7.07226 -10.49218,0.97071 c -0.23877,8.54883 2.1556,16.83386 7.95507,22.45703 0,0 210.1587,49.19533 237.61133,55.67773 -24.90225,-8.0044 -24.56036,-68.90904 4.16797,-65.01367 -21.46726,-8.40997 -33.28281,-13.70362 -74.10547,-18.98828 -40.82266,-5.28466 -101.17105,-10.83178 -147.36523,-29.42578 -0.37944,-0.0153 -0.7567,-0.0209 -1.13086,-0.0156 z m 218.43359,113.44336 c 0.92851,0.29845 1.88817,0.53054 2.88672,0.67578 -0.26264,-0.0621 -2.57624,-0.60247 -2.88672,-0.67578 z"
       id="path4169"
       inkscape:connector-curvature="0" />
    <g
       transform="translate(-255.0919,269.62178)"
       style="display:inline"
       inkscape:label="Layer"
       id="layer3">
      <g
         transform="matrix(0.8861794,0,0,0.8861794,14.950133,15.730134)"
         id="g4490">
        <g
           id="g4492">
          <rect
             style="color:#000000;display:inline;overflow:visible;visibility:visible;fill:#9c6c3b;fill-opacity:1;fill-rule:nonzero;stroke:none;stroke-width:2;marker:none;enable-background:accumulate"
             id="rect4494"
             width="66.670067"
             height="66.670067"
             x="177.84363"
             y="18.131729" />
          <rect
             y="18.131729"
             x="98.013184"
             height="66.670067"
             width="66.670067"
             id="rect4496"
             style="color:#000000;display:inline;overflow:visible;visibility:visible;fill:#c69956;fill-opacity:1;fill-rule:nonzero;stroke:none;stroke-width:2;marker:none;enable-background:accumulate" />
          <rect
             style="color:#000000;display:inline;overflow:visible;visibility:visible;fill:#f2cb8a;fill-opacity:1;fill-rule:nonzero;stroke:none;stroke-width:2;marker:none;enable-background:accumulate"
             id="rect4498"
             width="66.670067"
             height="66.670067"
             x="18.182745"
             y="18.131729" />
        </g>
        <g
           id="g4500">
          <rect
             style="color:#000000;display:inline;overflow:visible;visibility:visible;fill:#7a542e;fill-opacity:1;fill-rule:nonzero;stroke:none;stroke-width:2;marker:none;enable-background:accumulate"
             id="rect4502"
             width="66.670067"
             height="66.670067"
             x="18.182745"
             y="101.26991" />
          <rect
             y="101.26991"
             x="98.013184"
             height="66.670067"
             width="66.670067"
             id="rect4504"
             style="color:#000000;display:inline;overflow:visible;visibility:visible;fill:#fbedbf;fill-opacity:1;fill-rule:nonzero;stroke:none;stroke-width:2;marker:none;enable-background:accumulate" />
        </g>
        <g
           id="g4506">
          <rect
             y="190.60045"
             x="18.182745"
             height="66.670067"
             width="66.670067"
             id="rect4508"
             style="color:#000000;display:inline;overflow:visible;visibility:visible;fill:#494e4a;fill-opacity:1;fill-rule:nonzero;stroke:none;stroke-width:2;marker:none;enable-background:accumulate" />
          <rect
             y="190.60045"
             x="98.013184"
             height="66.670067"
             width="66.670067"
             id="rect4510"
             style="color:#000000;display:inline;overflow:visible;visibility:visible;fill:#faf1e8;fill-opacity:1;fill-rule:nonzero;stroke:none;stroke-width:2;stroke-opacity:1;marker:none;enable-background:accumulate" />
        </g>
      </g>
    </g>
    <path
       style="fill:#fbedbf;fill-opacity:1;fill-rule:evenodd;stroke:none;stroke-width:1;stroke-linecap:butt;stroke-linejoin:miter;stroke-miterlimit:4;stroke-dasharray:none;stroke-opacity:1"
       d="m 270.66992,210.1875 c -23.75834,7.70959 -40.89649,18.46158 -53.10547,31.56445 l 7.68164,18.69922 -18.20507,-5.0039 c -3.5959,5.74081 -6.51905,11.80768 -8.85547,18.16796 18.97711,10.80702 44.0155,26.24314 65.26172,25.76563 48.978,-1.93964 55.55035,-13.69891 106.82812,-33.13867 51.27778,-19.43977 115.76066,-21.96541 157.71484,-28.30664 C 430.32,201.14921 321.94005,245.53413 270.66992,210.1875 Z"
       id="path4159"
       inkscape:connector-curvature="0" />
    <path
       style="fill:#c69956;fill-opacity:1;fill-rule:evenodd;stroke:none;stroke-width:1px;stroke-linecap:butt;stroke-linejoin:miter;stroke-opacity:1"
       d="m 369.69727,628.0957 c 0,0 -48.02406,-0.99637 -77.59192,-7.0504 -29.56786,-6.05403 -70.36323,-19.43511 -95.26958,-25.23316 -24.90636,-5.79804 -54.67366,-10.06019 -54.67366,-10.06019 0.46232,7.20991 2.86964,13.98931 7.83398,18.80274 0,0 217.01201,50.79767 240.49805,56.35351 -13.02836,-1.89503 -20.02466,-17.35025 -20.79687,-32.8125 z"
       id="path4173"
       inkscape:connector-curvature="0"
       sodipodi:nodetypes="czzcccc" />
    <path
       style="fill:#fbedbf;fill-opacity:1;fill-rule:evenodd;stroke:none;stroke-width:1px;stroke-linecap:butt;stroke-linejoin:miter;stroke-opacity:1"
       d="m 170.30469,546.80469 c -8.29272,-0.33461 -15.29335,4.35756 -20.28321,11.28906 13.72253,9.80497 33.70394,20.54362 58.60653,23.23578 61.77187,6.67799 137.0736,6.61139 183.14738,13.88922 -21.46726,-8.40997 -33.28281,-13.70362 -74.10547,-18.98828 -40.82266,-5.28466 -101.17105,-10.83178 -147.36523,-29.42578 z"
       id="path4166"
       inkscape:connector-curvature="0"
       sodipodi:nodetypes="ccscsc" />
    <path
       style="color:#000000;display:inline;overflow:visible;visibility:visible;opacity:1;fill:#7a542e;fill-opacity:1;fill-rule:nonzero;stroke:none;stroke-width:1;stroke-miterlimit:4;stroke-dasharray:none;stroke-opacity:1;marker:none;enable-background:accumulate"
       d="m 250.06793,261.87832 -8.53056,31.4946 -24.44241,-14.30322 -9.04413,28.75298 27.64904,3.40071 -10.45529,29.573 28.75297,9.04414 -0.44721,-33.42095 33.42094,16.22719 9.04413,-28.75297 -34.70359,-4.04204 17.50909,-28.92931 z"
       id="rect4201"
       inkscape:connector-curvature="0"
       sodipodi:nodetypes="ccccccccccccc" />
    <g
       id="g4231"
       transform="matrix(0.54503169,0.94384303,-0.94384303,0.54503169,370.22127,-541.11872)">
      <path
         id="path4208"
         d="m 619.47656,426.06836 a 62.376919,62.376919 0 0 0 -62.37695,62.37695 62.376919,62.376919 0 0 0 62.37695,62.37696 62.376919,62.376919 0 0 0 62.37696,-62.37696 62.376919,62.376919 0 0 0 -62.37696,-62.37695 z m -2.02148,7.07031 a 50.255085,55.305847 0 0 1 50.25586,55.30664 50.255085,55.305847 0 0 1 -50.25586,55.30469 50.255085,55.305847 0 0 1 -50.25391,-55.30469 50.255085,55.305847 0 0 1 50.25391,-55.30664 z"
         style="color:#000000;display:inline;overflow:visible;visibility:visible;opacity:1;fill:#494e4a;fill-opacity:1;fill-rule:nonzero;stroke:none;stroke-width:1;stroke-linecap:round;stroke-miterlimit:4;stroke-dasharray:none;stroke-dashoffset:2.40000033;stroke-opacity:1;marker:none;enable-background:accumulate"
         inkscape:connector-curvature="0" />
      <path
         sodipodi:nodetypes="ccccc"
         inkscape:connector-curvature="0"
         id="rect4218"
         d="m 607.35422,547.28595 c 8.84685,4.18892 13.28188,3.94776 21.46574,0.75762 l 3.03046,77.78174 c -6.9835,9.84962 -18.53831,11.8502 -27.52666,0.25254 z"
         style="color:#000000;display:inline;overflow:visible;visibility:visible;opacity:1;fill:#494e4a;fill-opacity:1;fill-rule:nonzero;stroke:none;stroke-width:1;stroke-linecap:round;stroke-miterlimit:4;stroke-dasharray:none;stroke-dashoffset:2.40000033;stroke-opacity:1;marker:none;enable-background:accumulate" />
      <path
         id="path4213"
         d="m 616.82422,428.33984 a 58.210037,60.104076 0 0 0 -58.20899,60.10547 58.210037,60.104076 0 0 0 58.20899,60.10352 58.210037,60.104076 0 0 0 58.21094,-60.10352 58.210037,60.104076 0 0 0 -58.21094,-60.10547 z m -2.65234,2.7793 a 52.527931,57.452427 0 0 1 52.52929,57.45117 52.527931,57.452427 0 0 1 -52.52929,57.45313 52.527931,57.452427 0 0 1 -52.52735,-57.45313 52.527931,57.452427 0 0 1 52.52735,-57.45117 z"
         style="color:#000000;display:inline;overflow:visible;visibility:visible;opacity:1;fill:#faf1e8;fill-opacity:1;fill-rule:nonzero;stroke:none;stroke-width:1;stroke-linecap:round;stroke-miterlimit:4;stroke-dasharray:none;stroke-dashoffset:2.40000033;stroke-opacity:1;marker:none;enable-background:accumulate"
         inkscape:connector-curvature="0" />
      <path
         style="color:#000000;display:inline;overflow:visible;visibility:visible;opacity:1;fill:#faf1e8;fill-opacity:1;fill-rule:nonzero;stroke:none;stroke-width:1;stroke-linecap:round;stroke-miterlimit:4;stroke-dasharray:none;stroke-dashoffset:2.40000033;stroke-opacity:1;marker:none;enable-background:accumulate"
         d="m 609.24478,553.55125 c 5.51914,3.26659 8.28595,3.07853 13.39147,0.59081 l 1.89056,60.65549 c -4.35668,7.68089 -11.56518,9.24098 -17.17259,0.19693 z"
         id="path4221"
         inkscape:connector-curvature="0"
         sodipodi:nodetypes="ccccc" />
      <path
         id="path4223"
         d="m 598.36133,439.54883 a 50.633896,53.664352 0 0 0 -28.57617,40.81445 l 12.27929,0 a 46.719555,64.27095 0 0 1 16.29688,-40.81445 z m -28.67383,55.46094 a 50.633896,53.664352 0 0 0 26.63281,40.54296 46.719555,64.27095 0 0 1 -14.46679,-40.54296 l -12.16602,0 z"
         style="color:#000000;display:inline;overflow:visible;visibility:visible;opacity:1;fill:#faf1e8;fill-opacity:1;fill-rule:nonzero;stroke:none;stroke-width:1;stroke-linecap:round;stroke-miterlimit:4;stroke-dasharray:none;stroke-dashoffset:2.40000033;stroke-opacity:1;marker:none;enable-background:accumulate"
         inkscape:connector-curvature="0" />
    </g>
  </g>
</svg>
