<svg enable-background="new 0 0 64 64" height="800" viewBox="0 0 64 64" width="800" xmlns="http://www.w3.org/2000/svg"><g fill="#45aab8"><path d="m46.773 14.112c.515.052.955.162 1.309.252.166.042.384.097.505.113.448-.344.963-.978.948-1.507-.477-.184-1.27-.527-1.872-1.448-.596-.938-.7-1.829-.776-2.479-.044-.372-.078-.666-.189-.959-.163-.426-.175-.896-.034-1.329.088-.272.194-.506.299-.734l-3.963 1.25v5.803c.274.094.548.188.794.275 1.019.365 1.825.652 2.979.763z"/><path d="m2 11v6.156c.598-.004 1.188-.036 1.922-.076l.807-.044c.425-.023.847-.168 1.335-.335.661-.228 1.412-.484 2.314-.484.725 0 1.437.173 2.098.504 1.245.607 1.876 1.559 2.383 2.322.274.413.511.77.811 1.021.709.595 1.312.808 2.148 1.102.826.292 1.763.622 2.845 1.348.894.601 1.636 1.149 2.338 1.737v-21.645l-17.692 6.518c-.784.288-1.309 1.042-1.309 1.876z"/><path d="m20.09 43.093c-.058-.004-.114-.009-.17-.012-.002.063-.004.127-.006.181-.022.691-.055 1.735-.769 2.666-.82 1.09-1.949 1.666-3.265 1.666-.718 0-1.395-.167-1.991-.314l-.363-.088c-1.226-.279-1.983-1.005-2.537-1.534-.263-.252-.512-.49-.659-.526-.365-.088-.682-.164-.861-.164-.043 0-.122 0-.3.072-.45.184-.708.805-1.19 2.18-.151.434-.31.884-.489 1.333-.162.41-.198.939-.235 1.5-.075 1.11-.177 2.632-1.433 3.827-.896.854-1.912 1.27-3.103 1.27-.247 0-.483-.026-.719-.055v4.905c0 .635.306 1.238.818 1.613.345.253.754.387 1.182.387.204 0 .407-.031.603-.093l16.397-5.178v-13.536c-.111-.041-.222-.063-.34-.068-.198-.006-.388-.019-.57-.032z"/><path d="m23.632 2.103c-.204-.069-.416-.103-.632-.103v24.147c.383.402.779.836 1.213 1.329.519.591.866 1.182 1.146 1.657.334.567.521.873.81 1.06.04.025.059.031.078.032.153 0 .454-.089.745-.176.528-.157 1.188-.354 1.961-.354.571 0 1.128.109 1.669.33l.347.143c1.569.643 3.521 1.443 4.364 4.208.527 1.7.525 3.133-.001 4.777-.387 1.233-1.182 1.86-1.657 2.234-.111.089-.265.209-.295.249l-.017.052c-.024.084.025.346.07.576.123.635.309 1.595-.14 2.712-.764 1.856-2.263 2.798-4.456 2.798-.229 0-.461-.009-.689-.023-1.413-.083-2.312-.787-2.968-1.302-.241-.189-.47-.368-.71-.51-.576-.34-1.048-.718-1.47-1.091v11.247l.603.19 17.397 5.496v-38.567c-.183.004-.362.007-.552.014-.373.013-.761.026-1.177.026-.229 0-.467-.004-.716-.015-.09-.003-.179-.005-.265-.005-.462 0-.888.049-1.339.1-.488.056-.993.113-1.562.113-.7 0-1.371-.091-2.052-.279-.225-.062-.464-.107-.717-.154-1.016-.191-2.55-.479-3.646-2.281-1.29-2.169-1.303-4.838-.027-7.151 1.267-2.267 3.243-2.387 4.551-2.466.312-.019.605-.037.898-.079.375-.052.75-.077 1.114-.077 1.619 0 2.844.492 4.026.968.482.193.958.37 1.462.53v-4.566l-.6-.199z"/><path d="m60.979 30.936-.104-.021c-1.498-.3-2.675-.772-3.893-2.189-.879-1.005-1.068-2.183-1.207-3.042-.048-.301-.12-.751-.198-.893-.146.012-.427.09-.676.158-.509.141-1.142.316-1.875.343-.615.027-1.179.179-1.775.34-.728.196-1.553.418-2.508.418-.685 0-1.344-.111-2.021-.342-1.055-.361-1.744-.943-2.298-1.41-.379-.32-.653-.551-1.007-.698-.146-.062-.282-.106-.418-.15v38.325l17.632-5.877c.819-.273 1.369-1.036 1.369-1.898v-22.904c-.349-.042-.689-.098-1.021-.16z"/></g><path d="m62.364.773c-.694-.509-1.526-.772-2.366-.772-.403 0-.809.061-1.202.185l-17.763 5.609-16.769-5.59c-.41-.137-.837-.205-1.265-.205-.468 0-.937.082-1.382.247l-19 7c-1.572.579-2.617 2.077-2.617 3.753v49c0 1.274.607 2.473 1.636 3.227.694.508 1.524.773 2.364.773.404 0 .811-.062 1.204-.186l17.796-5.62 17.796 5.62c.392.124.797.186 1.203.186.428 0 .855-.068 1.266-.205l18-6c1.633-.545 2.735-2.073 2.735-3.795v-50c0-1.274-.607-2.473-1.636-3.227zm-41.364 55.956-16.397 5.178c-.196.062-.399.093-.603.093-.428 0-.837-.134-1.182-.387-.512-.375-.818-.978-.818-1.613v-4.904c.235.028.472.055.719.055 1.191 0 2.207-.416 3.103-1.271 1.256-1.195 1.357-2.717 1.433-3.827.037-.561.073-1.09.235-1.5.18-.449.338-.899.489-1.333.482-1.375.74-1.996 1.19-2.18.178-.072.257-.072.3-.072.18 0 .496.076.861.164.147.036.396.274.659.526.554.529 1.312 1.255 2.537 1.534l.363.088c.597.147 1.273.314 1.991.314 1.315 0 2.444-.576 3.265-1.666.714-.931.746-1.975.769-2.666.002-.054.004-.117.006-.181.056.003.112.008.17.012.183.014.372.026.57.032.118.005.229.027.34.068zm0-15.56c-.095-.013-.18-.039-.28-.043-.372-.011-.71-.055-1.025-.055-.485 0-.921.102-1.357.576-.753.811-.105 2.186-.79 3.078-.498.662-1.057.868-1.666.868-.592 0-1.231-.193-1.91-.353-1.364-.311-1.815-1.725-3.173-2.055-.509-.122-.916-.22-1.329-.22-.329 0-.661.062-1.054.22-1.688.687-1.969 2.589-2.786 4.63-.668 1.69-.005 3.489-1.188 4.616-.575.549-1.126.718-1.722.718-.231 0-.471-.026-.719-.064v-33.93c.875-.007 1.722-.066 2.839-.123 1.395-.077 2.395-.816 3.539-.816.384 0 .784.083 1.221.302 1.337.652 1.586 2.073 2.785 3.077 1.81 1.518 3.247 1.292 5.163 2.577 1.428.959 2.418 1.758 3.453 2.786v14.211zm0-16.919c-.702-.588-1.444-1.137-2.338-1.737-1.082-.726-2.019-1.056-2.845-1.348-.836-.294-1.439-.507-2.148-1.102-.3-.251-.536-.607-.811-1.021-.507-.764-1.138-1.715-2.383-2.322-.661-.331-1.373-.504-2.098-.504-.902 0-1.653.257-2.314.484-.488.167-.91.312-1.335.335l-.806.045c-.734.04-1.324.072-1.922.076v-6.156c0-.834.525-1.588 1.309-1.876l17.691-6.518zm2 4.911c.747 1.009 1.04 2.037 2.081 2.711.404.262.789.354 1.165.354.901 0 1.754-.529 2.706-.529.289 0 .588.049.899.176 1.597.666 2.955 1.078 3.57 3.098.403 1.3.414 2.296 0 3.587-.408 1.305-1.603 1.236-1.979 2.569-.335 1.14.43 2.019 0 3.091-.53 1.29-1.509 1.559-2.606 1.559-.188 0-.379-.008-.572-.02-1.178-.069-1.708-.907-2.78-1.539-1.021-.602-1.726-1.426-2.484-2.075zm18-7.947c-.543.011-1.101.04-1.729.04-.204 0-.414-.004-.634-.013-.118-.005-.233-.007-.347-.007-1.107 0-1.954.213-2.901.213-.467 0-.957-.052-1.517-.206-1.29-.358-2.361-.188-3.179-1.532-.949-1.595-.901-3.518 0-5.152.944-1.69 2.367-1.306 3.975-1.539.296-.04.575-.059.843-.059 1.997 0 3.314 1.027 5.488 1.592v6.663zm0-8.757c-.504-.16-.979-.337-1.462-.53-1.183-.476-2.407-.968-4.026-.968-.364 0-.739.025-1.114.077-.293.042-.587.061-.898.079-1.308.079-3.284.199-4.551 2.466-1.275 2.313-1.263 4.982.027 7.151 1.096 1.803 2.63 2.09 3.646 2.281.253.047.492.092.717.154.681.188 1.352.279 2.052.279.569 0 1.074-.058 1.562-.113.451-.051.877-.1 1.339-.1.086 0 .175.002.265.005.249.011.486.015.716.015.416 0 .804-.014 1.177-.026.189-.007.369-.01.552-.014v38.567l-17.397-5.494-.605-.189v-11.247c.422.373.894.751 1.47 1.091.24.142.469.32.71.51.656.515 1.555 1.219 2.968 1.302.229.015.461.023.689.023 2.193 0 3.692-.941 4.456-2.798.448-1.117.263-2.077.14-2.712-.045-.23-.095-.492-.07-.576l.017-.052c.03-.04.184-.16.295-.249.476-.374 1.271-1.001 1.657-2.234.526-1.645.528-3.077.001-4.777-.843-2.765-2.795-3.565-4.364-4.208l-.347-.143c-.541-.221-1.098-.33-1.669-.33-.773 0-1.433.196-1.961.354-.291.087-.592.176-.745.176-.02-.001-.038-.007-.078-.032-.288-.187-.476-.492-.81-1.06-.279-.476-.627-1.066-1.146-1.657-.434-.493-.83-.927-1.213-1.329v-24.149c.216 0 .428.034.632.103l16.768 5.589.6.2zm2-5.186 3.962-1.251c-.104.229-.211.462-.299.734-.141.434-.129.903.034 1.329.111.293.146.587.189.959.076.65.181 1.542.776 2.479.603.921 1.396 1.265 1.872 1.448.015.529-.5 1.163-.948 1.507-.121-.017-.339-.071-.505-.113-.354-.09-.794-.2-1.309-.252-1.154-.111-1.96-.398-2.979-.763-.246-.088-.52-.182-.794-.275v-5.802zm19 46.729c0 .862-.55 1.625-1.368 1.897l-17.632 5.877v-38.325c.136.044.271.089.418.15.354.147.628.378 1.007.698.554.467 1.243 1.049 2.298 1.41.677.23 1.336.342 2.021.342.955 0 1.78-.222 2.508-.418.597-.161 1.16-.312 1.775-.34.733-.026 1.366-.202 1.875-.343.249-.068.529-.146.676-.158.078.142.15.592.198.893.139.859.328 2.037 1.207 3.042 1.218 1.417 2.395 1.89 3.893 2.189l.104.021c.331.062.672.118 1.021.16v22.905zm0-24.914c-.234-.036-.477-.083-.732-.132-1.167-.233-1.899-.521-2.78-1.546-1.04-1.188-.435-3.11-1.581-4.114-.442-.378-.866-.504-1.294-.504-.824-.001-1.662.468-2.675.504-1.666.074-2.812.756-4.194.756-.427 0-.877-.064-1.372-.233-1.342-.46-1.856-1.511-3.178-2.061-.426-.18-.815-.291-1.193-.374v-6.192c1.126.401 2.13.773 3.575.912.791.079 1.43.38 2.07.38.36 0 .721-.096 1.108-.38 1.199-.894 2.229-2.522 1.592-4.108-.414-1.045-1.411-.652-1.995-1.545-.626-.984-.329-1.883-.785-3.078.284-.876.768-1.492 1.036-2.185l9.794-3.093c.195-.062.398-.093.603-.093.425 0 .845.137 1.184.386.511.376.817.979.817 1.614z" fill="#394240"/><path d="m55.306 39.322c-.678-.208-1.318-.404-2.01-.404-.652 0-1.241.177-1.804.543-.632.417-.814.932-.856 1.289-.111.965.604 1.723 1.361 2.525.506.536 1.27 1.346 1.122 1.731-.096.256-.386.396-.979.633-.737.296-1.853.741-2.094 2.071-.136.738.032 1.416.485 1.96.637.763 1.791 1.183 3.253 1.183 1.49 0 2.955-.43 3.928-1.156 1.653-1.268 2.287-3.12 1.884-5.503-.402-2.431-1.864-4.109-4.29-4.872zm1.199 8.781c-.61.456-1.679.751-2.721.751-.919 0-1.523-.232-1.717-.464-.034-.041-.093-.111-.055-.32.037-.199.191-.301.87-.572.715-.286 1.694-.678 2.107-1.782.593-1.553-.639-2.858-1.539-3.812-.238-.252-.57-.604-.735-.843.525-.277 1.124-.096 2.054.19 1.642.517 2.575 1.586 2.854 3.274.282 1.665-.066 2.771-1.118 3.578z" fill="#394240"/><path d="m61.182 2.387c-.339-.249-.759-.386-1.184-.386-.204 0-.407.031-.603.093l-9.794 3.093c-.269.692-.752 1.309-1.036 2.185.456 1.195.159 2.094.785 3.078.584.893 1.581.5 1.995 1.545.637 1.586-.393 3.215-1.592 4.108-.388.284-.748.38-1.108.38-.641 0-1.279-.301-2.07-.38-1.445-.139-2.449-.511-3.575-.913v6.191c.378.083.768.194 1.193.374 1.321.55 1.836 1.601 3.178 2.061.495.169.945.233 1.372.233 1.383 0 2.528-.682 4.194-.756 1.013-.036 1.851-.505 2.675-.504.428 0 .852.126 1.294.504 1.146 1.004.541 2.926 1.581 4.114.881 1.024 1.613 1.312 2.78 1.546.256.049.498.096.732.132v-25.085c.001-.635-.305-1.238-.817-1.613z" fill="#f9ebb2"/><path d="m34.669 13.018c-1.607.233-3.03-.151-3.975 1.539-.901 1.635-.949 3.558 0 5.152.817 1.345 1.889 1.174 3.179 1.532.56.154 1.05.206 1.517.206.947 0 1.794-.213 2.901-.213.113 0 .229.002.347.007.22.009.43.013.634.013.628 0 1.186-.029 1.729-.04v-6.663c-2.174-.564-3.491-1.592-5.488-1.592-.269-0-.548.019-.844.059z" fill="#f9ebb2"/><path d="m29.852 31.872c-.312-.127-.61-.176-.899-.176-.952 0-1.805.529-2.706.529-.376 0-.761-.092-1.165-.354-1.042-.673-1.335-1.701-2.082-2.71v12.98c.759.649 1.463 1.474 2.484 2.075 1.072.632 1.603 1.47 2.78 1.539.193.012.385.02.572.02 1.098 0 2.076-.269 2.606-1.559.43-1.072-.335-1.951 0-3.091.376-1.333 1.57-1.265 1.979-2.569.414-1.291.403-2.287 0-3.587-.614-2.019-1.973-2.431-3.569-3.097z" fill="#f9ebb2"/><path d="m12.384 21.596c-1.199-1.004-1.448-2.425-2.785-3.077-.437-.219-.837-.302-1.221-.302-1.145 0-2.145.739-3.539.816-1.117.057-1.964.116-2.839.123v33.93c.248.038.487.064.719.064.596 0 1.146-.169 1.722-.718 1.184-1.127.521-2.926 1.188-4.616.817-2.041 1.099-3.943 2.786-4.63.393-.158.725-.22 1.054-.22.413 0 .82.098 1.329.22 1.357.33 1.809 1.744 3.173 2.055.679.159 1.318.353 1.91.353.609 0 1.168-.206 1.666-.868.685-.893.037-2.268.79-3.078.437-.475.872-.576 1.357-.576.315 0 .653.044 1.025.055.101.004.186.03.28.043v-14.21c-1.035-1.028-2.025-1.827-3.453-2.786-1.915-1.286-3.353-1.061-5.162-2.578z" fill="#f9ebb2"/><path d="m54.77 41.25c-.93-.286-1.528-.468-2.054-.19.165.238.497.591.735.843.9.954 2.132 2.26 1.539 3.812-.413 1.104-1.393 1.496-2.107 1.782-.679.271-.833.373-.87.572-.038.209.021.279.055.32.193.231.798.464 1.717.464 1.042 0 2.11-.295 2.721-.751 1.052-.807 1.4-1.912 1.118-3.578-.279-1.688-1.213-2.757-2.854-3.274z" fill="#f9ebb2"/><path d="m41 61.781-18-5.781v-54l18 6z" fill="#231f20" opacity=".2"/></svg>