<svg fill="none" height="800" viewBox="0 0 24 24" width="800" xmlns="http://www.w3.org/2000/svg"><g clip-rule="evenodd" fill="#0f0f0f" fill-rule="evenodd"><path d="m12.0036 14.0035c2.4853 0 4.5-2.0148 4.5-4.50003 0-2.48528-2.0147-4.5-4.5-4.5-2.48529 0-4.50001 2.01472-4.50001 4.5 0 2.48523 2.01472 4.50003 4.50001 4.50003zm0-1.9964c-1.3827 0-2.5036-1.1209-2.5036-2.50363 0-1.3827 1.1209-2.50359 2.5036-2.50359s2.5036 1.12089 2.5036 2.50359c0 1.38273-1.1209 2.50363-2.5036 2.50363z"/><path d="m21.272 11.5818c1.2929-5.79364-3.2668-11.57825996-9.272-11.57825996-6.00351 0-10.56361 5.79255996-9.27184 11.57895996.99707 4.6996 5.02904 9.264 7.43544 11.6444 1.0306 1.0194 2.6422 1.0194 3.6728 0 2.4065-2.3805 6.4388-6.9453 7.4356-11.6451zm-9.272-9.57826c4.7124 0 8.3368 4.58627 7.32 9.14266-.4884 2.1893-1.5841 4.1553-2.8699 5.9728-1.3437 1.8994-2.8672 3.5454-4.0202 4.686-.2513.2486-.6085.2486-.8598 0-1.153-1.1405-2.67631-2.7864-4.02001-4.6857-1.2859-1.8176-2.38123-3.7832-2.86998-5.9726-1.01573-4.54988 2.61001-9.14316 7.31989-9.14316z"/></g></svg>