<svg height="800" viewBox="0 0 23.67 23.67" width="800" xmlns="http://www.w3.org/2000/svg"><path d="m21.756 16.552v-5.025c.598-.159 1.041-.698 1.041-1.346 0-.772-.626-1.398-1.398-1.398-.315 0-.604.109-.838.286l-4.023-3.162c.075-.17.117-.358.117-.557 0-.773-.627-1.399-1.399-1.399-.451 0-.848.217-1.104.548-.987-.361-2.438-.77-4-.77-.857 0-1.644.131-2.362.378l2.45-2.445c.134.08.282.138.449.138.497 0 .9-.403.9-.9s-.403-.9-.9-.9-.9.403-.9.9c0 .167.058.315.138.449l-2.877 2.87c-.23-.167-.512-.269-.819-.269-.773 0-1.399.626-1.399 1.399 0 .306.1.586.267.817l-2.807 2.8c-.148-.108-.322-.185-.52-.185-.497 0-.9.403-.9.9s.403.9.9.9.9-.403.9-.9c0-.137-.036-.263-.09-.379l2.554-2.548c-.598 3.985 4.292 12.046 6.097 14.854-.108.199-.175.423-.175.665 0 .771.626 1.397 1.398 1.397s1.398-.626 1.398-1.397c0-.143-.027-.277-.067-.407l6.545-3.073c.257.306.637.504 1.066.504.772 0 1.398-.626 1.398-1.398.001-.649-.442-1.189-1.04-1.347zm-.711-.001c-.6.157-1.045.698-1.045 1.347 0 .088.011.173.025.256l-6.61 3.105c-.251-.237-.586-.385-.958-.385-.264 0-.509.077-.72.205-2.452-3.85-6.567-11.252-5.881-14.389.12.034.244.058.375.058.773 0 1.399-.626 1.399-1.399 0-.133-.024-.26-.06-.382.761-.341 1.617-.53 2.582-.53 1.43 0 2.79.38 3.723.717-.009.064-.02.128-.02.195 0 .772.627 1.399 1.399 1.399.317 0 .606-.109.841-.288l4.021 3.162c-.074.171-.117.359-.117.558 0 .649.445 1.19 1.045 1.347v5.024z" fill="#090609"/></svg>