<svg fill="none" height="800" viewBox="0 0 24 24" width="800" xmlns="http://www.w3.org/2000/svg"><g stroke="#000" stroke-linecap="round" stroke-width=".99999"><g stroke-linejoin="round"><path d="m3.5868 13.7788c1.77943 1.769 4.88273 4.2211 8.4134 4.2211 3.5306 0 6.6333-2.4521 8.4128-4.2211.4693-.4665.7047-.7006.8541-1.1587.1067-.3268.1067-.9134 0-1.2402-.1494-.4581-.3848-.6922-.8541-1.1588-1.7795-1.76902-4.8822-4.2211-8.4128-4.2211-3.53067 0-6.63397 2.45208-8.4134 4.2211-.46966.4669-.70451.7005-.854 1.1588-.10662.3268-.10662.9134 0 1.2402.14949.4583.38434.6918.854 1.1587z"/><path d="m10 12c0 1.1046.8954 2 2 2s2-.8954 2-2-.8954-2-2-2-2 .8954-2 2z"/></g><path d="m.542667.46255544 22.914666 23.07488956" fill="none"/></g></svg>