<svg height="128" viewBox="0 0 128 128" width="128" xmlns="http://www.w3.org/2000/svg"><g stroke="#000"><g stroke-linejoin="round"><path d="m50.682076 11.84349a9.9427385 9.8083801 0 0 1 -9.913715 9.808338 9.9427385 9.8083801 0 0 1 -9.971592-9.751076 9.9427385 9.8083801 0 0 1 9.8555-9.8652664 9.9427385 9.8083801 0 0 1 10.02913 9.6934824" fill="#fff" fill-opacity=".292683" stroke-width="4"/><path d="m-89.330766-18.301798a11.857818 11.927108 0 0 1 -11.823204 11.9270571 11.857818 11.927108 0 0 1 -11.89223-11.8574261 11.857818 11.927108 0 0 1 11.75378-11.996281 11.857818 11.927108 0 0 1 11.960846 11.78739" fill="#36ffff" fill-opacity=".731707" stroke-width="4" transform="matrix(-.99934267 .03625232 -.03625232 -.99934267 0 0)"/><path d="m7.8273139 52.910397a11.857818 11.927108 0 0 1 -11.8232041 11.927057 11.857818 11.927108 0 0 1 -11.8922288-11.857426 11.857818 11.927108 0 0 1 11.7537758-11.996282 11.857818 11.927108 0 0 1 11.9608488 11.78739" fill="#fff" fill-opacity=".292683" stroke-width="4" transform="matrix(.91415468 -.40536554 .40536554 .91415468 0 0)"/><path d="m-97.778506 7.7278371a11.196057 11.261479 0 0 1 -10.954514 11.2588579 11.196057 11.261479 0 0 1 -11.42718-10.7730544 11.196057 11.261479 0 0 1 10.46145-11.7237 11.196057 11.261479 0 0 1 11.878574 10.267194" fill="#f00" stroke-width="4" transform="matrix(-.21520049 -.97656989 .97656989 -.21520049 0 0)"/><path d="m107.76171-45.266829a15.279237 15.368519 0 0 1 -14.538897 16.071575 15.279237 15.368519 0 0 1 -15.985287-14.616029 15.279237 15.368519 0 0 1 14.523332-16.08581 15.279237 15.368519 0 0 1 15.999432 14.600361" fill="#446bff" fill-opacity=".810976" stroke-width="6.425535" transform="matrix(.45077696 .89263662 -.89263662 .45077696 0 0)"/><path d="m-138.87613 42.45425a11.857818 11.927108 0 0 1 -11.8232 11.927057 11.857818 11.927108 0 0 1 -11.89223-11.857425 11.857818 11.927108 0 0 1 11.75377-11.996282 11.857818 11.927108 0 0 1 11.96085 11.78739" fill="#0f0" fill-opacity=".810976" stroke-width="4" transform="matrix(-.45958002 -.88813637 .88813637 -.45958002 0 0)"/></g><path d="m48.678764 11.73743 43.302109 2.344009" fill="none" stroke-width="4.149048"/><path d="m89.745635 18.260201-63.103434 27.354098" fill="none" stroke-width="4.10947"/><path d="m20.782833 62.61322 8.15853 33.194414" fill="none" stroke-width="4.083236"/><path d="m72.733703 71.32046-32.965413 26.133842" fill="none" stroke-width="3.784152"/><path d="m87.334214 73.091615 15.116736 32.526905" fill="none" stroke-width="3.710123"/></g></svg>