<svg height="800" viewBox="0 0 96 96" width="800" xmlns="http://www.w3.org/2000/svg"><path d="m94.2422 43.7578-12-12a5.9994 5.9994 0 0 0 -8.4844 8.4844l1.7578 1.7578h-21.5156v-21.5156l1.7578 1.7578a5.9994 5.9994 0 0 0 8.4844-8.4844l-12-12a5.9979 5.9979 0 0 0 -8.4844 0l-12 12a5.9994 5.9994 0 0 0 8.4844 8.4844l1.7578-1.7578v21.5156h-21.5156l1.7578-1.7578a5.9994 5.9994 0 0 0 -8.4844-8.4844l-12 12a5.9979 5.9979 0 0 0 0 8.4844l12 12a5.9994 5.9994 0 1 0 8.4844-8.4844l-1.7578-1.7578h21.5156v21.5156l-1.7578-1.7578a5.9994 5.9994 0 0 0 -8.4844 8.4844l12 12a5.9979 5.9979 0 0 0 8.4844 0l12-12a5.9994 5.9994 0 0 0 -8.4844-8.4844l-1.7578 1.7578v-21.5156h21.5156l-1.7578 1.7578a5.9994 5.9994 0 1 0 8.4844 8.4844l12-12a5.9979 5.9979 0 0 0 0-8.4844z"/></svg>