<svg height="128" width="128" xmlns="http://www.w3.org/2000/svg"><path d="m29.96 126.374c-.584-.215-1.419-.97-1.857-1.68-.756-1.223-.796-1.896-.796-13.264v-11.976l1.27-1.305c.886-.911 3.748-2.436 9.476-5.05a1600.61 1600.61 0 0 0 12.847-5.926l4.64-2.181-1.514-1.1c-2.365-1.72-4.3-4.089-5.841-7.15-1.962-3.895-2.504-5.833-2.773-9.909-.727-11.02 6.621-21.614 16.152-23.287 7.416-1.302 15.126 3.102 18.85 10.768.84 1.73 1.752 4.11 2.025 5.293.71 3.062.608 9.064-.204 12.114-1.274 4.783-5.03 10.61-7.794 12.09-.562.3-1.022.661-1.022.8 0 .14 1.45.938 3.224 1.773 15.433 7.266 22.481 10.846 23.446 11.91l1.075 1.184v11.894c0 7.616-.15 12.217-.418 12.792-.23.493-.889 1.249-1.465 1.679-1.027.766-1.714.783-34.654.852-21.622.045-33.985-.07-34.667-.321zm-24.957-8.768c-.943-1.003-.948-1.05-1.064-10.785-.102-8.518-.035-9.904.52-10.752.393-.599 2.246-1.73 4.807-2.937 9.003-4.24 15.58-7.254 16.4-7.514 1.18-.375 1.084-.628-.755-1.979-2.984-2.191-5.467-6.731-6.235-11.399-1.306-7.937 2.667-16.276 9.308-19.537 3.048-1.497 7.807-1.57 10.948-.168 1.129.504 2.05 1.114 2.049 1.356-.002.242-.356 1.583-.786 2.98-1.047 3.396-1.428 10.001-.779 13.517.624 3.377 2.305 8.083 3.646 10.208l1.022 1.618-1.356 1.19c-.746.655-2.278 1.616-3.406 2.136-10.352 4.776-14.335 6.934-15.662 8.484-2.398 2.802-2.606 3.988-2.606 14.89v9.7h-15.103zm102.412-8.692c0-14.68.03-14.628-12.306-20.616-5.158-2.505-8.633-4.435-9.35-5.194l-1.14-1.208 1.064-1.956c3.681-6.764 4.586-14.98 2.511-22.808-.961-3.628-.898-3.749 2.628-4.988 6.778-2.382 14.174 1.128 17.579 8.343 3.592 7.614 2.265 16.11-3.447 22.068l-2.333 2.433 6.012 2.832c11.532 5.432 15.363 7.489 15.873 8.52.342.692.484 3.724.488 10.423l.006 9.446-1.011 1.202-1.012 1.203h-15.561v-9.7z" stroke-width=".390773"/><text style="font-weight:400;font-size:70.337196;font-family:Sans;letter-spacing:0;word-spacing:0;fill:#f00;stroke-width:1.75843" transform="scale(1.02591 .97474)" x="-4.368" y="50.783"><tspan stroke-width="1.75843" x="-4.368" y="50.783">#</tspan></text></svg>