<?xml version="1.0" encoding="UTF-8" standalone="no"?>
<!-- Created with Inkscape (http://www.inkscape.org/) -->

<svg
   xmlns:dc="http://purl.org/dc/elements/1.1/"
   xmlns:cc="http://creativecommons.org/ns#"
   xmlns:rdf="http://www.w3.org/1999/02/22-rdf-syntax-ns#"
   xmlns:svg="http://www.w3.org/2000/svg"
   xmlns="http://www.w3.org/2000/svg"
   xmlns:sodipodi="http://sodipodi.sourceforge.net/DTD/sodipodi-0.dtd"
   xmlns:inkscape="http://www.inkscape.org/namespaces/inkscape"
   width="128px"
   height="128px"
   viewBox="0 0 128 128"
   version="1.1"
   id="SVGRoot"
   inkscape:version="0.92.3 (2405546, 2018-03-11)"
   sodipodi:docname="npcName.svg">
  <sodipodi:namedview
     id="base"
     pagecolor="#ffffff"
     bordercolor="#666666"
     borderopacity="1.0"
     inkscape:pageopacity="0.0"
     inkscape:pageshadow="2"
     inkscape:zoom="2"
     inkscape:cx="250.50153"
     inkscape:cy="-79.38952"
     inkscape:document-units="px"
     inkscape:current-layer="layer1"
     showgrid="false"
     inkscape:window-width="1920"
     inkscape:window-height="1052"
     inkscape:window-x="2560"
     inkscape:window-y="120"
     inkscape:window-maximized="1"
     inkscape:grid-bbox="true" />
  <defs
     id="defs1374" />
  <metadata
     id="metadata1377">
    <rdf:RDF>
      <cc:Work
         rdf:about="">
        <dc:format>image/svg+xml</dc:format>
        <dc:type
           rdf:resource="http://purl.org/dc/dcmitype/StillImage" />
        <dc:title></dc:title>
      </cc:Work>
    </rdf:RDF>
  </metadata>
  <g
     id="layer1"
     inkscape:groupmode="layer"
     inkscape:label="Layer 1">
    <path
       style="fill:#000000;stroke-width:0.39077297"
       d="m 29.959349,126.37388 c -0.582907,-0.21499 -1.418183,-0.97071 -1.856171,-1.67938 -0.755916,-1.2231 -0.796337,-1.8964 -0.796337,-13.26439 V 99.454227 l 1.270009,-1.305398 c 0.886533,-0.911233 3.747879,-2.436031 9.476248,-5.04987 4.513426,-2.059458 10.294006,-4.726133 12.845724,-5.925932 l 4.639497,-2.181459 -1.513311,-1.10051 C 51.660162,82.171297 49.725143,79.803205 48.183863,76.742616 46.221957,72.8468 45.679568,70.908506 45.410908,66.833174 44.684383,55.812206 52.032176,45.218671 61.563439,43.545569 c 7.415692,-1.301735 15.125437,3.10273 18.850278,10.768894 0.839963,1.728729 1.751063,4.110307 2.024673,5.292395 0.70888,3.062578 0.60763,9.06455 -0.20434,12.113962 -1.27372,4.783516 -5.03064,10.61094 -7.794432,12.090074 -0.561859,0.3007 -1.021569,0.661173 -1.021569,0.801054 0,0.139877 1.450748,0.937355 3.223884,1.772171 15.432867,7.266004 22.481497,10.84638 23.446377,11.90967 l 1.07462,1.184238 v 11.894033 c 0,7.61618 -0.15015,12.21686 -0.41749,12.79165 -0.22962,0.49369 -0.88905,1.24932 -1.4654,1.67917 -1.02712,0.76605 -1.71434,0.78293 -34.65438,0.85171 -21.62148,0.0451 -33.984442,-0.0692 -34.666311,-0.32071 z M 5.003203,117.60591 C 4.059858,116.60251 4.055352,116.55686 3.938816,106.82058 3.836863,98.303173 3.904036,96.917389 4.459912,96.069002 4.8521,95.470453 6.704516,94.338449 9.26622,93.131898 c 9.002319,-4.240055 15.579908,-7.253744 16.399698,-7.513936 1.180702,-0.37474 1.084239,-0.627504 -0.755062,-1.978566 -2.983853,-2.191791 -5.467138,-6.731776 -6.235041,-11.398998 -1.305937,-7.937352 2.666967,-16.276599 9.307927,-19.537619 3.047998,-1.496708 7.807749,-1.56963 10.948594,-0.167739 1.12836,0.503631 2.050212,1.113847 2.048573,1.356036 -0.0015,0.24219 -0.355449,1.583358 -0.786237,2.980371 -1.047022,3.395415 -1.427345,10.000871 -0.77824,13.516498 0.62343,3.376601 2.304281,8.083218 3.64544,10.207748 l 1.021629,1.618369 -1.355574,1.190206 c -0.745559,0.654615 -2.278248,1.6159 -3.405968,2.136188 -10.351789,4.775927 -14.334926,6.933472 -15.661628,8.483426 -2.398154,2.80171 -2.605858,3.988524 -2.605858,14.889988 v 9.69971 H 13.502516 5.950562 Z M 107.4153,108.91387 c 0,-14.679004 0.0305,-14.627944 -12.3059,-20.616322 -5.1587,-2.504157 -8.63361,-4.434259 -9.3504,-5.193577 l -1.14071,-1.208402 1.06445,-1.955756 c 3.68139,-6.763935 4.58618,-14.980679 2.51146,-22.807517 -0.96167,-3.627851 -0.8978,-3.749091 2.62743,-4.98812 6.77865,-2.382523 14.17391,1.127365 17.5789,8.343164 3.59282,7.613851 2.26564,16.1104 -3.44702,22.067716 l -2.33271,2.432616 6.0119,2.831955 c 11.53231,5.432388 15.36375,7.488912 15.87316,8.519887 0.3423,0.692785 0.48438,3.724466 0.48846,10.423196 l 0.006,9.44626 -1.01167,1.2023 -1.01167,1.20231 h -7.78072 -7.78073 v -9.69971 z"
       id="path1998"
       inkscape:connector-curvature="0" />
    <text
       xml:space="preserve"
       style="font-style:normal;font-weight:normal;font-size:62.02677917px;line-height:125%;font-family:Sans;letter-spacing:0px;word-spacing:0px;fill:#ff0000;fill-opacity:1;stroke:none;stroke-width:1.55066931px;stroke-linecap:butt;stroke-linejoin:miter;stroke-opacity:1"
       x="41.573242"
       y="49.149559"
       id="text2002"
       transform="scale(1.0239492,0.97661094)"><tspan
         sodipodi:role="line"
         id="tspan2000"
         x="41.573242"
         y="49.149559"
         style="stroke-width:1.55066931px">T</tspan></text>
  </g>
</svg>
