<svg height="128" viewBox="0 0 128 128" width="128" xmlns="http://www.w3.org/2000/svg"><path d="m29.959349 126.37388c-.582907-.21499-1.418183-.97071-1.856171-1.67938-.755916-1.2231-.796337-1.8964-.796337-13.26439v-11.975883l1.270009-1.305398c.886533-.911233 3.747879-2.436031 9.476248-5.04987 4.513426-2.059458 10.294006-4.726133 12.845724-5.925932l4.639497-2.181459-1.513311-1.10051c-2.364846-1.719761-4.299865-4.087853-5.841145-7.148442-1.961906-3.895816-2.504295-5.83411-2.772955-9.909442-.726525-11.020968 6.621268-21.614503 16.152531-23.287605 7.415692-1.301735 15.125437 3.10273 18.850278 10.768894.839963 1.728729 1.751063 4.110307 2.024673 5.292395.70888 3.062578.60763 9.06455-.20434 12.113962-1.27372 4.783516-5.03064 10.61094-7.794432 12.090074-.561859.3007-1.021569.661173-1.021569.801054 0 .139877 1.450748.937355 3.223884 1.772171 15.432867 7.266004 22.481497 10.84638 23.446377 11.90967l1.07462 1.184238v11.894033c0 7.61618-.15015 12.21686-.41749 12.79165-.22962.49369-.88905 1.24932-1.4654 1.67917-1.02712.76605-1.71434.78293-34.65438.85171-21.62148.0451-33.984442-.0692-34.666311-.32071zm-24.956146-8.76797c-.943345-1.0034-.947851-1.04905-1.064387-10.78533-.101953-8.517407-.03478-9.903191.521096-10.751578.392188-.598549 2.244604-1.730553 4.806308-2.937104 9.002319-4.240055 15.579908-7.253744 16.399698-7.513936 1.180702-.37474 1.084239-.627504-.755062-1.978566-2.983853-2.191791-5.467138-6.731776-6.235041-11.398998-1.305937-7.937352 2.666967-16.276599 9.307927-19.537619 3.047998-1.496708 7.807749-1.56963 10.948594-.167739 1.12836.503631 2.050212 1.113847 2.048573 1.356036-.0015.24219-.355449 1.583358-.786237 2.980371-1.047022 3.395415-1.427345 10.000871-.77824 13.516498.62343 3.376601 2.304281 8.083218 3.64544 10.207748l1.021629 1.618369-1.355574 1.190206c-.745559.654615-2.278248 1.6159-3.405968 2.136188-10.351789 4.775927-14.334926 6.933472-15.661628 8.483426-2.398154 2.80171-2.605858 3.988524-2.605858 14.889988v9.69971h-7.551957-7.551954zm102.412097-8.69204c0-14.679004.0305-14.627944-12.3059-20.616322-5.1587-2.504157-8.63361-4.434259-9.3504-5.193577l-1.14071-1.208402 1.06445-1.955756c3.68139-6.763935 4.58618-14.980679 2.51146-22.807517-.96167-3.627851-.8978-3.749091 2.62743-4.98812 6.77865-2.382523 14.17391 1.127365 17.5789 8.343164 3.59282 7.613851 2.26564 16.1104-3.44702 22.067716l-2.33271 2.432616 6.0119 2.831955c11.53231 5.432388 15.36375 7.488912 15.87316 8.519887.3423.692785.48438 3.724466.48846 10.423196l.006 9.44626-1.01167 1.2023-1.01167 1.20231h-7.78072-7.78073v-9.69971z" stroke-width=".390773"/><text style="font-size:62.026779;font-family:Sans;letter-spacing:0;word-spacing:0;fill:#f00;stroke-width:1.550669" transform="scale(1.0239492 .97661094)" x="41.573242" y="49.149559"><tspan stroke-width="1.550669" x="41.573242" y="49.149559">T</tspan></text></svg>