<svg enable-background="new 0 0 595.275 841.89" height="409.23" width="446.57" xmlns="http://www.w3.org/2000/svg" xmlns:xlink="http://www.w3.org/1999/xlink"><linearGradient id="a" gradientTransform="matrix(.2253207 .26965263 -.26965263 .2253207 -627.405447 801.279288)" gradientUnits="userSpaceOnUse" x1="-39.068" x2="-38.891" xlink:href="#b" y1="661.931" y2="647.789"/><linearGradient id="b"><stop offset="0" stop-color="#091d55"/><stop offset="1" stop-color="#091d55" stop-opacity="0"/></linearGradient><linearGradient id="c" gradientTransform="matrix(.2253207 .26965263 -.26965263 .2253207 -627.405447 801.279288)" gradientUnits="userSpaceOnUse" x1="-64.347" x2="-50.647" xlink:href="#d" y1="607.838" y2="621.361"/><linearGradient id="d"><stop offset="0" stop-color="#071848"/><stop offset="1" stop-color="#102f81"/></linearGradient><linearGradient id="e" gradientTransform="matrix(.2253207 .26965263 -.26965263 .2253207 -627.405447 801.279288)" gradientUnits="userSpaceOnUse" x1="-29.345" x2="-48.437" xlink:href="#f" y1="643.9" y2="609.605"/><linearGradient id="f"><stop offset="0" stop-color="#4776ed"/><stop offset="1" stop-color="#123797"/></linearGradient><linearGradient id="g" gradientTransform="matrix(.2253207 .26965263 -.26965263 .2253207 -627.115421 801.48127)" gradientUnits="userSpaceOnUse" x1="-22.107" x2="-31.499" xlink:href="#h" y1="616.999" y2="623.034"/><linearGradient id="h"><stop offset="0" stop-color="#fff"/><stop offset="1" stop-color="#fff" stop-opacity="0"/></linearGradient><linearGradient id="i" gradientTransform="matrix(.2253207 .26965263 -.26965263 .2253207 -627.609377 800.72028)" gradientUnits="userSpaceOnUse" x1="-55.813" x2="-46.813" xlink:href="#j" y1="616.015" y2="621.89"/><linearGradient id="j"><stop offset="0" stop-color="#081e58"/><stop offset="1" stop-color="#0d308d" stop-opacity="0"/></linearGradient><linearGradient id="k" gradientTransform="matrix(.3211085 .2548818 -.2548818 .3211085 -553.847145 731.770003)" gradientUnits="userSpaceOnUse" x1="-39.068" x2="-38.891" xlink:href="#b" y1="661.931" y2="647.789"/><linearGradient id="l" gradientTransform="matrix(.3211085 .2548818 -.2548818 .3211085 -553.847145 731.770003)" gradientUnits="userSpaceOnUse" x1="-64.347" x2="-50.647" xlink:href="#d" y1="607.838" y2="621.361"/><linearGradient id="m" gradientTransform="matrix(.3211085 .2548818 -.2548818 .3211085 -553.847145 731.770003)" gradientUnits="userSpaceOnUse" x1="-29.345" x2="-48.437" xlink:href="#f" y1="643.9" y2="609.605"/><linearGradient id="n" gradientTransform="matrix(.3211085 .2548818 -.2548818 .3211085 -553.467059 731.931801)" gradientUnits="userSpaceOnUse" x1="-22.107" x2="-31.499" xlink:href="#h" y1="616.999" y2="623.034"/><linearGradient id="o" gradientTransform="matrix(.3211085 .2548818 -.2548818 .3211085 -554.212618 731.180291)" gradientUnits="userSpaceOnUse" x1="-55.813" x2="-46.813" xlink:href="#j" y1="616.015" y2="621.89"/><linearGradient id="p" gradientTransform="matrix(.4219 .2038 -.2038 .4219 -588.075 664.897)" gradientUnits="userSpaceOnUse" x1="-39.068" x2="-38.891" xlink:href="#b" y1="661.931" y2="647.789"/><linearGradient id="q" gradientTransform="matrix(.4219 .2038 -.2038 .4219 -588.075 664.897)" gradientUnits="userSpaceOnUse" x1="-64.347" x2="-50.647" xlink:href="#d" y1="607.838" y2="621.361"/><linearGradient id="r" gradientTransform="matrix(.4219 .2038 -.2038 .4219 -588.075 664.897)" gradientUnits="userSpaceOnUse" x1="-29.345" x2="-48.437" xlink:href="#f" y1="643.9" y2="609.605"/><linearGradient id="s" gradientTransform="matrix(.4219 .2038 -.2038 .4219 -587.61 664.984)" gradientUnits="userSpaceOnUse" x1="-22.107" x2="-31.499" xlink:href="#h" y1="616.999" y2="623.034"/><linearGradient id="t" gradientTransform="matrix(.4219 .2038 -.2038 .4219 -588.629 664.331)" gradientUnits="userSpaceOnUse" x1="-55.813" x2="-46.813" xlink:href="#j" y1="616.015" y2="621.89"/><linearGradient id="u" gradientTransform="matrix(.49977376 .16751299 -.16751299 .49977376 -614.43445 613.89027)" gradientUnits="userSpaceOnUse" x1="-39.068" x2="-38.891" xlink:href="#b" y1="661.931" y2="647.789"/><linearGradient id="v" gradientTransform="matrix(.49977376 .16751299 -.16751299 .49977376 -614.43445 613.89027)" gradientUnits="userSpaceOnUse" x1="-64.347" x2="-50.647" xlink:href="#d" y1="607.838" y2="621.361"/><linearGradient id="w" gradientTransform="matrix(.49977376 .16751299 -.16751299 .49977376 -614.43445 613.89027)" gradientUnits="userSpaceOnUse" x1="-29.345" x2="-48.437" xlink:href="#f" y1="643.9" y2="609.605"/><linearGradient id="x" gradientTransform="matrix(.49977376 .16751299 -.16751299 .49977376 -613.903321 613.920334)" gradientUnits="userSpaceOnUse" x1="-22.107" x2="-31.499" xlink:href="#h" y1="616.999" y2="623.034"/><linearGradient id="y" gradientTransform="matrix(.49977376 .16751299 -.16751299 .49977376 -615.133434 613.336344)" gradientUnits="userSpaceOnUse" x1="-55.813" x2="-46.813" xlink:href="#j" y1="616.015" y2="621.89"/><linearGradient id="z" gradientUnits="userSpaceOnUse" x1="172.16148496" x2="172.26454852" xlink:href="#b" y1="528.36518268" y2="520.13057892"/><linearGradient id="A" gradientUnits="userSpaceOnUse" x1="157.44202884" x2="165.41926484" xlink:href="#d" y1="496.86791064" y2="504.74208308"/><linearGradient id="B" gradientUnits="userSpaceOnUse" x1="177.8229934" x2="166.70610364" xlink:href="#f" y1="517.866092" y2="497.8967994"/><linearGradient id="C" gradientUnits="userSpaceOnUse" x1="182.60353604" x2="177.13476228" xlink:href="#h" y1="502.04717772" y2="505.56123752"/><linearGradient id="D" gradientUnits="userSpaceOnUse" x1="161.48420636" x2="166.72472636" xlink:href="#j" y1="501.2942142" y2="504.7151092"/><linearGradient id="E" gradientUnits="userSpaceOnUse" x1="217.38508262" x2="206.94535202" xlink:href="#h" y1="2745.87075498" y2="2790.3950769"/><filter id="F" color-interpolation-filters="sRGB" height="1.451" width="1.513" x="-.257" y="-.225"><feGaussianBlur stdDeviation="4.156"/></filter><filter id="G" color-interpolation-filters="sRGB" height="1.235" width="1.245" x="-.123" y="-.118"><feGaussianBlur stdDeviation="1.065"/></filter><filter id="H" color-interpolation-filters="sRGB"><feGaussianBlur stdDeviation=".319"/></filter><filter id="I" color-interpolation-filters="sRGB"><feGaussianBlur stdDeviation=".93"/></filter><filter id="J" color-interpolation-filters="sRGB"><feGaussianBlur stdDeviation=".702"/></filter><filter id="K" color-interpolation-filters="sRGB"><feGaussianBlur stdDeviation=".4"/></filter><radialGradient id="L" cx="-29.566" cy="763.409" gradientTransform="matrix(.23187 .2803 -.01945 .01605 -789.327 932.374)" gradientUnits="userSpaceOnUse" r="17.732" xlink:href="#h"/><radialGradient id="M" cx="-29.566" cy="763.409" gradientTransform="matrix(.3311 .2655 -.01843 .02294 -707.891 919.777)" gradientUnits="userSpaceOnUse" r="17.732" xlink:href="#h"/><radialGradient id="N" cx="-29.566" cy="763.409" gradientTransform="matrix(.4357 .21314 -.01481 .0302 -712.762 913.119)" gradientUnits="userSpaceOnUse" r="17.732" xlink:href="#h"/><radialGradient id="O" cx="-29.566" cy="763.409" gradientTransform="matrix(.51651 .17598 -.01224 .0358 -718.325 908.612)" gradientUnits="userSpaceOnUse" r="17.732" xlink:href="#h"/><radialGradient id="P" cx="-29.566" cy="763.409" gradientTransform="matrix(.60278 .003 -.00025 .0418 189.555 488.106)" gradientUnits="userSpaceOnUse" r="17.732" xlink:href="#h"/><path d="m-1013.2 1146.798c-.823 0-1.667.483-3.312 1.438-4.33 2.37-8.461 4.946-12.718 7.375-3.397 1.936-3.424 1.95-3.438 5.687-.085 5.185-.024 10.723-.03 15.22 0 3.737.014 3.766 3.405 5.718 4.246 2.449 8.37 5.016 12.688 7.406 2.05 1.16 2.81 1.6 3.906 1.313.658-.172 1.447-.593 2.687-1.282 4.33-2.37 8.462-4.946 12.72-7.375 3.396-1.935 3.391-1.949 3.406-5.687.07-5.066.07-10.148.03-15.25.005-3.738.013-3.736-3.374-5.688-4.246-2.448-8.37-5.047-12.688-7.437-1.65-.955-2.457-1.434-3.28-1.438z" fill="#000f36" filter="url(#F)" transform="matrix(8.44188 0 0 6.77308 8752.256 -7681.343)"/><g filter="url(#G)" transform="matrix(8.12771 0 0 8.12771 6937.504 -7415.044)"><path d="m-799.077 924.468c-2.3-.896-4.618-1.656-6.916-2.506-1.834-.678-1.838-.679-3.274.518-2.013 1.634-4.125 3.444-5.849 4.886-1.432 1.2-1.432 1.206-1.09 3.13.427 2.413.763 4.83 1.237 7.252.343 1.854.344 1.852 2.112 2.528 2.3.896 4.618 1.657 6.917 2.506 1.833.679 1.83.67 3.267-.526a358.048 358.048 0 0 0 5.848-4.886c1.432-1.2 1.44-1.197 1.098-3.122-.428-2.413-.764-4.83-1.237-7.252-.33-1.877-.323-1.883-2.113-2.528z" fill="#0d308d" filter="url(#H)" opacity=".2"/><path d="m-816.207 930.496c.428 2.413.764 4.83 1.238 7.252.343 1.854.344 1.852 2.112 2.528 2.3.896 4.618 1.657 6.917 2.506 7.447-3.272-6.879-19.973-10.267-12.286z" fill="url(#a)" opacity=".2" visibility="hidden"/><path d="m-799.077 924.468c-2.3-.896-4.618-1.656-6.916-2.506-1.834-.678-1.838-.679-3.274.518-2.013 1.634-4.125 3.444-5.849 4.886l18.152-.37c-.33-1.877-.323-1.883-2.113-2.528z" fill="url(#c)" opacity=".2" visibility="hidden"/><path d="m-800.304 924.694-13.982 2.526c-1.853.427-2.389 2.656-1.204 4.134l9.012 10.785c1.117 1.337 3.685.805 4.137-.76l4.935-13.192c.93-2.371-.456-4.03-2.898-3.493z" fill="url(#e)" opacity=".2" visibility="hidden"/><g fill="#fff"><path d="m244.709 1147.723c0-1.01.104-1.822.311-2.437.208-.616.517-1.09.926-1.424.41-.334.925-.5 1.546-.5.458 0 .86.091 1.205.276.346.184.631.45.856.798.226.347.402.77.53 1.269s.193 1.171.193 2.018c0 1.001-.103 1.81-.31 2.425-.205.615-.512 1.09-.922 1.427-.41.335-.927.503-1.552.503-.823 0-1.47-.295-1.939-.885-.563-.71-.844-1.867-.844-3.47zm1.077 0c0 1.401.164 2.334.492 2.798.328.463.733.695 1.214.695s.886-.232 1.214-.698.492-1.398.492-2.795c0-1.406-.164-2.34-.492-2.801-.328-.462-.736-.693-1.226-.693-.48 0-.865.204-1.152.611-.362.52-.542 1.481-.542 2.883z" filter="url(#H)" opacity=".2" transform="matrix(.64120859 .76736663 -.76736663 .64120859 -83.195484 5.874689)"/><path d="m-147.917-1952.313.494-.042c.037.24.122.421.255.542a.692.692 0 0 0 .482.182.75.75 0 0 0 .575-.256c.157-.17.235-.397.235-.68 0-.268-.075-.48-.226-.634a.788.788 0 0 0 -.592-.233.816.816 0 0 0 -.697.371l-.442-.058.371-1.967h1.905v.45h-1.529l-.206 1.028c.23-.16.471-.24.724-.24.334 0 .616.116.846.348.23.231.345.53.345.893 0 .347-.1.647-.303.9-.246.31-.58.464-1.006.464-.348 0-.633-.098-.853-.293a1.142 1.142 0 0 1 -.378-.775z" filter="url(#H)" opacity=".2" transform="matrix(-1.08223 -1.29515 .45466 -.37991 -83.196 5.875)"/><path d="m-662.363 865.07-.529.04c-.047-.208-.114-.36-.2-.455a.704.704 0 0 0 -.533-.227.731.731 0 0 0 -.446.142c-.168.122-.3.3-.396.535-.097.234-.147.568-.151 1.002a1.233 1.233 0 0 1 1.052-.577c.355 0 .657.13.906.392.25.261.374.598.374 1.012 0 .272-.059.525-.176.758a1.281 1.281 0 0 1 -.483.537 1.32 1.32 0 0 1 -.698.186c-.443 0-.805-.163-1.084-.49-.28-.325-.42-.863-.42-1.611 0-.838.155-1.447.464-1.827.27-.331.633-.497 1.09-.497.341 0 .62.096.839.287.217.191.348.455.391.792zm-2.172 1.867c0 .183.039.359.116.526a.87.87 0 0 0 .327.383c.14.088.287.132.44.132a.75.75 0 0 0 .58-.272c.161-.182.242-.428.242-.74 0-.299-.08-.535-.24-.707a.787.787 0 0 0 -.602-.259.82.82 0 0 0 -.612.259c-.168.172-.251.398-.251.678z" filter="url(#H)" opacity=".2" transform="matrix(.69921 .3037 -.2893 1.30452 -83.196 5.875)"/><path d="m256.582 1144.783h.264v1.845h-.264z" filter="url(#H)" opacity=".2" transform="matrix(.64120859 .76736663 -.76736663 .64120859 -83.195484 5.874689)"/><g filter="url(#H)" opacity=".2"><path d="m1333.792 251.265v-1.114h-2.019v-.524l2.124-3.016h.466v3.016h.629v.524h-.629v1.114zm0-1.638v-2.098l-1.457 2.098z" fill="#fff" transform="matrix(-.27326 .69085 -1.44228 -.01315 -83.196 5.875)"/></g></g><path d="m-803.335 942.516c.377-.22.805-.66.916-1.043l.01-.022 4.94-13.201c.349-.89.334-1.614.086-2.132z" fill="url(#g)" opacity=".2" visibility="hidden"/><path d="m-815.404 927.904c.285-.332.794-.675 1.19-.716l.024-.006 13.868-2.516c.939-.185 1.648-.042 2.113.294z" fill="url(#i)" opacity=".2" visibility="hidden"/><path d="m-815.257 930.665 8.827 10.564-.472.395-8.827-10.565z" fill="url(#L)" opacity=".2" visibility="hidden"/></g><g filter="url(#I)" transform="matrix(8.12771 0 0 8.12771 6249.421 -7358.837)"><path d="m-720.897 913.047c-2.839-.48-5.667-.803-8.494-1.23-2.255-.342-2.26-.342-3.618 1.364-1.914 2.343-3.9 4.909-5.528 6.964-1.354 1.71-1.353 1.716-.508 3.834 1.058 2.656 2.014 5.338 3.126 7.993.83 2.036.831 2.035 3.01 2.39 2.84.48 5.668.802 8.495 1.23 2.254.342 2.25.333 3.608-1.373 1.863-2.293 3.7-4.614 5.528-6.964 1.353-1.71 1.362-1.707.517-3.825-1.058-2.656-2.013-5.338-3.125-7.994-.82-2.067-.814-2.074-3.01-2.39z" fill="#0d308d" opacity=".4"/><path d="m-739.045 923.979c1.058 2.656 2.014 5.338 3.126 7.993.83 2.036.831 2.035 3.01 2.39 2.84.48 5.668.802 8.495 1.23 7.736-5.497-12.575-21.196-14.63-11.613z" fill="url(#k)" opacity=".4"/><path d="m-720.897 913.047c-2.839-.48-5.667-.803-8.494-1.23-2.255-.342-2.26-.342-3.618 1.364-1.914 2.343-3.9 4.909-5.528 6.964l20.65-4.709c-.82-2.067-.813-2.074-3.01-2.39z" fill="url(#l)" opacity=".4"/><path d="m-722.246 913.594-15.378 6.188c-2.017.925-2.102 3.599-.4 5.007l12.843 10.194c1.593 1.264 4.4.05 4.547-1.844l2.524-16.238c.503-2.929-1.473-4.497-4.136-3.307z" fill="url(#m)" opacity=".4"/><g fill="#fff"><path d="m1.659 1174.26c0-1.177.12-2.125.363-2.842.242-.718.602-1.272 1.08-1.662.478-.389 1.08-.584 1.804-.584.534 0 1.003.108 1.406.323s.736.525.999.93c.262.406.469.9.618 1.482.15.582.224 1.366.224 2.353 0 1.169-.12 2.112-.36 2.83s-.599 1.273-1.077 1.664c-.477.392-1.081.588-1.81.588-.96 0-1.714-.344-2.262-1.033-.657-.828-.985-2.178-.985-4.049zm1.256 0c0 1.636.192 2.724.574 3.265.383.541.855.812 1.417.812.561 0 1.034-.272 1.416-.816.383-.543.574-1.63.574-3.26 0-1.64-.191-2.73-.574-3.268-.382-.54-.86-.809-1.43-.809-.561 0-1.01.238-1.345.714-.421.607-.632 1.728-.632 3.363z" opacity=".4" transform="matrix(.78324877 .62170842 -.62170842 .78324877 0 0)"/><path d="m-4.4-1999.637.577-.049c.042.28.142.491.297.633a.807.807 0 0 0 .562.211c.265 0 .488-.1.671-.298.183-.2.274-.464.274-.793 0-.313-.087-.56-.263-.74-.176-.182-.406-.272-.69-.272a.955.955 0 0 0 -.815.433l-.515-.067.433-2.296h2.222v.525h-1.783l-.24 1.2c.267-.186.549-.28.844-.28.39 0 .719.135.987.406.269.27.403.618.403 1.042 0 .405-.118.754-.354 1.049-.286.362-.678.543-1.174.543-.406 0-.738-.114-.995-.342-.257-.227-.404-.53-.44-.905z" opacity=".4" transform="matrix(-1.32196 -1.04931 .36836 -.46407 0 0)"/><path d="m-938.83 799.97-.617.05c-.055-.245-.133-.422-.235-.532a.822.822 0 0 0 -.62-.265.853.853 0 0 0 -.521.165c-.195.143-.35.35-.462.624-.113.274-.171.663-.176 1.17a1.438 1.438 0 0 1 1.228-.673c.413 0 .766.152 1.057.457.29.304.436.698.436 1.18 0 .318-.069.613-.205.885a1.495 1.495 0 0 1 -.564.626 1.54 1.54 0 0 1 -.814.217c-.517 0-.94-.19-1.266-.57s-.49-1.008-.49-1.881c0-.977.181-1.688.542-2.131.315-.387.74-.58 1.273-.58.397 0 .723.112.977.335s.407.53.457.924zm-2.534 2.18c0 .214.045.419.136.614.09.195.218.344.38.447a.953.953 0 0 0 .515.153.876.876 0 0 0 .675-.317c.189-.212.283-.5.283-.862 0-.35-.093-.625-.279-.826a.918.918 0 0 0 -.704-.302c-.28 0-.518.1-.713.302-.196.2-.293.465-.293.791z" opacity=".4" transform="matrix(.7462 .1559 -.0193 1.33608 0 0)"/><path d="m15.511 1170.831h.308v2.153h-.308z" opacity=".4" transform="matrix(.78324877 .62170842 -.62170842 .78324877 0 0)"/><path d="m1090.325 419.923v-1.3h-2.355v-.61l2.477-3.52h.545v3.52h.733v.61h-.733v1.3zm0-1.91v-2.45l-1.7 2.45z" opacity=".4" transform="matrix(-.12779 .73186 -1.41509 .27903 0 0)"/></g><path d="m-721.5 934.673c.378-.342.763-.945.8-1.408l.005-.028 2.527-16.249c.19-1.1 0-1.923-.405-2.456z" fill="url(#n)" opacity=".4"/><path d="m-738.74 920.827c.247-.446.748-.958 1.19-1.098l.026-.012 15.251-6.15c1.029-.433 1.873-.436 2.484-.162z" fill="url(#o)" opacity=".4"/><path d="m-737.92 923.947 12.58 9.986-.446.562-12.58-9.986z" fill="url(#M)" opacity=".4"/></g><g filter="url(#J)" transform="matrix(8.12771 0 0 8.12771 6249.421 -7355.437)"><path d="m-728.95 908.871c-3.286.175-6.52.525-9.78.756-2.6.183-2.605.185-3.693 2.428-1.547 3.09-3.118 6.45-4.42 9.15-1.08 2.245-1.078 2.25.395 4.401 1.845 2.697 3.582 5.448 5.487 8.13 1.436 2.063 1.437 2.061 3.955 1.911 3.286-.175 6.52-.524 9.78-.755 2.6-.184 2.593-.192 3.68-2.434a477.386 477.386 0 0 0 4.42-9.15c1.08-2.246 1.091-2.245-.381-4.396-1.845-2.696-3.582-5.448-5.488-8.13-1.431-2.1-1.427-2.11-3.955-1.91z" fill="#0d308d" opacity=".6"/><path d="m-746.448 925.606c1.845 2.697 3.582 5.448 5.487 8.13 1.436 2.063 1.437 2.061 3.955 1.911 3.286-.175 6.52-.524 9.78-.755 7.25-8.067-19.33-20.486-19.222-9.286z" fill="url(#p)" opacity=".6"/><path d="m-728.95 908.871c-3.286.175-6.52.525-9.78.756-2.6.183-2.605.185-3.693 2.428-1.547 3.09-3.118 6.45-4.42 9.15l21.848-10.423c-1.431-2.1-1.426-2.11-3.955-1.91z" fill="url(#q)" opacity=".6"/><path d="m-730.317 909.82-15.598 10.75c-2.017 1.537-1.443 4.54.808 5.684l16.874 8.151c2.092 1.01 4.919-1.046 4.608-3.196l-1.252-18.737c-.173-3.393-2.768-4.646-5.44-2.653z" fill="url(#r)" opacity=".6"/><g fill="#fff"><path d="m-262.604 1147.948c0-1.346.138-2.43.415-3.25s.688-1.453 1.234-1.898 1.234-.667 2.062-.668c.61 0 1.146.123 1.607.37.46.245.841.6 1.141 1.063s.536 1.027.707 1.693c.17.665.256 1.561.256 2.69 0 1.335-.137 2.413-.412 3.233-.274.82-.684 1.455-1.23 1.903-.546.447-1.236.671-2.07.671-1.097 0-1.958-.393-2.585-1.18-.75-.947-1.125-2.49-1.125-4.627zm1.436 0c0 1.868.219 3.112.656 3.73.437.619.977.928 1.619.928s1.181-.31 1.619-.932c.437-.62.656-1.863.656-3.726 0-1.874-.22-3.119-.656-3.735-.438-.616-.983-.924-1.635-.924-.642 0-1.154.272-1.537.816-.481.693-.722 1.974-.722 3.843z" opacity=".6" transform="matrix(.90044787 .43496395 -.43496395 .90044787 0 0)"/><path d="m151.686-1957.76.659-.056c.049.32.162.561.34.723a.922.922 0 0 0 .642.242c.302 0 .558-.114.767-.342.209-.227.313-.53.313-.906 0-.357-.1-.64-.301-.846-.201-.207-.464-.31-.79-.31a1.095 1.095 0 0 0 -.93.495l-.588-.078.495-2.623h2.54v.6h-2.039l-.275 1.372c.307-.214.628-.32.965-.32.446 0 .822.154 1.129.463.306.309.46.706.46 1.191 0 .462-.135.862-.405 1.199-.327.413-.774.62-1.34.62-.465 0-.844-.13-1.138-.39s-.462-.605-.504-1.035z" opacity=".6" transform="matrix(-1.51977 -.73411 .2577 -.53351 0 0)"/><path d="m-1194.648 691.61-.706.055c-.063-.279-.152-.481-.268-.607a.939.939 0 0 0 -.71-.304.975.975 0 0 0 -.594.19c-.224.162-.4.4-.528.713-.13.312-.196.758-.201 1.336a1.644 1.644 0 0 1 1.403-.769c.473 0 .875.174 1.208.522.332.349.498.799.498 1.35 0 .363-.078.7-.234 1.011-.157.311-.372.55-.645.715a1.76 1.76 0 0 1 -.93.249c-.59 0-1.073-.218-1.446-.653-.373-.434-.56-1.151-.56-2.15 0-1.116.206-1.928.619-2.435.36-.441.845-.662 1.454-.662.455 0 .827.127 1.117.382s.465.607.523 1.056zm-2.897 2.49c0 .244.052.478.156.702.103.223.249.393.435.51.187.117.382.175.587.175a1 1 0 0 0 .773-.362c.215-.242.323-.57.323-.985 0-.4-.106-.714-.32-.944a1.05 1.05 0 0 0 -.803-.345c-.32 0-.593.115-.816.345s-.335.531-.335.904z" opacity=".6" transform="matrix(.76224 -.0114 .27396 1.30783 0 0)"/><path d="m-246.773 1144.029h.352v2.46h-.352z" opacity=".6" transform="matrix(.90044787 .43496395 -.43496395 .90044787 0 0)"/><path d="m774.15 583.669v-1.486h-2.692v-.698l2.831-4.022h.623v4.022h.838v.698h-.838v1.486zm0-2.184v-2.798l-1.943 2.798z" opacity=".6" transform="matrix(.0357 .74208 -1.31955 .58234 0 0)"/></g><path d="m-724.207 933.137c.337-.475.615-1.245.54-1.77l-.001-.033-1.251-18.751c-.065-1.274-.482-2.145-1.067-2.638z" fill="url(#s)" opacity=".6"/><path d="m-746.897 922.015c.163-.559.593-1.255 1.051-1.522l.026-.02 15.466-10.676c1.039-.741 1.98-.957 2.73-.804z" fill="url(#t)" opacity=".6"/><path d="m-745.202 925.29 16.528 7.984-.356.738-16.529-7.984z" fill="url(#N)" opacity=".6"/></g><g filter="url(#K)" transform="matrix(8.12771 0 0 8.12771 6240.954 -7348.636)"><path d="m-736.994 906.171c-3.642.662-7.202 1.512-10.807 2.232-2.875.574-2.881.577-3.776 3.234-1.288 3.67-2.564 7.641-3.633 10.839-.888 2.66-.884 2.666 1.065 4.856 2.442 2.748 4.771 5.572 7.279 8.295 1.895 2.098 1.896 2.095 4.685 1.57 3.642-.662 7.202-1.511 10.807-2.232 2.875-.574 2.866-.582 3.761-3.24a537.065 537.065 0 0 0 3.633-10.838c.888-2.66.9-2.66-1.05-4.851-2.442-2.748-4.77-5.572-7.278-8.295-1.896-2.14-1.892-2.151-4.686-1.57z" fill="#0d308d" opacity=".8"/><path d="m-754.145 927.332c2.442 2.748 4.771 5.572 7.279 8.295 1.895 2.098 1.896 2.095 4.685 1.57 3.642-.662 7.202-1.511 10.807-2.232 6.945-10.033-24.482-20.116-22.771-7.633z" fill="url(#u)" opacity=".8"/><path d="m-736.994 906.171c-3.642.662-7.202 1.512-10.807 2.232-2.875.574-2.881.577-3.776 3.234-1.288 3.67-2.564 7.641-3.633 10.839l22.902-14.735c-1.896-2.14-1.892-2.151-4.686-1.57z" fill="url(#v)" opacity=".8"/><path d="m-738.385 907.423-15.88 14.214c-2.033 2.002-.965 5.271 1.709 6.228l19.99 6.7c2.478.83 5.34-1.867 4.688-4.221l-4.059-20.734c-.674-3.76-3.75-4.791-6.448-2.187z" fill="url(#w)" opacity=".8"/><g fill="#fff"><path d="m-412.543 1107.461c0-1.514.156-2.732.468-3.655.311-.923.774-1.635 1.389-2.136.614-.5 1.387-.75 2.319-.75.687 0 1.29.137 1.808.414s.946.675 1.284 1.197c.337.52.602 1.156.794 1.904.193.748.289 1.757.289 3.026 0 1.503-.155 2.715-.463 3.638-.309.923-.77 1.636-1.385 2.14-.614.504-1.39.756-2.327.756-1.235 0-2.204-.443-2.909-1.328-.844-1.066-1.267-2.8-1.267-5.206zm1.616 0c0 2.102.246 3.501.738 4.197s1.1 1.044 1.822 1.044 1.329-.35 1.82-1.048c.493-.699.739-2.096.739-4.193 0-2.108-.246-3.508-.738-4.201s-1.105-1.04-1.839-1.04c-.722 0-1.298.306-1.73.918-.54.78-.812 2.221-.812 4.323z" opacity=".8" transform="matrix(.94815738 .31780115 -.31780115 .94815738 0 0)"/><path d="m240.035-1891.962.741-.063c.055.361.182.632.382.814.2.181.441.272.723.272.34 0 .627-.128.863-.384.235-.256.352-.596.352-1.019 0-.402-.113-.72-.339-.952-.226-.233-.522-.35-.887-.35a1.234 1.234 0 0 0 -1.047.557l-.662-.086.556-2.95h2.857v.673h-2.292l-.31 1.544a1.87 1.87 0 0 1 1.086-.36c.501 0 .925.174 1.27.521.344.348.517.794.517 1.34 0 .52-.152.97-.455 1.349-.368.465-.871.697-1.509.697-.522 0-.949-.146-1.28-.439-.33-.292-.519-.68-.566-1.164z" opacity=".8" transform="matrix(-1.60029 -.53637 .1883 -.56178 0 0)"/><path d="m-1317.897 612.667-.794.063c-.071-.314-.171-.541-.301-.683a1.056 1.056 0 0 0 -.799-.342c-.254 0-.477.071-.669.213-.251.183-.45.45-.594.803-.145.351-.22.852-.226 1.503a1.85 1.85 0 0 1 1.578-.865c.532 0 .985.196 1.36.588.373.391.56.897.56 1.518a2.5 2.5 0 0 1 -.264 1.137c-.176.35-.417.619-.725.805a1.98 1.98 0 0 1 -1.046.28c-.665 0-1.208-.245-1.627-.735-.42-.489-.63-1.295-.63-2.418 0-1.256.232-2.17.696-2.74.405-.497.95-.745 1.636-.745.512 0 .93.144 1.257.43.327.287.523.683.588 1.188zm-3.259 2.802c0 .275.058.538.175.79.117.25.28.442.49.574.21.131.43.197.66.197.338 0 .627-.136.87-.408.242-.272.363-.641.363-1.108 0-.45-.12-.803-.359-1.062a1.18 1.18 0 0 0 -.904-.388c-.361 0-.667.13-.918.388-.251.259-.377.598-.377 1.017z" opacity=".8" transform="matrix(.7547 -.10754 .43688 1.26278 0 0)"/><path d="m-394.732 1103.052h.395v2.768h-.395z" opacity=".8" transform="matrix(.94815738 .31780115 -.31780115 .94815738 0 0)"/><path d="m570.289 667.767v-1.672h-3.029v-.786l3.186-4.523h.7v4.523h.943v.786h-.943v1.672zm0-2.458v-3.147l-2.186 3.147z" opacity=".8" transform="matrix(.1291 .73163 -1.23547 .74428 0 0)"/></g><path d="m-728.254 932.578c.308-.579.51-1.477.35-2.053a.433.433 0 0 1 -.005-.036l-4.06-20.749c-.253-1.412-.841-2.325-1.565-2.791z" fill="url(#x)" opacity=".8"/><path d="m-755.156 923.389c.103-.647.483-1.486.957-1.849a.426.426 0 0 0 .026-.026l15.744-14.11c1.054-.975 2.073-1.35 2.932-1.286z" fill="url(#y)" opacity=".8"/><path d="m-752.8 926.802 19.58 6.563-.293.875-19.58-6.563z" fill="url(#O)" opacity=".8"/></g><g transform="matrix(8.17505 .0193 -.0193 8.17505 -1192.498 -3997.499)"><path d="m169.144 492.103c-3.583 1.972-7.013 4.112-10.536 6.132-2.81 1.61-2.816 1.616-2.82 4.713-.06 4.295-.003 8.904 0 12.628.004 3.097.01 3.103 2.82 4.713 3.523 2.02 6.954 4.16 10.536 6.132 2.721 1.532 2.721 1.53 5.459 0 3.582-1.972 7.013-4.111 10.535-6.132 2.81-1.61 2.798-1.616 2.802-4.713.048-4.197.042-8.401 0-12.628-.004-3.097.008-3.102-2.802-4.713-3.522-2.02-6.953-4.16-10.535-6.132-2.738-1.576-2.738-1.59-5.46 0z" fill="#0d308d"/><path d="m158.608 520.29c3.523 2.02 6.954 4.16 10.536 6.131 2.721 1.532 2.721 1.53 5.459 0 3.582-1.972 7.013-4.111 10.535-6.132 3.752-12.946-32.704-12.475-26.53 0z" fill="url(#z)"/><path d="m169.144 492.103c-3.583 1.972-7.013 4.112-10.536 6.132-2.81 1.61-2.816 1.616-2.82 4.713-.06 4.295-.003 8.904 0 12.628l18.815-23.473c-2.738-1.576-2.738-1.59-5.46 0z" fill="url(#A)"/><path d="m168.127 493.903-11.643 20.463c-1.427 2.81.838 5.86 3.976 5.923h23.288c2.888 0 4.94-3.83 3.43-6.067l-11.53-20.292c-2.027-3.702-5.61-3.702-7.521-.027z" fill="url(#B)"/><path d="m173.77 514.603h-1.736v-11.067c-.419.399-.967.798-1.646 1.196-.678.4-1.288.698-1.828.898v-1.679c.971-.457 1.82-1.01 2.547-1.66s1.242-1.28 1.544-1.89h1.12z" fill="#fff"/></g><path d="m-103.934-881.957.818-.07c.06.4.201.699.422.9.221.2.487.3.8.3.374 0 .692-.141.952-.424s.39-.658.39-1.126c0-.444-.126-.795-.375-1.052-.25-.257-.577-.385-.98-.385a1.359 1.359 0 0 0 -1.157.615l-.732-.096.615-3.26h3.156v.745h-2.532l-.342 1.706c.38-.266.78-.399 1.199-.399a1.9 1.9 0 0 1 1.403.576c.38.384.571.878.571 1.48 0 .575-.167 1.072-.502 1.49-.407.514-.963.77-1.667.77-.577 0-1.048-.16-1.414-.484-.365-.323-.573-.752-.625-1.286z" fill="#fff" transform="matrix(-13.79777056 -.03299193 .01158169 -4.84365615 -1192.436763 -3997.517619)"/><path d="m-212.738 402.014-.876.069c-.079-.347-.19-.598-.334-.755a1.167 1.167 0 0 0 -.881-.377c-.28 0-.527.079-.74.235-.277.203-.496.498-.656.887-.16.388-.243.942-.25 1.66a2.043 2.043 0 0 1 1.744-.955c.588 0 1.088.216 1.501.649s.62.992.62 1.677c0 .451-.098.87-.292 1.257a2.123 2.123 0 0 1 -.8.889c-.34.205-.726.308-1.156.308-.735 0-1.334-.27-1.798-.81s-.695-1.431-.695-2.672c0-1.388.256-2.397.769-3.027.447-.548 1.05-.823 1.807-.823.565 0 1.027.159 1.388.475.361.317.577.755.65 1.313zm-3.6 3.095c0 .304.065.595.194.872.129.278.31.489.541.634.232.146.475.218.73.218.372 0 .692-.15.96-.45.267-.3.401-.709.401-1.225 0-.496-.132-.887-.396-1.173a1.304 1.304 0 0 0 -1-.428 1.36 1.36 0 0 0 -1.013.428c-.278.286-.417.66-.417 1.124z" fill="#fff" transform="matrix(5.57705 -2.78115 6.64665 8.66887 -1192.498 -3997.499)"/><path d="m186.903 502.757h.437v3.057h-.437z" fill="#fff" transform="matrix(8.17505 .0193 -.0193 8.17505 -1192.498 -3997.499)"/><path d="m645.027 77.042v-1.846h-3.346v-.868l3.52-4.997h.773v4.997h1.041v.868h-1.041v1.846zm0-2.714v-3.477l-2.415 3.477z" fill="#fff" transform="matrix(2.88887 5.34253 -7.66403 8.96078 -1192.498 -3997.499)"/><path d="m187.568 516.693c.12-.713.015-1.725-.353-2.272l-.019-.036-11.536-20.307c-.761-1.39-1.698-2.14-2.62-2.375z" fill="url(#C)" transform="matrix(8.17505 .0193 -.0193 8.17505 -1192.498 -3997.499)"/><path d="m156.165 516.513c-.12-.713-.015-1.725.353-2.272l.019-.036 11.536-20.307c.761-1.391 1.698-2.14 2.62-2.375z" fill="url(#D)" transform="matrix(8.17505 .0193 -.0193 8.17505 -1192.498 -3997.499)"/><path d="m159.832 519.261h22.812v1.02h-22.812z" fill="url(#P)" transform="matrix(8.17505 .0193 -.0193 8.17505 -1192.498 -3997.499)"/><path d="m201.084 2755.188c-.836 0-1.695.496-3.365 1.465-4.398 2.408-8.595 5.024-12.92 7.491-3.45 1.967-3.46 1.957-3.474 5.754-.02 1.257.01 2.412 0 3.692 2.6 1.674 5.21 3.323 8.034 4.722 3.03 1.502 6.302 2.716 9.934 3.474 1.816.38 3.721.65 5.754.76 2.032.112 4.167.104 6.46-.109a56.502 56.502 0 0 0 7.328-1.194c.593-.135 1.29-.386 1.9-.543.012-3.558.027-7.111 0-10.694.003-3.797.02-3.825-3.42-5.808-4.313-2.487-8.479-5.117-12.865-7.545-1.676-.97-2.53-1.462-3.366-1.466z" fill="url(#E)" transform="matrix(6.66747 0 0 6.66747 -1137.602 -18351.095)"/></svg>