<svg height="800" viewBox="0 0 32 32" width="800" xmlns="http://www.w3.org/2000/svg">
<path d="m30.293 18-13.293-13.293-11.304 11.282 13.304 13.304z" fill="#a3aeb5"/>
<path d="m12.198 9.5h-3.698c-3.314 0-6 2.686-6 6v12.5c0 .828.672 1.5 1.5 1.5.828 0 1.5-.672 1.5-1.5v-12.011h.196z" fill="#d1712a"/>
<circle cx="13.5" cy="15.5" fill="#788287" r="2.5"/>
<path d="m31 18-10-10v-3c0-2.206-1.794-4-4-4s-4 1.794-4 4v3l-1 1h-3.5c-3.584 0-6.5 2.916-6.5 6.5v12.5c0 1.103.897 2 2 2s2-.897 2-2v-11l13 13zm-17-13c0-1.654 1.346-3 3-3s3 1.346 3 3v2l-3-3-3 3zm-9 23c0 .551-.448 1-1 1s-1-.449-1-1v-12.5c0-3.033 2.468-5.5 5.5-5.5h2.5l-6 6zm8-18.586v6.086c0 .276.224.5.5.5s.5-.224.5-.5v-7.086l3-3 12.586 12.586-10.586 10.586-12.586-12.586z" fill="#231f20"/>
</svg>