<svg height="800" viewBox="0 0 256 256" width="800" xmlns="http://www.w3.org/2000/svg"><path d="m56.97058 183.0293a24.00009 24.00009 0 1 1 -33.9411 0 24.00037 24.00037 0 0 1 33.9411 0zm22.0589-104a24.00009 24.00009 0 1 0 33.9411 0 24.00026 24.00026 0 0 0 -33.9411 0zm64 64a24.00009 24.00009 0 1 0 33.9411 0 24.00026 24.00026 0 0 0 -33.9411 0zm89.9411-104a24.00009 24.00009 0 1 0 0 33.9414 24 24 0 0 0 0-33.9414z" opacity=".2"/><path d="m238.62744 33.37207a32.03673 32.03673 0 0 0 -45.25488 0l-.00049.001a32.03718 32.03718 0 0 0 .00049 45.25488c.29358.29346.59558.57324.89764.853l-26.62866 49.45263a32.12446 32.12446 0 0 0 -23.89618 3.498l-20.177-20.17725a32.00216 32.00216 0 0 0 -50.1958-38.88232l-.00049.001a32.03718 32.03718 0 0 0 .00049 45.25488c.29358.29346.59564.57324.8977.85352l-26.62872 49.45218a32.01263 32.01263 0 0 0 -30.269 8.43848l-.00049.001a32 32 0 1 0 45.25537-.001c-.29358-.29346-.59558-.57324-.89764-.853l26.629-49.45312a32.157 32.157 0 0 0 23.89526-3.49805l20.17755 20.17774a32.0016 32.0016 0 1 0 50.1958-6.37354c-.29358-.29346-.59558-.57324-.89764-.853l26.629-49.45312a32.23882 32.23882 0 0 0 7.64125.9184 31.98463 31.98463 0 0 0 22.62744-54.61231zm-187.31344 177.94141a16.00019 16.00019 0 1 1 -22.62744-22.62793l-.00048.001a16 16 0 1 1 22.62792 22.627zm33.37256-103.999a16.02013 16.02013 0 0 1 0-22.6289l-.00048.001a16 16 0 1 1 .00048 22.62793zm86.62744 63.999a16.00008 16.00008 0 0 1 -22.63006-22.625l.00214-.002a16 16 0 1 1 22.62792 22.627zm56-104a16.00019 16.00019 0 1 1 -22.62744-22.62793l-.00048.001a16 16 0 1 1 22.62792 22.627z"/></svg>