<svg height="128" width="128" xmlns="http://www.w3.org/2000/svg"><path d="m29.96 126.374c-.584-.215-1.419-.97-1.857-1.68-.756-1.223-.796-1.896-.796-13.264v-11.976l1.27-1.305c.886-.911 3.748-2.436 9.476-5.05a1600.61 1600.61 0 0 0 12.847-5.926l4.64-2.181-1.514-1.1c-2.365-1.72-4.3-4.089-5.841-7.15-1.962-3.895-2.504-5.833-2.773-9.909-.727-11.02 6.621-21.614 16.152-23.287 7.416-1.302 15.126 3.102 18.85 10.768.84 1.73 1.752 4.11 2.025 5.293.71 3.062.608 9.064-.204 12.114-1.274 4.783-5.03 10.61-7.794 12.09-.562.3-1.022.661-1.022.8 0 .14 1.45.938 3.224 1.773 15.433 7.266 22.481 10.846 23.446 11.91l1.075 1.184v11.894c0 7.616-.15 12.217-.418 12.792-.23.493-.889 1.249-1.465 1.679-1.027.766-1.714.783-34.654.852-21.622.045-33.985-.07-34.667-.321z" stroke-width=".390773"/><text style="font-weight:400;font-size:60.065483;font-family:Sans;letter-spacing:0;word-spacing:0;stroke-width:1.501637" x="46.728" y="47.876"><tspan fill="#f00" stroke-width="1.501637" x="46.728" y="47.876">T</tspan></text></svg>