<svg enable-background="new 0 0 64 64" height="800" viewBox="0 0 64 64" width="800" xmlns="http://www.w3.org/2000/svg"><g transform="translate(4)"><path d="m5.1 0c-2.8 0-5.1 2.3-5.1 5.1v53.8c0 2.8 2.3 5.1 5.1 5.1h45.8c2.8 0 5.1-2.3 5.1-5.1v-38.6l-18.9-20.3z" fill="#8c181a"/><path d="m56 20.4v1h-12.8s-6.3-1.3-6.1-6.7c0 0 .2 5.7 6 5.7z" fill="#6b0d12"/><path d="m37.1 0v14.6c0 1.7 1.1 5.8 6.1 5.8h12.8z" fill="#fff" opacity=".5"/></g><path d="m15.168674 47.31965h-4.954943v6.156142c0 .600599-.4504488 1.051048-1.2011983 1.051048-.6005992 0-1.051048-.450449-1.051048-1.051048v-15.315279c0-.900897.7507484-1.651647 1.6516471-1.651647h5.5555422c3.603594 0 5.705691 2.552546 5.705691 5.405393 0 3.002996-2.102097 5.405391-5.705691 5.405391zm-.15015-8.858837h-4.804793v6.90689h4.804793c2.102097 0 3.603595-1.351347 3.603595-3.453444s-1.501498-3.453446-3.603595-3.453446zm15.615577 16.066027h-4.504494c-.900899 0-1.651647-.750748-1.651647-1.651647v-14.71468c0-.900897.750748-1.651647 1.651647-1.651647h4.504494c5.555541 0 9.309287 3.903895 9.309287 9.008988 0 5.105091-3.603595 9.008986-9.309287 9.008986zm0-16.066027h-3.903895v13.96393h3.903895c4.354343 0 6.90689-3.153145 6.90689-7.05704.150149-3.753744-2.402397-6.90689-6.90689-6.90689zm24.474414 0h-8.708687v5.855842h8.558538c.600599 0 .900898.450449.900898 1.051048s-.450449.900899-.900898.900899h-8.558538v7.20719c0 .600599-.45045 1.051048-1.201198 1.051048-.600599 0-1.051049-.450449-1.051049-1.051048v-15.315279c0-.900897.750749-1.651647 1.651648-1.651647h9.309286c.600599 0 .900899.45045.900899 1.051049.15015.450449-.3003.900898-.900899.900898z" fill="#fff" stroke-width="1.5976"/></svg>