<svg fill="none" height="800" viewBox="0 0 24 24" width="800" xmlns="http://www.w3.org/2000/svg"><path d="m15.4998 5.49994 2.8284 2.82843m-15.3282 12.67133.04745-.3322c.16791-1.1753.25187-1.763.44284-2.3117.16946-.4869.40095-.9499.68877-1.3775.32435-.482.74413-.9018 1.58368-1.7413l11.64796-11.64804c.7811-.78105 2.0474-.78105 2.8285 0 .781.78105.781 2.04738 0 2.82843l-11.86176 11.86171c-.76165.7617-1.14247 1.1425-1.57624 1.4453-.38502.2688-.80027.4915-1.23722.6635-.49227.1938-1.02023.3003-2.07605.5133z" stroke="#000" stroke-linecap="round" stroke-linejoin="round" stroke-width="2"/></svg>