<svg height="488.571" width="516" xmlns="http://www.w3.org/2000/svg"><g stroke="#000"><g transform="translate(-148.071 -159.005)"><path d="m148.571 487.362h234.286c20.881-24.187 50.504-30.428 67.143-30.137v-27.006h-301.429zm0 65h184.286c-7.858 20.605-6.556 39.6-2.143 56.429h-182.143z"/><path d="m379.372 576.475c-2.783-27.143 35.494-106.167 129.2-70.639v-317.045l155-29.286v87.143l-98.572 27.142v300c-41.429 96.939-182.778 95.604-185.628 2.684z" stroke-linejoin="round"/><path d="m148.571 188.79v57.858h301.429v-57.858zm0 121.43h301.429v57.142h-301.429z"/></g><path d="m582.678 619.505c0 37.082-33.659 67.143-75.178 67.143-41.52 0-75.178-30.061-75.178-67.143s33.659-67.143 75.178-67.143c41.03 0 74.482 29.382 75.167 66.022l-75.167 1.121z" stroke-linecap="round" stroke-linejoin="round" stroke-width="19" transform="translate(-193.786 -207.576)"/></g></svg>