<svg fill="none" height="800" viewBox="0 0 24 24" width="800" xmlns="http://www.w3.org/2000/svg"><path clip-rule="evenodd" d="m2.25 6c0-.41421.33579-.75.75-.75h12c.4142 0 .75.33579.75.75s-.3358.75-.75.75h-12c-.41421 0-.75-.33579-.75-.75zm14.75 1.25c.4142 0 .75.33579.75.75 0 1.79493 1.4551 3.25 3.25 3.25.4142 0 .75.3358.75.75s-.3358.75-.75.75c-1.2572 0-2.4003-.4884-3.25-1.2859v5.0359c0 1.7949-1.4551 3.25-3.25 3.25s-3.25-1.4551-3.25-3.25 1.4551-3.25 3.25-3.25c.6443 0 1.2449.1875 1.75.5109v-5.7609c0-.41421.3358-.75.75-.75zm-.75 9.25c0-.9665-.7835-1.75-1.75-1.75s-1.75.7835-1.75 1.75.7835 1.75 1.75 1.75 1.75-.7835 1.75-1.75zm-14-6.5c0-.41421.33579-.75.75-.75h10c.4142 0 .75.33579.75.75 0 .4142-.3358.75-.75.75h-10c-.41421 0-.75-.3358-.75-.75zm0 4c0-.4142.33579-.75.75-.75h6c.41421 0 .75.3358.75.75s-.33579.75-.75.75h-6c-.41421 0-.75-.3358-.75-.75zm0 4c0-.4142.33579-.75.75-.75h5c.41421 0 .75.3358.75.75s-.33579.75-.75.75h-5c-.41421 0-.75-.3358-.75-.75z" fill="#000" fill-rule="evenodd"/></svg>