<svg enable-background="new 0 0 480.606 480.606" viewBox="0 0 480.606 480.606" xmlns="http://www.w3.org/2000/svg"><path d="m85.285 192.5h200v30h-200z"/><path d="m439.108 480.606 21.213-21.213-71.349-71.349c12.528-16.886 19.949-37.777 19.949-60.371 0-40.664-24.032-75.814-58.637-92.012v-126.874l-108.785-108.787h-221.214v445h330v-25.313a101.657 101.657 0 0 0 17.475-10.429zm-188.823-429.393 48.787 48.787h-48.787zm-200-21.213h170v100h100v96.957a102.044 102.044 0 0 0 -12.896-.815c-31.197 0-59.148 14.147-77.788 36.358h-144.316v30h126.856a101.052 101.052 0 0 0 -6.285 35.174c0 1.618.042 3.226.117 4.826h-120.688v30h126.725c8.095 22.101 23.669 40.624 43.636 52.5h-205.361zm257.104 369.208c-39.443 0-71.533-32.09-71.533-71.533s32.089-71.533 71.533-71.533 71.533 32.089 71.533 71.533-32.09 71.533-71.533 71.533z"/></svg>