<svg enable-background="new 0 0 480.606 480.606" viewBox="0 0 480.606 480.606" xmlns="http://www.w3.org/2000/svg"><path d="m294.99995 178.06724h20.73699l-1.41707 154.57023 44.26227-14.34352-50.78813 101.27982-54.33074-103.86158 42.35901 16.27235z" fill="#f40000" fill-rule="evenodd" stroke="#000"/><path d="m439.108 480.606 21.213-21.213-71.349-71.349c12.528-16.886 19.949-37.777 19.949-60.371 0-40.664-24.032-75.814-58.637-92.012v-126.874l-108.785-108.787h-221.214v445h330v-25.313c6.188-2.897 12.04-6.396 17.475-10.429zm-188.823-429.393 48.787 48.787h-48.787zm-200-21.213h170v100h100v96.957c-4.224-.538-8.529-.815-12.896-.815-31.197 0-59.148 14.147-77.788 36.358l-7.36366 8.65498c-4.87004 6.55908-10.04424 14.24868-12.64192 21.85414-2.172 5.025-4.81942 13.84489-4.81942 26.74489 0 1.618-.318 8.26599.297 13.28599 1.00921 10.8776 4.43643 19.71957 5.2001 23.60516l1.7369 5.85484c8.095 22.101 23.669 40.624 43.636 52.5h-205.361zm257.104 369.208c-39.443 0-71.533-32.09-71.533-71.533s32.089-71.533 71.533-71.533 71.533 32.089 71.533 71.533-32.09 71.533-71.533 71.533z"/><text stroke-width="4.059665" transform="scale(.83859174 1.1924754)" x="65.239761" y="290.31982"><tspan stroke-width="4.059665" x="65.239761" y="433.9939"/></text><path d="m59.766918 174.77608-.112935 224.01127 24.82757 1.31646-.236471-150.93495 33.972288 22.46107 42.59109-25.87577-1.32707 153.69142 26.46346.29823c-.0512-8.87645-.1641-222.5095-.1641-222.5095l-67.68691 48.45085z" fill-rule="evenodd" stroke="#000"/></svg>