<svg height="800" viewBox="0 0 1024 1024" width="800" xmlns="http://www.w3.org/2000/svg"><path d="m192 234.666667h640v64h-640z" fill="#424242"/><path d="m85.333333 533.333333h853.333334v-149.333333c0-46.933333-38.4-85.333333-85.333334-85.333333h-682.666666c-46.933333 0-85.333333 38.4-85.333334 85.333333z" fill="#616161"/><path d="m170.666667 768h682.666666c46.933333 0 85.333333-38.4 85.333334-85.333333v-170.666667h-853.333334v170.666667c0 46.933333 38.4 85.333333 85.333334 85.333333z" fill="#424242"/><path d="m832 384a21.333333 21.333333 0 1 0 42.666667 0 21.333333 21.333333 0 1 0 -42.666667 0z" fill="#00e676"/><path d="m234.666667 85.333333h554.666666v213.333334h-554.666666z" fill="#90caf9"/><path d="m800 661.333333h-576c-17.066667 0-32-14.933333-32-32s14.933333-32 32-32h576c17.066667 0 32 14.933333 32 32s-14.933333 32-32 32z" fill="#242424"/><path d="m234.666667 661.333333h554.666666v234.666667h-554.666666z" fill="#90caf9"/><path d="m234.666667 618.666667h554.666666v42.666666h-554.666666z" fill="#42a5f5"/><path d="m341.333333 704h362.666667v42.666667h-362.666667zm0 85.333333h277.333334v42.666667h-277.333334z" fill="#1976d2"/></svg>