<svg enable-background="new 0 0 20.697 20.697" viewBox="0 0 20.697 20.697" xmlns="http://www.w3.org/2000/svg"><path d="m.358 16.978c-.21-.044-.358-.226-.358-.436 0-7.253 8.61-8.798 10.61-9.059v-3.328c0-.164.09-.314.235-.393.147-.076.321-.065.456.024l9.202 6.194c.121.082.194.218.194.369 0 .147-.073.284-.194.366l-9.197 6.193c-.137.09-.313.1-.457.023-.146-.078-.236-.229-.236-.394v-3.58c-1.447.009-2.645.073-3.642.193-4.785.567-6.064 3.44-6.116 3.563-.071.165-.233.271-.41.271-.03.002-.06 0-.087-.006z" fill="#030104"/></svg>