<svg height="512mm" viewBox="0 0 1814.1732 1814.1732" width="512mm" xmlns="http://www.w3.org/2000/svg"><path d="m429.4996 940.81776c-18.65942-7.86906-31.76287-19.95281-127.7666-117.8239-58.83626-59.98053-139.47124-139.24578-179.18938-176.1449-39.717765-36.89912-80.566643-75.80384-90.775093-86.45496-47.629217-49.69454-42.033623-106.81472 16.096639-164.30817 13.035886-12.89291 53.964054-46.02137 90.951404-73.61887 69.19272-51.62655 151.98575-117.39411 226.52715-179.94433 56.43886-47.359576 72.20515-55.124172 111.49401-54.907837 25.70479.141584 33.16659 1.651954 51.24535 10.372713 25.6946 12.394624 50.47553 36.427154 62.12772 60.251354 16.18461 33.09074 10.3032 78.41324-13.72453 105.76832-3.21858 3.66449-39.92541 34.72351-81.57016 69.01999l-75.71783 62.35729 142.96808 1.19675c78.63247.65821 320.56196-.93458 537.62104-3.53949 217.0591-2.60491 446.4177-4.73623 509.686-4.73623 104.3536 0 116.6446.62152 132.3893 6.69448 52.373 20.20075 80.0815 80.14395 64.3541 139.21988-2.7077 10.17107-8.3649 24.06171-12.5715 30.8681-12.3072 19.91321-38.2623 40.48294-58.2118 46.13298-22.0056 6.23243-364.4249 11.7275-930.14689 14.92673l-370.59916 2.09583 58.23711 60.15961c63.86027 65.96836 77.00262 83.17714 85.28747 111.67528 10.99638 37.82595-3.96121 83.97934-37.26183 114.97611-34.64317 32.24629-74.32582 41.41943-111.4506 25.76327zm889.7359-688.55288c-62.0287-18.93669-103.9465-88.78128-87.3549-145.55389 8.2799-28.331326 19.0691-42.522505 83.1416-109.3556631 31.5182-32.8760799 57.3057-60.8924199 57.3057-62.2585399 0-1.36615-41.8102-1.37113-92.9117-.0117-51.1015 1.35965-229.0933.68543-395.5375-1.49859-166.4446-2.1841-413.3237-5.32908-548.62043-6.98885-236.6665-2.90344-246.732618-3.29715-265.461505-10.3839-27.207789-10.29482-43.900205-25.354877-56.522672-50.995147-30.140562-61.22443-8.5094894-132.63533 48.684459-160.72119l20.226227-9.93235 127.421531.75747c70.08183.41662 271.56716 2.53714 447.74524 4.7123 176.1777 2.17515 413.11615 3.42706 526.52905 2.78202l206.2058-1.17281-72.7783-59.82865c-40.0285-32.90578-78.2149-66.17987-84.8593-73.94239-44.0207-51.42826-19.3828-129.64496 51.3919-163.14937 19.8275-9.3863 26.9193-10.87674 51.3223-10.78613 36.534.13553 51.2232 7.54494 106.9832 53.96318 76.7707 63.90856 168.5048 136.55637 238.744 189.07039 101.3819 75.79734 128.2971 109.37504 128.4443 160.2391.1135 38.90453-8.506 51.16158-86.4046 122.875497-36.1205 33.25286-124.6062 119.68588-196.6346 192.073383-116.6011 117.18249-132.8737 132.2607-148.404 137.51417-18.1279 6.13209-43.3995 7.24823-58.6558 2.5906z" transform="translate(0 761.81102)"/></svg>