<svg height="800" viewBox="0 0 1920 1920" width="800" xmlns="http://www.w3.org/2000/svg"><path clip-rule="evenodd" d="m1251.45 447.883-131.45-131.451h160c176.73 0 320 143.269 320 320h106.67c0-235.641-191.03-426.666-426.67-426.666h-159.97l134.34-134.341-75.43-75.425-263.107 263.111 260.197 260.196zm28.55 405.45c0-117.82-95.51-213.333-213.33-213.333h-853.337c-117.82 0-213.333 95.513-213.333 213.333v853.337c0 117.82 95.513 213.33 213.333 213.33h853.337c117.82 0 213.33-95.51 213.33-213.33zm-213.33-106.666h-853.337c-58.91 0-106.666 47.756-106.666 106.666v853.337c0 58.91 47.756 106.66 106.666 106.66h853.337c58.91 0 106.66-47.75 106.66-106.66v-853.337c0-58.91-47.75-106.666-106.66-106.666z" fill-rule="evenodd"/></svg>