<svg height="800" viewBox="0 0 1920 1920" width="800" xmlns="http://www.w3.org/2000/svg"><path clip-rule="evenodd" d="m639.999 209.777h116.019l-134.353-134.352 75.425-75.425 263.111 263.111-260.196 260.196-75.425-75.424 131.439-131.439h-116.02c-176.731 0-320 143.269-320 320h-106.667c0-235.642 191.025-426.667 426.667-426.667zm0 643.556c0-117.82 95.512-213.333 213.333-213.333h853.338c117.82 0 213.33 95.513 213.33 213.333v853.337c0 117.82-95.51 213.33-213.33 213.33h-853.338c-117.821 0-213.333-95.51-213.333-213.33zm213.333-106.666h853.338c58.91 0 106.66 47.756 106.66 106.666v853.337c0 58.91-47.75 106.66-106.66 106.66h-853.338c-58.91 0-106.667-47.75-106.667-106.66v-853.337c0-58.91 47.757-106.666 106.667-106.666z" fill-rule="evenodd"/></svg>