<svg height="800" viewBox="-.01 -.008 100.016 100.016" width="800" xmlns="http://www.w3.org/2000/svg"><path d="m88.555-.008h-5.555v.016a2 2 0 0 1 -2 2h-62a2 2 0 0 1 -2-2v-.016h-13a4 4 0 0 0 -4 4v92.016a4 4 0 0 0 4 4h92a4 4 0 0 0 4-4v-84.491c.049-.089-11.436-11.454-11.445-11.525z" fill="#23475f"/><path d="m81.04 53.008h-62.08a2 2 0 0 0 -2 2v45h66.08v-45c0-1.106-.895-2-2-2zm-61.957-10h61.834a2 2 0 0 0 2-2v-40.461a1.993 1.993 0 0 1 -1.917 1.46h-62c-.916 0-1.681-.62-1.917-1.46v40.46a2 2 0 0 0 2 2.001z" fill="#1c3c50"/><path d="m22 55.977h56a2 2 0 0 1 2 2v37.031a2 2 0 0 1 -2 2h-56c-1.104 0-2-.396-2-1.5v-37.531a2 2 0 0 1 2-2z" fill="#ebf0f1"/><path d="m25 77.008h50v1h-50zm0 10h50v1h-50z" fill="#bcc4c8"/><path d="m7 84.008h3a2 2 0 0 1 2 2v3a2 2 0 0 1 -2 2h-3a2 2 0 0 1 -2-2v-3a2 2 0 0 1 2-2zm83 0h3a2 2 0 0 1 2 2v3a2 2 0 0 1 -2 2h-3a2 2 0 0 1 -2-2v-3a2 2 0 0 1 2-2z" fill="#1c3c50"/><path d="m37 1.981v36.026a2 2 0 0 0 2 2h39a2 2 0 0 0 2-2v-36.026c0 .007-42.982.007-43 0zm37 29.027a2 2 0 0 1 -2 2h-6a2 2 0 0 1 -2-2v-20.027a2 2 0 0 1 2-2h6a2 2 0 0 1 2 2z" fill="#bcc4c8"/><path d="m78 55.977h-56a2 2 0 0 0 -2 2v10.031h60v-10.031a2 2 0 0 0 -2-2z" fill="#ff9d00"/></svg>