<svg height="600" viewBox="0 0 600 600" width="600" xmlns="http://www.w3.org/2000/svg"><path d="m447.70881-12.781343a42.041451 42.041451 0 0 0 -42.04095 42.041687v21.041377h-378.233095a42.041302 42.041302 0 0 0 -42.04095 42.039633 42.041302 42.041302 0 0 0 42.04095 42.041686h378.233095v21.06602a42.041451 42.041451 0 0 0 42.04095 42.04169 42.041451 42.041451 0 0 0 42.04095-42.04169v-21.06602h84.0306a42.041302 42.041302 0 0 0 42.043-42.041686 42.041302 42.041302 0 0 0 -42.043-42.039633h-84.0306v-21.041377a42.041451 42.041451 0 0 0 -42.04095-42.041687zm-304.70761 210.270033a42.041451 42.041451 0 0 0 -42.043 42.04169v21.03932h-73.511122a42.041302 42.041302 0 0 0 -42.04095 42.04169 42.041302 42.041302 0 0 0 42.04095 42.04169h73.511122v21.06602a42.041451 42.041451 0 0 0 42.043 42.04168 42.041451 42.041451 0 0 0 42.04095-42.04168v-21.06602h388.75257a42.041302 42.041302 0 0 0 42.04095-42.04169 42.041302 42.041302 0 0 0 -42.04095-42.04169h-388.75257v-21.03932a42.041451 42.041451 0 0 0 -42.04095-42.04169zm136.59307 210.27209a42.041451 42.041451 0 0 0 -42.04095 42.03964v21.03932h-210.106242a42.041302 42.041302 0 0 0 -42.04095 42.04169 42.041302 42.041302 0 0 0 42.04095 42.03963h210.106242v21.06807a42.041451 42.041451 0 0 0 42.04095 42.03964 42.041451 42.041451 0 0 0 42.04095-42.03964v-21.06807h252.1595a42.041302 42.041302 0 0 0 42.04095-42.03963 42.041302 42.041302 0 0 0 -42.04095-42.04169h-252.1595v-21.03932a42.041451 42.041451 0 0 0 -42.04095-42.03964z" stroke-linecap="round" stroke-width="1.05103" transform="matrix(.95173205 0 0 .95115787 13.901174 12.168794)"/></svg>