<svg height="64" viewBox="0 0 64 64" width="64" xmlns="http://www.w3.org/2000/svg"><g fill-rule="evenodd" stroke="#fff"><path d="m52.249041 49.066104c20.203115-7.253332 7.282869-25.897431.714575-24.035733.449574-22.946892-23.838735-23.65271-29.622418-7.210721-1.734055-2.801066-11.332256-5.197688-12.732443 6.366222-11.51657049.18267-14.7425567 24.669127 0 24.75031z" stroke-linecap="round" stroke-linejoin="round" stroke-miterlimit="1" stroke-width=".334939"/><path d="m20.907923 41.220858c.305697-1.871493.969958-6.777862 1.248559-6.596766.300059.13502.312373 1.872903.557898 1.945908.229849.145119 1.216701-6.270162 1.556566-6.31546.291405-.08007.01317 3.053057.407338 2.964053.408951-.0029 1.57882-6.827653 1.796748-6.271706.411543.08303.0267 3.26118.444216 2.942422.517131.272758 1.007073-14.641774 18.15364-21.8907482 1.596865 8.6262032-16.119298 24.5816332-15.781081 24.6813662.08945.265639 3.830784-2.429687 3.666163-1.946661-.594937 1.09747-4.517547 3.948451-6.982995 6.78013-.05353.379155 1.630773-.562786 1.715984-.13861-.765035.959778-2.371469 2.007493-3.570837 2.93161-.02997.177774 1.108063-.223399 1.060014.187798l-3.083649 1.816213c-1.684332 1.970482-3.807995 4.237588-6.046951 7.029763 6.386007-7.896405 21.614479-31.329458 22.82112-34.3117-7.599301 7.453102-21.075678 31.787277-22.842375 34.286354z" fill="#fff" stroke-miterlimit="8.4" stroke-width=".471639"/></g></svg>