<svg height="800" viewBox="0 0 512 512" width="800" xmlns="http://www.w3.org/2000/svg"><path d="m319.654 17.507c-1.848-10.139-10.681-17.507-20.987-17.507-164.236 0-298.667 113.752-298.667 256s134.431 256 298.667 256c10.306 0 19.139-7.368 20.987-17.507l2.155-11.819c26.024-153.137 26.035-306.534.018-453.247zm-38.785 451.319c-133.698-7.647-238.202-100.794-238.202-212.826 0-112.045 104.529-205.201 238.249-212.829 23.691 137.801 23.68 281.848-.047 425.655z"/><path d="m490.667 277.333c11.782 0 21.333-9.551 21.333-21.333s-9.551-21.333-21.333-21.333h-33.852c8.351-29.348 12.82-57.876 13.962-85.333h19.89c11.782 0 21.333-9.551 21.333-21.333s-9.551-21.333-21.333-21.333h-20.78c-1.378-16.328-3.922-32.191-7.501-47.528-2.678-11.474-14.15-18.604-25.624-15.926s-18.604 14.15-15.926 25.624c2.852 12.22 4.942 24.845 6.198 37.831h-43.034c-11.782 0-21.333 9.551-21.333 21.333s9.551 21.333 21.333 21.333h44.058c-1.295 27.249-6.327 55.787-15.823 85.333h-28.235c-11.782 0-21.333 9.551-21.333 21.333s9.551 21.333 21.333 21.333h14.117c-8.359 29.348-12.832 57.877-13.979 85.333h-.138c-11.782 0-21.333 9.551-21.333 21.333s9.551 21.333 21.333 21.333h1.025c1.377 16.329 3.922 32.192 7.502 47.526 2.679 11.473 14.152 18.603 25.625 15.924s18.603-14.152 15.924-25.625c-2.853-12.216-4.943-24.839-6.198-37.824h62.789c11.782 0 21.333-9.551 21.333-21.333s-9.551-21.333-21.333-21.333h-63.809c1.299-27.247 6.337-55.787 15.843-85.333h47.966z"/></svg>