<?xml version="1.0" encoding="UTF-8" standalone="no"?>
<!-- Created with Inkscape (http://www.inkscape.org/) -->

<svg
   xmlns:dc="http://purl.org/dc/elements/1.1/"
   xmlns:cc="http://creativecommons.org/ns#"
   xmlns:rdf="http://www.w3.org/1999/02/22-rdf-syntax-ns#"
   xmlns:svg="http://www.w3.org/2000/svg"
   xmlns="http://www.w3.org/2000/svg"
   xmlns:sodipodi="http://sodipodi.sourceforge.net/DTD/sodipodi-0.dtd"
   xmlns:inkscape="http://www.inkscape.org/namespaces/inkscape"
   width="128px"
   height="128px"
   viewBox="0 0 128 128"
   version="1.1"
   id="SVGRoot"
   inkscape:version="0.92.3 (2405546, 2018-03-11)"
   sodipodi:docname="sun.svg">
  <sodipodi:namedview
     id="base"
     pagecolor="#ffffff"
     bordercolor="#666666"
     borderopacity="1.0"
     inkscape:pageopacity="0.0"
     inkscape:pageshadow="2"
     inkscape:zoom="2"
     inkscape:cx="64"
     inkscape:cy="64"
     inkscape:document-units="px"
     inkscape:current-layer="layer1"
     showgrid="false"
     inkscape:window-width="2560"
     inkscape:window-height="1440"
     inkscape:window-x="2560"
     inkscape:window-y="0"
     inkscape:window-maximized="1"
     inkscape:grid-bbox="true" />
  <defs
     id="defs4583" />
  <metadata
     id="metadata4586">
    <rdf:RDF>
      <cc:Work
         rdf:about="">
        <dc:format>image/svg+xml</dc:format>
        <dc:type
           rdf:resource="http://purl.org/dc/dcmitype/StillImage" />
        <dc:title></dc:title>
      </cc:Work>
    </rdf:RDF>
  </metadata>
  <g
     id="layer1"
     inkscape:groupmode="layer"
     inkscape:label="Layer 1">
    <path
       style="fill:#000000;stroke-width:0.25"
       d="m 63.5307,121.48959 c -1.11731,-0.25071 -2.00102,-0.93683 -2.56784,-1.99373 C 60.54173,118.71061 60.5,117.95399 60.5,111.10337 c 0,-7.39674 0.01,-7.54399 0.5625,-8.35591 0.96616,-1.41958 1.79756,-1.87246 3.4375,-1.87246 1.64433,0 2.47128,0.45268 3.44739,1.88713 0.57036,0.83818 0.57213,0.86867 0.5,8.60202 -0.0715,7.67006 -0.0792,7.7704 -0.6546,8.57712 -0.94088,1.31913 -2.59898,1.92148 -4.26209,1.54832 z M 25.25013,105.71914 c -0.80658,-0.32163 -1.70475,-1.1656 -2.14888,-2.01922 -0.45324,-0.87112 -0.45075,-2.78606 0.005,-3.64983 0.19579,-0.3713 2.64267,-2.942645 5.43749,-5.714102 5.59782,-5.551003 6.12243,-5.897173 8.12125,-5.358945 0.56099,0.15106 1.30165,0.496212 1.64591,0.767005 1.25926,0.990532 1.78096,3.070722 1.17301,4.677177 -0.39318,1.03896 -9.89685,10.536545 -11.10866,11.101545 -1.09905,0.51243 -2.16436,0.57938 -3.12487,0.19637 z M 100.625,105.53646 C 99.40743,104.9521 89.90245,95.441492 89.51634,94.421225 88.32481,91.2727 91.1929,88.065822 94.36512,88.999682 c 0.80895,0.238143 2.02093,1.29989 6.09139,5.336305 2.79482,2.771458 5.2417,5.342803 5.4375,5.714093 0.19579,0.3713 0.35599,1.22654 0.35599,1.90053 0,2.92144 -3.01056,4.84063 -5.625,3.58585 z M 60.25,91.576095 C 58.27739,91.242132 54.66777,90.118365 52.8866,89.283677 39.93837,83.215935 33.6059,68.338812 38.30103,55.01725 c 0.93038,-2.639775 1.4055,-3.593203 3.06715,-6.15481 5.46328,-8.422225 15.88949,-13.444828 25.69874,-12.379818 3.55692,0.386183 6.10105,1.104738 9.30808,2.628933 7.58806,3.606362 12.81117,9.973205 15.07002,18.370002 0.57272,2.128943 0.64387,2.86311 0.64387,6.643443 0,3.790262 -0.0703,4.511498 -0.64994,6.667385 C 88.49771,81.73198 79.77472,89.77734 69,91.488197 c -1.5612,0.247895 -7.45523,0.307106 -8.75,0.0879 z m 8.5,-8.210163 C 76.09256,81.663912 81.64745,76.308495 83.65102,69 84.34285,66.476415 84.29174,61.467965 83.54784,58.889147 81.55787,51.990612 76.22717,46.756255 69.375,44.972473 c -2.79329,-0.727163 -7.00511,-0.727978 -9.75,-0.002 -5.65771,1.49659 -10.20607,5.203853 -12.76496,10.404421 -1.395,2.835122 -1.85677,4.595977 -2.03507,7.760222 -0.53442,9.484503 5.89409,17.978635 15.30003,20.216275 2.01711,0.479865 6.58415,0.487508 8.625,0.01443 z M 9.97839,68.018155 C 8.01272,67.400917 6.86893,65.702067 7.06252,63.687292 7.20794,62.17389 7.82634,61.292562 9.25511,60.5625 10.32009,60.018322 10.58656,60 17.436,60 c 7.75573,0 8.09078,0.05237 9.42743,1.473547 0.62085,0.660118 0.75371,1.03322 0.8344,2.34329 0.0812,1.318015 0.006,1.690936 -0.48928,2.419645 -0.32189,0.473818 -0.97862,1.092568 -1.4594,1.375 -0.82069,0.48211 -1.30993,0.51646 -7.99915,0.561615 -3.91875,0.02645 -7.41597,-0.04327 -7.77161,-0.154942 z m 93.94256,-0.123125 c -1.96641,-0.716218 -2.7769,-2.011128 -2.61963,-4.185368 0.086,-1.189197 0.24184,-1.60502 0.83965,-2.240707 C 103.47263,60.052925 103.81213,60 111.564,60 c 6.84944,0 7.11591,0.01832 8.18089,0.5625 1.42876,0.730063 2.04717,1.61139 2.19259,3.124792 0.15129,1.574516 -0.55734,3.035643 -1.86721,3.850015 -0.92799,0.57695 -1.07552,0.588768 -8.07027,0.64645 -5.5754,0.04598 -7.33249,-0.01682 -8.07905,-0.288727 z M 33.625,38.777203 C 32.25084,37.91436 23.04755,28.419453 22.86276,27.673943 c -0.0956,-0.38558 -0.11831,-1.27822 -0.0505,-1.983645 0.10572,-1.100162 0.26618,-1.415914 1.12819,-2.219989 1.10677,-1.032383 2.27085,-1.37515 3.74708,-1.103332 0.79475,0.146337 1.73157,0.9595 6.15244,5.340323 2.86821,2.842235 5.37134,5.529713 5.5625,5.97217 0.77199,1.786855 0.10096,4.064123 -1.48667,5.045338 -1.11481,0.688989 -3.23568,0.714887 -4.29077,0.05239 z m 57.42651,-0.06293 c -1.56585,-1.00264 -2.21893,-3.26417 -1.45395,-5.034805 0.19116,-0.442458 2.69429,-3.129935 5.5625,-5.97217 4.42087,-4.380823 5.35769,-5.193986 6.15244,-5.340323 1.47623,-0.271818 2.64032,0.07095 3.74709,1.103332 0.862,0.804075 1.02247,1.119827 1.12818,2.219989 0.0678,0.705425 0.0447,1.5953 -0.0512,1.977502 -0.19367,0.771608 -9.79662,10.630603 -10.93669,11.228285 -1.02992,0.539937 -3.16755,0.446252 -4.14841,-0.18181 z M 62.8626,27.162191 c -0.87668,-0.397778 -2.04962,-1.698598 -2.24877,-2.493961 -0.0748,-0.298777 -0.1029,-3.938329 -0.0624,-8.087891 0.0836,-8.564159 0.0495,-8.417091 2.2037,-9.517841 1.38492,-0.707658 2.10487,-0.707658 3.48979,0 2.16208,1.104772 2.12033,0.919402 2.2025,9.778727 0.0722,7.779828 0.0705,7.808244 -0.5,8.646641 -0.31482,0.462637 -0.87339,1.064087 -1.24127,1.336555 -0.84398,0.625085 -2.82633,0.799295 -3.84352,0.33777 z"
       id="path5172"
       inkscape:connector-curvature="0" />
  </g>
</svg>
