<svg height="128" viewBox="0 0 128 128" width="128" xmlns="http://www.w3.org/2000/svg"><path d="m63.5307 121.48959c-1.11731-.25071-2.00102-.93683-2.56784-1.99373-.42113-.78525-.46286-1.54187-.46286-8.39249 0-7.39674.01-7.54399.5625-8.35591.96616-1.41958 1.79756-1.87246 3.4375-1.87246 1.64433 0 2.47128.45268 3.44739 1.88713.57036.83818.57213.86867.5 8.60202-.0715 7.67006-.0792 7.7704-.6546 8.57712-.94088 1.31913-2.59898 1.92148-4.26209 1.54832zm-38.28057-15.77045c-.80658-.32163-1.70475-1.1656-2.14888-2.01922-.45324-.87112-.45075-2.78606.005-3.64983.19579-.3713 2.64267-2.942645 5.43749-5.714102 5.59782-5.551003 6.12243-5.897173 8.12125-5.358945.56099.15106 1.30165.496212 1.64591.767005 1.25926.990532 1.78096 3.070722 1.17301 4.677177-.39318 1.03896-9.89685 10.536545-11.10866 11.101545-1.09905.51243-2.16436.57938-3.12487.19637zm75.37487-.18268c-1.21757-.58436-10.72255-10.094968-11.10866-11.115235-1.19153-3.148525 1.67656-6.355403 4.84878-5.421543.80895.238143 2.02093 1.29989 6.09139 5.336305 2.79482 2.771458 5.2417 5.342803 5.4375 5.714093.19579.3713.35599 1.22654.35599 1.90053 0 2.92144-3.01056 4.84063-5.625 3.58585zm-40.375-13.960365c-1.97261-.333963-5.58223-1.45773-7.3634-2.292418-12.94823-6.067742-19.2807-20.944865-14.58557-34.266427.93038-2.639775 1.4055-3.593203 3.06715-6.15481 5.46328-8.422225 15.88949-13.444828 25.69874-12.379818 3.55692.386183 6.10105 1.104738 9.30808 2.628933 7.58806 3.606362 12.81117 9.973205 15.07002 18.370002.57272 2.128943.64387 2.86311.64387 6.643443 0 3.790262-.0703 4.511498-.64994 6.667385-2.94124 10.939595-11.66423 18.984955-22.43895 20.695812-1.5612.247895-7.45523.307106-8.75.0879zm8.5-8.210163c7.34256-1.70202 12.89745-7.057437 14.90102-14.365932.69183-2.523585.64072-7.532035-.10318-10.110853-1.98997-6.898535-7.32067-12.132892-14.17284-13.916674-2.79329-.727163-7.00511-.727978-9.75-.002-5.65771 1.49659-10.20607 5.203853-12.76496 10.404421-1.395 2.835122-1.85677 4.595977-2.03507 7.760222-.53442 9.484503 5.89409 17.978635 15.30003 20.216275 2.01711.479865 6.58415.487508 8.625.01443zm-58.77161-15.347777c-1.96567-.617238-3.10946-2.316088-2.91587-4.330863.14542-1.513402.76382-2.39473 2.19259-3.124792 1.06498-.544178 1.33145-.5625 8.18089-.5625 7.75573 0 8.09078.05237 9.42743 1.473547.62085.660118.75371 1.03322.8344 2.34329.0812 1.318015.006 1.690936-.48928 2.419645-.32189.473818-.97862 1.092568-1.4594 1.375-.82069.48211-1.30993.51646-7.99915.561615-3.91875.02645-7.41597-.04327-7.77161-.154942zm93.94256-.123125c-1.96641-.716218-2.7769-2.011128-2.61963-4.185368.086-1.189197.24184-1.60502.83965-2.240707 1.33166-1.41603 1.67116-1.468955 9.42303-1.468955 6.84944 0 7.11591.01832 8.18089.5625 1.42876.730063 2.04717 1.61139 2.19259 3.124792.15129 1.574516-.55734 3.035643-1.86721 3.850015-.92799.57695-1.07552.588768-8.07027.64645-5.5754.04598-7.33249-.01682-8.07905-.288727zm-70.29595-29.117827c-1.37416-.862843-10.57745-10.35775-10.76224-11.10326-.0956-.38558-.11831-1.27822-.0505-1.983645.10572-1.100162.26618-1.415914 1.12819-2.219989 1.10677-1.032383 2.27085-1.37515 3.74708-1.103332.79475.146337 1.73157.9595 6.15244 5.340323 2.86821 2.842235 5.37134 5.529713 5.5625 5.97217.77199 1.786855.10096 4.064123-1.48667 5.045338-1.11481.688989-3.23568.714887-4.29077.05239zm57.42651-.06293c-1.56585-1.00264-2.21893-3.26417-1.45395-5.034805.19116-.442458 2.69429-3.129935 5.5625-5.97217 4.42087-4.380823 5.35769-5.193986 6.15244-5.340323 1.47623-.271818 2.64032.07095 3.74709 1.103332.862.804075 1.02247 1.119827 1.12818 2.219989.0678.705425.0447 1.5953-.0512 1.977502-.19367.771608-9.79662 10.630603-10.93669 11.228285-1.02992.539937-3.16755.446252-4.14841-.18181zm-28.18891-11.552082c-.87668-.397778-2.04962-1.698598-2.24877-2.493961-.0748-.298777-.1029-3.938329-.0624-8.087891.0836-8.564159.0495-8.417091 2.2037-9.517841 1.38492-.707658 2.10487-.707658 3.48979 0 2.16208 1.104772 2.12033.919402 2.2025 9.778727.0722 7.779828.0705 7.808244-.5 8.646641-.31482.462637-.87339 1.064087-1.24127 1.336555-.84398.625085-2.82633.799295-3.84352.33777z" stroke-width=".25"/></svg>