<?xml version="1.0" encoding="UTF-8" standalone="no"?>
<svg
   width="800px"
   height="800px"
   viewBox="0 0 800 800"
   fill="none"
   version="1.1"
   id="svg6"
   sodipodi:docname="textwithborder.svg"
   inkscape:version="1.1.2 (0a00cf5339, 2022-02-04)"
   xmlns:inkscape="http://www.inkscape.org/namespaces/inkscape"
   xmlns:sodipodi="http://sodipodi.sourceforge.net/DTD/sodipodi-0.dtd"
   xmlns="http://www.w3.org/2000/svg"
   xmlns:svg="http://www.w3.org/2000/svg">
  <defs
     id="defs10" />
  <sodipodi:namedview
     id="namedview8"
     pagecolor="#ffffff"
     bordercolor="#666666"
     borderopacity="1.0"
     inkscape:pageshadow="2"
     inkscape:pageopacity="0.0"
     inkscape:pagecheckerboard="0"
     showgrid="false"
     inkscape:zoom="1.09125"
     inkscape:cx="400"
     inkscape:cy="427.03322"
     inkscape:window-width="2560"
     inkscape:window-height="1403"
     inkscape:window-x="2560"
     inkscape:window-y="0"
     inkscape:window-maximized="1"
     inkscape:current-layer="svg6" />
  <rect
     x="0"
     y="0"
     width="800"
     height="800"
     fill-opacity="0"
     style="fill:#000000;stroke:#030104;stroke-width:80"
     id="rect2" />
  <path
     d="m 147.06683,147.06684 c 0,-16.43412 13.32273,-29.75685 29.75685,-29.75685 h 446.35264 c 16.4347,0 29.75685,13.32273 29.75685,29.75685 v 89.27052 c 0,16.43411 -13.32215,29.75685 -29.75685,29.75685 h -29.75684 c -16.43471,0 -29.75685,-13.32274 -29.75685,-29.75685 V 206.58052 H 444.63526 v 386.83896 h 59.51369 c 16.4347,0 29.75684,13.32213 29.75684,29.75685 v 29.75683 c 0,16.43472 -13.32214,29.75685 -29.75684,29.75685 h -208.2979 c -16.43412,0 -29.75685,-13.32213 -29.75685,-29.75685 v -29.75683 c 0,-16.43472 13.32273,-29.75685 29.75685,-29.75685 h 59.51368 V 206.58052 H 236.33736 v 29.75684 c 0,16.43411 -13.32273,29.75685 -29.75685,29.75685 h -29.75683 c -16.43412,0 -29.75685,-13.32274 -29.75685,-29.75685 z"
     fill="#000000"
     id="path4"
     style="stroke-width:29.7569" />
</svg>
