<svg height="48" width="48" xmlns="http://www.w3.org/2000/svg" xmlns:xlink="http://www.w3.org/1999/xlink"><linearGradient id="a"><stop offset="0" stop-color="#fff"/><stop offset="1" stop-color="#fff" stop-opacity="0"/></linearGradient><radialGradient id="b" cx="18.248" cy="15.716" gradientTransform="scale(.99999 1)" gradientUnits="userSpaceOnUse" r="29.993"><stop offset="0" stop-color="#d3e9ff"/><stop offset=".15517" stop-color="#d3e9ff"/><stop offset=".75" stop-color="#4074ae"/><stop offset="1" stop-color="#36486c"/></radialGradient><radialGradient id="c" cx="15.116" cy="63.965" gradientTransform="scale(1.644 .60828)" gradientUnits="userSpaceOnUse" r="12.289"><stop offset="0"/><stop offset="1" stop-opacity="0"/></radialGradient><radialGradient id="d" cx="15.601" cy="12.142" gradientTransform="scale(.99999 1)" gradientUnits="userSpaceOnUse" r="43.527"><stop offset="0" stop-color="#fff"/><stop offset="1" stop-color="#fff" stop-opacity=".16495"/></radialGradient><radialGradient id="e" cx="12.071" cy="12.493" gradientUnits="userSpaceOnUse" r="6.7175" xlink:href="#a"/><linearGradient id="f" gradientUnits="userSpaceOnUse" x1="-25.176" x2="-22.252" xlink:href="#a" y1="30.057" y2="21.042"/><linearGradient id="g" gradientUnits="userSpaceOnUse" x1="-25.176" x2="-22.114" xlink:href="#a" y1="30.057" y2="22.662"/><linearGradient id="h" gradientUnits="userSpaceOnUse" x1="-22.823" x2="-22.114" xlink:href="#a" y1="28.338" y2="22.662"/><linearGradient id="i" gradientUnits="userSpaceOnUse" x1="-21.659" x2="-21.962" xlink:href="#a" y1="15.649" y2="21.336"/><path d="m45.053 38.909a20.203 7.4751 0 1 1 -40.406 0 20.203 7.4751 0 1 1 40.406 0z" fill="url(#c)" transform="matrix(1 0 0 1.2432 0 -10.272)"/><path d="m43.96 23.485c0 10.71-8.682 19.392-19.39 19.392-10.71 0-19.391-8.682-19.391-19.392-.0003-10.709 8.681-19.39 19.391-19.39 10.708.0002 19.39 8.681 19.39 19.39z" fill="url(#b)" stroke="#39396c"/><g fill="#204a87" fill-opacity=".71345" transform="matrix(.98237 0 0 .98237 .12108 .23291)"><path d="m44.071 20.714-.545.618c-.334-.394-.709-.725-1.089-1.071l-.836.123-.764-.863v1.068l.654.495.436.494.582-.658c.146.274.291.548.436.823v.822l-.655.74-1.199.823-.908.907-.582-.661.291-.74-.582-.658-.981-2.098-.836-.945-.219.246.328 1.194.618.699c.352 1.017.701 1.99 1.164 2.963.718 0 1.394-.077 2.107-.166v.576l-.872 2.139-.8.904-.654 1.401v2.303l.219.906-.364.41-.8.494-.836.699.691.782-.945.824.182.533-1.418 1.606h-.945l-.8.494h-.509v-.659l-.217-1.318c-.281-.826-.574-1.647-.872-2.467 0-.605.036-1.205.072-1.81l.364-.823-.509-.988.037-1.357-.692-.782.346-1.13-.563-.639h-.982l-.327-.37-.981.618-.4-.454-.909.782c-.617-.7-1.235-1.399-1.854-2.098l-.726-1.729.654-.986-.363-.411.799-1.894c.656-.816 1.341-1.599 2.035-2.385l1.236-.329 1.381-.165.945.248 1.345 1.356.473-.534.653-.082 1.236.411h.946l.654-.576.291-.411-.655-.412-1.091-.082c-.303-.419-.584-.861-.944-1.234l-.364.164-.145 1.07-.655-.74-.144-.824-.727-.574h-.292l.728.822-.291.74-.581.164.363-.74-.655-.328-.581-.658-1.091.246-.145.328-.654.412-.363.906-.909.452-.4-.452h-.436v-1.482l.946-.494h.726l-.146-.575-.58-.576.98-.206.545-.617.436-.741h.801l-.219-.575.509-.329v.658l1.09.246 1.09-.904.073-.412.945-.658c-.342.043-.684.074-1.018.165v-.7414l.363-.8228h-.363l-.798.7402-.219.412.219.576-.365.987-.581-.329-.508-.576-.8.576-.291-1.316 1.381-.9052v-.4941l.872-.5757 1.381-.3296.946.3296 1.744.3291-.436.4932h-.945l.945.9877.727-.8227.221-.3618s2.787 2.4975 4.379 5.2305c1.593 2.733 2.341 5.955 2.341 6.609z"/><path d="m26.07 9.2363-.073.4932.51.3295.871-.5761-.436-.4937-.582.3296z"/><path d="m26.87 5.8633-1.89-.7407-2.18.2466-2.691.7402-.508.4941 1.671 1.1514v.6582l-.654.6582.873 1.7287.58-.33.729-1.1512c1.123-.3472 2.13-.7407 3.197-1.2344l.873-2.2212"/><path d="m28.833 12.775-.291-.741-.51.165.147.904z"/><path d="m29.123 12.609-.145.988.799-.165.581-.575-.508-.494c-.171-.455-.368-.88-.582-1.317h-.435v.494l.29.329z"/><path d="m18.365 28.242-.582-1.152-1.09-.247-.582-1.562-1.453.164-1.236-.904-1.309 1.151v.182c-.396-.115-.883-.13-1.235-.347l-.291-.822v-.906l-.8722.082c.0728-.576.145-1.151.2183-1.727h-.5093l-.5083.658-.5093.246-.7271-.41-.0728-.905.1455-.988 1.0908-.822h.8721l.145-.494 1.0903.246.8.988.145-1.646 1.382-1.152.508-1.234 1.018-.411.581-.822 1.309-.248.654-.987h-1.963l1.236-.576h.872l1.236-.412.146-.492-.437-.412-.509-.165.146-.494-.363-.74-.873.328.146-.657-1.018-.5765-.799 1.3975.072.494-.799.331-.51 1.069-.218-.987-1.381-.577-.218-.74 1.817-1.0701.8-.7402.073-.9048-.436-.2471-.582-.0825-.363.9053s-.608.1191-.764.1577c-1.996 1.8397-6.0294 5.8097-6.9664 13.306.0371.174.6792 1.182.6792 1.182l1.5264.904 1.5264.412.6544.824 1.018.74.581-.082.436.196v.133l-.581 1.563-.437.658.146.33-.363 1.233 1.308 2.386 1.308 1.153.582.822-.073 1.728.437.987-.437 1.892s-.034-.011.022.178c.056.19 2.329 1.451 2.473 1.344.144-.109.267-.205.267-.205l-.145-.41.581-.577.219-.576.945-.33.727-1.81-.218-.493.508-.74 1.09-.248.582-1.316-.145-1.645.872-1.234.145-1.235c-1.193-.591-2.376-1.201-3.561-1.81"/><path d="m16.766 9.5649.726.4941h.582v-.5761l-.726-.3291z"/><path d="m14.876 8.9072-.364.9048h.727l.364-.8228c.314-.2217.626-.4448.945-.6582l.727.2471c.484.3291.969.6582 1.454.9868l.727-.6577-.8-.3291-.364-.7407-1.381-.1646-.073-.4116-.654.165-.29.5758-.364-.7407-.145.3291.073.8228z"/><path d="m17.492 6.8496.364-.3286.727-.1646c.498-.2422.998-.4053 1.527-.5762l-.29-.4937-.939.1348-.443.4419-.731.106-.65.3052-.316.1528-.193.2583z"/><path d="m18.728 14.666.437-.658-.655-.493z"/></g><g fill="none"><path d="m42.975 23.486c0 10.165-8.241 18.406-18.406 18.406s-18.406-8.241-18.406-18.406c.0004-10.166 8.241-18.406 18.406-18.406 10.165-.0001 18.406 8.24 18.406 18.406z" opacity=".3956" stroke="url(#d)"/><g stroke-linecap="round" stroke-linejoin="round" stroke-width=".88164"><path d="m-2.8284 21.042a15.733 9.4576 0 1 1 -31.467 0 15.733 9.4576 0 1 1 31.467 0z" stroke="url(#f)" transform="matrix(1.131 .6131 -.47656 .87914 54.091 16.044)"/><path d="m-2.8284 21.042a15.733 9.4576 0 1 1 -31.467 0 15.733 9.4576 0 1 1 31.467 0z" stroke="url(#g)" transform="matrix(.93933 -.87909 .68331 .73013 32.314 -4.4516)"/></g></g><g fill-rule="evenodd" transform="matrix(-1.0458 .76725 .76725 1.0458 35.617 -22.144)"><path d="m18.789 12.493a6.7175 6.7175 0 1 1 -13.435 0 6.7175 6.7175 0 1 1 13.435 0z" fill="url(#e)" transform="translate(14.95 22.93)"/><path d="m18.789 12.493a6.7175 6.7175 0 1 1 -13.435 0 6.7175 6.7175 0 1 1 13.435 0z" fill="#fff" transform="matrix(.30827 0 0 .30827 23.3 31.572)"/></g><path d="m-2.8284 21.042a15.733 9.4576 0 1 1 -31.467 0 15.733 9.4576 0 1 1 31.467 0z" fill="none" stroke="url(#h)" stroke-linecap="round" stroke-linejoin="round" stroke-width=".88164" transform="matrix(-1.2803 -.12616 .098062 -.99518 -2.4051 40.524)"/><path d="m-2.8284 21.042a15.733 9.4576 0 1 1 -31.467 0 15.733 9.4576 0 1 1 31.467 0z" fill="none" stroke="url(#i)" stroke-linecap="round" stroke-linejoin="round" stroke-width=".90226" transform="matrix(.91787 -.85898 .6677 .71343 27.633 -6.9091)"/><g fill-rule="evenodd"><g transform="matrix(-.80628 .59154 .59154 .80628 12.386 -18.029)"><path d="m18.789 12.493a6.7175 6.7175 0 1 1 -13.435 0 6.7175 6.7175 0 1 1 13.435 0z" fill="url(#e)" transform="translate(14.95 22.93)"/><path d="m18.789 12.493a6.7175 6.7175 0 1 1 -13.435 0 6.7175 6.7175 0 1 1 13.435 0z" fill="#fff" transform="matrix(.30827 0 0 .30827 23.3 31.572)"/></g><g transform="matrix(-.80628 .59154 .59154 .80628 13.499 -31.5)"><path d="m18.789 12.493a6.7175 6.7175 0 1 1 -13.435 0 6.7175 6.7175 0 1 1 13.435 0z" fill="url(#e)" transform="translate(14.95 22.93)"/><path d="m18.789 12.493a6.7175 6.7175 0 1 1 -13.435 0 6.7175 6.7175 0 1 1 13.435 0z" fill="#fff" transform="matrix(.30827 0 0 .30827 23.3 31.572)"/></g><g transform="matrix(-.87023 .63857 .63846 .87038 25.205 -35.313)"><path d="m18.789 12.493a6.7175 6.7175 0 1 1 -13.435 0 6.7175 6.7175 0 1 1 13.435 0z" fill="url(#e)" transform="translate(14.95 22.93)"/><path d="m18.789 12.493a6.7175 6.7175 0 1 1 -13.435 0 6.7175 6.7175 0 1 1 13.435 0z" fill="#fff" transform="matrix(.30827 0 0 .30827 23.3 31.572)"/></g></g></svg>