<svg viewBox="0 0 392.598 392.598" xmlns="http://www.w3.org/2000/svg"><path d="m367.62 150.174-19.265 19.265-21.463-21.398 19.265-19.265c4.073-4.073 11.249-4.073 15.451 0l6.012 6.012c4.267 4.202 4.267 11.184 0 15.386z" fill="#56ace0"/><path d="m242.141 66.586c0-6.012-4.848-10.925-10.925-10.925h-198.464c-6.012 0-10.925 4.848-10.925 10.925v293.301c0 6.012 4.848 10.925 10.925 10.925h198.465c6.012 0 10.925-4.848 10.925-10.925" fill="#fff"/><path d="m43.677 100.978h176.614v248.048h-176.614z" fill="#ffc10d"/><g fill="#194f82"><path d="m194.626 148.17h-125.285c-6.012 0-10.925-4.848-10.925-10.925 0-6.012 4.848-10.925 10.925-10.925h125.285c6.012 0 10.925 4.848 10.925 10.925-.064 6.076-4.913 10.925-10.925 10.925z"/><path d="m194.626 207.257h-125.285c-6.012 0-10.925-4.848-10.925-10.925s4.848-10.925 10.925-10.925h125.285c6.012 0 10.925 4.848 10.925 10.925-.064 6.011-4.913 10.925-10.925 10.925z"/><path d="m383.006 119.337-6.012-6.012c-6.206-6.206-14.352-9.568-23.079-9.568s-16.937 3.426-23.079 9.568l-66.909 66.844v-113.583c0-18.036-14.675-32.711-32.711-32.711h-7.499v-22.95c0-6.012-4.848-10.925-10.925-10.925-6.012 0-10.925 4.848-10.925 10.925v22.885h-32.065v-22.885c0-6.012-4.848-10.925-10.925-10.925-6.012 0-10.925 4.848-10.925 10.925v22.885h-32.129v-22.885c-.001-6.012-4.849-10.925-10.926-10.925s-10.731 4.913-10.731 10.925v22.885h-32.13v-22.885c0-6.012-4.848-10.925-10.925-10.925s-10.925 4.848-10.925 10.925v22.885h-7.434c-18.037.065-32.712 14.675-32.712 32.776v293.301c0 18.036 14.675 32.711 32.711 32.711h198.465c18.036 0 32.711-14.675 32.711-32.711v-75.184l119.079-119.079c12.735-12.8 12.735-33.487-0-46.287zm-140.865 240.55c0 6.012-4.848 10.925-10.925 10.925h-198.464c-6.012 0-10.925-4.848-10.925-10.925v-293.301c0-6.012 4.848-10.925 10.925-10.925h7.499v22.885c0 6.012 4.848 10.925 10.925 10.925s10.925-4.848 10.925-10.925v-22.885h32.065v22.885c0 6.012 4.848 10.925 10.925 10.925s10.925-4.848 10.925-10.925v-22.885h32.065v22.885c0 6.012 4.848 10.925 10.925 10.925s10.925-4.848 10.925-10.925v-22.885h32.065v22.885c0 6.012 4.848 10.925 10.925 10.925 6.012 0 10.925-4.848 10.925-10.925v-22.885h7.499c6.012 0 10.925 4.848 10.925 10.925v135.37l-42.473 42.473h-130.456c-6.012 0-10.925 4.848-10.925 10.925 0 6.012 4.848 10.925 10.925 10.925h108.477l-6.335 6.335c-1.616 1.616-2.715 3.814-3.103 6.077l-3.685 24.76h-95.354c-6.012 0-10.925 4.848-10.925 10.925 0 6.012 4.848 10.925 10.925 10.925h92.574c.323 2.327 1.293 4.461 3.038 6.206 3.168 2.715 6.335 3.685 9.374 3.103l43.378-6.594c2.327-.323 4.396-1.422 6.077-3.103l18.36-18.36v53.334zm-31.288-52.881-25.277 3.814 3.814-25.277 122.117-122.117 21.398 21.398zm156.767-156.832-19.265 19.265-21.463-21.398 19.265-19.265c4.073-4.073 11.313-4.073 15.451 0l6.012 6.012c4.267 4.202 4.267 11.184 0 15.386z"/></g><path d="m332.905 184.824-21.398-21.398-122.182 122.053-3.749 25.277 25.277-3.75z" fill="#56ace0"/></svg>