<svg height="128" viewBox="0 0 128 128" width="128" xmlns="http://www.w3.org/2000/svg"><path d="m90.56581 123.26381c-6.559482-1.45483-12.673434-5.54761-16.361573-10.95271-5.858204-8.58538-5.832459-20.46189.06332-29.211589 2.561335-3.801182 6.292713-7.008566 10.485455-9.012992 3.976952-1.901261 6.092047-2.34129 11.228867-2.336077 4.039601.0041 4.670511.07351 6.933731.762797 8.96035 2.728975 15.72719 9.497769 18.21907 18.224321.85205 2.983911 1.05272 8.80398.41249 11.96366-1.98095 9.77639-8.90513 17.2599-18.62161 20.12586-3.433141 1.01263-8.893276 1.20556-12.359748.43673zm10.97102-4.31176c.91656-.25153 2.57338-.88501 3.68181-1.40775l2.01532-.95044-.47537-1.05446c-1.58473-3.51518-4.54851-6.82363-7.244301-8.08678-2.28652-1.07137-5.35178-1.06273-7.667506.0216-2.261873 1.05913-5.010299 3.90705-6.427621 6.66031-1.081206 2.10033-1.089969 2.14137-.545271 2.55381.9357.70851 4.33874 2.03525 6.386287 2.48981 2.459499.54602 7.899081.42633 10.276652-.22611zm-17.333645-10.60728c4.606068-5.79667 11.596574-7.52978 17.767525-4.405 2.94828 1.49292 6.02773 4.75338 7.79378 8.25192.44391.87939.92084 1.59889 1.05983 1.59889.61545 0 3.49718-3.97102 4.73662-6.52706 1.64163-3.38547 2.2241-5.89498 2.2241-9.582279 0-3.69042-.58308-6.199352-2.22695-9.58228-1.61709-3.327826-3.50627-5.689721-6.196-7.746384-3.79529-2.902014-7.62676-4.29983-12.434381-4.536379-10.389376-.511188-19.337192 6.015152-22.250658 16.229137-.875337 3.068741-.875337 8.203075 0 11.271815 1.028223 3.60473 2.813419 6.7891 5.271196 9.4026l.951956 1.01226.977576-1.84551c.537666-1.01503 1.584098-2.60881 2.325406-3.54173zm7.987982-8.95942c-2.008395-.80576-3.781159-2.229332-4.943195-3.969496-3.445335-5.15943-1.415897-12.242193 4.259293-14.864977 1.464461-.6768 2.039862-.784333 4.196874-.784333 2.16711 0 2.72968.106219 4.22797.798293 2.036481.940666 4.237311 3.120793 5.140871 5.092515.4953 1.08082.61168 1.852043.61992 4.108092.009 2.492976-.0697 2.940135-.76969 4.365515-1.0285 2.094436-2.89176 3.970311-4.85279 4.885651-2.109621.98469-5.901645 1.16215-7.879253.36874zm6.672312-4.564492c2.695551-1.783829 3.522861-4.860641 2.068441-7.69266-2.123621-4.135081-7.932678-4.358401-10.255811-.39427-1.819408 3.104586-.666427 7.007788 2.508652 8.492558 1.654588.773737 4.167848.594215 5.678718-.405628zm-83.477119 27.680562c-1.58506-.56165-3.573424-2.37951-4.477718-4.09375l-.750659-1.423v-50.688867-50.68887l.596925-1.291293c.761314-1.646906 2.380258-3.26585 4.136497-4.136497 1.368013-.6781853 1.432925-.6828413 9.926808-.7119983l8.549788-.02935.791157-1.247522c1.556357-2.4541201 2.988294-2.9988624 7.882964-2.9988624h3.609901l1.356973-1.2692894c3.618955-3.38510744 8.864034-3.80281294 12.949248-1.0312468.809734.5493535 1.69325 1.279792 1.963373 1.6231973.463158.5888089.727345.6298363 4.638199.7202925 3.948291.091322 4.209948.1328842 5.458983.8671068.827617.4864993 1.580715 1.2298551 2.040059 2.013667l.728142 1.242481 2.959392.02651c1.627665.01458 5.459116.04583 8.514336.06944 5.157963.03986 5.654189.08857 6.943681.6815673 1.7518.805603 3.30866 2.297918 4.25964 4.083065l.73981 1.388736.0763 26.348886c.0698 24.10191.0382 26.334284-.3699 26.177677-.24539-.09417-1.12336-.171209-1.95105-.171209h-1.504938v-25.207399c0-15.636499-.10338-25.56786-.272275-26.15677-.310127-1.081347-1.503499-2.45531-2.452958-2.824163-.481758-.187157-12.469518-.383137-16.231016-.265351-.442918.01387-.486149.428129-.487096 4.667487-.0011 5.353227-.196498 5.959092-2.27948 7.071351l-1.191322.636135-16.664835.08776c-18.022854.09491-18.975269.03462-20.199757-1.278736-1.240455-1.330478-1.325654-1.752579-1.325654-6.567685v-4.601088l-4.096772-.02651c-10.640127-.06885-12.361301.01758-13.335988.669686-.49874.333677-1.156274 1.117648-1.461188 1.742157-.548548 1.12351-.553624 1.657635-.481937 50.710522l.07245 49.575053.800418 1.04937c1.474079 1.93256-.416929 1.82367 31.670695 1.82367 20.617017 0 29.071204.0875 29.203956.30231.102761.16627 1.183345 1.04118 2.401295 1.94423l2.214456 1.64192-31.895549-.0219c-27.409633-.0188-32.058666-.0797-33.055356-.43288zm54.60629-100.773776c.432185-.223491.86343-.608672.958322-.855957.335655-.874703.175167-10.23776-.183485-10.704894-.718369-.9356483-1.528641-1.0869203-5.821952-1.0869203-4.601269 0-4.659685-.01624-5.740247-1.5959752-2.138995-3.1271222-7.421203-3.2828696-9.869273-.290998-.411716.5031719-.926159 1.1335832-1.143208 1.4009152-.345206.425178-.935927.486058-4.716228.486058-4.486416 0-5.67634.24763-6.065709 1.2623063-.300928.784206-.193401 10.122856.123373 10.714751.162749.304096.568954.662916.902679.797377.333727.134461 7.393487.252397 15.688355.262081 12.717872.01484 15.204737-.04608 15.867373-.388744zm-17.085147-7.765367c-2.941113-1.28056-2.678245-5.3696533.404561-6.2932849 1.984168-.594471 4.199747 1.1022576 4.199747 3.2162379 0 1.185913-.959773 2.60463-2.078189 3.071933-1.158045.483863-1.425318.484404-2.526119.0051zm-26.779053 82.069392v-10.53748l10.346085-.01458 10.346084-.01458-1.973652 1.93494-1.973655 1.934937-4.275658-.0046c-2.351614-.0025-5.306797.000556-6.567075.0069l-2.291415.01156v6.804807 6.804807h6.943681 6.943681v-.9107c0-.75219.314252-1.22216 1.805357-2.70002l1.805357-1.789303v4.505363 4.50537h-10.554395-10.554395zm29.168074 6.569591c-1.435104-.72612-1.37671-2.95681.09201-3.51522.362425-.13779 2.928648-.26406 5.702718-.2806 3.87646-.0231 5.069593.0522 5.155367.32555.06138.19558.190106 1.13677.286054 2.09153l.174453 1.73592-5.360424-.004c-3.744722-.003-5.56833-.10929-6.050182-.35309zm-21.310352-4.44532c-3.114983-3.114987-3.691514-3.823159-3.691514-4.53442 0-1.047832 1.000874-2.050719 2.046603-2.050719.586202 0 1.397291.617488 3.532081 2.688999l2.771146 2.688999 4.820481-4.792043c4.477824-4.451402 4.884929-4.785687 5.72709-4.702666 1.125965.111002 2.083137 1.263475 1.841917 2.21774-.09025.35701-2.769282 3.242574-5.953413 6.412364-4.869648 4.847716-5.917488 5.763256-6.596102 5.763256-.664905 0-1.455929-.64915-4.498289-3.69151zm21.019564-4.59188c-.787741-.637874-.853551-2.027477-.133691-2.822914.476964-.52704.846016-.559081 6.43977-.559081h5.933809l-.151739.624932c-.08346.343712-.245443 1.187369-.359966 1.874793l-.208227 1.249863-5.440152.07518c-4.960907.06856-5.496501.02956-6.079804-.442773zm-24.22502-13.318174-4.652266-.07615.000061-10.478242.000061-10.478242 10.346024-.08404 10.346023-.08404-1.94423 1.972353-1.944231 1.972355-6.52706-.0515-6.527061-.05151-.07429 6.84279-.07429 6.842789h6.948534 6.948533v-.910703c0-.752181.314252-1.222157 1.805357-2.700011l1.805357-1.789309v4.505368 4.505369l-4.096772.02873c-2.253224.0158-4.909182.04705-5.902129.06944-.992946.02239-3.898876.0064-6.457623-.03545zm3.205456-8.475938c-3.167588-3.167587-3.691514-3.815152-3.691514-4.56267 0-.970491 1.05304-2.022464 2.024514-2.022464.337513 0 1.677535 1.102073 3.364949 2.767435l2.804081 2.767437 4.878089-4.850541c4.223549-4.199694 4.994159-4.850539 5.743096-4.850539.969021 0 2.016315 1.057706 2.016315 2.036359 0 .374559-2.039123 2.619893-5.893597 6.489603-5.050567 5.070531-6.012378 5.916894-6.724008 5.916894-.695235 0-1.431334-.600923-4.521925-3.691514zm20.798658 3.048682c-.754662-.803301-.775532-1.963018-.04841-2.690135.526447-.526448.925823-.555494 7.638049-.555494s7.111601.02905 7.638049.555494c.308608.308608.555495.925823.555495 1.388736s-.246887 1.080129-.555495 1.388736c-.52625.526251-.925823.555495-7.589635.555495-6.993584 0-7.037621-.0037-7.638049-.642832zm.213812-7.646304c-.780703-.632175-.843301-2.025219-.126597-2.817168.491224-.542796.834583-.55908 11.788749-.55908 12.754467 0 12.517379-.03682 12.517379 1.944231 0 1.979257.223223 1.94423-12.390782 1.94423-10.428126 0-11.197475-.03343-11.788749-.512213zm-28.870192-23.651796v-10.554395l2.013667-.000833c1.107517-.000556 5.729015-.03167 10.269996-.06944l8.256326-.06867-1.860693 1.874794-1.86069 1.874794h-6.603946-6.603946v6.804807 6.804807h6.943681 6.943681v-.910703c0-.752181.314252-1.222157 1.805357-2.700011l1.805357-1.789309v4.644242 4.644242h-10.554395-10.554395v-10.554395zm7.857722 1.863431c-4.043547-4.043547-4.322491-4.59067-3.009769-5.90339 1.143888-1.14389 1.672799-.909563 4.707718 2.08569l2.804081 2.767438 4.878089-4.850542c3.930776-3.908573 5.025472-4.850539 5.637008-4.850539.923334 0 2.122403 1.122163 2.122403 1.986279 0 .43976-1.73206 2.361699-5.893597 6.539684-5.050567 5.070531-6.012378 5.916894-6.724008 5.916894-.695235 0-1.431334-.600923-4.521925-3.691514zm20.750244 3.136019c-.749271-.74927-.709881-1.98011.08734-2.729058.624884-.587047.838161-.603909 7.63805-.603909 6.624888 0 7.024624.02941 7.550711.555495.308608.308608.555495.925823.555495 1.388736s-.246887 1.080128-.555495 1.388736c-.526448.526448-.925823.555495-7.638049.555495s-7.111602-.02905-7.638049-.555495zm.262226-7.733641c-.427791-.346404-.632555-.809961-.632555-1.432018 0-.622056.204764-1.085614.632555-1.432017.591402-.478889 1.362362-.512213 11.850548-.512213 10.847665 0 11.236331.01833 11.773489.555494.778353.778354.745179 2.335366-.0618 2.900598-.533825.373906-2.125786.432369-11.773486.432369-10.428126 0-11.197475-.03343-11.788749-.512213z" stroke-width=".277747"/></svg>