<?xml version="1.0" encoding="UTF-8" standalone="no"?>
<!-- Created with Inkscape (http://www.inkscape.org/) -->

<svg
   xmlns:dc="http://purl.org/dc/elements/1.1/"
   xmlns:cc="http://creativecommons.org/ns#"
   xmlns:rdf="http://www.w3.org/1999/02/22-rdf-syntax-ns#"
   xmlns:svg="http://www.w3.org/2000/svg"
   xmlns="http://www.w3.org/2000/svg"
   xmlns:sodipodi="http://sodipodi.sourceforge.net/DTD/sodipodi-0.dtd"
   xmlns:inkscape="http://www.inkscape.org/namespaces/inkscape"
   width="128px"
   height="128px"
   viewBox="0 0 128 128"
   version="1.1"
   id="SVGRoot"
   inkscape:version="0.92.5 (2060ec1f9f, 2020-04-08)"
   sodipodi:docname="userlisticon.svg">
  <defs
     id="defs815" />
  <sodipodi:namedview
     id="base"
     pagecolor="#ffffff"
     bordercolor="#666666"
     borderopacity="1.0"
     inkscape:pageopacity="0.0"
     inkscape:pageshadow="2"
     inkscape:zoom="2.8284271"
     inkscape:cx="24.221699"
     inkscape:cy="28.752219"
     inkscape:document-units="px"
     inkscape:current-layer="layer1"
     showgrid="false"
     inkscape:window-width="1920"
     inkscape:window-height="1043"
     inkscape:window-x="2560"
     inkscape:window-y="144"
     inkscape:window-maximized="1"
     inkscape:grid-bbox="true" />
  <metadata
     id="metadata818">
    <rdf:RDF>
      <cc:Work
         rdf:about="">
        <dc:format>image/svg+xml</dc:format>
        <dc:type
           rdf:resource="http://purl.org/dc/dcmitype/StillImage" />
        <dc:title></dc:title>
      </cc:Work>
    </rdf:RDF>
  </metadata>
  <g
     inkscape:label="Layer 1"
     inkscape:groupmode="layer"
     id="layer1">
    <path
       style="fill:#000000;stroke-width:0.27774724"
       d="m 90.56581,123.26381 c -6.559482,-1.45483 -12.673434,-5.54761 -16.361573,-10.95271 -5.858204,-8.58538 -5.832459,-20.46189 0.06332,-29.211589 2.561335,-3.801182 6.292713,-7.008566 10.485455,-9.012992 3.976952,-1.901261 6.092047,-2.34129 11.228867,-2.336077 4.039601,0.0041 4.670511,0.07351 6.933731,0.762797 8.96035,2.728975 15.72719,9.497769 18.21907,18.224321 0.85205,2.983911 1.05272,8.80398 0.41249,11.96366 -1.98095,9.77639 -8.90513,17.2599 -18.62161,20.12586 -3.433141,1.01263 -8.893276,1.20556 -12.359748,0.43673 z m 10.97102,-4.31176 c 0.91656,-0.25153 2.57338,-0.88501 3.68181,-1.40775 l 2.01532,-0.95044 -0.47537,-1.05446 c -1.58473,-3.51518 -4.54851,-6.82363 -7.244301,-8.08678 -2.28652,-1.07137 -5.35178,-1.06273 -7.667506,0.0216 -2.261873,1.05913 -5.010299,3.90705 -6.427621,6.66031 -1.081206,2.10033 -1.089969,2.14137 -0.545271,2.55381 0.9357,0.70851 4.33874,2.03525 6.386287,2.48981 2.459499,0.54602 7.899081,0.42633 10.276652,-0.22611 z M 84.203185,108.34477 c 4.606068,-5.79667 11.596574,-7.52978 17.767525,-4.405 2.94828,1.49292 6.02773,4.75338 7.79378,8.25192 0.44391,0.87939 0.92084,1.59889 1.05983,1.59889 0.61545,0 3.49718,-3.97102 4.73662,-6.52706 1.64163,-3.38547 2.2241,-5.89498 2.2241,-9.582279 0,-3.69042 -0.58308,-6.199352 -2.22695,-9.58228 -1.61709,-3.327826 -3.50627,-5.689721 -6.196,-7.746384 -3.79529,-2.902014 -7.62676,-4.29983 -12.434381,-4.536379 -10.389376,-0.511188 -19.337192,6.015152 -22.250658,16.229137 -0.875337,3.068741 -0.875337,8.203075 0,11.271815 1.028223,3.60473 2.813419,6.7891 5.271196,9.4026 l 0.951956,1.01226 0.977576,-1.84551 c 0.537666,-1.01503 1.584098,-2.60881 2.325406,-3.54173 z m 7.987982,-8.95942 c -2.008395,-0.80576 -3.781159,-2.229332 -4.943195,-3.969496 -3.445335,-5.15943 -1.415897,-12.242193 4.259293,-14.864977 1.464461,-0.6768 2.039862,-0.784333 4.196874,-0.784333 2.16711,0 2.72968,0.106219 4.22797,0.798293 2.036481,0.940666 4.237311,3.120793 5.140871,5.092515 0.4953,1.08082 0.61168,1.852043 0.61992,4.108092 0.009,2.492976 -0.0697,2.940135 -0.76969,4.365515 -1.0285,2.094436 -2.89176,3.970311 -4.85279,4.885651 -2.109621,0.98469 -5.901645,1.16215 -7.879253,0.36874 z m 6.672312,-4.564492 c 2.695551,-1.783829 3.522861,-4.860641 2.068441,-7.69266 -2.123621,-4.135081 -7.932678,-4.358401 -10.255811,-0.39427 -1.819408,3.104586 -0.666427,7.007788 2.508652,8.492558 1.654588,0.773737 4.167848,0.594215 5.678718,-0.405628 z M 15.38636,122.50142 c -1.58506,-0.56165 -3.573424,-2.37951 -4.477718,-4.09375 l -0.750659,-1.423 V 66.295803 15.606933 l 0.596925,-1.291293 c 0.761314,-1.646906 2.380258,-3.26585 4.136497,-4.136497 1.368013,-0.6781853 1.432925,-0.6828413 9.926808,-0.7119983 l 8.549788,-0.02935 0.791157,-1.247522 c 1.556357,-2.4541201 2.988294,-2.9988624 7.882964,-2.9988624 h 3.609901 l 1.356973,-1.2692894 c 3.618955,-3.38510744 8.864034,-3.80281294 12.949248,-1.0312468 0.809734,0.5493535 1.69325,1.279792 1.963373,1.6231973 0.463158,0.5888089 0.727345,0.6298363 4.638199,0.7202925 3.948291,0.091322 4.209948,0.1328842 5.458983,0.8671068 0.827617,0.4864993 1.580715,1.2298551 2.040059,2.013667 l 0.728142,1.242481 2.959392,0.02651 c 1.627665,0.01458 5.459116,0.04583 8.514336,0.06944 5.157963,0.03986 5.654189,0.08857 6.943681,0.6815673 1.7518,0.805603 3.30866,2.297918 4.25964,4.083065 l 0.73981,1.388736 0.0763,26.348886 c 0.0698,24.10191 0.0382,26.334284 -0.3699,26.177677 -0.24539,-0.09417 -1.12336,-0.171209 -1.95105,-0.171209 H 94.454271 V 42.754892 c 0,-15.636499 -0.10338,-25.56786 -0.272275,-26.15677 -0.310127,-1.081347 -1.503499,-2.45531 -2.452958,-2.824163 -0.481758,-0.187157 -12.469518,-0.383137 -16.231016,-0.265351 -0.442918,0.01387 -0.486149,0.428129 -0.487096,4.667487 -0.0011,5.353227 -0.196498,5.959092 -2.27948,7.071351 l -1.191322,0.636135 -16.664835,0.08776 C 36.852435,26.066251 35.90002,26.005961 34.675532,24.692605 33.435077,23.362127 33.349878,22.940026 33.349878,18.12492 v -4.601088 l -4.096772,-0.02651 c -10.640127,-0.06885 -12.361301,0.01758 -13.335988,0.669686 -0.49874,0.333677 -1.156274,1.117648 -1.461188,1.742157 -0.548548,1.12351 -0.553624,1.657635 -0.481937,50.710522 l 0.07245,49.575053 0.800418,1.04937 c 1.474079,1.93256 -0.416929,1.82367 31.670695,1.82367 20.617017,0 29.071204,0.0875 29.203956,0.30231 0.102761,0.16627 1.183345,1.04118 2.401295,1.94423 l 2.214456,1.64192 -31.895549,-0.0219 c -27.409633,-0.0188 -32.058666,-0.0797 -33.055356,-0.43288 z M 69.99265,21.727644 c 0.432185,-0.223491 0.86343,-0.608672 0.958322,-0.855957 0.335655,-0.874703 0.175167,-10.23776 -0.183485,-10.704894 -0.718369,-0.9356483 -1.528641,-1.0869203 -5.821952,-1.0869203 -4.601269,0 -4.659685,-0.01624 -5.740247,-1.5959752 -2.138995,-3.1271222 -7.421203,-3.2828696 -9.869273,-0.290998 -0.411716,0.5031719 -0.926159,1.1335832 -1.143208,1.4009152 -0.345206,0.425178 -0.935927,0.486058 -4.716228,0.486058 -4.486416,0 -5.67634,0.24763 -6.065709,1.2623063 -0.300928,0.784206 -0.193401,10.122856 0.123373,10.714751 0.162749,0.304096 0.568954,0.662916 0.902679,0.797377 0.333727,0.134461 7.393487,0.252397 15.688355,0.262081 12.717872,0.01484 15.204737,-0.04608 15.867373,-0.388744 z M 52.907503,13.962277 c -2.941113,-1.28056 -2.678245,-5.3696533 0.404561,-6.2932849 1.984168,-0.594471 4.199747,1.1022576 4.199747,3.2162379 0,1.185913 -0.959773,2.60463 -2.078189,3.071933 -1.158045,0.483863 -1.425318,0.484404 -2.526119,0.0051 z M 26.12845,96.031669 v -10.53748 l 10.346085,-0.01458 10.346084,-0.01458 -1.973652,1.93494 -1.973655,1.934937 -4.275658,-0.0046 c -2.351614,-0.0025 -5.306797,5.56e-4 -6.567075,0.0069 l -2.291415,0.01156 v 6.804807 6.804807 h 6.943681 6.943681 v -0.9107 c 0,-0.75219 0.314252,-1.22216 1.805357,-2.70002 l 1.805357,-1.789303 v 4.505363 4.50537 H 36.682845 26.12845 Z m 29.168074,6.569591 c -1.435104,-0.72612 -1.37671,-2.95681 0.09201,-3.51522 0.362425,-0.13779 2.928648,-0.26406 5.702718,-0.2806 3.87646,-0.0231 5.069593,0.0522 5.155367,0.32555 0.06138,0.19558 0.190106,1.13677 0.286054,2.09153 l 0.174453,1.73592 -5.360424,-0.004 c -3.744722,-0.003 -5.56833,-0.10929 -6.050182,-0.35309 z M 33.986172,98.15594 c -3.114983,-3.114987 -3.691514,-3.823159 -3.691514,-4.53442 0,-1.047832 1.000874,-2.050719 2.046603,-2.050719 0.586202,0 1.397291,0.617488 3.532081,2.688999 l 2.771146,2.688999 4.820481,-4.792043 c 4.477824,-4.451402 4.884929,-4.785687 5.72709,-4.702666 1.125965,0.111002 2.083137,1.263475 1.841917,2.21774 -0.09025,0.35701 -2.769282,3.242574 -5.953413,6.412364 -4.869648,4.847716 -5.917488,5.763256 -6.596102,5.763256 -0.664905,0 -1.455929,-0.64915 -4.498289,-3.69151 z m 21.019564,-4.59188 c -0.787741,-0.637874 -0.853551,-2.027477 -0.133691,-2.822914 0.476964,-0.52704 0.846016,-0.559081 6.43977,-0.559081 h 5.933809 l -0.151739,0.624932 c -0.08346,0.343712 -0.245443,1.187369 -0.359966,1.874793 l -0.208227,1.249863 -5.440152,0.07518 c -4.960907,0.06856 -5.496501,0.02956 -6.079804,-0.442773 z m -24.22502,-13.318174 -4.652266,-0.07615 6.1e-5,-10.478242 6.1e-5,-10.478242 10.346024,-0.08404 10.346023,-0.08404 -1.94423,1.972353 -1.944231,1.972355 -6.52706,-0.0515 -6.527061,-0.05151 -0.07429,6.84279 -0.07429,6.842789 h 6.948534 6.948533 v -0.910703 c 0,-0.752181 0.314252,-1.222157 1.805357,-2.700011 l 1.805357,-1.789309 v 4.505368 4.505369 l -4.096772,0.02873 c -2.253224,0.0158 -4.909182,0.04705 -5.902129,0.06944 -0.992946,0.02239 -3.898876,0.0064 -6.457623,-0.03545 z m 3.205456,-8.475938 c -3.167588,-3.167587 -3.691514,-3.815152 -3.691514,-4.56267 0,-0.970491 1.05304,-2.022464 2.024514,-2.022464 0.337513,0 1.677535,1.102073 3.364949,2.767435 l 2.804081,2.767437 4.878089,-4.850541 c 4.223549,-4.199694 4.994159,-4.850539 5.743096,-4.850539 0.969021,0 2.016315,1.057706 2.016315,2.036359 0,0.374559 -2.039123,2.619893 -5.893597,6.489603 -5.050567,5.070531 -6.012378,5.916894 -6.724008,5.916894 -0.695235,0 -1.431334,-0.600923 -4.521925,-3.691514 z M 54.78483,74.81863 c -0.754662,-0.803301 -0.775532,-1.963018 -0.04841,-2.690135 0.526447,-0.526448 0.925823,-0.555494 7.638049,-0.555494 6.712226,0 7.111601,0.02905 7.638049,0.555494 0.308608,0.308608 0.555495,0.925823 0.555495,1.388736 0,0.462913 -0.246887,1.080129 -0.555495,1.388736 -0.52625,0.526251 -0.925823,0.555495 -7.589635,0.555495 -6.993584,0 -7.037621,-0.0037 -7.638049,-0.642832 z m 0.213812,-7.646304 c -0.780703,-0.632175 -0.843301,-2.025219 -0.126597,-2.817168 0.491224,-0.542796 0.834583,-0.55908 11.788749,-0.55908 12.754467,0 12.517379,-0.03682 12.517379,1.944231 0,1.979257 0.223223,1.94423 -12.390782,1.94423 -10.428126,0 -11.197475,-0.03343 -11.788749,-0.512213 z M 26.12845,43.52053 V 32.966135 l 2.013667,-8.33e-4 c 1.107517,-5.56e-4 5.729015,-0.03167 10.269996,-0.06944 l 8.256326,-0.06867 -1.860693,1.874794 -1.86069,1.874794 H 36.34311 29.739164 v 6.804807 6.804807 h 6.943681 6.943681 v -0.910703 c 0,-0.752181 0.314252,-1.222157 1.805357,-2.700011 l 1.805357,-1.789309 v 4.644242 4.644242 H 36.682845 26.12845 V 43.52046 Z m 7.857722,1.863431 c -4.043547,-4.043547 -4.322491,-4.59067 -3.009769,-5.90339 1.143888,-1.14389 1.672799,-0.909563 4.707718,2.08569 l 2.804081,2.767438 4.878089,-4.850542 c 3.930776,-3.908573 5.025472,-4.850539 5.637008,-4.850539 0.923334,0 2.122403,1.122163 2.122403,1.986279 0,0.43976 -1.73206,2.361699 -5.893597,6.539684 -5.050567,5.070531 -6.012378,5.916894 -6.724008,5.916894 -0.695235,0 -1.431334,-0.600923 -4.521925,-3.691514 z m 20.750244,3.136019 c -0.749271,-0.74927 -0.709881,-1.98011 0.08734,-2.729058 0.624884,-0.587047 0.838161,-0.603909 7.63805,-0.603909 6.624888,0 7.024624,0.02941 7.550711,0.555495 0.308608,0.308608 0.555495,0.925823 0.555495,1.388736 0,0.462913 -0.246887,1.080128 -0.555495,1.388736 -0.526448,0.526448 -0.925823,0.555495 -7.638049,0.555495 -6.712226,0 -7.111602,-0.02905 -7.638049,-0.555495 z m 0.262226,-7.733641 c -0.427791,-0.346404 -0.632555,-0.809961 -0.632555,-1.432018 0,-0.622056 0.204764,-1.085614 0.632555,-1.432017 0.591402,-0.478889 1.362362,-0.512213 11.850548,-0.512213 10.847665,0 11.236331,0.01833 11.773489,0.555494 0.778353,0.778354 0.745179,2.335366 -0.0618,2.900598 -0.533825,0.373906 -2.125786,0.432369 -11.773486,0.432369 -10.428126,0 -11.197475,-0.03343 -11.788749,-0.512213 z"
       id="path1382"
       inkscape:connector-curvature="0" />
  </g>
</svg>
