<svg height="800" viewBox="0 0 16 16" width="800" xmlns="http://www.w3.org/2000/svg"><g fill="#2e3436"><path d="m5.5 0c-.277344 0-.5.222656-.5.5v1c0 .277344.222656.5.5.5h5c.277344 0 .5-.222656.5-.5v-1c0-.277344-.222656-.5-.5-.5zm0 3c-.277344 0-.5.222656-.5.5v1c0 .277344.222656.5.5.5h5c.277344 0 .5-.222656.5-.5v-1c0-.277344-.222656-.5-.5-.5zm0 8c-.277344 0-.5.222656-.5.5v1c0 .277344.222656.5.5.5h5c.277344 0 .5-.222656.5-.5v-1c0-.277344-.222656-.5-.5-.5zm0 3c-.277344 0-.5.222656-.5.5v1c0 .277344.222656.5.5.5h5c.277344 0 .5-.222656.5-.5v-1c0-.277344-.222656-.5-.5-.5zm0 0" fill-opacity=".34902"/><path d="m15 7h-14v2h14zm0 0"/></g></svg>