<?xml version="1.0" encoding="UTF-8" standalone="no"?>
<!-- Generator: Adobe Illustrator 18.1.1, SVG Export Plug-In . SVG Version: 6.00 Build 0)  -->

<svg
   xmlns:dc="http://purl.org/dc/elements/1.1/"
   xmlns:cc="http://creativecommons.org/ns#"
   xmlns:rdf="http://www.w3.org/1999/02/22-rdf-syntax-ns#"
   xmlns:svg="http://www.w3.org/2000/svg"
   xmlns="http://www.w3.org/2000/svg"
   xmlns:xlink="http://www.w3.org/1999/xlink"
   xmlns:sodipodi="http://sodipodi.sourceforge.net/DTD/sodipodi-0.dtd"
   xmlns:inkscape="http://www.inkscape.org/namespaces/inkscape"
   version="1.1"
   id="Capa_1"
   x="0px"
   y="0px"
   viewBox="0 0 20.697 20.697"
   style="enable-background:new 0 0 20.697 20.697;"
   xml:space="preserve"
   sodipodi:docname="redo_white.svg"
   inkscape:version="0.92.3 (2405546, 2018-03-11)"><metadata
   id="metadata45"><rdf:RDF><cc:Work
       rdf:about=""><dc:format>image/svg+xml</dc:format><dc:type
         rdf:resource="http://purl.org/dc/dcmitype/StillImage" /><dc:title></dc:title></cc:Work></rdf:RDF></metadata><defs
   id="defs43"><linearGradient
     inkscape:collect="always"
     id="linearGradient856"><stop
       style="stop-color:#000000;stop-opacity:1;"
       offset="0"
       id="stop852" /><stop
       style="stop-color:#000000;stop-opacity:0;"
       offset="1"
       id="stop854" /></linearGradient><linearGradient
     inkscape:collect="always"
     xlink:href="#linearGradient856"
     id="linearGradient858"
     x1="0"
     y1="10.34809"
     x2="20.697"
     y2="10.34809"
     gradientUnits="userSpaceOnUse" /></defs><sodipodi:namedview
   pagecolor="#ffffff"
   bordercolor="#666666"
   borderopacity="1"
   objecttolerance="10"
   gridtolerance="10"
   guidetolerance="10"
   inkscape:pageopacity="0"
   inkscape:pageshadow="2"
   inkscape:window-width="1920"
   inkscape:window-height="1052"
   id="namedview41"
   showgrid="false"
   inkscape:zoom="11.402618"
   inkscape:cx="10.3485"
   inkscape:cy="10.3485"
   inkscape:window-x="2560"
   inkscape:window-y="240"
   inkscape:window-maximized="1"
   inkscape:current-layer="Capa_1" />
<g
   id="g8"
   style="fill-opacity:1;fill:#fffffd">
	<g
   id="g6"
   style="fill-opacity:1;fill:#fffffd">
		<g
   id="g4"
   style="fill-opacity:1;fill:#fffffd">
			<path
   style="fill:#fffffd;fill-opacity:1"
   d="M0.358,16.978C0.148,16.934,0,16.752,0,16.542c0-7.253,8.61-8.798,10.61-9.059V4.155     c0-0.164,0.09-0.314,0.235-0.393c0.147-0.076,0.321-0.065,0.456,0.024l9.202,6.194c0.121,0.082,0.194,0.218,0.194,0.369     c0,0.147-0.073,0.284-0.194,0.366l-9.197,6.193c-0.137,0.09-0.313,0.1-0.457,0.023c-0.146-0.078-0.236-0.229-0.236-0.394v-3.58     c-1.447,0.009-2.645,0.073-3.642,0.193c-4.785,0.567-6.064,3.44-6.116,3.563l0,0c-0.071,0.165-0.233,0.271-0.41,0.271     C0.415,16.986,0.385,16.984,0.358,16.978z"
   id="path2" />
		</g>
	</g>
</g>
<g
   id="g10">
</g>
<g
   id="g12">
</g>
<g
   id="g14">
</g>
<g
   id="g16">
</g>
<g
   id="g18">
</g>
<g
   id="g20">
</g>
<g
   id="g22">
</g>
<g
   id="g24">
</g>
<g
   id="g26">
</g>
<g
   id="g28">
</g>
<g
   id="g30">
</g>
<g
   id="g32">
</g>
<g
   id="g34">
</g>
<g
   id="g36">
</g>
<g
   id="g38">
</g>
</svg>