<?xml version="1.0" encoding="UTF-8" standalone="no"?>
<!-- Created with Inkscape (http://www.inkscape.org/) -->

<svg
   width="256.0px"
   height="256.0px"
   viewBox="0 0 256.0 256.0"
   version="1.1"
   id="SVGRoot"
   sodipodi:docname="gm_icon.svg"
   inkscape:version="1.1.2 (0a00cf5339, 2022-02-04)"
   xmlns:inkscape="http://www.inkscape.org/namespaces/inkscape"
   xmlns:sodipodi="http://sodipodi.sourceforge.net/DTD/sodipodi-0.dtd"
   xmlns="http://www.w3.org/2000/svg"
   xmlns:svg="http://www.w3.org/2000/svg">
  <sodipodi:namedview
     id="namedview829"
     pagecolor="#ffffff"
     bordercolor="#666666"
     borderopacity="1.0"
     inkscape:pageshadow="2"
     inkscape:pageopacity="0.0"
     inkscape:pagecheckerboard="0"
     inkscape:document-units="px"
     showgrid="true"
     inkscape:zoom="2.8284271"
     inkscape:cx="171.82695"
     inkscape:cy="156.9777"
     inkscape:window-width="2560"
     inkscape:window-height="1403"
     inkscape:window-x="2560"
     inkscape:window-y="0"
     inkscape:window-maximized="1"
     inkscape:current-layer="layer1">
    <inkscape:grid
       type="xygrid"
       id="grid892" />
  </sodipodi:namedview>
  <defs
     id="defs824" />
  <g
     inkscape:label="Layer 1"
     inkscape:groupmode="layer"
     id="layer1">
    <rect
       style="fill:#0000ff;fill-rule:evenodd;stroke:#000000;stroke-width:12.5054;stroke-linecap:butt;stroke-linejoin:round;stroke-miterlimit:4;stroke-dasharray:none;stroke-opacity:1"
       id="rect1150"
       width="243.49977"
       height="243.49979"
       x="6.2533269"
       y="6.2544813" />
    <rect
       style="fill:#ffffff;fill-opacity:1;fill-rule:evenodd;stroke:none;stroke-width:0.832956px;stroke-linecap:butt;stroke-linejoin:miter;stroke-opacity:1"
       id="rect4909"
       width="230"
       height="200"
       x="15"
       y="30" />
    <path
       style="fill:#000000;stroke-width:1.35049"
       d="M 5,127.49846 C 5,86.664614 5,45.830769 5,4.9969231 c 81.666667,0 163.33333,0 245,0 C 250,86.664615 250,168.33231 250,250 168.33333,250 86.666667,250 5,250 5,209.16615 5,168.33231 5,127.49846 Z m 136.77967,92.2006 c 17.43529,-2.36993 35.257,-3.19067 52.27877,-7.73706 8.75452,-9.84773 12.5134,-23.19228 18.53599,-34.79269 8.97023,-20.2095 18.57286,-40.20115 26.26921,-60.93304 C 235.98143,104.70457 225.44138,96.866803 219.03941,87.156224 203.90846,68.618023 189.19646,49.681433 173.13863,31.937 161.75789,27.712527 149.08497,32.252019 137.24407,32.674854 111.58175,36.095023 85.516845,37.677187 60.249328,43.364144 49.822776,58.739565 43.532795,76.615887 35.507925,93.353663 28.902549,108.59736 21.717683,123.64456 16.117862,139.29006 c 3.72415,11.37052 13.476831,19.5504 20.18495,29.23641 14.528826,18.00838 28.751903,36.29525 43.984651,53.71439 9.485248,6.93817 21.559677,0.81447 32.174087,0.82146 9.77158,-1.13093 19.54448,-2.25038 29.31812,-3.36326 z M 86.75765,211.02223 C 68.455663,188.40204 49.528313,166.20244 32.591135,142.53336 27.63433,132.12133 38.928733,121.58391 41.350272,111.35777 50.319029,92.262204 57.539936,72.12432 68.742324,54.207836 c 10.718618,-3.327121 22.596585,-3.394233 33.774366,-5.277993 20.50957,-1.979089 40.95573,-6.046901 61.58596,-5.983266 10.44562,4.986929 15.55036,17.280968 23.63176,25.417944 12.06056,15.752316 25.93349,30.301935 36.28541,47.258389 -0.40839,10.27758 -7.70895,19.64308 -10.95282,29.47951 -8.14284,18.04529 -15.62633,36.44575 -24.64539,54.06039 -8.81209,6.72836 -21.99596,4.08625 -32.59981,6.80057 -21.37126,2.55472 -42.72097,5.37427 -64.154341,7.35167 -1.85038,-0.15735 -3.604728,-0.99495 -4.909809,-2.29282 z m 60.92701,-12.81445 c 7.0038,-2.0516 32.97365,0.91703 19.82506,-11.1684 -7.60559,-11.98663 -19.59905,-1.2729 -28.81801,2.64052 -4.11443,3.09686 -20.83503,8.63135 -16.82335,11.60327 8.59931,-1.07279 17.20168,-2.12718 25.8163,-3.07539 z m -28.73952,-8.70618 c 7.8684,-5.91824 23.43643,-8.79022 26.42231,-17.48509 -21.09986,-9.52271 -42.73714,-18.07286 -64.655232,-25.52048 -3.684577,8.6776 5.014743,22.03815 6.213253,32.20649 2.820955,9.35746 5.068723,29.13879 18.552319,17.60254 4.53071,-2.18425 9.01385,-4.46619 13.46735,-6.80346 z m 68.80371,-9.92361 c 6.12086,-13.31411 12.30724,-26.62185 17.70569,-40.24581 -11.91812,9.59758 -24.07024,19.38404 -33.97819,31.10006 -2.2188,7.4879 12.93401,25.7989 16.2725,9.14575 z m -109.67433,3.27545 c -4.443197,-12.60143 -6.034217,-26.39795 -12.620887,-38.11327 -6.253286,-5.70336 -26.943801,-2.81945 -14.366971,7.20298 8.609475,11.13276 16.831607,22.87547 27.052257,32.55205 l 0.285499,-0.3552 z m 75.82493,-24.89336 c -2.0035,-22.15864 -4.70647,-44.34556 -8.81257,-66.207759 -9.32877,-1.807724 -18.47951,11.252899 -27.39023,15.778059 -11.60284,8.84899 -23.755547,17.13953 -34.460592,27.05719 8.857027,7.83998 22.000472,10.2976 32.713052,15.50846 11.80112,4.5686 23.49199,9.51195 35.56367,13.31949 2.95739,0.35089 2.18953,-3.87859 2.38667,-5.45544 z m 35.98971,-18.47265 c 5.06437,-7.41755 22.69038,-15.85512 17.93177,-24.01274 -16.24849,-9.2683 -32.81162,-18.716651 -50.50311,-24.802327 -3.51767,10.526827 2.51397,24.103447 2.58182,35.790107 2.41805,10.59821 0.76758,24.6532 6.51669,32.85286 9.02134,-4.71108 15.80987,-13.26289 23.47283,-19.8279 z M 62.685505,130.83981 c 4.094763,-11.08448 1.36082,-23.79775 2.062278,-35.512508 0.05336,-5.39595 -0.04628,-16.498032 -3.699242,-5.583045 -5.708893,13.437243 -13.46328,26.315933 -16.796249,40.575143 2.353817,6.14105 13.727379,1.95583 18.433213,0.52041 z m 44.588945,-26.81062 c 9.49515,-7.072586 19.30326,-13.797412 28.27351,-21.527666 -9.04604,-7.530057 -23.96433,-8.183281 -35.31969,-12.651762 -9.18691,-2.19686 -27.94659,-11.964384 -25.324796,5.638694 -0.335691,15.94114 -0.805271,31.973174 0.626824,47.861114 10.007784,-0.11928 18.398416,-11.38915 27.507692,-16.25617 1.41418,-1.0186 2.82631,-2.04004 4.23646,-3.06421 z M 184.6595,78.473872 c -6.85854,-5.538352 -17.71838,-31.042524 -23.9602,-13.324801 -10.33907,13.46308 8.59658,18.378128 17.36438,23.871705 6.22631,2.549388 20.03374,12.284054 21.78663,9.175389 -4.84207,-6.740496 -10.03244,-13.223538 -15.19081,-19.722293 z m -38.21656,-7.660623 c 6.80096,-6.90898 12.28985,-24.355813 -4.04437,-17.940224 -14.73407,1.765991 -29.58783,3.088307 -44.131528,6.060356 13.079958,5.403066 27.083238,8.73152 40.730848,12.466921 2.46914,0.297256 5.1294,0.596977 7.44505,-0.587053 z"
       id="path929" />
  </g>
</svg>
