<?xml version="1.0" encoding="UTF-8" standalone="no"?>
<!-- Created with Inkscape (http://www.inkscape.org/) -->

<svg
   xmlns:dc="http://purl.org/dc/elements/1.1/"
   xmlns:cc="http://creativecommons.org/ns#"
   xmlns:rdf="http://www.w3.org/1999/02/22-rdf-syntax-ns#"
   xmlns:svg="http://www.w3.org/2000/svg"
   xmlns="http://www.w3.org/2000/svg"
   xmlns:sodipodi="http://sodipodi.sourceforge.net/DTD/sodipodi-0.dtd"
   xmlns:inkscape="http://www.inkscape.org/namespaces/inkscape"
   width="128px"
   height="128px"
   viewBox="0 0 128 128"
   version="1.1"
   id="SVGRoot"
   inkscape:version="0.92.5 (2060ec1f9f, 2020-04-08)"
   sodipodi:docname="spacing.svg">
  <defs
     id="defs1366" />
  <sodipodi:namedview
     id="base"
     pagecolor="#ffffff"
     bordercolor="#666666"
     borderopacity="1.0"
     inkscape:pageopacity="0.0"
     inkscape:pageshadow="2"
     inkscape:zoom="5.6568542"
     inkscape:cx="46.277393"
     inkscape:cy="68.811686"
     inkscape:document-units="px"
     inkscape:current-layer="layer1"
     showgrid="false"
     inkscape:window-width="2518"
     inkscape:window-height="1376"
     inkscape:window-x="0"
     inkscape:window-y="27"
     inkscape:window-maximized="1"
     inkscape:grid-bbox="true" />
  <metadata
     id="metadata1369">
    <rdf:RDF>
      <cc:Work
         rdf:about="">
        <dc:format>image/svg+xml</dc:format>
        <dc:type
           rdf:resource="http://purl.org/dc/dcmitype/StillImage" />
        <dc:title></dc:title>
      </cc:Work>
    </rdf:RDF>
  </metadata>
  <g
     inkscape:label="Layer 1"
     inkscape:groupmode="layer"
     id="layer1">
    <path
       style="fill:#000000;stroke-width:0.10642692"
       d="m 101.98541,127.41876 c -0.61148,-0.321 -1.1085,-0.74819 -1.6019,-1.37681 l -0.431197,-0.54938 -12.659308,-4.27681 -12.65931,-4.27683 -0.285892,0.19707 c -0.596403,0.41111 -1.658146,0.8274 -2.401388,0.94154 -2.284982,0.35092 -4.432681,-0.76098 -5.826874,-3.01666 -0.09709,-0.15707 -2.347469,-0.0234 -25.648889,1.52356 -14.048354,0.93266 -25.546813,1.69707 -25.552133,1.69869 -0.0053,0.002 -0.06879,0.26713 -0.141054,0.59003 -0.484614,2.16548 -2.4749,4.11405 -4.679431,4.58134 -2.1185745,0.44906 -4.0324615,-0.13321 -5.604246,-1.70498 -1.57128,-1.57129 -2.1540301,-3.48579 -1.7053353,-5.60254 0.3553035,-1.67617 1.6535755,-3.37298 3.1728758,-4.14686 0.705462,-0.35935 0.717998,-0.37315 0.718597,-0.79143 0.0016,-1.13544 0.316812,-23.095535 0.37424,-26.074597 l 0.065651,-3.405661 -0.565744,-0.261296 C 5.7330035,81.087918 4.3745283,79.696117 3.9303088,78.779007 2.7886316,76.421967 3.1890148,73.74079 4.9638341,71.857977 6.1988015,70.547865 7.5049225,69.957908 9.2836025,69.906796 L 10.343911,69.876326 15.91049,55.581262 21.477068,41.286199 21.182582,41.07509 c -0.161965,-0.11611 -0.606885,-0.523193 -0.988709,-0.904629 -1.869084,-1.867186 -2.317393,-4.59505 -1.150941,-7.003238 0.484113,-0.99947 1.798885,-2.315239 2.777478,-2.779582 0.940444,-0.44624 2.068404,-0.681256 2.974698,-0.619792 l 0.714203,0.04844 9.92849,-10.27576 C 40.89847,13.888859 45.714568,8.8948254 46.140239,8.4426744 l 0.773948,-0.822094 -0.26842,-0.799611 C 46.182253,5.4401844 46.331108,3.9029496 47.046543,2.6821522 47.441838,2.0076324 48.411547,1.14293 49.170146,0.78850646 c 2.632109,-1.2297424 5.693311,0.042591 6.725134,2.79518014 l 0.249633,0.6659438 13.490257,2.878934 13.490255,2.8789336 0.915841,-0.9231926 c 0.755775,-0.761841 1.073948,-0.998043 1.82047,-1.35146 1.151033,-0.544918 1.837393,-0.704288 3.033167,-0.704288 1.197173,0 1.883524,0.159668 3.033168,0.705615 1.273627,0.604825 2.474523,1.800671 3.083412,3.0704436 1.23715,2.579953 0.90942,5.285188 -0.905916,7.477733 l -0.603874,0.729354 0.420315,0.441342 c 1.212305,1.272952 14.672222,15.164441 15.500782,15.99778 l 0.97035,0.975947 0.74498,-0.198218 c 2.63186,-0.70025 5.49264,0.583202 6.68121,2.997419 0.48372,0.982546 0.60348,1.506129 0.60517,2.645575 0.002,1.617839 -0.46348,2.783975 -1.59032,3.980734 l -0.71115,0.755264 2.79806,16.496174 c 1.53894,9.072895 2.79996,16.550708 2.80229,16.617362 0.002,0.06665 0.18382,0.153969 0.40332,0.194033 0.65472,0.119497 1.87309,0.760771 2.47841,1.304484 1.49784,1.345382 2.1767,3.514938 1.70773,5.457685 -0.47138,1.952675 -2.03169,3.551894 -4.00026,4.100007 l -0.63819,0.177692 -6.25408,15.501407 -6.25408,15.50142 0.001,0.96513 c 0.003,1.92384 -0.7322,3.31926 -2.27657,4.32105 l -0.62845,0.40766 -1.92579,-0.005 c -1.74489,-0.004 -1.96578,-0.0257 -2.3515,-0.22818 z m -2.185167,-6.32943 c 0.312427,-0.7063 0.898877,-1.43642 1.532407,-1.90785 0.30048,-0.2236 0.55451,-0.40898 0.56451,-0.41196 0.01,-0.003 -1.982457,-6.90167 -4.427697,-15.33044 l -4.445879,-15.325033 -0.744228,-0.0675 c -0.845289,-0.07668 -1.798959,-0.331219 -2.411238,-0.64358 -0.338741,-0.172813 -0.433777,-0.185922 -0.507762,-0.07004 -0.05006,0.07841 -3.059622,5.148318 -6.687912,11.266465 l -6.596888,11.123898 0.277129,0.6861 c 0.387515,0.95939 0.523251,1.93895 0.38542,2.78143 -0.06106,0.3732 -0.10034,0.69074 -0.0873,0.70564 0.04637,0.053 22.676208,7.67871 22.801988,7.68373 0.0704,0.003 0.22678,-0.21807 0.34745,-0.49086 z m 12.608707,-16.55827 5.72436,-14.180721 -0.30197,-0.213517 c -0.66344,-0.469113 -1.51223,-1.359533 -1.85441,-1.945376 l -0.36135,-0.61865 -7.87936,-2.432818 c -4.33364,-1.338051 -7.932817,-2.452164 -7.998187,-2.475809 -0.0658,-0.02381 -0.20064,0.208963 -0.30218,0.521693 -0.47444,1.461213 -1.52578,2.847746 -2.80879,3.704275 l -0.23913,0.159641 4.501567,15.613222 4.50157,15.61323 0.53213,0.20588 c 0.29268,0.11323 0.58372,0.21123 0.64676,0.21778 0.063,0.006 2.69058,-6.36943 5.83899,-14.16883 z m -72.683286,8.59112 c 13.87275,-0.91015 25.375634,-1.67868 25.561967,-1.70783 0.279016,-0.0437 0.361213,-0.1228 0.465908,-0.44861 0.06992,-0.21759 0.247873,-0.64575 0.395456,-0.95147 l 0.268332,-0.55587 -1.222628,-1.3066 C 64.522253,107.43316 59.337103,101.8644 53.672145,95.776782 44.561293,85.986175 43.339885,84.711945 43.092133,84.739219 c -0.154049,0.01696 -0.806902,0.03745 -1.450784,0.04553 -1.011711,0.01269 -1.265848,-0.02134 -1.871348,-0.25065 L 39.06935,84.268759 26.785916,99.163872 c -6.755888,8.192308 -12.34757,14.986368 -12.425959,15.097908 -0.140024,0.19924 -0.104025,0.51075 0.05937,0.51372 0.04574,0.001 11.433591,-0.74317 25.306341,-1.65332 z M 24.19299,97.293372 c 6.716939,-8.150975 12.255867,-14.87594 12.308729,-14.94437 0.06158,-0.07972 -0.01546,-0.34738 -0.214424,-0.744989 -0.170795,-0.341313 -0.367347,-0.795992 -0.436782,-1.010398 -0.116586,-0.36 -0.16453,-0.394708 -0.62658,-0.453596 -0.275184,-0.03507 -4.714841,-0.493113 -9.865904,-1.017869 -5.151063,-0.524757 -9.533192,-0.975281 -9.738064,-1.001168 -0.368422,-0.04655 -0.376386,-0.03894 -0.728476,0.696214 -0.655828,1.369346 -1.985001,2.519845 -3.500329,3.029799 -0.371694,0.125087 -0.702374,0.253997 -0.734844,0.286466 -0.05202,0.05202 -0.481629,29.261249 -0.430913,29.298069 0.011,0.008 0.259464,0.0945 0.552138,0.19236 0.292674,0.0978 0.651864,0.24624 0.798201,0.32986 0.146337,0.0836 0.297245,0.15372 0.33535,0.1558 0.03811,0.002 5.56496,-6.66521 12.281898,-14.816178 z M 80.1557,96.089912 86.816426,84.85571 86.510805,84.249913 c -0.168092,-0.333188 -0.367025,-0.821311 -0.442073,-1.084718 -0.07505,-0.263407 -0.166211,-0.514359 -0.202584,-0.557673 -0.07554,-0.08996 -37.222706,-2.658933 -37.774863,-2.612386 -0.320441,0.02701 -0.375732,0.0787 -0.487994,0.456172 -0.155912,0.524245 -0.515376,1.235913 -0.92993,1.841082 -0.269043,0.39275 -0.29335,0.482697 -0.171682,0.635275 0.111389,0.139689 21.43707,23.060635 22.386335,24.060945 l 0.237104,0.24985 0.760788,-0.1849 c 0.87837,-0.2135 2.239531,-0.16967 2.938532,0.0946 0.234139,0.0885 0.480794,0.16432 0.548123,0.16844 0.06733,0.004 3.11974,-5.04789 6.783139,-11.226688 z m 35.38856,-12.555306 c 0.29416,-0.996214 1.35877,-2.325199 2.30855,-2.88181 0.30772,-0.180333 0.4335,-0.319066 0.40314,-0.444654 -0.0243,-0.100398 -1.2669,-7.436558 -2.7614,-16.302579 -1.49449,-8.866021 -2.72688,-16.124692 -2.73864,-16.130379 -0.0118,-0.0057 -0.40452,-0.09766 -0.8728,-0.204376 -0.46828,-0.106719 -0.92325,-0.214769 -1.01105,-0.240111 -0.0878,-0.02534 -0.0574,0.01709 0.0676,0.09431 0.22173,0.136963 0.0525,0.476248 -6.94435,13.919727 -3.94439,7.578638 -7.171617,13.810768 -7.171617,13.849179 0,0.03841 0.2611,0.292903 0.58022,0.56554 0.69439,0.593233 1.55538,1.843242 1.87681,2.724814 l 0.23292,0.638797 0.863377,0.265016 c 0.47486,0.145758 3.97637,1.244083 7.78113,2.440719 3.80476,1.196638 6.99111,2.17843 7.08076,2.18176 0.1036,0.0038 0.21489,-0.169641 0.30533,-0.47595 z M 86.237143,78.473641 c 0.09881,-0.297499 0.388152,-0.851821 0.642975,-1.231829 l 0.463315,-0.690924 -9.961465,-12.843132 c -5.478805,-7.063723 -9.978507,-12.862795 -9.99934,-12.886827 -0.02083,-0.02403 -0.409333,0.129061 -0.863336,0.340208 -1.537285,0.71496 -3.435685,0.891094 -4.9947,0.46341 l -0.550728,-0.151081 -7.24363,11.650177 -7.243629,11.650176 0.419284,0.695185 c 0.230607,0.382352 0.434996,0.742314 0.454196,0.799916 0.02702,0.08107 36.372383,2.674826 38.30685,2.733733 0.377988,0.01151 0.396327,-0.0055 0.570208,-0.529012 z M 35.972448,76.481894 c 0.263793,-0.742726 0.918616,-1.695176 1.614501,-2.348318 0.554565,-0.520501 0.59909,-0.59536 0.506396,-0.851415 -0.184106,-0.50857 -12.670988,-31.22212 -12.709169,-31.260302 -0.02053,-0.02053 -0.211525,-0.0091 -0.424437,0.0255 -0.33221,0.05391 -0.412055,0.125142 -0.562979,0.502247 -0.09673,0.241686 -2.640865,6.77585 -5.653639,14.520366 l -5.477772,14.080936 0.633535,0.677252 c 0.648011,0.692725 1.339808,1.905285 1.463655,2.565447 0.03779,0.201418 0.123138,0.401605 0.189671,0.44486 0.09931,0.06456 19.095878,2.101789 19.971217,2.141749 0.22737,0.01038 0.295006,-0.06468 0.449021,-0.498319 z m 54.83814,-2.213738 c 0.292674,-0.09225 1.000548,-0.199488 1.573053,-0.238309 l 1.040919,-0.07058 7.38368,-14.14803 7.38369,-14.148031 -0.24461,-0.326031 c -0.13454,-0.179318 -0.3914,-0.619718 -0.57082,-0.978667 l -0.32622,-0.652635 -0.45711,0.04368 c -0.25141,0.02402 -8.215627,0.519486 -17.698267,1.101025 -9.482639,0.58154 -17.431517,1.071084 -17.664172,1.087876 -0.403144,0.0291 -0.431927,0.05553 -0.612813,0.562666 -0.104391,0.292674 -0.315757,0.802924 -0.469704,1.133888 l -0.279902,0.601753 10.142415,13.100712 c 5.578328,7.205394 10.170611,13.100196 10.205071,13.099563 0.03446,-6.39e-4 0.302116,-0.07663 0.59479,-0.16888 z M 50.900491,61.653488 c 3.863297,-6.211513 7.085782,-11.40797 7.161077,-11.547682 0.126562,-0.234841 0.09316,-0.308202 -0.44229,-0.971512 -0.67262,-0.83323 -1.25633,-1.944202 -1.486767,-2.829755 -0.08906,-0.342258 -0.183522,-0.643877 -0.20991,-0.670266 -0.02639,-0.02639 -5.824541,-1.666139 -12.884784,-3.64389 l -12.836804,-3.59591 -0.332709,0.589528 c -0.182989,0.324239 -0.595944,0.865501 -0.917676,1.202804 -0.420566,0.440919 -0.565974,0.666631 -0.517387,0.803122 0.03717,0.104415 2.924804,7.235437 6.416965,15.846714 l 6.349385,15.656869 0.85944,0.06227 c 0.472693,0.03425 1.051009,0.133181 1.285148,0.219851 0.23414,0.08667 0.449654,0.160719 0.478921,0.164551 0.02927,0.0038 3.214094,-5.075178 7.077391,-11.286692 z M 89.054544,41.652567 c 9.687509,-0.590636 17.679306,-1.107586 17.759566,-1.148776 0.0803,-0.04119 0.25369,-0.37254 0.38542,-0.736333 0.13172,-0.363793 0.29876,-0.732847 0.37119,-0.820121 0.16311,-0.196527 0.84981,0.545259 -9.223967,-9.963831 l -8.002165,-8.347952 -1.157807,0.03963 c -1.377776,0.04716 -2.149152,-0.115713 -3.325045,-0.70206 -0.439011,-0.218909 -0.830293,-0.412704 -0.869515,-0.430656 -0.0552,-0.02526 -15.002983,19.727379 -15.330646,20.258575 -0.04206,0.06819 0.08853,0.430252 0.290208,0.804574 0.20168,0.374321 0.469995,0.991883 0.596258,1.372359 0.291412,0.878138 0.248348,0.821571 0.595486,0.782202 0.163549,-0.01855 8.223506,-0.516972 17.911017,-1.10761 z M 56.374237,41.52081 c 0.34488,-1.036363 0.942707,-1.96881 1.822158,-2.84207 l 0.803861,-0.798202 -4.23025,-13.873966 c -2.326639,-7.63068 -4.24487,-13.88698 -4.262737,-13.902887 -0.01787,-0.01591 -0.176953,-0.05981 -0.353523,-0.09757 -0.309995,-0.06628 -0.674975,0.287888 -10.61077,10.296497 -5.659354,5.700828 -10.4162,10.515439 -10.570772,10.699135 l -0.281037,0.333994 0.467227,0.519669 c 0.574473,0.638952 1.074793,1.559412 1.312652,2.414942 l 0.179642,0.64614 12.679148,3.62491 c 6.973531,1.993701 12.711162,3.630426 12.750291,3.637167 0.03913,0.0067 0.171478,-0.289252 0.29411,-0.657762 z M 73.632292,28.781036 c 3.64301,-4.829121 7.16816,-9.504844 7.833669,-10.390493 l 1.210016,-1.610272 -0.275451,-0.820552 c -0.161078,-0.479843 -0.301677,-1.192181 -0.338612,-1.715569 -0.03474,-0.49226 -0.07149,-0.895018 -0.08166,-0.895018 -0.01017,0 -5.975626,-1.269265 -13.256564,-2.820591 C 56.51007,7.9262264 55.477652,7.7223844 55.382647,7.8944754 c -0.05664,0.102588 -0.390286,0.486697 -0.741444,0.853574 l -0.63847,0.66705 4.152404,13.6473716 4.152404,13.647371 1.161011,0.06455 c 1.219839,0.06782 2.118184,0.256059 2.917057,0.611251 0.263406,0.117115 0.511346,0.20454 0.550975,0.194277 0.03963,-0.01026 3.052699,-3.969758 6.695708,-8.79888 z"
       id="path1933"
       inkscape:connector-curvature="0" />
  </g>
</svg>
